# https://github.com/mikedh/trimesh
v 0.53383565 0.00000000 0.09958471
v 0.53383565 0.18255425 0.10788344
v 0.53383565 0.18461539 0.11618217
v 0.53383565 -0.18461539 0.11618217
v 0.53383565 -0.17973866 0.10484590
v 0.53383565 -0.18461539 0.71576512
v 0.53383565 0.18461539 0.71576512
v 0.53383569 0.18039353 0.73234179
v 0.53383569 -0.18039007 0.73235314
v -0.46616430 0.42307693 0.00000000
v 0.46611645 -0.43274429 -0.00000015
v 0.46616512 0.42349134 0.00000123
v -0.39444672 -0.50000000 0.00000000
v -0.46614086 -0.45774719 0.00000000
v 0.41941333 -0.49998869 0.00000000
v 0.41413299 0.49997316 0.00000001
v -0.42829333 0.49996533 0.00000002
v 0.42189186 -0.49414459 0.06638981
v 0.44515871 -0.47746976 0.06638981
v 0.46070513 -0.45251412 0.06638981
v -0.39444672 0.50000000 0.06638981
v -0.39444672 -0.50000000 0.06638981
v -0.44515871 -0.47746976 0.06638981
v -0.46070513 -0.45251412 0.06638981
v -0.46616430 -0.42307693 0.06638981
v 0.42189186 0.49414459 0.06638981
v 0.39444672 0.50000000 0.06638981
v 0.39444672 -0.50000000 0.06638981
v 0.46070513 0.45251412 0.06638981
v 0.44515871 0.47746976 0.06638981
v -0.46616430 0.42307693 0.06638981
v -0.46070513 0.45251412 0.06638981
v -0.44515871 0.47746976 0.06638981
v -0.42189186 -0.49414459 0.06638981
v -0.42189186 0.49414459 0.06638981
v 0.46070513 0.45251412 0.00000000
v 0.42625924 0.25535502 0.99999648
v 0.42625924 -0.25535502 0.99999648
v 0.44775825 0.23050027 0.99999981
v -0.44200951 -0.23846154 0.99999648
v -0.42625924 -0.25535502 0.99999648
v -0.44777453 -0.21538463 0.99999648
v -0.44777453 0.21538463 0.99999648
v -0.44200951 0.23846154 0.99999648
v -0.42625924 0.25535502 0.99999648
v -0.20736176 0.37786386 0.99999648
v -0.14196354 0.41117280 0.99999648
v 0.20736176 -0.37786386 0.99999648
v -0.20736176 -0.37786386 0.99999648
v -0.14196354 -0.41117280 0.99999648
v -0.07211266 -0.43158544 0.99999648
v -0.00000000 -0.43846155 0.99999648
v 0.07211266 -0.43158544 0.99999648
v 0.14196354 -0.41117280 0.99999648
v 0.20736176 0.37786386 0.99999648
v 0.14196354 0.41117280 0.99999648
v 0.07211266 0.43158544 0.99999648
v 0.00000000 0.43846155 0.99999648
v -0.07211266 0.43158544 0.99999648
v 0.44775227 -0.23050915 0.99999943
vn 0.92823700 0.00044103 -0.37198907
vn 0.94924383 0.08765440 -0.30208089
vn 0.98729280 0.15783378 -0.01847790
vn 0.98658284 -0.16001035 -0.03241892
vn 0.94289718 -0.07049201 -0.32553922
vn 0.93836565 -0.33312591 0.09217941
vn 0.93838217 0.33308647 0.09215373
vn 0.93698871 0.28188935 0.20637479
vn 0.93698827 -0.28188045 0.20638893
vn -0.67182997 0.14706434 -0.72595907
vn 0.61917571 -0.27212341 -0.73659371
vn 0.55655280 0.10604241 -0.82401699
vn -0.13677746 -0.69790078 -0.70301239
vn -0.65055663 -0.37678114 -0.65940280
vn 0.29163619 -0.69262350 -0.65971283
vn 0.23817122 0.70185599 -0.67132156
vn -0.35220839 0.68418823 -0.63862016
vn 0.36952939 -0.91774798 0.14555642
vn 0.68773988 -0.72261596 0.06957032
vn 0.87662240 -0.48091354 0.01597918
vn -0.08701766 0.99240601 0.08693808
vn -0.10269881 -0.99247855 0.06662796
vn -0.64910322 -0.75266797 0.11025397
vn -0.84958662 -0.50590291 0.14921399
vn -0.99903632 -0.03498417 0.02650530
vn 0.37524396 0.91844707 0.12508777
vn 0.09297451 0.99239184 0.08071044
vn 0.09062513 -0.99237626 0.08352508
vn 0.88326172 0.46616630 0.05037568
vn 0.67000152 0.73735549 0.08605140
vn -0.99322069 0.11266843 0.02860934
vn -0.90410496 0.42613987 0.03160751
vn -0.68955858 0.71385859 0.12212647
vn -0.37827300 -0.92320683 0.06781361
vn -0.35957199 0.91614323 0.17717101
vn 0.60184379 0.35798766 -0.71388296
vn 0.37169712 0.50535606 0.77875317
vn 0.37167946 -0.50534890 0.77876625
vn 0.56682699 0.28086773 0.77448078
vn -0.57621004 -0.32830615 0.74846313
vn -0.35870309 -0.50905921 0.78242624
vn -0.65992065 -0.07846233 0.74722714
vn -0.66011262 0.07887663 0.74701392
vn -0.57676097 0.32817507 0.74809619
vn -0.35870321 0.50905935 0.78242609
vn -0.24751081 0.53573612 0.80729500
vn -0.19375139 0.58990865 0.78388021
vn 0.24752878 -0.53577777 0.80726184
vn -0.24751068 -0.53573584 0.80729522
vn -0.19375127 -0.58990837 0.78388045
vn -0.09401212 -0.64031136 0.76234053
vn -0.00000041 -0.66239524 0.74915455
vn 0.09401176 -0.64031471 0.76233776
vn 0.19375299 -0.58991791 0.78387284
vn 0.24753122 0.53578340 0.80725736
vn 0.19375334 0.58991942 0.78387162
vn 0.09401182 0.64031551 0.76233708
vn -0.00000047 0.66239576 0.74915409
vn -0.09401222 0.64031173 0.76234021
vn 0.56681573 -0.28088767 0.77448179
f 16//16 11//11 10//10
f 10//10 11//11 14//14
f 14//14 11//11 13//13
f 10//10 14//14 25//25
f 25//25 14//14 42//42
f 34//34 14//14 13//13
f 9//9 2//2 8//8
f 14//14 34//34 23//23
f 22//22 34//34 13//13
f 13//13 28//28 22//22
f 13//13 11//11 15//15
f 15//15 28//28 13//13
f 4//4 5//5 9//9
f 11//11 5//5 4//4
f 11//11 16//16 36//36
f 36//36 12//12 11//11
f 2//2 12//12 36//36
f 1//1 12//12 2//2
f 1//1 2//2 9//9
f 9//9 5//5 1//1
f 1//1 5//5 11//11
f 11//11 12//12 1//1
f 31//31 32//32 10//10
f 10//10 25//25 31//31
f 10//10 32//32 17//17
f 17//17 16//16 10//10
f 17//17 21//21 16//16
f 14//14 23//23 24//24
f 41//41 23//23 34//34
f 53//53 60//60 52//52
f 52//52 28//28 53//53
f 52//52 22//22 28//28
f 28//28 15//15 18//18
f 53//53 28//28 18//18
f 6//6 4//4 9//9
f 11//11 4//4 6//6
f 30//30 36//36 16//16
f 7//7 30//30 8//8
f 33//33 17//17 32//32
f 32//32 31//31 43//43
f 34//34 50//50 49//49
f 49//49 41//41 34//34
f 49//49 50//50 60//60
f 60//60 41//41 49//49
f 40//40 24//24 23//23
f 23//23 41//41 40//40
f 42//42 14//14 40//40
f 14//14 24//24 40//40
f 40//40 60//60 42//42
f 40//40 41//41 60//60
f 60//60 50//50 51//51
f 51//51 52//52 60//60
f 22//22 52//52 51//51
f 34//34 22//22 51//51
f 51//51 50//50 34//34
f 60//60 48//48 38//38
f 48//48 18//18 38//38
f 53//53 18//18 54//54
f 54//54 18//18 48//48
f 54//54 60//60 53//53
f 54//54 48//48 60//60
f 60//60 38//38 19//19
f 19//19 38//38 18//18
f 9//9 60//60 19//19
f 19//19 6//6 9//9
f 19//19 15//15 11//11
f 19//19 18//18 15//15
f 26//26 30//30 16//16
f 57//57 56//56 26//26
f 37//37 30//30 26//26
f 8//8 30//30 39//39
f 39//39 30//30 37//37
f 9//9 8//8 39//39
f 39//39 60//60 9//9
f 39//39 56//56 57//57
f 39//39 43//43 42//42
f 42//42 60//60 39//39
f 2//2 36//36 3//3
f 3//3 8//8 2//2
f 3//3 7//7 8//8
f 36//36 30//30 29//29
f 30//30 7//7 29//29
f 58//58 39//39 57//57
f 35//35 33//33 45//45
f 17//17 33//33 35//35
f 21//21 17//17 35//35
f 32//32 43//43 44//44
f 44//44 33//33 32//32
f 45//45 33//33 44//44
f 44//44 39//39 45//45
f 43//43 39//39 44//44
f 11//11 6//6 20//20
f 20//20 19//19 11//11
f 6//6 19//19 20//20
f 37//37 26//26 55//55
f 55//55 26//26 56//56
f 55//55 39//39 37//37
f 56//56 39//39 55//55
f 59//59 58//58 21//21
f 21//21 35//35 59//59
f 59//59 35//35 47//47
f 47//47 39//39 59//59
f 39//39 58//58 59//59
f 57//57 26//26 27//27
f 27//27 58//58 57//57
f 27//27 26//26 16//16
f 16//16 21//21 27//27
f 21//21 58//58 27//27
f 46//46 35//35 45//45
f 47//47 35//35 46//46
f 45//45 39//39 46//46
f 46//46 39//39 47//47
f 43//43 31//31 25//25
f 43//43 25//25 42//42
f 7//7 3//3 29//29
f 29//29 3//3 36//36

