# https://github.com/mikedh/trimesh
v -2.11351607 -0.02015366 1.39640743
v -2.29352780 0.18535869 1.39635845
v -2.06305599 -0.35571447 1.38064476
v -1.74991973 -0.33145734 1.29091491
v -2.00936571 0.18535869 1.37109898
v -2.30999093 -0.25212608 1.39645635
v -2.21855349 -0.39184312 1.37359559
v -1.49047375 -0.36371859 1.20671680
v -1.49047375 0.00383418 1.21073083
v -1.79040769 0.28446770 1.28917714
v -2.08619525 0.26402909 1.37432221
v -2.40046787 0.26503266 1.37079305
v -2.45210257 0.18535869 1.37100111
v -2.49047375 0.08659235 1.32023745
v -2.45068323 -0.32925439 1.36777022
v -1.49047375 0.00383418 0.73902537
v -1.57142520 0.43326587 1.11331556
v -1.57142520 0.41603374 1.15773375
v -1.57142520 0.37892598 1.19947182
v -2.48789201 -0.40420421 1.27512781
v -1.76193519 -0.41552502 1.25501448
v -1.49047375 -0.23251968 0.67675786
v -1.57142520 0.43855297 0.67675786
v -1.57142507 0.44011811 0.96191432
v -1.96634490 0.53313367 0.93287696
v -2.06577232 0.53313367 1.00865530
v -2.13208985 0.41079559 1.23951488
v -2.48699880 0.31479524 1.29439055
v -1.49047375 -0.43842358 0.67675786
v -2.01954583 0.44403593 0.40683423
v -2.03202625 0.48256334 0.43243635
v -2.05349380 0.53313367 0.53452664
v -2.44451640 0.38500864 1.26355050
v -2.46756851 0.53313367 0.98040975
v -2.32360315 -0.46665828 0.97191650
v -2.37522255 -0.44893055 1.27128503
v -2.11351607 -0.46686634 0.77843207
v -2.21856572 -0.44843489 0.65725645
v -1.97093331 -0.39883141 0.56574603
v -1.87340247 -0.36371859 0.54380311
v -2.11351607 0.44403593 0.39645634
v -2.29352780 0.53313367 1.01913111
v -2.12584811 0.35406461 1.31520604
v -2.45210257 -0.45541097 0.97191650
v -2.13168609 -0.46350071 1.20412230
v -1.49047375 -0.43707736 1.05754647
v -1.99321457 -0.36371859 0.54693605
v -2.35362958 0.44403593 0.39645634
v -2.49047343 0.53313341 0.78774709
v -2.49047375 0.44403593 0.49436116
v -2.48156618 0.44403593 0.44276532
v -1.49047375 -0.44045522 0.72906354
v -2.49046408 -0.43884488 0.65692265
v -2.35362958 -0.36371859 0.55780349
v -2.44329286 0.44403593 0.40683423
v -2.43673449 -0.36371859 0.56495057
v -2.47062744 -0.33955938 0.58869248
v -2.37614331 0.47946084 0.44319671
v -2.43248262 0.53313367 0.55858062
vn 0.54293238 -0.00027322 0.83977638
vn -0.21342054 0.03642446 0.97628118
vn 0.62344667 -0.11410232 0.77349526
vn 0.85439982 -0.01671924 0.51934711
vn 0.75664526 0.02106384 0.65348624
vn -0.35811182 -0.01890487 0.93348730
vn -0.13316140 -0.34440136 0.92933080
vn 0.97083011 -0.06699277 0.23021917
vn 0.97729738 0.00579085 0.21179306
vn 0.85696530 0.04252226 0.51361692
vn 0.51845924 0.13043814 0.84509521
vn -0.76648353 0.11778842 0.63137065
vn -0.93062640 0.01265700 0.36575170
vn -0.99760802 0.00014068 0.06912467
vn -0.91914017 -0.05363178 0.39026270
vn 0.99923317 0.00753994 -0.03842151
vn 0.97586951 0.17738557 0.12733053
vn 0.95140010 0.16842909 0.25781678
vn 0.94600635 0.09821078 0.30891201
vn -0.98357801 -0.09574607 0.15299342
vn 0.81802923 -0.31716282 0.47982906
vn 0.98791560 0.00062822 -0.15499154
vn 0.98600007 0.11584178 -0.11993560
vn 0.99114209 0.13259889 0.00740830
vn 0.82435057 0.56324761 0.05655329
vn 0.54028275 0.72464242 0.42777087
vn 0.18817561 0.50886251 0.84002910
vn -0.98563913 0.04575680 0.16254793
vn 0.94658982 -0.21537437 -0.23996165
vn 0.82881718 0.06733114 -0.55545351
vn 0.75284694 0.30975289 -0.58075350
vn 0.73587978 0.57681646 -0.35463182
vn -0.89470131 0.20452391 0.39708884
vn -0.94976683 0.28591214 0.12726828
vn -0.52519065 -0.85097537 0.00396171
vn -0.80497169 -0.44504374 0.39237311
vn -0.00626927 -0.98605579 -0.16629695
vn -0.16086331 -0.75700524 -0.63329777
vn 0.11400755 -0.40587274 -0.90679082
vn 0.56509393 -0.13036765 -0.81466136
vn 0.23377612 0.11609611 -0.96533436
vn -0.27900758 0.78687358 0.55044050
vn 0.25320262 0.33691689 0.90684918
vn -0.96502684 -0.26193512 0.01063902
vn 0.31377758 -0.85775756 0.40718006
vn 0.97147803 -0.22650920 0.07017138
vn -0.14925593 -0.14249155 -0.97847781
vn -0.31068320 0.15458733 -0.93785858
vn -0.96593850 0.25876505 -0.00186341
vn -0.99961390 0.01682412 -0.02211312
vn -0.99062834 0.04681766 -0.12831053
vn 0.97307717 -0.23025532 -0.01016382
vn -0.94782754 -0.22964918 -0.22109771
vn -0.33462547 -0.21395771 -0.91774065
vn -0.87415816 0.09404612 -0.47644815
vn -0.85812438 -0.11775752 -0.49975565
vn -0.98949473 -0.01464561 -0.14382519
vn -0.62061185 0.42598852 -0.65831202
vn -0.91789949 0.34918746 -0.18849042
f 53//53 50//50 51//51
f 53//53 20//20 14//14
f 14//14 50//50 53//53
f 34//34 59//59 49//49
f 49//49 50//50 14//14
f 51//51 50//50 49//49
f 49//49 59//59 51//51
f 28//28 49//49 14//14
f 34//34 49//49 28//28
f 1//1 3//3 5//5
f 19//19 9//9 18//18
f 37//37 29//29 52//52
f 52//52 45//45 37//37
f 46//46 45//45 52//52
f 25//25 23//23 32//32
f 15//15 20//20 36//36
f 14//14 20//20 15//15
f 35//35 53//53 37//37
f 37//37 45//45 35//35
f 35//35 45//45 36//36
f 36//36 20//20 44//44
f 20//20 53//53 44//44
f 44//44 35//35 36//36
f 53//53 35//35 44//44
f 38//38 29//29 37//37
f 37//37 53//53 38//38
f 34//34 28//28 33//33
f 33//33 28//28 12//12
f 10//10 9//9 19//19
f 10//10 5//5 9//9
f 8//8 9//9 4//4
f 9//9 5//5 4//4
f 4//4 3//3 8//8
f 4//4 5//5 3//3
f 25//25 26//26 17//17
f 26//26 18//18 17//17
f 17//17 18//18 9//9
f 21//21 46//46 8//8
f 21//21 45//45 46//46
f 8//8 3//3 21//21
f 59//59 32//32 58//58
f 23//23 16//16 22//22
f 6//6 3//3 1//1
f 1//1 2//2 6//6
f 57//57 53//53 51//51
f 57//57 56//56 53//53
f 29//29 38//38 39//39
f 39//39 38//38 53//53
f 34//34 33//33 42//42
f 19//19 18//18 43//43
f 43//43 33//33 12//12
f 13//13 2//2 12//12
f 14//14 15//15 13//13
f 15//15 6//6 13//13
f 13//13 6//6 2//2
f 13//13 28//28 14//14
f 12//12 28//28 13//13
f 24//24 23//23 25//25
f 25//25 17//17 24//24
f 24//24 17//17 9//9
f 9//9 16//16 24//24
f 24//24 16//16 23//23
f 7//7 21//21 3//3
f 7//7 15//15 36//36
f 36//36 45//45 7//7
f 45//45 21//21 7//7
f 3//3 6//6 7//7
f 7//7 6//6 15//15
f 51//51 59//59 55//55
f 59//59 58//58 55//55
f 55//55 57//57 51//51
f 56//56 57//57 55//55
f 53//53 56//56 54//54
f 54//54 39//39 53//53
f 47//47 39//39 54//54
f 26//26 42//42 27//27
f 27//27 18//18 26//26
f 27//27 43//43 18//18
f 27//27 42//42 33//33
f 33//33 43//43 27//27
f 11//11 10//10 19//19
f 19//19 43//43 11//11
f 5//5 10//10 11//11
f 1//1 5//5 11//11
f 11//11 2//2 1//1
f 12//12 2//2 11//11
f 11//11 43//43 12//12
f 30//30 22//22 29//29
f 23//23 22//22 30//30
f 40//40 30//30 29//29
f 29//29 39//39 40//40
f 40//40 39//39 47//47
f 31//31 32//32 23//23
f 23//23 30//30 31//31
f 31//31 58//58 32//32
f 48//48 40//40 47//47
f 48//48 55//55 58//58
f 58//58 31//31 48//48
f 47//47 54//54 48//48
f 56//56 55//55 48//48
f 48//48 54//54 56//56
f 30//30 40//40 41//41
f 40//40 48//48 41//41
f 41//41 31//31 30//30
f 41//41 48//48 31//31
f 22//22 9//9 8//8
f 8//8 46//46 22//22
f 22//22 52//52 29//29
f 46//46 52//52 22//22
f 22//22 16//16 9//9
f 42//42 59//59 34//34
f 42//42 26//26 25//25
f 25//25 32//32 42//42
f 42//42 32//32 59//59

