# https://github.com/mikedh/trimesh
v -0.24165531 0.35982920 0.84821207
v -0.10119084 0.35982920 0.84782054
v -0.24165531 0.01235473 0.84821207
v 0.03976305 0.35982920 0.82334913
v -0.09473046 0.01235473 0.84674379
v -0.90531312 0.40064522 0.84077277
v -0.17142308 0.41239078 0.83416550
v -0.10138655 -0.34167776 0.84782054
v 0.09467631 0.39487025 0.77391685
v 0.03966513 -0.16466152 0.82330016
v -0.90531312 0.42991130 0.82481745
v 0.01668673 0.43118382 0.80942486
v -0.90521533 -0.49302217 -0.15168984
v -0.90521526 -0.49260895 0.47301628
v -0.90521526 -0.47587142 0.72379937
v -0.90521526 -0.46393004 0.77445520
v -0.90521526 -0.44131976 0.81375632
v -0.90521526 -0.41185783 0.83695521
v -0.90525603 -0.36253183 0.84814845
v 0.09467631 0.42991130 0.72379937
v 0.09467631 -0.37671886 0.77391685
v 0.05579166 0.44412841 0.76138748
v -0.17142308 0.45124923 0.80445718
v -0.90531312 0.45115137 0.80445718
v -0.17142308 0.46402256 0.77391685
v -0.90529296 0.01644605 -0.15178003
v -0.10118226 -0.47831839 -0.15169008
v -0.10138655 -0.47831842 0.67358404
v -0.10138655 -0.47587142 0.72379937
v -0.10138655 -0.46393004 0.77445520
v -0.10138655 -0.44131976 0.81375632
v -0.27336996 -0.41185783 0.83695521
v -0.10138655 -0.39428835 0.84140902
v 0.03824581 -0.39428835 0.81992314
v 0.09467631 0.42991130 -0.15178794
v 0.03976305 0.46221175 0.67368197
v 0.09467631 -0.41185783 0.72379937
v -0.10119084 0.47757903 0.67368197
v -0.17935174 0.47549901 0.72377491
v -0.90531312 0.46607809 0.76569446
v -0.90532367 0.35985889 0.84821201
v -0.05339513 -0.47586002 -0.15169008
v 0.02879994 -0.47146681 0.23295168
v 0.02870209 -0.47136894 0.67358404
v 0.04574624 -0.44139316 0.76811710
v 0.08361535 -0.44689893 0.67358404
v 0.03956721 0.46221175 -0.15178794
v 0.03976305 0.46221175 0.08715097
v 0.09467631 0.21956693 -0.15178794
v -0.10119084 0.47767690 0.08715097
v 0.08371320 -0.44699680 0.08724883
v 0.09467631 -0.41185783 -0.15169008
v -0.90531312 0.50684517 0.42280094
v -0.90531312 0.50635573 0.47291842
v -0.90531312 0.47581721 0.72370151
v -0.90521528 0.50697784 -0.15178794
v 0.02889780 -0.47136894 -0.15169008
v 0.06687712 -0.45453354 0.08734677
v -0.10119084 0.47767690 -0.15178794
v 0.08371320 -0.44699680 -0.15169008
vn 0.02298251 0.05416207 0.99826764
vn 0.68813224 0.04863234 0.72395367
vn 0.01612946 -0.00004783 0.99986991
vn 0.97190216 0.01409166 0.23496303
vn 0.89368976 -0.00001862 0.44868542
vn -0.95540112 0.05101162 0.29087199
vn 0.40026551 0.21634494 0.89049559
vn 0.70823399 -0.01597680 0.70579696
vn 0.99790962 0.01599287 0.06261491
vn 0.97402754 -0.00013301 0.22642955
vn -0.95903805 0.09628239 0.26641269
vn 0.94604661 0.14217686 0.29117271
vn -0.93627137 -0.20873376 -0.28253521
vn -0.97586080 -0.21824343 0.00809354
vn -0.97594510 -0.20853169 0.06360577
vn -0.96943906 -0.19214569 0.15253831
vn -0.96051806 -0.13968079 0.24061240
vn -0.95416012 -0.06994008 0.29101004
vn -0.95631702 -0.01594030 0.29189666
vn 0.99900690 0.04091503 0.01764035
vn 0.99860715 -0.01031517 0.05174324
vn 0.98246141 0.15344016 0.10595134
vn 0.53148423 0.49128827 0.69004373
vn -0.96219160 0.16482252 0.21684295
vn 0.69876130 0.60463039 0.38230190
vn -0.96004774 -0.00001768 -0.27983626
vn 0.43924789 -0.52668207 -0.72778244
vn 0.59440731 -0.80265532 0.04923816
vn 0.75258416 -0.62390268 0.21062411
vn 0.80129139 -0.46771296 0.37306394
vn 0.77680776 -0.30193772 0.55263308
vn 0.07474289 -0.24056593 0.96775076
vn 0.66973093 -0.11350628 0.73387792
vn 0.97017778 -0.04993332 0.23719556
vn 0.96541293 0.03322056 -0.25860059
vn 0.98278231 0.18243031 0.02929354
vn 0.99957381 -0.01987053 0.02138585
vn 0.85009556 0.51998733 0.08337091
vn 0.69966739 0.67367945 0.23795282
vn -0.97411385 0.19207832 0.11919785
vn -0.95708479 0.01285995 0.28952259
vn 0.58275318 -0.45690044 -0.67204220
vn 0.97174675 -0.23602594 0.00007227
vn 0.97200659 -0.23191796 0.03764633
vn 0.98546581 -0.11491417 0.12510747
vn 0.99836230 -0.05505218 0.01555564
vn 0.94128195 0.16341983 -0.29543570
vn 0.98527878 0.17095535 -0.00000434
vn 0.96005155 -0.00000615 -0.27982320
vn 0.86315968 0.50493104 0.00007032
vn 0.99869979 -0.05097777 0.00001111
vn 0.96159276 -0.00623512 -0.27440934
vn -0.97159808 0.23663407 0.00122202
vn -0.97181486 0.23504933 0.01810213
vn -0.97661250 0.20236032 0.07265209
vn -0.92935420 0.22630917 -0.29169323
vn 0.91767318 -0.22144426 -0.32990662
vn 0.99568927 -0.09275172 -0.00000012
vn 0.70880682 0.41413061 -0.57104179
vn 0.96425180 -0.04948158 -0.26032680
f 56//56 49//49 26//26
f 59//59 49//49 56//56
f 7//7 6//6 2//2
f 9//9 4//4 21//21
f 2//2 3//3 8//8
f 1//1 6//6 41//41
f 2//2 6//6 1//1
f 41//41 3//3 1//1
f 1//1 3//3 2//2
f 19//19 26//26 13//13
f 13//13 14//14 19//19
f 14//14 15//15 19//19
f 41//41 26//26 19//19
f 19//19 3//3 41//41
f 19//19 8//8 3//3
f 28//28 14//14 13//13
f 45//45 46//46 37//37
f 37//37 21//21 45//45
f 45//45 21//21 34//34
f 45//45 34//34 31//31
f 41//41 55//55 54//54
f 50//50 59//59 56//56
f 56//56 38//38 50//50
f 5//5 4//4 2//2
f 2//2 8//8 5//5
f 10//10 8//8 34//34
f 34//34 21//21 10//10
f 10//10 21//21 4//4
f 4//4 5//5 10//10
f 10//10 5//5 8//8
f 31//31 34//34 33//33
f 34//34 8//8 33//33
f 8//8 19//19 33//33
f 6//6 7//7 11//11
f 41//41 6//6 11//11
f 11//11 24//24 41//41
f 40//40 55//55 41//41
f 41//41 24//24 40//40
f 23//23 11//11 7//7
f 24//24 11//11 23//23
f 17//17 19//19 16//16
f 16//16 19//19 15//15
f 37//37 46//46 51//51
f 29//29 15//15 14//14
f 14//14 28//28 29//29
f 53//53 26//26 41//41
f 41//41 54//54 53//53
f 56//56 26//26 53//53
f 53//53 38//38 56//56
f 53//53 54//54 38//38
f 47//47 59//59 48//48
f 48//48 35//35 47//47
f 18//18 19//19 17//17
f 18//18 33//33 19//19
f 12//12 4//4 9//9
f 12//12 23//23 7//7
f 12//12 7//7 2//2
f 2//2 4//4 12//12
f 39//39 54//54 55//55
f 38//38 54//54 39//39
f 49//49 52//52 60//60
f 30//30 45//45 31//31
f 36//36 50//50 38//38
f 31//31 33//33 32//32
f 33//33 18//18 32//32
f 23//23 12//12 25//25
f 25//25 40//40 24//24
f 24//24 23//23 25//25
f 55//55 40//40 25//25
f 25//25 39//39 55//55
f 44//44 43//43 46//46
f 28//28 43//43 44//44
f 44//44 29//29 28//28
f 46//46 45//45 44//44
f 44//44 30//30 29//29
f 45//45 30//30 44//44
f 58//58 51//51 46//46
f 46//46 43//43 58//58
f 58//58 60//60 51//51
f 42//42 43//43 28//28
f 20//20 36//36 22//22
f 9//9 20//20 22//22
f 22//22 12//12 9//9
f 22//22 25//25 12//12
f 39//39 25//25 22//22
f 38//38 39//39 22//22
f 22//22 36//36 38//38
f 13//13 26//26 27//27
f 26//26 42//42 27//27
f 27//27 28//28 13//13
f 27//27 42//42 28//28
f 49//49 60//60 57//57
f 57//57 26//26 49//49
f 57//57 42//42 26//26
f 43//43 42//42 57//57
f 57//57 58//58 43//43
f 60//60 58//58 57//57
f 59//59 35//35 49//49
f 47//47 35//35 59//59
f 9//9 21//21 20//20
f 20//20 52//52 49//49
f 49//49 35//35 20//20
f 20//20 21//21 37//37
f 37//37 52//52 20//20
f 60//60 52//52 37//37
f 37//37 51//51 60//60
f 17//17 16//16 30//30
f 31//31 17//17 30//30
f 30//30 16//16 15//15
f 15//15 29//29 30//30
f 36//36 48//48 59//59
f 59//59 50//50 36//36
f 36//36 20//20 35//35
f 35//35 48//48 36//36
f 32//32 17//17 31//31
f 32//32 18//18 17//17

