# https://github.com/mikedh/trimesh
v -1.34020191 0.00880368 3.61089439
v -0.50249633 0.00880368 3.61089439
v -1.34020191 0.00880368 4.61089441
v -1.34020191 1.00880369 3.61089439
v -0.34020191 0.00880368 4.07061030
v -0.34020191 0.55545086 3.61089439
v -0.34020191 0.00880368 4.61089441
v -1.34020191 0.72069794 4.61089441
v -1.34020191 1.00880369 3.84809460
v -0.34020191 1.00880369 3.61089439
v -0.34020191 0.72069794 4.61089441
v -1.34020191 0.75848554 4.60805536
v -1.34020191 1.00772688 3.94422773
v -0.34020191 1.00880369 3.84809460
v -0.34020191 0.79460897 4.60531418
v -1.34020191 0.79460897 4.60531418
v -0.34020191 1.00655217 4.04466806
v -1.34020191 1.00655217 4.04466806
v -0.34020191 0.81418796 4.59532889
v -1.34020191 0.83200489 4.58622461
v -0.34020191 0.99588159 4.18749716
v -1.34020191 0.99196579 4.23987122
v -0.34020191 0.86763875 4.56801605
v -1.34020191 0.86763875 4.56801605
v -0.34020191 0.99196579 4.23987122
v -1.34020191 0.97943515 4.33815810
v -0.34020191 0.90464321 4.53512329
v -1.34020191 0.90464321 4.53512329
v -0.34020191 0.97943515 4.33815810
v -1.34020191 0.94243080 4.43683641
v -0.34020191 0.94243080 4.43683641
vn -0.43847915 -0.31649734 -0.84116911
vn 0.21985696 -0.32419215 -0.92008824
vn -0.43847915 -0.31649734 0.84116911
vn -0.43847915 0.31649734 -0.84116911
vn 0.77044475 -0.52306918 -0.36443590
vn 0.46246994 -0.00688300 -0.88660825
vn 0.43847915 -0.31649734 0.84116911
vn -0.45902942 0.00472381 0.88840851
vn -0.80802600 0.58868655 0.02328370
vn 0.43847915 0.31649734 -0.84116911
vn 0.45901525 0.00474618 0.88841571
vn -0.46233448 0.00947807 0.88665495
vn -0.80994460 0.58459802 0.04727475
vn 0.80796323 0.58875227 0.02379437
vn 0.44626801 0.03681525 0.89414177
vn -0.44626996 0.03686758 0.89413864
vn 0.78537410 0.59255004 0.17908649
vn -0.78536043 0.59242116 0.17957215
vn 0.46785265 0.06370759 0.88150737
vn -0.46787866 0.06373639 0.88149148
vn 0.78063581 0.55269690 0.29177710
vn -0.74671441 0.54211127 0.38539975
vn 0.45767088 0.08726581 0.88482882
vn -0.45767088 0.08726581 0.88482882
vn 0.74670580 0.54208079 0.38545930
vn -0.59577538 0.41653553 0.68669487
vn 0.46348811 0.19862324 0.86355520
vn -0.46348811 0.19862324 0.86355520
vn 0.59577538 0.41653553 0.68669487
vn -0.56507365 0.28823178 0.77305511
vn 0.56507365 0.28823178 0.77305511
f 1//1 2//2 5//5
f 1//1 5//5 7//7
f 1//1 7//7 3//3
f 1//1 3//3 8//8
f 1//1 8//8 12//12
f 1//1 12//12 16//16
f 1//1 16//16 20//20
f 1//1 20//20 24//24
f 1//1 24//24 28//28
f 1//1 28//28 30//30
f 1//1 30//30 26//26
f 1//1 26//26 22//22
f 1//1 22//22 18//18
f 1//1 18//18 13//13
f 1//1 13//13 9//9
f 1//1 9//9 4//4
f 1//1 4//4 10//10
f 1//1 10//10 6//6
f 1//1 6//6 2//2
f 2//2 6//6 5//5
f 3//3 7//7 11//11
f 3//3 11//11 8//8
f 4//4 9//9 14//14
f 4//4 14//14 10//10
f 5//5 6//6 10//10
f 5//5 10//10 14//14
f 5//5 14//14 17//17
f 5//5 17//17 21//21
f 5//5 21//21 25//25
f 5//5 25//25 29//29
f 5//5 29//29 31//31
f 5//5 31//31 27//27
f 5//5 27//27 23//23
f 5//5 23//23 19//19
f 5//5 19//19 15//15
f 5//5 15//15 11//11
f 5//5 11//11 7//7
f 8//8 11//11 12//12
f 9//9 13//13 14//14
f 11//11 15//15 12//12
f 12//12 15//15 16//16
f 13//13 17//17 14//14
f 13//13 18//18 17//17
f 15//15 19//19 16//16
f 16//16 19//19 20//20
f 17//17 18//18 21//21
f 18//18 22//22 21//21
f 19//19 23//23 24//24
f 19//19 24//24 20//20
f 21//21 22//22 25//25
f 22//22 26//26 29//29
f 22//22 29//29 25//25
f 23//23 27//27 28//28
f 23//23 28//28 24//24
f 26//26 30//30 31//31
f 26//26 31//31 29//29
f 27//27 31//31 30//30
f 27//27 30//30 28//28

