# https://github.com/mikedh/trimesh
v -0.38288054 1.39802642 -2.30356715
v -0.86731672 1.39802642 -2.30356715
v -0.18710909 1.39645979 -2.30356715
v -0.23311546 1.39685152 -3.30356712
v -0.38288054 1.39802642 -3.30356712
v -0.86731672 1.39802642 -3.19657819
v -0.86731672 0.40086574 -2.30356715
v -0.14169012 1.39606836 -2.30356715
v -0.14169012 1.39606836 -3.30356712
v -0.86653378 1.39802642 -3.30356712
v -0.86731672 1.16217364 -3.30356712
v -0.86731672 0.39812451 -2.30435023
v -0.86535900 0.39802642 -2.30356715
v 0.01854859 1.35954963 -2.30356715
v -0.01903949 1.36816535 -3.30356712
v -0.86731672 0.74088912 -3.30356712
v -0.13630655 0.74186815 -3.30356712
v -0.38288054 0.39871181 -2.30356715
v 0.05574519 1.35103199 -2.30356715
v 0.05574519 1.35103199 -3.30356712
v -0.06651397 0.74754678 -3.30356712
v -0.08550383 0.40429235 -2.30356715
v -0.14169012 0.40155112 -2.30356715
v 0.07023239 1.33331134 -2.30356715
v 0.08491515 1.31539482 -3.30356712
v 0.03401465 0.77006481 -3.30356712
v 0.01913598 0.42602721 -2.30356715
v 0.13268332 1.25674979 -2.30356715
v 0.13268332 1.25674979 -3.30356712
v 0.11085483 0.84672444 -3.30356712
v 0.03215471 0.43004142 -2.30356715
v 0.13268332 1.05173711 -2.30356715
v 0.13268332 0.94913284 -3.30356712
v 0.12690811 0.64171176 -2.50814814
v 0.11966460 0.53910749 -2.30356715
v 0.11672801 0.53910749 -2.33606522
v 0.11320421 0.51982020 -2.30356715
v 0.13268332 0.84672444 -2.68032904
vn 0.01136807 0.51394512 0.85774774
vn -0.76928844 0.32695595 0.54890355
vn 0.02355644 0.51169942 0.85884154
vn 0.02324498 0.51174205 -0.85882463
vn 0.01115860 0.51390973 -0.85777169
vn -0.92047703 0.39079406 -0.00142662
vn -0.81385231 -0.00529725 0.58104764
vn 0.32128359 0.52122783 0.79063164
vn 0.32080482 0.52131085 -0.79077131
vn -0.76747565 0.32773630 -0.55097191
vn -0.81403061 0.00004100 -0.58082198
vn -0.90276825 -0.40296663 0.15042402
vn -0.28172756 -0.54821292 0.78745931
vn 0.50678497 0.40070159 0.76328712
vn 0.50667521 0.40088774 -0.76326224
vn -0.76196090 -0.21122702 -0.61220808
vn 0.08027724 -0.34103116 -0.93661802
vn 0.02493907 -0.71920180 0.69435352
vn 0.76225285 0.27593872 0.58551551
vn 0.76219593 0.27596391 -0.58557774
vn 0.28591405 -0.32867759 -0.90012454
vn 0.43008846 -0.66004985 0.61592054
vn 0.11854967 -0.71911256 0.68470658
vn 0.79255626 0.11691139 0.59848668
vn 0.79264601 0.11690965 -0.59836814
vn 0.67441037 -0.21996527 -0.70483042
vn 0.66925168 -0.48829330 0.56006414
vn 0.83471513 0.05974485 0.54743146
vn 0.83470290 0.05966866 -0.54745841
vn 0.80149348 -0.06793686 -0.59413196
vn 0.82852953 -0.31092112 0.46568967
vn 0.81420472 -0.00083372 0.58057728
vn 0.81684546 -0.01041148 -0.57676260
vn 0.99964352 -0.02200611 -0.01511852
vn 0.83384349 -0.03464557 0.55091262
vn 0.99649274 -0.06148802 -0.05675773
vn 0.85389344 -0.10870547 0.50896868
vn 0.99999474 -0.00319104 0.00057229
f 1//1 2//2 7//7
f 1//1 7//7 13//13
f 1//1 13//13 18//18
f 1//1 18//18 23//23
f 1//1 23//23 22//22
f 1//1 22//22 27//27
f 1//1 27//27 31//31
f 1//1 31//31 37//37
f 1//1 37//37 35//35
f 1//1 35//35 32//32
f 1//1 32//32 28//28
f 1//1 28//28 24//24
f 1//1 24//24 19//19
f 1//1 19//19 14//14
f 1//1 14//14 8//8
f 1//1 8//8 3//3
f 1//1 3//3 4//4
f 1//1 4//4 5//5
f 1//1 5//5 10//10
f 1//1 10//10 6//6
f 1//1 6//6 2//2
f 2//2 6//6 11//11
f 2//2 11//11 16//16
f 2//2 16//16 12//12
f 2//2 12//12 7//7
f 3//3 8//8 9//9
f 3//3 9//9 4//4
f 4//4 9//9 15//15
f 4//4 15//15 20//20
f 4//4 20//20 25//25
f 4//4 25//25 29//29
f 4//4 29//29 33//33
f 4//4 33//33 30//30
f 4//4 30//30 26//26
f 4//4 26//26 21//21
f 4//4 21//21 17//17
f 4//4 17//17 16//16
f 4//4 16//16 11//11
f 4//4 11//11 10//10
f 4//4 10//10 5//5
f 6//6 10//10 11//11
f 7//7 12//12 13//13
f 8//8 14//14 15//15
f 8//8 15//15 9//9
f 12//12 16//16 17//17
f 12//12 17//17 18//18
f 12//12 18//18 13//13
f 14//14 19//19 15//15
f 15//15 19//19 20//20
f 17//17 21//21 22//22
f 17//17 22//22 23//23
f 17//17 23//23 18//18
f 19//19 24//24 25//25
f 19//19 25//25 20//20
f 21//21 26//26 27//27
f 21//21 27//27 22//22
f 24//24 28//28 25//25
f 25//25 28//28 29//29
f 26//26 30//30 31//31
f 26//26 31//31 27//27
f 28//28 32//32 38//38
f 28//28 38//38 33//33
f 28//28 33//33 29//29
f 30//30 33//33 34//34
f 30//30 34//34 35//35
f 30//30 35//35 36//36
f 30//30 36//36 37//37
f 30//30 37//37 31//31
f 32//32 35//35 34//34
f 32//32 34//34 38//38
f 33//33 38//38 34//34
f 35//35 37//37 36//36

