# https://github.com/mikedh/trimesh
v -0.90531031 -0.02071745 -0.47286201
v -0.58933644 0.67867574 -0.47286201
v -0.26670643 -0.02071745 -0.47286201
v -0.90531031 0.74846818 -0.47198108
v -0.10137807 0.67867574 -0.47266628
v -0.10137807 -0.02071745 -0.47266628
v 0.09468968 -0.02071583 -0.21458750
v -0.90531031 -0.02052180 -0.10755271
v -0.90531031 0.81816279 -0.46659734
v 0.03957687 0.67867574 -0.45896228
v 0.09404997 -0.02052180 -0.17920503
v 0.05279131 -0.02052180 -0.15145443
v -0.00104564 -0.02052180 -0.13642898
v -0.10137807 0.25169831 0.36650758
v -0.27336258 0.25003427 0.36650758
v -0.57122772 0.25003427 0.36650758
v -0.89190000 0.35653397 0.36650758
v -0.90531031 0.21978764 0.07255692
v -0.23036645 0.79202731 -0.46856730
v 0.02800191 0.82609152 -0.45404355
v 0.09174969 0.81816279 -0.43145641
v 0.09468834 -0.02071721 -0.43155579
v 0.04075148 -0.02071745 -0.45842391
v 0.09458837 0.67877356 0.52713798
v 0.09241038 0.44390920 0.38995121
v 0.08979196 0.35653397 0.35153108
v 0.06590802 0.32893023 0.36650758
v 0.02146802 0.27607199 0.36650758
v -0.04597498 0.25992070 0.36650758
v -0.00045831 0.36142827 0.42337918
v -0.10137807 0.52274371 0.52713798
v -0.30715751 0.52073713 0.52713798
v -0.57122772 0.52029667 0.52713798
v -0.89190000 0.94962331 0.36650758
v -0.90531031 0.97928259 0.07255692
v -0.10137807 0.87669844 -0.45367648
v 0.03676263 0.91015083 -0.41520741
v 0.08362527 0.88775948 -0.37556366
v 0.09468624 0.81815665 -0.09967906
v 0.09458837 0.81806486 0.52713798
v 0.07994228 0.50604214 0.46728089
v 0.03546566 0.54829190 0.52713798
v -0.57122772 0.95001482 0.52713798
v -0.89190000 0.97517140 0.26764306
v -0.89190000 0.97663969 0.23964776
v -0.90531031 0.89128339 -0.44746073
v 0.02871151 0.93631078 -0.37556366
v 0.08391887 0.88711102 0.05895081
v 0.08519141 0.87811777 0.52713798
v -0.10024159 0.95006538 0.52713096
v -0.10137807 0.95011264 -0.37556366
v -0.00701660 0.94022622 0.52713798
v -0.90531031 0.93051106 -0.42352767
v -0.10137807 0.92148109 -0.43179901
v -0.10137807 0.94521834 -0.40346114
v 0.02890725 0.93631078 0.52713798
v -0.90531031 0.97916023 -0.14450456
v -0.90531031 0.97849959 -0.26426767
v -0.90531031 0.94521834 -0.40346114
v 0.02715760 0.93669014 0.05712769
vn -0.91663411 -0.37095175 -0.14891843
vn -0.01912538 0.04002809 -0.99901550
vn 0.00836618 -0.92770868 -0.37321121
vn -0.98486151 0.04247823 -0.16805777
vn 0.86180477 0.07758717 -0.50127116
vn 0.58652307 -0.73879388 -0.33192512
vn 0.92688100 -0.37535530 0.00012539
vn -0.91554488 -0.40170484 0.02026794
vn -0.97303914 0.16247554 -0.16369647
vn 0.99138504 0.01484581 -0.13013569
vn 0.92712380 -0.37473983 0.00339501
vn 0.70875682 -0.70474844 0.03151838
vn 0.37874522 -0.92405217 0.05176526
vn 0.41267519 -0.89797483 0.15277563
vn 0.03168518 -0.98479058 0.17083199
vn -0.63359100 -0.76174784 0.13528734
vn -0.98295711 -0.17728004 0.04865295
vn -0.99999187 -0.00388014 0.00109963
vn 0.47533076 0.46470187 -0.74706950
vn 0.96914988 0.17962179 -0.16877359
vn 0.99719927 0.06487985 -0.03720499
vn 0.93660529 -0.34955122 -0.02417577
vn 0.91370189 -0.38926472 -0.11671259
vn 0.98716368 -0.01924673 0.15854788
vn 0.99995377 -0.00937851 0.00212299
vn 0.99851954 -0.05377299 0.00819665
vn 0.99326845 -0.11364104 0.02243891
vn 0.94489047 -0.32240017 0.05692209
vn 0.75013570 -0.65174568 0.11191069
vn 0.83523059 -0.53094422 0.14313666
vn 0.44806984 -0.73762642 0.50511453
vn 0.02756530 -0.79909554 0.60057178
vn -0.92879225 -0.28468270 0.23727770
vn -0.96540306 0.25901616 0.03012590
vn -0.91474165 0.40403867 0.00068377
vn 0.70543807 0.62504935 -0.33417128
vn 0.94353678 0.32567175 -0.06063214
vn 0.99463571 0.10330864 -0.00520844
vn 0.99991755 0.01284110 -0.00003722
vn 0.98745966 0.01264480 0.15736430
vn 0.99632583 -0.08268878 0.02230270
vn 0.95584905 -0.21763084 0.19745738
vn -0.87731419 0.43676707 0.19888272
vn -0.90432962 0.42679170 0.00606467
vn -0.70960782 0.70458744 0.00364406
vn -0.94592477 0.30097923 -0.12098693
vn 0.90060715 0.43441979 -0.01364601
vn 0.99502664 0.09960919 0.00001756
vn 0.98480411 0.08808953 0.14966995
vn 0.30714088 0.88962944 0.33797032
vn 0.34917951 0.93691421 -0.01629232
vn 0.51739346 0.79061446 0.32746418
vn -0.92642072 0.37026110 -0.06820096
vn 0.58082868 0.79259491 -0.18555689
vn 0.45213576 0.88853315 -0.07798784
vn 0.89736536 0.40624395 0.17234055
vn -0.91450494 0.40457471 -0.00008977
vn -0.91406636 0.40554072 -0.00440575
vn -0.92117470 0.38798426 -0.03008960
vn 0.70757384 0.70663942 -0.00000759
f 23//23 7//7 1//1
f 1//1 7//7 8//8
f 39//39 24//24 7//7
f 37//37 38//38 21//21
f 38//38 39//39 21//21
f 13//13 8//8 7//7
f 7//7 23//23 22//22
f 22//22 39//39 7//7
f 22//22 21//21 39//39
f 17//17 8//8 16//16
f 16//16 33//33 17//17
f 8//8 13//13 14//14
f 24//24 26//26 25//25
f 12//12 13//13 7//7
f 35//35 44//44 45//45
f 45//45 50//50 35//35
f 44//44 50//50 45//45
f 43//43 50//50 44//44
f 43//43 52//52 50//50
f 1//1 4//4 2//2
f 4//4 5//5 2//2
f 10//10 22//22 23//23
f 21//21 22//22 10//10
f 23//23 6//6 10//10
f 10//10 6//6 5//5
f 48//48 39//39 38//38
f 56//56 49//49 48//48
f 38//38 56//56 48//48
f 24//24 39//39 40//40
f 39//39 48//48 40//40
f 40//40 48//48 49//49
f 8//8 17//17 18//18
f 24//24 42//42 41//41
f 41//41 26//26 24//24
f 15//15 33//33 16//16
f 16//16 8//8 15//15
f 8//8 14//14 15//15
f 28//28 42//42 30//30
f 42//42 31//31 30//30
f 30//30 31//31 14//14
f 7//7 24//24 11//11
f 24//24 25//25 11//11
f 11//11 25//25 26//26
f 11//11 12//12 7//7
f 28//28 12//12 11//11
f 53//53 54//54 46//46
f 55//55 59//59 58//58
f 55//55 53//53 59//59
f 54//54 53//53 55//55
f 37//37 54//54 55//55
f 46//46 54//54 36//36
f 36//36 54//54 37//37
f 34//34 43//43 44//44
f 34//34 44//44 35//35
f 1//1 2//2 3//3
f 3//3 2//2 5//5
f 5//5 6//6 3//3
f 26//26 41//41 27//27
f 28//28 11//11 27//27
f 27//27 11//11 26//26
f 27//27 42//42 28//28
f 27//27 41//41 42//42
f 33//33 15//15 32//32
f 32//32 15//15 14//14
f 14//14 31//31 32//32
f 28//28 30//30 29//29
f 29//29 30//30 14//14
f 29//29 12//12 28//28
f 29//29 14//14 13//13
f 13//13 12//12 29//29
f 58//58 57//57 51//51
f 51//51 55//55 58//58
f 51//51 57//57 35//35
f 35//35 50//50 51//51
f 46//46 36//36 9//9
f 20//20 10//10 5//5
f 21//21 10//10 20//20
f 37//37 21//21 20//20
f 20//20 36//36 37//37
f 50//50 52//52 60//60
f 60//60 51//51 50//50
f 60//60 52//52 56//56
f 4//4 9//9 19//19
f 19//19 5//5 4//4
f 19//19 9//9 36//36
f 19//19 20//20 5//5
f 36//36 20//20 19//19
f 47//47 56//56 38//38
f 47//47 60//60 56//56
f 47//47 38//38 37//37
f 51//51 60//60 47//47
f 37//37 55//55 47//47
f 55//55 51//51 47//47
f 33//33 43//43 34//34
f 34//34 17//17 33//33
f 35//35 18//18 34//34
f 34//34 18//18 17//17
f 3//3 6//6 23//23
f 3//3 23//23 1//1
f 32//32 42//42 24//24
f 32//32 43//43 33//33
f 32//32 49//49 56//56
f 24//24 40//40 32//32
f 56//56 52//52 32//32
f 52//52 43//43 32//32
f 32//32 40//40 49//49
f 32//32 31//31 42//42
f 1//1 8//8 9//9
f 9//9 18//18 35//35
f 35//35 57//57 9//9
f 9//9 4//4 1//1
f 9//9 53//53 46//46
f 58//58 59//59 9//9
f 9//9 57//57 58//58
f 8//8 18//18 9//9
f 59//59 53//53 9//9

