# https://github.com/mikedh/trimesh
v -0.90531275 -0.73779803 -0.26570201
v -0.10119080 -0.69599680 -0.37836846
v -0.90521489 -0.73858122 0.07308028
v -0.10119080 -0.69257049 -0.40655952
v -0.90531275 -0.69335368 -0.40655952
v -0.25682734 -0.69330470 -0.40655952
v 0.03976303 -0.67348091 -0.37836846
v -0.10119080 -0.69599680 -0.05818441
v -0.90521489 -0.15209146 0.07308028
v -0.10119080 -0.69589900 0.52345224
v -0.89190257 -0.73466544 0.24163939
v -0.89190257 -0.73437172 0.24643581
v -0.89190257 -0.73231588 0.26973259
v -0.89190257 -0.69521361 0.36928233
v -0.90532374 -0.73858231 -0.23539486
v 0.03217697 -0.66780307 -0.42065505
v -0.90531275 -0.67612418 -0.43475058
v -0.17073781 -0.67607513 -0.43475058
v 0.09467627 -0.62649124 -0.40655952
v 0.07940629 -0.62649124 -0.43475058
v 0.03976303 -0.67348091 0.36928233
v 0.03966505 -0.67348091 0.52345224
v -0.90531275 -0.01523413 -0.10839975
v -0.89190257 0.26141765 0.36928233
v -0.27336985 -0.69677999 0.52345224
v -0.74262856 -0.69677999 0.52345224
v -0.10119080 -0.65742612 -0.45197845
v 0.00119646 -0.65566398 -0.45090173
v -0.90531275 -0.65742612 -0.45197845
v 0.09467627 -0.57529222 -0.43475058
v 0.09467627 -0.62649124 0.52345224
v 0.03217697 -0.60089173 -0.45858576
v -0.90531275 -0.01523413 -0.47644990
v -0.89190257 0.26141765 0.07317816
v 0.06785592 0.26141765 0.36928233
v -0.24028483 -0.63246286 -0.46117974
v -0.90531275 -0.62649124 -0.46333322
v 0.09467627 -0.01533194 -0.43475058
v 0.03976303 -0.52419086 -0.46255014
v 0.09467627 -0.47308965 0.52345224
v -0.10119080 -0.60089173 -0.46857009
v -0.10119080 -0.52419086 -0.47625412
v -0.24033376 -0.01528304 -0.47649883
v -0.90531275 -0.52428881 -0.47644990
v 0.06785592 0.26141765 0.07317816
v -0.74257963 -0.36648182 0.52345224
v -0.10119080 -0.38371131 0.52345224
v 0.01450878 -0.39017241 0.52345224
v 0.06932416 -0.42208624 0.52345224
v 0.08987985 0.26141765 0.35420792
v -0.90531275 -0.59222800 -0.47057676
v 0.03976303 -0.01533194 -0.46255014
v 0.09066297 0.26141765 0.09021027
v 0.09164180 0.26141765 0.11830346
v 0.09467627 0.08892633 0.29792367
v -0.24038269 -0.57539002 -0.47410064
v -0.24028483 -0.52419086 -0.47654776
v -0.09840109 -0.01533194 -0.47600940
v -0.90531275 -0.57539002 -0.47410064
v -0.24030929 -0.60588433 -0.46768912
vn -0.94317532 -0.33214981 -0.00983941
vn 0.73577796 -0.67704430 -0.01555026
vn -0.94272335 -0.33357441 0.00089918
vn 0.65488579 -0.75136387 -0.08109834
vn -0.95658432 -0.28864040 -0.04041226
vn 0.02873405 -0.99035985 -0.13550543
vn 0.96848164 -0.24902857 -0.00530000
vn 0.76081676 -0.64896676 0.00000470
vn -0.99999965 0.00060617 0.00057541
vn 0.64651511 -0.67870259 0.34839778
vn -0.84488883 -0.53490650 0.00615680
vn -0.90679746 -0.42146896 0.00907109
vn -0.94840247 -0.31686942 0.01124827
vn -0.99571228 -0.09077474 0.01780480
vn -0.94241014 -0.33445887 -0.00062696
vn 0.96097610 -0.27404397 -0.03774715
vn -0.95863104 -0.27587099 -0.07015499
vn 0.19014726 -0.95309194 -0.23549897
vn 0.99824924 -0.05882877 -0.00613496
vn 0.99617833 -0.07700568 -0.04121720
vn 0.96940671 -0.24546006 0.00000602
vn 0.95546480 -0.24224488 0.16853614
vn -0.99999773 0.00213041 0.00005119
vn -0.94442343 0.30879418 0.11274101
vn 0.03101103 -0.86088621 0.50785159
vn -0.93757636 -0.29473675 0.18460988
vn 0.24679429 -0.84880218 -0.46757614
vn 0.92339813 -0.33899134 -0.18005769
vn -0.96399360 -0.23540430 -0.12369784
vn 0.99945756 -0.01142210 -0.03088876
vn 0.98765280 -0.04951701 0.14862706
vn 0.98548865 -0.07435500 -0.15258917
vn -0.95744351 0.23372628 -0.16933384
vn -0.95113916 0.30791594 -0.02284901
vn 0.91552869 0.37399990 0.14809220
vn 0.09130439 -0.70284603 -0.70545798
vn -0.97803128 -0.14247646 -0.15216856
vn 0.99299528 0.11328162 -0.03358056
vn 0.99103228 -0.01280136 -0.13300803
vn 0.98688327 0.00537788 0.16134587
vn 0.77082265 -0.32289988 -0.54915217
vn 0.86316196 -0.05876113 -0.50149631
vn 0.03775576 0.80760828 -0.58850945
vn -0.98614118 -0.01248914 -0.16543760
vn 0.82957443 0.55561939 -0.05561808
vn -0.97467010 0.07500354 0.21069568
vn 0.16724582 0.35290989 0.92058864
vn 0.85622690 0.20958579 0.47217506
vn 0.97182606 0.05551942 0.22906705
vn 0.96045887 0.27805797 0.01423120
vn -0.98309652 -0.10416194 -0.15057067
vn 0.96486930 0.22515539 -0.13539673
vn 0.95674803 0.29089219 -0.00386455
vn 0.95827774 0.28583872 -0.00008951
vn 0.99999930 0.00112345 0.00036893
vn 0.18509639 -0.37164254 -0.90973686
vn 0.03779858 -0.07779268 -0.99625276
vn 0.72519109 0.54026429 -0.42686342
vn -0.98284742 -0.07020556 -0.17053485
vn 0.03529565 -0.59870886 -0.80018867
f 1//1 2//2 15//15
f 14//14 26//26 24//24
f 24//24 26//26 46//46
f 46//46 35//35 24//24
f 23//23 9//9 24//24
f 23//23 33//33 15//15
f 50//50 55//55 54//54
f 55//55 38//38 54//54
f 33//33 34//34 45//45
f 5//5 1//1 15//15
f 3//3 23//23 15//15
f 9//9 23//23 3//3
f 3//3 8//8 10//10
f 2//2 8//8 3//3
f 15//15 2//2 3//3
f 48//48 35//35 47//47
f 35//35 46//46 47//47
f 53//53 54//54 38//38
f 38//38 45//45 53//53
f 21//21 31//31 22//22
f 22//22 8//8 21//21
f 10//10 8//8 22//22
f 50//50 35//35 40//40
f 40//40 55//55 50//50
f 19//19 7//7 16//16
f 28//28 16//16 4//4
f 2//2 1//1 4//4
f 4//4 7//7 2//2
f 4//4 16//16 7//7
f 15//15 37//37 29//29
f 26//26 14//14 13//13
f 13//13 25//25 26//26
f 14//14 3//3 13//13
f 13//13 3//3 12//12
f 10//10 25//25 13//13
f 13//13 12//12 10//10
f 10//10 12//12 11//11
f 11//11 3//3 10//10
f 12//12 3//3 11//11
f 33//33 45//45 43//43
f 45//45 58//58 43//43
f 52//52 45//45 38//38
f 52//52 58//58 45//45
f 42//42 43//43 58//58
f 49//49 35//35 48//48
f 49//49 40//40 35//35
f 19//19 16//16 20//20
f 20//20 16//16 28//28
f 20//20 30//30 19//19
f 17//17 5//5 15//15
f 15//15 29//29 17//17
f 29//29 27//27 17//17
f 15//15 33//33 44//44
f 32//32 20//20 28//28
f 30//30 20//20 32//32
f 15//15 44//44 59//59
f 28//28 27//27 41//41
f 41//41 32//32 28//28
f 42//42 32//32 41//41
f 28//28 4//4 18//18
f 18//18 27//27 28//28
f 18//18 17//17 27//27
f 5//5 17//17 18//18
f 39//39 32//32 42//42
f 58//58 52//52 39//39
f 39//39 42//42 58//58
f 30//30 32//32 39//39
f 57//57 59//59 44//44
f 43//43 42//42 57//57
f 33//33 43//43 57//57
f 57//57 44//44 33//33
f 36//36 41//41 27//27
f 36//36 29//29 37//37
f 36//36 27//27 29//29
f 42//42 41//41 56//56
f 56//56 57//57 42//42
f 59//59 57//57 56//56
f 5//5 18//18 6//6
f 6//6 18//18 4//4
f 1//1 5//5 6//6
f 6//6 4//4 1//1
f 60//60 36//36 37//37
f 41//41 36//36 60//60
f 60//60 56//56 41//41
f 59//59 56//56 51//51
f 56//56 60//60 51//51
f 51//51 60//60 37//37
f 51//51 37//37 15//15
f 15//15 59//59 51//51
f 24//24 34//34 23//23
f 23//23 34//34 33//33
f 8//8 7//7 21//21
f 2//2 7//7 8//8
f 21//21 7//7 31//31
f 31//31 7//7 19//19
f 3//3 14//14 24//24
f 24//24 9//9 3//3
f 24//24 35//35 53//53
f 53//53 34//34 24//24
f 53//53 35//35 50//50
f 50//50 54//54 53//53
f 53//53 45//45 34//34
f 30//30 38//38 55//55
f 55//55 40//40 30//30
f 30//30 31//31 19//19
f 30//30 40//40 31//31
f 49//49 25//25 10//10
f 49//49 46//46 26//26
f 26//26 25//25 49//49
f 48//48 47//47 49//49
f 10//10 22//22 49//49
f 49//49 47//47 46//46
f 49//49 22//22 31//31
f 31//31 40//40 49//49
f 38//38 30//30 39//39
f 39//39 52//52 38//38

