# https://github.com/mikedh/trimesh
v -2.15449937 -0.44019632 -0.39620896
v -2.39938968 -0.44019632 -0.39620896
v -2.07285704 -0.51913934 -0.48690005
v -2.05877489 -0.44019632 -0.40648695
v -1.98811020 0.36139839 -0.54572267
v -2.37991201 -0.46741636 -0.40717217
v -2.03215215 0.36064077 -0.54665925
v -2.39938968 0.36064077 -0.55762243
v -2.48743078 -0.03977778 -0.48552962
v -1.60648150 -0.43579019 -0.69084483
v -1.53884791 0.23423405 -0.69084483
v -1.53876761 0.43583729 -0.69115879
v -2.52986077 -0.44019632 -0.44250886
v -2.51855595 0.33655402 -0.58848088
v -2.47968624 -0.50574961 -0.47386901
v -2.30014159 -0.53713100 -0.47451750
v -1.53884791 -0.00751512 -0.74468196
v -2.30062484 0.44829203 -0.67263198
v -1.98820498 0.40861857 -0.58429627
v -2.45708562 0.39947283 -0.59140217
v -2.53876766 -0.44019632 -0.49409465
v -2.53658991 0.40063859 -0.67484051
v -2.00533363 -0.53713100 -0.68673364
v -1.53884791 -0.00751512 -1.21032407
v -2.53690799 -0.53713100 -0.62320581
v -1.60648150 -0.43632261 -0.96472283
v -1.60648150 -0.42227810 -1.13324524
v -1.60648150 -0.38563383 -1.19375697
v -1.60648150 -0.34414283 -1.20885584
v -2.04830195 0.07233357 -1.37066084
v -1.53884791 0.43676883 -0.86828710
v -2.53695691 -0.53713100 -0.93257351
v -2.49961662 0.45148034 -0.97145861
v -2.00611666 -0.53713100 -0.95836640
v -2.09097669 -0.38254954 -1.27779180
v -2.06787756 -0.30644604 -1.35411816
v -2.04928073 -0.23991360 -1.36637832
v -2.15449937 0.07233357 -1.39591533
v -2.05591195 0.38181465 -1.36221821
v -1.53884791 0.35229975 -1.20374739
v -2.50840111 0.41618242 -1.30615421
v -2.53876766 0.40861859 -1.11336838
v -2.10218371 -0.53713100 -1.00787209
v -2.39429546 -0.27481988 -1.36258833
v -2.27694453 -0.18385796 -1.39620899
v -2.28557002 0.45785695 -1.22303704
v -2.24633324 0.46286899 -0.97145861
v -2.49090542 -0.38707804 -1.26005004
v -2.53876766 -0.24789362 -1.31976030
v -2.53700588 -0.31205161 -1.28107102
v -2.53876766 0.36064077 -1.31976030
v -2.41713004 -0.53713100 -1.00711344
v -2.35604816 -0.38322882 -1.28005541
v -2.39938968 -0.18385796 -1.39581749
v -1.53884791 0.42452960 -1.12073423
v -2.49961662 -0.18385796 -1.37056301
v -2.49961662 0.32852510 -1.37056301
v -2.33816710 0.32852510 -1.39601324
v -2.16373049 0.44806560 -1.28264942
v -2.31659729 0.38642886 -1.36924151
vn 0.33172834 -0.10897831 0.93705925
vn -0.65501172 -0.04612809 0.75420942
vn 0.87953399 -0.30932634 0.36157595
vn 0.83553886 -0.08611788 0.54264033
vn 0.51392916 0.13936830 0.84643564
vn -0.56343001 -0.22810394 0.79404989
vn -0.15656689 0.12966156 0.97911934
vn -0.62152239 0.13287591 0.77204528
vn -0.88538313 0.03591048 0.46347293
vn 0.98872375 -0.10111408 0.11045941
vn 0.98978105 -0.00042158 0.14259488
vn 0.95075082 0.21634534 0.22196301
vn -0.97276647 -0.03130935 0.22966306
vn -0.97184588 0.03162040 0.23348607
vn -0.94080892 -0.18332880 0.28507740
vn -0.16018344 -0.70359781 0.69230873
vn 0.99929418 -0.00603924 0.03707650
vn -0.63377489 0.66520123 0.39476160
vn 0.33071415 0.43530475 0.83733979
vn -0.86659259 0.23108700 0.44228507
vn -0.99979813 -0.00555242 0.01931005
vn -0.98916495 0.12184531 0.08189278
vn 0.85763581 -0.51055014 0.06163905
vn 0.97871756 -0.00441534 -0.20516444
vn -0.96659151 -0.25334920 0.03892344
vn 0.99251308 -0.12139783 -0.01342928
vn 0.96636272 -0.17178810 -0.19139473
vn 0.95171040 -0.12397522 -0.28085131
vn 0.95844589 -0.03131542 -0.28355039
vn 0.83951234 0.00195436 -0.54333711
vn 0.97433680 0.22497777 -0.00726725
vn -0.96618222 -0.25203892 -0.05448207
vn -0.96254399 0.27095497 0.00961603
vn 0.84710696 -0.52167565 -0.10131297
vn 0.38745454 -0.41801038 -0.82167287
vn 0.52535547 -0.18098847 -0.83141133
vn 0.74047460 -0.03757269 -0.67103328
vn 0.53759086 0.00187544 -0.84320374
vn 0.71052737 0.17962952 -0.68035586
vn 0.97233496 0.04753025 -0.22870418
vn -0.94245170 0.20648930 -0.26295810
vn -0.99906679 0.04226730 -0.00888914
vn 0.47496829 -0.73099833 -0.48994547
vn -0.67796153 -0.14837911 -0.71996653
vn 0.23811151 -0.05314059 -0.96978296
vn -0.50990859 0.82151193 -0.25516932
vn -0.05352070 0.99844349 0.01568888
vn -0.91655721 -0.17829806 -0.35795625
vn -0.98371302 -0.03560321 -0.17618488
vn -0.98940535 -0.03753221 -0.14024400
vn -0.99404659 0.02824223 -0.10523195
vn -0.70575203 -0.57115238 -0.41916468
vn -0.28521467 -0.40263921 -0.86978978
vn -0.54968026 -0.05703557 -0.83342580
vn 0.97042265 0.20642985 -0.12516626
vn -0.94203174 -0.02284627 -0.33474505
vn -0.91705365 0.04187256 -0.39655933
vn -0.20543797 0.08161917 -0.97526076
vn 0.40381330 0.67018543 -0.62272490
vn -0.32335659 0.29901508 -0.89779201
f 12//12 47//47 18//18
f 31//31 47//47 12//12
f 5//5 4//4 12//12
f 33//33 18//18 47//47
f 12//12 4//4 11//11
f 4//4 10//10 11//11
f 12//12 18//18 19//19
f 19//19 5//5 12//12
f 19//19 18//18 20//20
f 8//8 19//19 20//20
f 5//5 19//19 8//8
f 4//4 5//5 1//1
f 1//1 5//5 2//2
f 20//20 18//18 22//22
f 18//18 33//33 22//22
f 21//21 13//13 22//22
f 46//46 33//33 47//47
f 47//47 31//31 46//46
f 54//54 58//58 45//45
f 58//58 54//54 57//57
f 57//57 54//54 56//56
f 38//38 37//37 45//45
f 45//45 58//58 38//38
f 38//38 58//58 39//39
f 29//29 37//37 24//24
f 24//24 40//40 12//12
f 2//2 5//5 7//7
f 7//7 8//8 2//2
f 5//5 8//8 7//7
f 9//9 13//13 2//2
f 2//2 8//8 9//9
f 42//42 22//22 33//33
f 21//21 22//22 42//42
f 55//55 46//46 31//31
f 55//55 31//31 12//12
f 12//12 40//40 55//55
f 55//55 40//40 39//39
f 58//58 57//57 60//60
f 39//39 58//58 60//60
f 45//45 37//37 36//36
f 36//36 54//54 45//45
f 36//36 37//37 29//29
f 25//25 13//13 21//21
f 21//21 32//32 25//25
f 49//49 32//32 21//21
f 3//3 10//10 4//4
f 43//43 35//35 27//27
f 27//27 34//34 43//43
f 26//26 34//34 27//27
f 27//27 24//24 26//26
f 53//53 43//43 52//52
f 53//53 35//35 43//43
f 53//53 36//36 35//35
f 37//37 38//38 30//30
f 30//30 24//24 37//37
f 30//30 38//38 39//39
f 39//39 40//40 30//30
f 40//40 24//24 30//30
f 17//17 10//10 26//26
f 26//26 24//24 17//17
f 17//17 11//11 10//10
f 12//12 11//11 17//17
f 17//17 24//24 12//12
f 14//14 22//22 13//13
f 13//13 9//9 14//14
f 20//20 22//22 14//14
f 14//14 8//8 20//20
f 14//14 9//9 8//8
f 33//33 46//46 41//41
f 41//41 42//42 33//33
f 51//51 42//42 41//41
f 41//41 57//57 51//51
f 41//41 60//60 57//57
f 39//39 60//60 59//59
f 59//59 55//55 39//39
f 46//46 55//55 59//59
f 59//59 41//41 46//46
f 60//60 41//41 59//59
f 13//13 25//25 15//15
f 10//10 3//3 23//23
f 26//26 10//10 23//23
f 23//23 34//34 26//26
f 35//35 36//36 28//28
f 28//28 27//27 35//35
f 28//28 36//36 29//29
f 29//29 24//24 28//28
f 24//24 27//27 28//28
f 52//52 32//32 48//48
f 48//48 53//53 52//52
f 2//2 13//13 6//6
f 13//13 15//15 6//6
f 6//6 1//1 2//2
f 16//16 23//23 3//3
f 16//16 15//15 25//25
f 16//16 6//6 15//15
f 1//1 6//6 16//16
f 4//4 1//1 16//16
f 16//16 3//3 4//4
f 32//32 49//49 50//50
f 50//50 48//48 32//32
f 49//49 48//48 50//50
f 44//44 49//49 56//56
f 44//44 48//48 49//49
f 56//56 54//54 44//44
f 53//53 48//48 44//44
f 54//54 36//36 44//44
f 36//36 53//53 44//44
f 49//49 57//57 56//56
f 51//51 57//57 49//49
f 21//21 42//42 49//49
f 49//49 42//42 51//51
f 16//16 32//32 52//52
f 52//52 43//43 16//16
f 43//43 34//34 16//16
f 16//16 25//25 32//32
f 34//34 23//23 16//16

