# https://github.com/mikedh/trimesh
v -0.96722064 -0.43591563 -1.46419994
v -0.78143367 -0.42064401 -2.09977155
v -0.84182909 -0.50170122 -1.10554684
v -0.96722064 0.42331099 -1.46419994
v -0.22387684 -0.42064398 -2.10554683
v -0.75011024 -0.50199491 -1.11151787
v -0.78143366 -0.00723234 -2.09977156
v -0.96722064 -0.40977762 -1.20529233
v -0.96722064 -0.42416820 -1.26500259
v -0.96722064 -0.43518142 -1.37179585
v -0.96722064 0.41910145 -1.37120855
v -0.85269443 0.49242494 -1.10554684
v -0.85112823 0.49164189 -1.12688591
v -0.03505542 -0.42064398 -2.10554683
v -0.22387684 -0.22612615 -2.10554683
v -0.45234202 -0.50199491 -1.11151787
v -0.28975392 -0.00723234 -2.09977156
v -0.96722064 -0.38385985 -1.15683892
v -0.60122613 -0.50199491 -1.10554684
v -0.96722064 0.40392764 -1.27371440
v -0.96722064 0.39061400 -1.21899633
v -0.96722064 0.37514649 -1.18698771
v -0.96722064 0.34724633 -1.15654526
v -0.80972262 0.49780925 -1.10554684
v -0.74854407 0.42066777 -1.99317399
v -0.77389645 0.49800510 -1.10554684
v -0.21438196 0.42066775 -1.99317399
v -0.39272965 -0.50199491 -1.10975593
v 0.00997200 -0.41457445 -2.10554683
v 0.01339800 -0.23983141 -2.10554683
v -0.06471477 -0.22749664 -2.10554683
v -0.84846085 -0.49147119 -1.10554684
v -0.36111258 -0.50150546 -1.10574261
v -0.87329936 0.43212158 -1.10554684
v -0.96722064 -0.35113835 -1.14117722
v -0.45234202 0.49800510 -1.10554684
v -0.39272965 0.49722186 -1.10554684
v -0.36209144 0.49369755 -1.10554684
v -0.03515328 0.41998253 -1.46419994
v 0.00909106 0.40769668 -1.46419994
v 0.03268149 0.37798549 -1.46419994
v 0.03111534 -0.26959165 -2.10554683
v 0.01936905 -0.24766309 -2.10554683
v 0.02896184 -0.39303751 -2.10554683
v 0.00997200 -0.41457445 -1.46429785
v 0.00987413 -0.41447657 -1.10554684
v -0.88494775 0.35111321 -1.10554684
v -0.87398454 -0.40840709 -1.10554684
v -0.88573085 -0.32759455 -1.10554684
v -0.35103034 0.49173972 -1.10554684
v -0.03515328 0.41998253 -1.10554684
v 0.01369169 0.40637511 -1.10554684
v 0.03277936 -0.30052648 -2.10554683
v 0.03189841 -0.27977269 -2.10554683
v 0.02896184 -0.39303751 -1.46429785
v 0.03277936 -0.36220052 -2.10554683
v 0.02896184 -0.39293963 -1.10554684
v 0.02005422 -0.40302283 -1.10554684
v 0.03268359 0.37798189 -1.10554684
v 0.03268417 -0.36277716 -1.10554684
vn -0.84818141 -0.23588783 -0.47428391
vn -0.28555483 -0.17874301 -0.94154627
vn -0.28371561 -0.35227696 0.89185559
vn -0.82486923 0.22103165 -0.52032275
vn -0.00134666 -0.20684969 -0.97837181
vn -0.00989751 -0.95203593 -0.30582614
vn -0.30391791 0.00825948 -0.95266242
vn -0.84323527 -0.10338215 0.52750962
vn -0.93752495 -0.15109575 0.31339600
vn -0.97445476 -0.20443262 0.09297972
vn -0.97366859 0.15922952 0.16314240
vn -0.35732915 0.27998859 0.89102316
vn -0.52516228 0.62066600 -0.58221842
vn 0.08224155 -0.24248537 -0.96666291
vn -0.00106701 0.00083944 -0.99999908
vn 0.00117899 -0.89264721 -0.45075445
vn 0.01756012 0.01286589 -0.99976303
vn -0.65452522 -0.04283497 0.75482575
vn 0.00001863 -0.27140933 0.96246401
vn -0.94836996 0.11752712 0.29458749
vn -0.88766756 0.09359398 0.45087301
vn -0.79996752 0.06112864 0.59692148
vn -0.60219419 0.01201957 0.79825916
vn -0.08020934 0.37471448 0.92366418
vn -0.23924691 0.19259050 -0.95166686
vn -0.00376587 0.35819734 0.93363830
vn 0.23660829 0.21380037 -0.94779002
vn 0.02260915 -0.99141035 0.12881907
vn 0.39444561 -0.22650603 -0.89056593
vn 0.05880675 0.01282593 -0.99818699
vn 0.00056013 0.00128859 -0.99999901
vn -0.14223178 -0.02404162 0.98954137
vn 0.11210341 -0.34641055 0.93136060
vn -0.11117231 0.00946299 0.99375609
vn -0.56246299 -0.00679990 0.82679450
vn 0.00631025 0.35821743 0.93361687
vn 0.06964103 0.36060155 0.93011647
vn 0.16320479 0.32111438 0.93287178
vn 0.61667973 0.69068490 -0.37770424
vn 0.79999920 0.34721462 -0.48932942
vn 0.87047311 0.10079046 -0.48178611
vn 0.42534856 0.01237684 -0.90494498
vn 0.12526202 0.01822378 -0.99195631
vn 0.50558332 -0.06574812 -0.86026896
vn 0.88743338 -0.46093538 0.00075634
vn 0.41200371 -0.21449962 0.88557487
vn -0.09107304 0.00228587 0.99584159
vn -0.06890783 -0.00513288 0.99760983
vn -0.06447589 -0.00086001 0.99791889
vn 0.19948719 0.28883864 0.93636376
vn 0.23042314 0.24476020 0.94180551
vn 0.44374136 0.19545377 0.87458072
vn 0.47847248 0.00045212 -0.87810243
vn 0.44844791 0.00545647 -0.89379231
vn 0.99165456 -0.12892314 0.00023320
vn 0.48560905 -0.00803350 -0.87413918
vn 0.50555051 -0.06577128 0.86028648
vn 0.44128824 -0.10477109 0.89122820
vn 0.50930167 0.04436444 0.85944378
vn 0.48550971 -0.00802974 0.87419440
f 25//25 27//27 7//7
f 25//25 7//7 4//4
f 41//41 59//59 53//53
f 36//36 25//25 26//26
f 36//36 27//27 25//25
f 17//17 7//7 27//27
f 17//17 15//15 7//7
f 1//1 4//4 2//2
f 2//2 4//4 7//7
f 3//3 18//18 8//8
f 3//3 10//10 1//1
f 1//1 2//2 3//3
f 3//3 2//2 6//6
f 53//53 59//59 60//60
f 59//59 57//57 60//60
f 29//29 33//33 14//14
f 14//14 33//33 28//28
f 52//52 57//57 59//59
f 59//59 41//41 52//52
f 37//37 38//38 27//27
f 27//27 36//36 37//37
f 30//30 17//17 27//27
f 6//6 2//2 5//5
f 7//7 15//15 5//5
f 5//5 2//2 7//7
f 48//48 49//49 35//35
f 9//9 3//3 8//8
f 10//10 3//3 9//9
f 46//46 33//33 45//45
f 33//33 29//29 45//45
f 14//14 28//28 16//16
f 19//19 28//28 33//33
f 19//19 33//33 46//46
f 19//19 3//3 6//6
f 40//40 41//41 27//27
f 40//40 52//52 41//41
f 27//27 41//41 42//42
f 15//15 17//17 31//31
f 17//17 30//30 31//31
f 32//32 48//48 35//35
f 35//35 18//18 32//32
f 18//18 3//3 32//32
f 26//26 25//25 24//24
f 47//47 23//23 35//35
f 35//35 49//49 47//47
f 46//46 45//45 58//58
f 58//58 45//45 57//57
f 53//53 60//60 56//56
f 52//52 40//40 51//51
f 27//27 38//38 39//39
f 39//39 40//40 27//27
f 39//39 51//51 40//40
f 54//54 41//41 53//53
f 54//54 42//42 41//41
f 43//43 30//30 27//27
f 27//27 42//42 43//43
f 11//11 12//12 4//4
f 23//23 12//12 22//22
f 12//12 21//21 22//22
f 12//12 24//24 13//13
f 13//13 24//24 25//25
f 25//25 4//4 13//13
f 4//4 12//12 13//13
f 34//34 12//12 23//23
f 23//23 47//47 34//34
f 55//55 60//60 57//57
f 55//55 56//56 60//60
f 44//44 56//56 55//55
f 57//57 45//45 55//55
f 50//50 39//39 38//38
f 51//51 39//39 50//50
f 20//20 21//21 12//12
f 12//12 11//11 20//20
f 16//16 5//5 14//14
f 6//6 5//5 16//16
f 6//6 16//16 19//19
f 19//19 16//16 28//28
f 15//15 31//31 43//43
f 14//14 5//5 43//43
f 43//43 29//29 14//14
f 53//53 56//56 43//43
f 43//43 5//5 15//15
f 43//43 44//44 29//29
f 43//43 54//54 53//53
f 43//43 31//31 30//30
f 43//43 56//56 44//44
f 42//42 54//54 43//43
f 29//29 44//44 55//55
f 55//55 45//45 29//29
f 50//50 36//36 26//26
f 49//49 48//48 50//50
f 50//50 47//47 49//49
f 50//50 32//32 3//3
f 57//57 52//52 50//50
f 38//38 37//37 50//50
f 46//46 58//58 50//50
f 50//50 37//37 36//36
f 50//50 19//19 46//46
f 26//26 24//24 50//50
f 3//3 19//19 50//50
f 48//48 32//32 50//50
f 50//50 24//24 12//12
f 12//12 34//34 50//50
f 50//50 58//58 57//57
f 52//52 51//51 50//50
f 50//50 34//34 47//47
f 1//1 10//10 20//20
f 20//20 4//4 1//1
f 20//20 18//18 35//35
f 35//35 23//23 20//20
f 8//8 18//18 20//20
f 20//20 9//9 8//8
f 10//10 9//9 20//20
f 20//20 11//11 4//4
f 23//23 22//22 20//20
f 20//20 22//22 21//21

