# https://github.com/mikedh/trimesh
v -1.53375939 -0.99144404 3.19779674
v -0.53375939 -0.99144404 3.19779674
v -1.53375939 -0.99144404 3.50329794
v -1.53375939 0.00855597 3.19779674
v -0.53375939 -0.99144404 3.50329794
v -0.53375939 -0.51777524 3.19779674
v -1.53375939 -0.98929064 3.68233074
v -1.53375939 0.00855597 4.19779671
v -0.60630684 0.00855597 3.19779674
v -0.53375939 -0.98929064 3.68233074
v -0.53375939 0.00855597 3.65511868
v -1.53375939 -0.97470565 3.86126592
v -0.53375939 0.00855597 4.19779671
v -1.53375939 -0.74575096 4.19779671
v -0.53375939 -0.97470565 3.86126592
v -1.53375939 -0.94494845 4.00212321
v -0.53375939 -0.74575096 4.19779671
v -1.53375939 -0.80506968 4.18614828
v -0.53375939 -0.79870720 4.18742088
v -0.53375939 -0.94494845 4.00212321
v -1.53375939 -0.93790059 4.01866602
v -1.53375939 -0.81848003 4.18350544
v -0.53375939 -0.81848003 4.18350544
v -0.53375939 -0.90657720 4.09159080
v -1.53375939 -0.90657720 4.09159080
v -1.53375939 -0.87026163 4.14953905
v -0.53375939 -0.87026163 4.14953905
v -1.53375939 -0.89992089 4.10226031
vn -0.53910285 -0.31694884 -0.78032784
vn 0.53910285 -0.31694884 -0.78032784
vn -0.85984499 -0.51021644 0.01859508
vn -0.53910285 0.31694884 -0.78032784
vn 0.85984499 -0.51021644 0.01859508
vn 0.56869749 0.00292025 -0.82254157
vn -0.84268614 -0.51826850 0.14586923
vn -0.53910285 0.31694884 0.78032784
vn 0.43709631 0.32683557 -0.83792919
vn 0.84268614 -0.51826850 0.14586923
vn 0.86387783 0.49130060 -0.11108026
vn -0.78147380 -0.47127205 0.40890262
vn 0.53910285 0.31694884 0.78032784
vn -0.55910165 -0.01340526 0.82899074
vn 0.78147380 -0.47127205 0.40890262
vn -0.67624571 -0.35028730 0.64806678
vn 0.55911854 -0.01337697 0.82897981
vn -0.56940114 -0.02666602 0.82162720
vn 0.56932952 -0.02670173 0.82167567
vn 0.67540447 -0.34972540 0.64924645
vn -0.66387326 -0.26909500 0.69775366
vn -0.55189100 -0.05804824 0.83189346
vn 0.55194172 -0.05811063 0.83185545
vn 0.62080516 -0.23864021 0.74676087
vn -0.62125538 -0.23882818 0.74632624
vn -0.56104153 -0.14677418 0.81467155
vn 0.56102854 -0.14686138 0.81466479
vn -0.62270782 -0.19952282 0.75658815
f 1//1 2//2 5//5
f 1//1 5//5 3//3
f 1//1 3//3 7//7
f 1//1 7//7 12//12
f 1//1 12//12 16//16
f 1//1 16//16 21//21
f 1//1 21//21 25//25
f 1//1 25//25 28//28
f 1//1 28//28 26//26
f 1//1 26//26 22//22
f 1//1 22//22 18//18
f 1//1 18//18 14//14
f 1//1 14//14 8//8
f 1//1 8//8 4//4
f 1//1 4//4 9//9
f 1//1 9//9 6//6
f 1//1 6//6 2//2
f 2//2 6//6 11//11
f 2//2 11//11 13//13
f 2//2 13//13 17//17
f 2//2 17//17 19//19
f 2//2 19//19 23//23
f 2//2 23//23 27//27
f 2//2 27//27 24//24
f 2//2 24//24 20//20
f 2//2 20//20 15//15
f 2//2 15//15 10//10
f 2//2 10//10 5//5
f 3//3 5//5 10//10
f 3//3 10//10 7//7
f 4//4 8//8 13//13
f 4//4 13//13 11//11
f 4//4 11//11 9//9
f 6//6 9//9 11//11
f 7//7 10//10 15//15
f 7//7 15//15 12//12
f 8//8 14//14 17//17
f 8//8 17//17 13//13
f 12//12 15//15 20//20
f 12//12 20//20 16//16
f 14//14 18//18 19//19
f 14//14 19//19 17//17
f 16//16 20//20 21//21
f 18//18 22//22 19//19
f 19//19 22//22 23//23
f 20//20 24//24 21//21
f 21//21 24//24 25//25
f 22//22 26//26 27//27
f 22//22 27//27 23//23
f 24//24 28//28 25//25
f 24//24 27//27 28//28
f 26//26 28//28 27//27

