# https://github.com/mikedh/trimesh
v -0.95972618 0.00420912 1.41406169
v -0.91028422 -0.49735624 1.26712093
v -0.91028415 -0.49980230 1.36025346
v -0.95972618 0.00420912 1.77529507
v -0.95972618 0.28611939 1.26712093
v -0.91028422 -0.49999921 1.72713061
v -0.95972618 0.49755206 1.26712093
v -0.31688298 -0.49999921 1.26712093
v -0.31678508 -0.49882460 1.98870676
v -0.31678508 -0.49148317 2.08532942
v -0.31678508 -0.47640877 2.16139402
v -0.31678508 -0.45712536 2.20975426
v -0.31678508 -0.43872294 2.24098277
v -0.31678508 -0.41268535 2.25938713
v -0.04314103 -0.37597831 2.26702294
v -0.31674849 -0.37599855 2.26705108
v -0.31678508 0.00420912 2.26702294
v -0.24365017 0.39379347 2.26437971
v -0.24365017 0.43001106 2.24597549
v -0.24365017 0.44831568 2.22982281
v -0.24365017 0.46701178 2.18156038
v -0.24365017 0.48541426 2.13300437
v -0.24365017 0.49255992 2.07177092
v -0.24365017 0.49882459 1.98870676
v -0.95972614 0.50000076 1.77529503
v 0.04027386 -0.44929459 1.79546158
v 0.01687466 -0.48316294 1.79546158
v -0.04314103 -0.49921613 1.79546158
v -0.24365017 0.13126452 1.26712093
v -0.21667738 -0.49999921 1.86792847
v -0.04314103 -0.47640877 2.16139402
v -0.04314103 -0.44792415 2.22536852
v 0.01188149 -0.37597831 2.24871654
v -0.04323892 0.00420912 2.26712090
v -0.24365017 0.35708638 2.26712090
v -0.11656968 0.44831568 2.22982281
v -0.04323892 0.49520283 2.03667544
v -0.95972618 0.49955872 1.35471266
v 0.04027386 -0.33927127 1.79546158
v -0.24365020 0.50000067 1.26712091
v -0.07985535 -0.49504377 2.02494026
v -0.01888512 -0.41855848 2.25028288
v 0.03528069 -0.37597831 2.18195194
v 0.03528069 0.00420912 2.18204990
v 0.01188149 0.35708638 2.24871654
v -0.04323892 0.35708638 2.26712090
v -0.01778367 0.41040952 2.24962203
v -0.07990430 0.48076471 2.14514337
v -0.04323892 0.49999920 1.85708659
v 0.02348319 0.47978586 1.94039543
v 0.04027386 0.43050051 1.82208908
v 0.03151139 -0.44001991 2.10985212
v 0.04027386 -0.41268535 2.08532942
v 0.01227307 0.49275569 1.82208908
v 0.03567238 0.46710969 1.82208908
v 0.01092688 -0.47730208 2.08252713
v 0.03528069 0.35708638 2.18204990
v 0.02656715 0.41385999 2.18669990
v -0.00260843 0.46971588 2.13362842
v 0.04027386 0.43050051 2.08532942
vn -0.99550752 -0.01357623 -0.09370407
vn -0.56100688 -0.27897697 -0.77938638
vn -0.88190056 -0.46967646 -0.04068689
vn -0.80072147 -0.01002941 0.59895287
vn -0.60474940 -0.00059143 -0.79641561
vn -0.75800983 -0.35851955 0.54487139
vn -0.57475978 0.27410591 -0.77104938
vn 0.30252456 -0.30706705 -0.90232406
vn -0.02741715 -0.95278664 0.30240027
vn -0.09974008 -0.71011084 0.69698961
vn -0.15419574 -0.42850339 0.89028564
vn -0.17510313 -0.27498025 0.94537017
vn -0.19189456 -0.15478901 0.96913200
vn -0.20980894 -0.06129341 0.97581931
vn 0.08880428 -0.02097505 0.99582822
vn -0.21511564 -0.01724552 0.97643630
vn -0.20154621 0.00206428 0.97947683
vn -0.16253380 0.04167452 0.98582250
vn -0.15406336 0.09438130 0.98354291
vn -0.14193877 0.21345427 0.96658712
vn -0.11794727 0.34868763 0.92978781
vn -0.09889794 0.51230183 0.85309204
vn -0.04443926 0.82391200 0.56497272
vn -0.01896517 0.95668899 0.29049353
vn -0.73497027 0.33383182 0.59023303
vn 0.91354354 -0.07924398 -0.39894685
vn 0.86986599 -0.34240322 -0.35509604
vn 0.51313956 -0.83978243 -0.17735068
vn 0.36588003 -0.00135275 -0.93066104
vn 0.02518739 -0.99738588 0.06772742
vn 0.33422326 -0.43247123 0.83741474
vn 0.27581590 -0.22266956 0.93506356
vn 0.54781725 -0.03906522 0.83568545
vn 0.09427774 -0.00000707 0.99554593
vn -0.09838439 0.00778870 0.99511801
vn 0.08094511 0.21167235 0.97398291
vn 0.46001907 0.74518780 0.48278112
vn -0.89157361 0.45147837 -0.03554972
vn 0.92231533 0.00017433 -0.38643810
vn 0.35914103 0.29823027 -0.88435085
vn 0.25060097 -0.87166482 0.42118830
vn 0.37451406 -0.12235640 0.91911269
vn 0.93565258 -0.03396161 0.35128458
vn 0.94765277 -0.00000028 0.31930273
vn 0.53305574 0.01882754 0.84587062
vn 0.09269107 0.01592558 0.99556755
vn 0.31228302 0.11511140 0.94298923
vn 0.16971852 0.45953804 0.87179150
vn 0.28479493 0.95805031 0.03211617
vn 0.92723435 0.31719972 0.19904976
vn 0.93052652 0.01447242 -0.36593843
vn 0.91884097 -0.12919529 0.37288048
vn 0.99460110 -0.03408757 0.09801372
vn 0.84106511 0.46770728 -0.27177084
vn 0.93547390 0.11126434 -0.33542335
vn 0.81886510 -0.39555356 0.41592947
vn 0.94428295 0.00949402 0.32899783
vn 0.80444191 0.11097548 0.58357318
vn 0.64389439 0.32990927 0.69033317
vn 0.97499473 0.09571879 0.20055718
f 26//26 8//8 29//29
f 29//29 8//8 40//40
f 40//40 8//8 2//2
f 38//38 25//25 40//40
f 40//40 7//7 38//38
f 1//1 6//6 4//4
f 25//25 38//38 4//4
f 8//8 6//6 3//3
f 3//3 2//2 8//8
f 3//3 6//6 1//1
f 1//1 2//2 3//3
f 5//5 7//7 40//40
f 40//40 2//2 5//5
f 5//5 2//2 1//1
f 17//17 18//18 25//25
f 44//44 33//33 43//43
f 27//27 8//8 26//26
f 8//8 27//27 28//28
f 25//25 4//4 16//16
f 16//16 17//17 25//25
f 16//16 4//4 6//6
f 18//18 17//17 35//35
f 35//35 16//16 34//34
f 17//17 16//16 35//35
f 46//46 35//35 34//34
f 46//46 47//47 18//18
f 18//18 35//35 46//46
f 57//57 60//60 58//58
f 59//59 47//47 58//58
f 58//58 60//60 59//59
f 30//30 6//6 8//8
f 8//8 28//28 30//30
f 30//30 9//9 6//6
f 36//36 47//47 59//59
f 25//25 21//21 22//22
f 6//6 13//13 14//14
f 14//14 16//16 6//6
f 40//40 51//51 39//39
f 26//26 29//29 39//39
f 39//39 29//29 40//40
f 57//57 58//58 45//45
f 45//45 58//58 47//47
f 47//47 46//46 45//45
f 9//9 30//30 41//41
f 41//41 30//30 28//28
f 42//42 14//14 13//13
f 52//52 43//43 33//33
f 33//33 42//42 52//52
f 20//20 36//36 21//21
f 20//20 21//21 25//25
f 21//21 36//36 48//48
f 48//48 22//22 21//21
f 48//48 36//36 59//59
f 59//59 37//37 48//48
f 37//37 22//22 48//48
f 37//37 24//24 23//23
f 23//23 22//22 37//37
f 23//23 24//24 25//25
f 25//25 22//22 23//23
f 49//49 54//54 40//40
f 37//37 54//54 49//49
f 49//49 24//24 37//37
f 40//40 25//25 49//49
f 25//25 24//24 49//49
f 55//55 51//51 40//40
f 40//40 54//54 55//55
f 60//60 51//51 55//55
f 12//12 13//13 6//6
f 6//6 11//11 12//12
f 12//12 11//11 31//31
f 31//31 11//11 10//10
f 10//10 41//41 31//31
f 9//9 41//41 10//10
f 6//6 9//9 10//10
f 10//10 11//11 6//6
f 31//31 41//41 56//56
f 56//56 28//28 27//27
f 56//56 41//41 28//28
f 56//56 27//27 26//26
f 26//26 52//52 56//56
f 56//56 52//52 42//42
f 32//32 42//42 13//13
f 13//13 12//12 32//32
f 32//32 12//12 31//31
f 31//31 56//56 32//32
f 32//32 56//56 42//42
f 16//16 14//14 15//15
f 14//14 42//42 15//15
f 34//34 16//16 15//15
f 15//15 33//33 34//34
f 15//15 42//42 33//33
f 53//53 52//52 26//26
f 43//43 52//52 53//53
f 44//44 43//43 53//53
f 25//25 18//18 19//19
f 19//19 20//20 25//25
f 36//36 20//20 19//19
f 18//18 47//47 19//19
f 47//47 36//36 19//19
f 60//60 55//55 50//50
f 50//50 55//55 54//54
f 59//59 60//60 50//50
f 50//50 37//37 59//59
f 50//50 54//54 37//37
f 5//5 38//38 7//7
f 1//1 4//4 5//5
f 5//5 4//4 38//38
f 45//45 33//33 44//44
f 44//44 57//57 45//45
f 34//34 33//33 45//45
f 45//45 46//46 34//34
f 53//53 51//51 60//60
f 26//26 39//39 53//53
f 53//53 39//39 51//51
f 53//53 57//57 44//44
f 53//53 60//60 57//57

