# https://github.com/mikedh/trimesh
v -0.95974373 -0.49981427 -3.66779339
v -0.95974373 -0.49952072 -3.79049588
v -0.27503348 -0.49981427 -3.66779339
v -0.91931694 -0.00861077 -3.48161498
v -0.95974373 -0.00861077 -3.66779339
v -0.95974373 -0.49864009 -3.93130171
v -0.10101723 -0.49922718 -3.83586328
v -0.04304444 -0.49981427 -3.67787575
v -0.35892150 -0.00861077 -3.48161498
v -0.91931694 0.49981428 -3.48161498
v -0.95974373 -0.00861077 -4.48161500
v -0.95974373 -0.49139925 -4.12080854
v -0.15901449 -0.49291591 -4.08155617
v 0.01226097 -0.49247561 -3.67787575
v 0.03555773 -0.46693692 -3.67787575
v -0.26318930 0.27280395 -3.48161498
v -0.95974373 -0.35695430 -4.48161500
v -0.91931463 0.49134936 -4.12187903
v -0.91931694 0.47623256 -4.27262918
v -0.91931694 0.45695628 -4.36826339
v -0.91931694 0.43856067 -4.43002936
v -0.91931694 0.41253271 -4.46634494
v -0.91931694 0.37583925 -4.48161500
v -0.95974373 -0.48523472 -4.21654072
v -0.27503348 -0.48523472 -4.21654072
v 0.01694724 -0.47497279 -4.01687834
v 0.04025626 -0.43034128 -3.67787575
v 0.04025626 0.33914579 -3.66779339
v -0.26319386 0.50018572 -3.48161642
v 0.04025626 0.44912841 -3.66779339
v -0.01309141 0.49100786 -3.66779339
v -0.91931693 0.49922719 -3.83576603
v -0.04304444 -0.35695430 -4.48161500
v -0.95974373 -0.39364782 -4.47613342
v -0.04304444 0.47623256 -4.27262918
v -0.26318930 0.45695628 -4.36826339
v -0.26318930 0.43856067 -4.43002936
v -0.26318930 0.41253271 -4.46634494
v -0.04304444 0.37583925 -4.48161500
v 0.04025626 -0.43034128 -4.12217886
v -0.95974373 -0.46683905 -4.31227289
v -0.19559926 -0.46683905 -4.31237057
v -0.04304444 -0.47136459 -4.28821740
v 0.04025626 0.44912841 -3.93139967
v -0.07965369 0.49856672 -3.88360698
v 0.01186942 -0.35695430 -4.44520146
v -0.27503348 -0.39364782 -4.47613342
v -0.04304444 0.49100786 -4.12227683
v -0.03094332 0.43308107 -4.42365445
v 0.01186942 0.37583925 -4.44520146
v 0.01705736 -0.41123622 -4.37934894
v 0.03516624 -0.35695430 -4.31334962
v -0.95974373 -0.44814986 -4.40790711
v -0.11626293 -0.44814986 -4.40790711
v -0.04304444 -0.41174992 -4.45792665
v 0.04025626 0.33919467 -4.12227683
v 0.01573591 0.48085604 -3.97904556
v -0.95974373 -0.42946062 -4.43705255
v 0.02642993 0.45055944 -4.20341179
v 0.03516624 0.37583925 -4.31334962
vn -0.36754763 -0.18977645 0.91043596
vn -0.89179934 -0.44933266 -0.05285924
vn 0.00329277 -0.20083464 0.97961962
vn -0.21243922 -0.00467337 0.97716311
vn -0.83031700 0.00462201 0.55727222
vn -0.85362161 -0.44663417 -0.26804490
vn 0.16093589 -0.79516463 -0.58464763
vn 0.09526009 -0.25305416 0.96275080
vn 0.02175387 -0.00615894 0.99974439
vn -0.34507111 0.18026846 0.92110217
vn -0.36152711 0.00366037 -0.93235441
vn -0.75769117 -0.38137123 -0.52958481
vn 0.08427815 -0.56715687 -0.81928644
vn 0.34200102 -0.22326499 0.91279135
vn 0.43133249 -0.06133222 0.90010591
vn 0.04463337 -0.00040212 0.99900335
vn -0.35487439 -0.00256830 -0.93491046
vn -0.68315375 0.37415246 -0.62714503
vn -0.47203732 0.21865415 -0.85403228
vn -0.39265143 0.13805189 -0.90926703
vn -0.33070298 0.08160552 -0.94020002
vn -0.29108839 0.03386127 -0.95609673
vn -0.19607829 0.01000176 -0.98053723
vn -0.51967062 -0.25242942 -0.81622413
vn 0.00475090 -0.30564136 -0.95213486
vn 0.69688269 -0.32831274 -0.63762470
vn 0.42717315 -0.00779381 0.90413625
vn 0.43509459 -0.00016150 0.90038474
vn 0.05009048 0.18116505 0.98217624
vn 0.46214571 0.05713182 0.88496175
vn 0.32963475 0.24332218 0.91221447
vn -0.86485007 0.46742765 -0.18315499
vn 0.04899306 -0.00738809 -0.99877179
vn -0.34311794 -0.02122040 -0.93905259
vn 0.18697723 0.21748515 -0.95798733
vn 0.00493379 0.14752884 -0.98904545
vn 0.00601200 0.08504220 -0.99635921
vn 0.00305298 0.03368176 -0.99942795
vn 0.04895023 0.01588911 -0.99867483
vn 0.89376711 -0.09114192 -0.43917366
vn -0.46692289 -0.16491990 -0.86878331
vn 0.00028050 -0.18674357 -0.98240865
vn 0.23198959 -0.23091835 -0.94491139
vn 0.98868007 0.09474313 -0.11634200
vn 0.22450224 0.94901365 -0.22129583
vn 0.30081914 -0.01129247 -0.95361435
vn 0.00048536 -0.02108936 -0.99977748
vn 0.29834975 0.47690046 -0.82677287
vn 0.15957713 0.08583243 -0.98344697
vn 0.30460956 0.02510086 -0.95214650
vn 0.41659046 -0.07772947 -0.90576516
vn 0.82299736 -0.00972256 -0.56796198
vn -0.35924574 -0.10500334 -0.92731699
vn 0.02588332 -0.10841008 -0.99376924
vn 0.09515647 -0.05362357 -0.99401698
vn 0.99579375 0.00152698 -0.09161041
vn 0.84542389 0.39683801 -0.35746055
vn -0.35891375 -0.04540452 -0.93226571
vn 0.64657283 0.14599000 -0.74875262
vn 0.81527829 0.02625258 -0.57847395
f 16//16 30//30 29//29
f 29//29 10//10 16//16
f 5//5 10//10 11//11
f 15//15 16//16 9//9
f 27//27 16//16 15//15
f 9//9 14//14 15//15
f 28//28 16//16 27//27
f 30//30 16//16 28//28
f 29//29 30//30 31//31
f 9//9 3//3 8//8
f 8//8 14//14 9//9
f 8//8 3//3 1//1
f 42//42 53//53 54//54
f 24//24 42//42 25//25
f 59//59 60//60 50//50
f 50//50 49//49 59//59
f 27//27 15//15 40//40
f 54//54 53//53 58//58
f 55//55 47//47 33//33
f 54//54 58//58 55//55
f 55//55 46//46 51//51
f 33//33 46//46 55//55
f 51//51 46//46 52//52
f 52//52 40//40 51//51
f 56//56 40//40 52//52
f 60//60 56//56 52//52
f 29//29 31//31 45//45
f 45//45 31//31 48//48
f 48//48 18//18 45//45
f 11//11 10//10 32//32
f 32//32 18//18 11//11
f 32//32 45//45 18//18
f 32//32 10//10 29//29
f 29//29 45//45 32//32
f 11//11 18//18 19//19
f 25//25 42//42 43//43
f 14//14 8//8 43//43
f 43//43 42//42 54//54
f 54//54 55//55 43//43
f 43//43 55//55 51//51
f 53//53 42//42 41//41
f 42//42 24//24 41//41
f 60//60 59//59 44//44
f 44//44 56//56 60//60
f 20//20 21//21 11//11
f 11//11 19//19 20//20
f 22//22 23//23 11//11
f 11//11 21//21 22//22
f 39//39 49//49 50//50
f 39//39 38//38 49//49
f 14//14 43//43 26//26
f 26//26 15//15 14//14
f 26//26 40//40 15//15
f 51//51 40//40 26//26
f 26//26 43//43 51//51
f 2//2 8//8 1//1
f 25//25 43//43 13//13
f 30//30 44//44 57//57
f 57//57 31//31 30//30
f 57//57 44//44 59//59
f 48//48 31//31 57//57
f 47//47 55//55 34//34
f 34//34 55//55 58//58
f 35//35 59//59 49//49
f 35//35 18//18 48//48
f 35//35 19//19 18//18
f 48//48 57//57 35//35
f 35//35 57//57 59//59
f 7//7 2//2 6//6
f 8//8 2//2 7//7
f 6//6 13//13 7//7
f 7//7 43//43 8//8
f 7//7 13//13 43//43
f 12//12 13//13 6//6
f 12//12 24//24 25//25
f 25//25 13//13 12//12
f 36//36 35//35 49//49
f 37//37 36//36 49//49
f 49//49 38//38 37//37
f 1//1 3//3 4//4
f 4//4 3//3 9//9
f 4//4 5//5 1//1
f 10//10 5//5 4//4
f 9//9 16//16 4//4
f 4//4 16//16 10//10
f 52//52 46//46 50//50
f 50//50 60//60 52//52
f 30//30 28//28 44//44
f 44//44 28//28 27//27
f 27//27 40//40 44//44
f 44//44 40//40 56//56
f 39//39 17//17 11//11
f 11//11 23//23 39//39
f 33//33 17//17 39//39
f 23//23 22//22 39//39
f 39//39 22//22 38//38
f 50//50 46//46 39//39
f 39//39 46//46 33//33
f 34//34 17//17 33//33
f 33//33 47//47 34//34
f 1//1 5//5 12//12
f 53//53 41//41 12//12
f 12//12 5//5 11//11
f 11//11 17//17 12//12
f 12//12 58//58 53//53
f 12//12 34//34 58//58
f 12//12 41//41 24//24
f 12//12 2//2 1//1
f 6//6 2//2 12//12
f 17//17 34//34 12//12
f 19//19 35//35 36//36
f 36//36 20//20 19//19
f 20//20 36//36 37//37
f 21//21 20//20 37//37
f 38//38 22//22 37//37
f 37//37 22//22 21//21

