# https://github.com/mikedh/trimesh
v -0.72848736 0.49892305 0.33838335
v -1.49680844 0.42142028 0.43666020
v -1.38865385 0.48257458 -0.29743250
v -1.41305737 0.45193336 -0.31412202
v -0.54802849 0.48257458 0.28552513
v -0.60300975 0.49696517 0.32803195
v -1.35812758 0.49892907 0.33831626
v -1.17581386 0.49880068 -0.33343606
v -1.37628093 0.46725397 -0.34206832
v -1.41383983 0.29862937 -0.31412202
v -1.49668463 0.32927064 0.35022751
v -1.49668463 0.39319620 0.37834516
v -1.49744241 -0.41644052 0.43666128
v -1.41159021 -0.46779252 -0.31412202
v -1.38136702 -0.49148308 -0.31412202
v -1.38146484 -0.49148308 0.23555454
v -1.35933540 -0.49079783 0.33206973
v -0.96846343 -0.49148308 0.34836768
v -0.49745326 0.41799860 0.43665896
v -0.57038089 0.49786826 -0.33678449
v -0.49744242 -0.41754610 0.43665811
v -0.75474926 0.34459123 -0.54322323
v -1.36620653 0.29862937 -0.36854643
v -1.39686986 0.28330879 -0.34740310
v -1.41383983 -0.28374935 -0.31412202
v -1.49668463 -0.34503188 0.35081482
v -1.38175826 -0.46779252 -0.34456445
v -1.10794615 -0.45425846 -0.41003766
v -1.41305737 -0.43705337 -0.31412202
v -1.39691875 -0.28374935 -0.34740310
v -1.30439080 -0.50000006 -0.31412202
v -1.30448862 -0.50000006 0.18558396
v -1.30448862 -0.50000006 0.31880623
v -0.49746090 0.42971114 0.08652372
v -0.54861534 0.48257458 -0.29733462
v -0.65652389 0.40450309 -0.51334366
v -0.69924838 0.37247912 -0.54171213
v -0.72848736 0.29853149 -0.55276707
v -1.36620653 -0.28374935 -0.36854643
v -0.78032650 -0.35638771 -0.53441354
v -0.94396211 -0.50000006 -0.31412202
v -0.50499221 0.36836752 -0.54606191
v -0.50499221 0.42271161 -0.39974741
v -0.49745972 -0.44360808 0.08679679
v -0.50499221 0.29853149 -0.56333871
v -1.01939783 0.49999992 -0.03089616
v -0.68046280 -0.50000006 0.30216568
v -0.63253607 0.29853149 -0.56333871
v -0.72848736 -0.31448849 -0.55276707
v -0.68205222 -0.36071956 -0.54946344
v -0.96846343 -0.49148308 -0.34681581
v -0.63253607 -0.50000006 -0.31402411
v -0.50499221 -0.42922174 -0.39732474
v -0.50499221 -0.40562897 -0.51400441
v -0.50499221 -0.37809598 -0.54365150
v -0.50499221 -0.31448849 -0.56333871
v -0.63243824 -0.50000006 0.08652372
v -0.54778397 -0.48556044 0.09423221
v -0.63253607 -0.31448849 -0.56333871
v -0.59291091 -0.48778757 -0.33580368
vn 0.15047773 0.91297615 0.37925057
vn -0.92619959 0.17227759 0.33537254
vn -0.94773002 0.31309286 -0.06148718
vn -0.99646006 0.04752251 -0.06934668
vn 0.98004604 0.19829804 0.01369821
vn 0.83092385 0.53264713 0.16078738
vn -0.82385429 0.53919649 0.17473191
vn -0.47680757 0.81635949 -0.32590140
vn -0.94162476 0.21308172 -0.26065110
vn -0.99927342 0.00029507 -0.03811232
vn -0.99996456 0.00151460 -0.00828173
vn -0.99991983 0.00978281 -0.00803937
vn -0.92722485 -0.17120152 0.33308274
vn -0.99598412 -0.06662892 -0.05980149
vn -0.93120929 -0.33919141 -0.13341082
vn -0.94035737 -0.34016913 0.00360248
vn -0.85923779 -0.47233932 0.19648407
vn 0.06753495 -0.86237118 0.50175190
vn 0.92398506 0.16205631 0.34639480
vn 0.88871515 0.44141922 -0.12383240
vn 0.92430223 -0.17807988 0.33756917
vn -0.83625243 0.10385992 -0.53841898
vn -0.96459821 0.01542387 -0.26327247
vn -0.99332717 0.00274513 -0.11529785
vn -0.99928004 -0.00025341 -0.03793857
vn -0.99994945 -0.00426168 -0.00910744
vn -0.94748858 -0.16556387 -0.27359457
vn -0.65533640 -0.50879699 -0.55826502
vn -0.99881783 -0.00372877 -0.04846685
vn -0.99321874 -0.00292857 -0.11622374
vn -0.51044922 -0.81994537 -0.25909685
vn -0.46619432 -0.88468235 -0.00000837
vn -0.49454511 -0.84175836 0.21649016
vn 0.99886440 0.04764239 -0.00032321
vn 0.99390682 0.11013369 -0.00445033
vn 0.01221082 0.74412266 -0.66793141
vn -0.57132970 0.35986298 -0.73761847
vn -0.83559466 0.02474855 -0.54878873
vn -0.96333718 -0.00990636 -0.26811067
vn -0.87027975 -0.13780891 -0.47288674
vn 0.00022517 -0.98881083 -0.14917469
vn 0.92917286 0.17782072 -0.32406419
vn 0.99756549 0.06533930 -0.02436961
vn 0.99813466 -0.06104945 0.00041437
vn 0.93712717 0.03588874 -0.34713783
vn -0.00185381 0.99999750 -0.00124965
vn 0.76146386 -0.63082307 0.14911418
vn -0.37576180 0.08607890 -0.92270986
vn -0.83631431 -0.03816645 -0.54692019
vn -0.55228509 -0.34239837 -0.76009508
vn -0.03918842 -0.90149041 -0.43102123
vn 0.72053628 -0.68129075 -0.12911385
vn 0.99529182 -0.09499126 -0.01925775
vn 0.92747348 -0.28385663 -0.24334823
vn 0.91902555 -0.20217568 -0.33840365
vn 0.93564376 -0.04438633 -0.35014371
vn 0.62305021 -0.78214804 0.00727100
vn 0.96241941 -0.27142536 0.00878354
vn -0.36813750 -0.09780503 -0.92461287
vn 0.92294087 -0.36625714 -0.11847301
f 13//13 2//2 11//11
f 13//13 21//21 19//19
f 19//19 2//2 13//13
f 33//33 17//17 16//16
f 16//16 17//17 13//13
f 58//58 47//47 57//57
f 21//21 47//47 58//58
f 52//52 58//58 57//57
f 34//34 19//19 21//21
f 36//36 20//20 42//42
f 42//42 34//34 45//45
f 45//45 34//34 56//56
f 48//48 42//42 45//45
f 13//13 11//11 26//26
f 12//12 11//11 2//2
f 2//2 4//4 12//12
f 12//12 4//4 11//11
f 3//3 4//4 2//2
f 11//11 4//4 10//10
f 33//33 16//16 32//32
f 15//15 28//28 31//31
f 31//31 32//32 15//15
f 15//15 32//32 16//16
f 15//15 16//16 13//13
f 33//33 47//47 18//18
f 18//18 47//47 21//21
f 18//18 17//17 33//33
f 18//18 21//21 13//13
f 13//13 17//17 18//18
f 21//21 58//58 44//44
f 44//44 34//34 21//21
f 44//44 56//56 34//34
f 54//54 52//52 51//51
f 31//31 28//28 51//51
f 51//51 28//28 54//54
f 60//60 52//52 54//54
f 58//58 52//52 60//60
f 5//5 6//6 19//19
f 5//5 34//34 35//35
f 19//19 34//34 5//5
f 35//35 20//20 5//5
f 5//5 20//20 6//6
f 7//7 3//3 2//2
f 43//43 20//20 35//35
f 43//43 42//42 20//20
f 35//35 34//34 43//43
f 34//34 42//42 43//43
f 55//55 44//44 54//54
f 56//56 44//44 55//55
f 28//28 15//15 27//27
f 46//46 20//20 8//8
f 8//8 7//7 46//46
f 3//3 7//7 8//8
f 8//8 20//20 36//36
f 4//4 3//3 9//9
f 3//3 8//8 9//9
f 9//9 8//8 36//36
f 25//25 26//26 11//11
f 11//11 10//10 25//25
f 29//29 26//26 25//25
f 31//31 51//51 41//41
f 41//41 51//51 52//52
f 53//53 60//60 54//54
f 58//58 60//60 53//53
f 54//54 44//44 53//53
f 53//53 44//44 58//58
f 46//46 7//7 1//1
f 1//1 20//20 46//46
f 6//6 20//20 1//1
f 19//19 6//6 1//1
f 2//2 19//19 1//1
f 1//1 7//7 2//2
f 59//59 56//56 50//50
f 56//56 55//55 50//50
f 50//50 49//49 59//59
f 54//54 28//28 50//50
f 50//50 55//55 54//54
f 14//14 27//27 15//15
f 14//14 15//15 13//13
f 13//13 26//26 14//14
f 14//14 26//26 29//29
f 23//23 9//9 22//22
f 22//22 9//9 37//37
f 37//37 9//9 36//36
f 36//36 42//42 37//37
f 37//37 48//48 22//22
f 42//42 48//48 37//37
f 49//49 50//50 40//40
f 28//28 27//27 40//40
f 40//40 50//50 28//28
f 38//38 23//23 22//22
f 22//22 48//48 38//38
f 49//49 40//40 39//39
f 39//39 40//40 27//27
f 24//24 10//10 4//4
f 4//4 9//9 24//24
f 9//9 23//23 24//24
f 30//30 25//25 10//10
f 10//10 24//24 30//30
f 29//29 25//25 30//30
f 30//30 39//39 27//27
f 23//23 39//39 30//30
f 30//30 24//24 23//23
f 30//30 14//14 29//29
f 27//27 14//14 30//30
f 48//48 56//56 59//59
f 45//45 56//56 48//48
f 41//41 47//47 33//33
f 41//41 32//32 31//31
f 57//57 47//47 41//41
f 41//41 52//52 57//57
f 33//33 32//32 41//41
f 38//38 48//48 59//59
f 59//59 49//49 38//38
f 39//39 38//38 49//49
f 23//23 38//38 39//39

