# https://github.com/mikedh/trimesh
v -4.25225588 0.24181625 1.62934709
v -4.48103694 0.24181625 1.62719363
v -4.02357248 1.18335286 1.61965641
v -4.48103694 1.18335286 1.61965641
v -4.66067471 0.24181625 1.60115595
v -4.66498216 1.18335286 1.59645751
v -4.02357248 0.24181625 1.62905341
v -3.83150205 1.18335286 1.59645751
v -4.73757147 0.26738763 1.53195079
v -4.73507505 0.24181625 1.53195079
v -4.73791407 1.18335286 1.53195079
v -3.88485497 0.24181625 1.61084663
v -3.74750789 1.18335286 1.53195079
v -3.83101251 0.24181625 1.60282003
v -4.49718353 1.20357238 1.57634195
v -4.74114471 1.21264727 1.40822336
v -4.74124266 0.24181626 1.44946132
v -3.74124264 1.19795108 1.44943324
v -3.76640166 0.24181625 1.55162583
v -3.74535425 0.24181625 1.53195079
v -4.68096355 1.22751491 1.41297081
v -3.75551085 1.22009334 1.37789103
v -3.95929202 1.21616824 1.53672273
v -4.74124263 1.21264727 0.78958591
v -4.69887834 1.23280553 1.07834865
v -3.74124264 1.21264727 0.78958591
v -3.74131606 0.24181625 1.24830265
v -4.12490017 1.24006792 1.35316266
v -4.72056222 0.24181625 0.97173892
v -4.73684952 0.26187656 0.88241824
v -4.74124263 0.33332457 0.78958591
v -4.72861394 1.21264727 0.70706829
v -3.75651433 1.21264727 0.70706829
v -3.74887848 1.22724548 0.99587997
v -3.74124264 0.33332457 0.78958591
v -4.72988670 0.33332457 0.70706829
v -4.73066992 0.80228034 0.70706829
v -4.65568204 1.21264727 0.64833689
v -3.83845251 0.80228034 0.64765169
v -3.75445853 0.80228034 0.70706829
v -3.84050849 1.21264727 0.64833689
v -3.83248099 1.23858603 1.14018792
v -3.75524158 0.33332457 0.70706829
v -3.81341591 0.26738763 0.70104833
v -4.65695479 0.33332457 0.64784746
v -4.66284071 0.26626092 0.68041892
v -4.34094893 0.24181625 0.81065581
v -4.65773784 0.80228034 0.64765169
v -4.55434518 1.22859188 0.75484951
v -4.48103694 1.21264727 0.63071747
v -4.02357248 1.21264727 0.63071747
v -3.94774041 1.22678011 0.73465983
v -3.83923573 0.33332457 0.64784746
v -4.30948777 1.24180695 0.96493587
v -4.48103694 0.33332457 0.62993438
v -4.48103694 0.80228034 0.62934709
v -3.74125811 0.24180693 0.87757903
v -4.02357248 0.80228034 0.62934709
v -4.02357248 0.33332457 0.62993438
v -4.20442782 0.25974561 0.65810099
vn -0.03045856 -0.17298714 0.98445301
vn -0.49256460 -0.14021774 0.85890576
vn 0.40827740 0.03183005 0.91230281
vn -0.41515731 0.02875515 0.90929509
vn -0.93941269 -0.06841540 0.33589156
vn -0.93280271 0.01519192 0.36006709
vn 0.43802244 -0.14442183 0.88728726
vn 0.92518543 0.01646161 0.37915819
vn -0.99737847 -0.00006488 0.07236147
vn -0.99563085 -0.05917869 0.07222951
vn -0.99636677 0.00577370 0.08497014
vn 0.72695877 -0.12673379 0.67488480
vn 0.99487836 0.00762415 0.10079143
vn 0.93441464 -0.07043811 0.34915291
vn -0.70882975 0.08048175 0.70077320
vn -0.99882879 0.00957809 0.04742695
vn -0.99797487 -0.06350478 0.00364815
vn 0.99960475 0.00425486 0.02778906
vn 0.98648121 -0.06726093 0.14943488
vn 0.99598430 -0.05838003 0.06787523
vn -0.97753975 0.06676538 0.19989602
vn 0.99512497 0.03237528 0.09315646
vn 0.84173714 0.08495116 0.53316216
vn -0.99987474 0.00810542 -0.01359471
vn -0.99845167 0.05558608 0.00210825
vn 0.99984917 0.00572429 -0.01639695
vn 0.99807017 -0.06208918 0.00093749
vn 0.70779666 0.33211666 0.62347607
vn -0.99649800 -0.06832087 -0.04820791
vn -0.99952744 -0.00526373 -0.03028518
vn -0.99995264 -0.00031698 -0.00972715
vn -0.99483936 0.02174421 -0.09910517
vn 0.99338024 0.02340880 -0.11246212
vn 0.99891239 0.02945893 -0.03614144
vn 0.99993270 -0.00018719 -0.01160007
vn -0.99626989 -0.00094217 -0.08628681
vn -0.99640682 0.00000335 -0.08469616
vn -0.91564029 0.03839262 -0.40016104
vn 0.91438516 0.00001175 -0.40484538
vn 0.99526015 0.00000330 -0.09724834
vn 0.90747273 0.03889176 -0.41830691
vn 0.99643293 0.08364929 0.01114469
vn 0.99498603 -0.00104601 -0.10000854
vn 0.95113277 -0.02574410 -0.30770716
vn -0.92104753 -0.00282342 -0.38943995
vn -0.94053501 -0.03336704 -0.33805405
vn -0.69649075 -0.30761452 -0.64828539
vn -0.92404198 0.00001169 -0.38229102
vn -0.93864526 0.13096806 -0.31904929
vn -0.34425149 0.08001564 -0.93546160
vn 0.32045855 0.07867452 -0.94398974
vn 0.91537616 0.14330489 -0.37623158
vn 0.91046043 -0.00400570 -0.41357679
vn -0.71419987 0.55557072 -0.42574608
vn -0.36322257 -0.00662646 -0.93167884
vn -0.36357401 0.00002723 -0.93156531
vn 0.99241015 -0.06557145 -0.10403116
vn 0.34962061 0.00002728 -0.93689136
vn 0.35847839 -0.00749753 -0.93350792
vn 0.21323801 -0.10493405 -0.97134875
f 29//29 57//57 17//17
f 27//27 57//57 18//18
f 18//18 20//20 27//27
f 27//27 20//20 57//57
f 13//13 20//20 18//18
f 19//19 14//14 57//57
f 57//57 20//20 19//19
f 19//19 13//13 14//14
f 20//20 13//13 19//19
f 9//9 11//11 17//17
f 9//9 5//5 11//11
f 57//57 29//29 47//47
f 47//47 29//29 46//46
f 32//32 48//48 37//37
f 37//37 48//48 36//36
f 18//18 57//57 35//35
f 35//35 26//26 18//18
f 14//14 13//13 8//8
f 8//8 23//23 3//3
f 10//10 9//9 17//17
f 5//5 9//9 10//10
f 17//17 57//57 10//10
f 57//57 5//5 10//10
f 3//3 23//23 15//15
f 18//18 26//26 34//34
f 34//34 26//26 33//33
f 2//2 5//5 57//57
f 57//57 1//1 2//2
f 7//7 1//1 57//57
f 3//3 1//1 7//7
f 7//7 8//8 3//3
f 24//24 32//32 37//37
f 46//46 29//29 30//30
f 30//30 36//36 46//46
f 30//30 29//29 17//17
f 40//40 39//39 33//33
f 33//33 26//26 40//40
f 26//26 35//35 40//40
f 59//59 58//58 53//53
f 53//53 58//58 39//39
f 18//18 34//34 22//22
f 22//22 13//13 18//18
f 22//22 8//8 13//13
f 23//23 8//8 22//22
f 52//52 34//34 33//33
f 3//3 15//15 4//4
f 4//4 1//1 3//3
f 4//4 2//2 1//1
f 57//57 14//14 12//12
f 12//12 7//7 57//57
f 14//14 8//8 12//12
f 8//8 7//7 12//12
f 17//17 11//11 16//16
f 16//16 24//24 17//17
f 17//17 24//24 31//31
f 31//31 30//30 17//17
f 36//36 30//30 31//31
f 37//37 36//36 31//31
f 31//31 24//24 37//37
f 45//45 55//55 46//46
f 46//46 36//36 45//45
f 45//45 36//36 48//48
f 56//56 55//55 45//45
f 45//45 48//48 56//56
f 39//39 40//40 43//43
f 43//43 53//53 39//39
f 43//43 40//40 35//35
f 43//43 35//35 57//57
f 59//59 53//53 60//60
f 60//60 55//55 59//59
f 46//46 55//55 60//60
f 57//57 47//47 60//60
f 60//60 47//47 46//46
f 6//6 4//4 15//15
f 11//11 5//5 6//6
f 5//5 2//2 6//6
f 2//2 4//4 6//6
f 21//21 15//15 23//23
f 21//21 6//6 15//15
f 21//21 16//16 11//11
f 11//11 6//6 21//21
f 44//44 43//43 57//57
f 53//53 43//43 44//44
f 57//57 60//60 44//44
f 44//44 60//60 53//53
f 41//41 52//52 33//33
f 41//41 51//51 52//52
f 33//33 39//39 41//41
f 39//39 58//58 41//41
f 58//58 51//51 41//41
f 48//48 32//32 38//38
f 56//56 48//48 38//38
f 52//52 51//51 50//50
f 56//56 38//38 50//50
f 28//28 21//21 23//23
f 23//23 22//22 28//28
f 34//34 52//52 42//42
f 52//52 54//54 42//42
f 54//54 28//28 42//42
f 42//42 22//22 34//34
f 42//42 28//28 22//22
f 32//32 24//24 25//25
f 21//21 28//28 25//25
f 25//25 28//28 54//54
f 24//24 16//16 25//25
f 16//16 21//21 25//25
f 49//49 54//54 52//52
f 52//52 50//50 49//49
f 49//49 50//50 38//38
f 49//49 25//25 54//54
f 49//49 38//38 32//32
f 32//32 25//25 49//49
f 59//59 55//55 58//58
f 58//58 55//55 56//56
f 50//50 58//58 56//56
f 50//50 51//51 58//58

