# https://github.com/mikedh/trimesh
v -4.02357248 -0.80708489 -0.63274588
v -3.83923573 -0.33535032 -0.65144203
v -4.02357248 -0.33535032 -0.63333319
v -4.48103694 -0.80708489 -0.63274588
v -3.75524158 -0.33535032 -0.71095652
v -3.83862386 -0.75917511 -0.65119732
v -3.82239781 -0.26898348 -0.68411138
v -4.48103694 -0.33535032 -0.63333319
v -4.65695479 -0.33535032 -0.65144203
v -4.65756654 -0.75917511 -0.65119732
v -4.02357248 -1.21991403 -0.63411627
v -3.84050849 -1.21991403 -0.65183357
v -3.74124264 -0.33535032 -0.79386567
v -3.75474821 -1.21985993 -0.71165927
v -4.25230471 -0.27266507 -0.64336648
v -4.72988670 -0.33535032 -0.71095652
v -4.65568204 -1.21991403 -0.65183357
v -4.48103694 -1.21991403 -0.63411627
v -3.74124264 -1.21991403 -0.79386567
v -3.83490390 -1.24218763 -0.91159767
v -3.74848687 -1.23464035 -1.14632749
v -3.74819310 -0.24718846 -0.95782420
v -4.67550591 -0.27266507 -0.68411138
v -4.74124263 -0.33535032 -0.79386567
v -4.73066992 -0.80708489 -0.71095652
v -4.72861394 -1.21991403 -0.71095652
v -4.66118866 -1.23122878 -0.72598197
v -4.15541904 -1.23387953 -0.69643274
v -3.74447314 -0.26169393 -0.87630987
v -3.91416234 -0.24990057 -0.75094282
v -4.55885451 -0.25183340 -0.76445104
v -4.73544224 -0.26530189 -0.85607202
v -4.74124263 -1.21991403 -0.79386567
v -3.74124264 -0.24718846 -1.45733475
v -3.74124264 -1.21250174 -1.41583122
v -4.74124263 -0.24718846 -1.04269108
v -3.74750789 -1.19036314 -1.54024394
v -3.76635274 -1.22757172 -1.43778208
v -4.74124263 -0.24718846 -1.45733475
v -4.74124263 -1.21250174 -1.41583122
v -4.73681279 -1.23464035 -1.14632749
v -3.74623531 -0.24718846 -1.53926509
v -3.83150205 -1.19036314 -1.60504428
v -4.49148419 -1.24718847 -1.03597976
v -4.73791407 -0.27634666 -1.54024394
v -4.73791407 -1.19036314 -1.54024394
v -3.95929202 -1.22343605 -1.54502194
v -4.02357248 -1.19036314 -1.62843891
v -4.02132091 -0.24718846 -1.63225642
v -3.82929940 -0.24718846 -1.60626784
v -3.97695906 -1.24694302 -1.34543305
v -4.66498216 -0.27634666 -1.60504428
v -4.66498216 -1.19036314 -1.60504428
v -4.68191803 -1.23120422 -1.46206997
v -4.49718353 -1.21073456 -1.58489199
v -4.25225588 -0.24718846 -1.63274585
v -4.48103694 -1.19036314 -1.62843891
v -4.69975946 -0.24718846 -1.55255306
v -4.70076282 -0.26162030 -1.57254622
v -4.48103694 -0.24718846 -1.63078815
vn 0.35021845 -0.00003886 0.93666805
vn 0.91021096 0.00275438 0.41413575
vn 0.36298522 0.00494342 0.93178178
vn -0.36421444 -0.00003899 0.93131511
vn 0.99506565 0.00086343 0.09921494
vn 0.91429191 0.00000287 0.40505593
vn 0.93879679 0.02695428 0.34341529
vn -0.37785630 0.00509149 0.92585026
vn -0.91993915 0.00268205 0.39205198
vn -0.92333106 0.00000795 0.38400489
vn 0.36612271 -0.06105680 0.92856138
vn 0.91181697 -0.03898716 0.40874175
vn 0.99992937 0.00029708 0.01188130
vn 0.99289290 -0.02248991 0.11686700
vn -0.07766562 0.06562628 0.99481719
vn -0.99626128 0.00070311 0.08638842
vn -0.90799821 -0.03421358 0.41757477
vn -0.40005376 -0.06798724 0.91396648
vn 0.99984482 -0.00852913 0.01541414
vn 0.99095359 -0.09001481 0.09954055
vn 0.99955294 -0.02839065 -0.00937535
vn 0.99712608 0.06701619 0.03533291
vn -0.94614289 0.02704398 0.32261781
vn -0.99995279 0.00025957 0.00971354
vn -0.99633811 -0.00000894 0.08550067
vn -0.99568085 -0.01312300 0.09190990
vn -0.97377699 -0.08087948 0.21264260
vn 0.39775094 -0.25925488 0.88010289
vn 0.99926776 0.00610823 0.03777093
vn 0.90720850 0.12710693 0.40101941
vn -0.93570429 0.11358769 0.33399898
vn -0.99892517 0.01125485 0.04496469
vn -0.99987179 -0.00750331 0.01414558
vn 0.99795171 0.06385989 -0.00378098
vn 0.99987040 -0.00324221 -0.01576950
vn -0.99757160 0.06496859 0.02509955
vn 0.99534018 -0.00529901 -0.09628005
vn 0.99065220 -0.03518946 -0.13179503
vn -0.99780213 0.06294431 -0.02071023
vn -0.99970899 -0.00551514 -0.02348463
vn -0.99930378 -0.03548381 -0.01152597
vn 0.99495314 0.05852711 -0.08150358
vn 0.92162941 -0.01536916 -0.38776670
vn -0.97908224 -0.19011127 0.07249606
vn -0.99727756 0.00066177 -0.07373620
vn -0.99653098 -0.00478678 -0.08308481
vn 0.77782105 -0.09348810 -0.62149368
vn 0.40736513 -0.03173007 -0.91271400
vn 0.44677982 0.14387423 -0.88299943
vn 0.93023317 0.07108819 -0.36001766
vn 0.93815685 -0.19298538 -0.28743410
vn -0.93810165 0.00193166 -0.34635469
vn -0.93061820 -0.01416663 -0.36571720
vn -0.97212531 -0.06429243 -0.22547475
vn -0.64256585 -0.08049144 -0.76199098
vn -0.02386660 0.17330384 -0.98457918
vn -0.41424970 -0.02865766 -0.90971200
vn -0.98357323 0.06639651 -0.16785474
vn -0.97910423 0.00808635 -0.20319820
vn -0.70120492 0.11602959 -0.70345490
f 13//13 14//14 19//19
f 11//11 28//28 12//12
f 50//50 42//42 37//37
f 37//37 42//42 34//34
f 41//41 54//54 44//44
f 53//53 54//54 46//46
f 29//29 34//34 22//22
f 13//13 34//34 29//29
f 36//36 30//30 22//22
f 13//13 29//29 5//5
f 5//5 14//14 13//13
f 15//15 8//8 3//3
f 46//46 54//54 40//40
f 54//54 41//41 40//40
f 54//54 53//53 55//55
f 55//55 53//53 57//57
f 55//55 47//47 54//54
f 15//15 30//30 31//31
f 30//30 36//36 31//31
f 18//18 28//28 11//11
f 4//4 17//17 18//18
f 44//44 28//28 27//27
f 27//27 17//17 26//26
f 28//28 18//18 27//27
f 27//27 18//18 17//17
f 27//27 41//41 44//44
f 26//26 41//41 27//27
f 25//25 16//16 24//24
f 10//10 17//17 4//4
f 16//16 25//25 10//10
f 26//26 17//17 10//10
f 10//10 25//25 26//26
f 11//11 12//12 1//1
f 3//3 1//1 2//2
f 56//56 49//49 48//48
f 48//48 57//57 56//56
f 48//48 55//55 57//57
f 47//47 55//55 48//48
f 33//33 40//40 41//41
f 33//33 41//41 26//26
f 33//33 25//25 24//24
f 26//26 25//25 33//33
f 35//35 38//38 37//37
f 37//37 34//34 35//35
f 54//54 47//47 51//51
f 47//47 38//38 51//51
f 44//44 54//54 51//51
f 39//39 58//58 45//45
f 39//39 45//45 46//46
f 46//46 40//40 39//39
f 59//59 52//52 45//45
f 45//45 58//58 59//59
f 56//56 57//57 60//60
f 52//52 59//59 60//60
f 60//60 59//59 58//58
f 53//53 52//52 60//60
f 57//57 53//53 60//60
f 32//32 36//36 24//24
f 24//24 16//16 32//32
f 23//23 32//32 16//16
f 23//23 8//8 15//15
f 15//15 31//31 23//23
f 23//23 31//31 36//36
f 36//36 32//32 23//23
f 6//6 1//1 12//12
f 6//6 2//2 1//1
f 6//6 12//12 14//14
f 14//14 5//5 6//6
f 5//5 2//2 6//6
f 7//7 2//2 5//5
f 7//7 5//5 29//29
f 7//7 30//30 15//15
f 22//22 30//30 7//7
f 7//7 29//29 22//22
f 15//15 3//3 7//7
f 3//3 2//2 7//7
f 43//43 49//49 50//50
f 43//43 48//48 49//49
f 43//43 50//50 37//37
f 47//47 48//48 43//43
f 37//37 38//38 43//43
f 43//43 38//38 47//47
f 21//21 35//35 19//19
f 38//38 35//35 21//21
f 21//21 51//51 38//38
f 21//21 19//19 14//14
f 16//16 10//10 9//9
f 9//9 23//23 16//16
f 8//8 23//23 9//9
f 4//4 8//8 9//9
f 9//9 10//10 4//4
f 20//20 21//21 14//14
f 14//14 12//12 20//20
f 20//20 12//12 28//28
f 51//51 21//21 20//20
f 20//20 28//28 44//44
f 44//44 51//51 20//20
f 52//52 53//53 46//46
f 46//46 45//45 52//52
f 4//4 18//18 1//1
f 1//1 18//18 11//11
f 1//1 8//8 4//4
f 1//1 3//3 8//8
f 35//35 34//34 13//13
f 13//13 19//19 35//35
f 39//39 33//33 24//24
f 24//24 36//36 39//39
f 40//40 33//33 39//39
f 60//60 49//49 56//56
f 22//22 34//34 60//60
f 42//42 50//50 60//60
f 60//60 34//34 42//42
f 60//60 36//36 22//22
f 50//50 49//49 60//60
f 60//60 39//39 36//36
f 58//58 39//39 60//60

