# https://github.com/mikedh/trimesh
v -0.55553039 0.31448074 0.84829151
v -0.69589841 0.31448074 0.84829151
v -0.80151707 0.31448074 0.83243400
v -0.69589841 -0.29862202 0.84829151
v -0.55553039 -0.30890077 0.84780206
v -0.62571440 0.36044142 0.83453853
v -0.84245775 0.36553187 0.80611499
v -1.50316155 0.28374235 0.55512395
v -0.80151707 -0.29862202 0.83243400
v -0.73671674 0.39382288 0.80370457
v -1.50903470 0.48873002 0.51195639
v -1.52019366 0.46778099 0.51900412
v -1.53693213 0.28374235 0.52321318
v -1.50316155 -0.29862202 0.55512395
v -0.83039334 -0.34458274 0.81809381
v -0.74870774 -0.35224284 0.83297238
v -0.62485791 0.44666052 0.64782778
v -1.21563464 0.49147097 0.52147572
v -1.24353206 0.49920458 0.47762298
v -1.55553038 -0.00743983 0.47299789
v -1.53688318 -0.28330181 0.52321318
v -1.51417371 -0.46724245 0.51513762
v -0.72230308 -0.39658828 0.78951116
v -1.55408659 0.45241180 0.46046852
v -0.97311064 -0.49891075 0.50370948
v -0.60317624 0.48554848 0.44798808
v -0.69589841 0.49998774 0.47309576
v -0.90703782 0.49998774 -0.15170847
v -1.53658952 0.47962598 0.34143953
v -1.55553038 0.43704261 0.32264548
v -0.55553039 -0.36325578 0.82494575
v -1.54669621 -0.49999661 0.48942966
v -0.55553039 0.42749803 0.60692993
v -0.69589841 0.49998774 -0.15170847
v -1.20527099 0.49670827 0.06040978
v -1.03218465 0.46856409 -0.15170847
v -1.51466313 0.47825551 0.23557619
v -1.55406210 0.43704261 0.27252803
v -1.55508991 -0.45192222 0.42288042
v -0.55553039 -0.40840884 0.76626332
v -1.49219836 -0.49861707 0.24560944
v -0.74793392 -0.50001224 -0.15170835
v -0.55553250 0.44779369 -0.15170845
v -0.61112945 0.49147097 -0.15170847
v -1.04867839 0.43704261 -0.15170847
v -1.52029156 0.43704261 0.23308008
v -1.55406210 -0.45192222 0.27252803
v -0.63892898 -0.49861707 0.50089527
v -1.50727275 -0.48256269 0.23885533
v -1.00609812 -0.48256269 -0.15170847
v -0.96733540 -0.49891075 -0.15170847
v -1.04867839 -0.42128176 -0.15170847
v -1.52029156 -0.45192222 0.23308008
v -0.60427742 -0.48256269 0.47309576
v -1.04300102 -0.45290114 -0.15170847
v -0.63675380 -0.49899392 -0.15170765
v -0.55553039 -0.43087606 -0.15170847
v -0.60237635 -0.48232798 -0.15170662
v -0.55553039 -0.42277461 0.58931049
vn 0.89817352 0.05051302 0.43672963
vn -0.32234078 0.06668569 0.94427191
vn -0.73884577 0.04072684 0.67264274
vn -0.29465563 -0.03466113 0.95497470
vn 0.89136589 -0.03331940 0.45205826
vn 0.68076341 0.24925602 0.68879069
vn -0.74151676 0.13015455 0.65818894
vn -0.93436846 0.00897868 0.35619511
vn -0.74852884 -0.01463945 0.66294062
vn -0.00812806 0.46497168 0.88528824
vn -0.91320268 0.30731530 0.26761573
vn -0.95596661 0.05454202 0.28836262
vn -0.98866819 0.00303618 0.15008659
vn -0.93540023 -0.01216095 0.35338156
vn -0.78820843 -0.09291032 0.60835446
vn -0.44470007 -0.19431311 0.87434791
vn 0.85156722 0.38614492 0.35457773
vn -0.08550220 0.80503662 0.58703102
vn -0.19329150 0.96014599 0.20188629
vn -0.99914928 -0.00002998 0.04123974
vn -0.98840276 -0.00176496 0.15184491
vn -0.89716708 -0.04862107 0.43900709
vn -0.31490847 -0.46148317 0.82937684
vn -0.99806047 0.03728319 0.04985242
vn -0.01183626 -0.89837712 0.43906542
vn 0.97284193 0.22663394 0.04707056
vn 0.67072422 0.69715125 0.25319786
vn -0.39853146 0.48760332 -0.77679835
vn -0.97421038 0.22390679 -0.02792626
vn -0.99989050 0.01418956 -0.00420005
vn 0.89832869 -0.12528513 0.42108100
vn -0.93574842 -0.27536000 0.22034465
vn 0.99344223 0.08898200 0.07179649
vn 0.30535981 0.52720121 -0.79297810
vn -0.78418464 0.58196499 -0.21533972
vn -0.78753985 0.14350488 -0.59932240
vn -0.96158977 0.22105842 -0.16272148
vn -0.99573681 0.02065610 -0.08989738
vn -0.99994163 -0.00608279 0.00892992
vn 0.92529608 -0.23291971 0.29929178
vn -0.92651389 -0.34600604 -0.14782366
vn 0.01863970 -0.52633099 -0.85007544
vn 0.91602922 0.04753973 -0.39828437
vn 0.85151250 0.25244542 -0.45956259
vn -0.78280375 0.01657916 -0.62204777
vn -0.97374355 0.00816279 -0.22750137
vn -0.99516747 -0.03620891 -0.09127225
vn 0.86791572 -0.46265711 0.18075039
vn -0.97798162 -0.08526943 -0.19047590
vn -0.76042082 -0.11814712 -0.63859332
vn -0.52723612 -0.44018316 -0.72681556
vn -0.77509283 -0.00548648 -0.63182356
vn -0.97320853 -0.02545849 -0.22851043
vn 0.99244501 -0.12196225 0.01334611
vn -0.78949741 -0.04734826 -0.61192482
vn 0.75098206 -0.37092519 -0.54629704
vn 0.91375747 -0.03457471 -0.40478621
vn 0.89834829 -0.10991855 -0.42530961
vn 0.99916386 -0.04022850 0.00729662
f 42//42 32//32 51//51
f 42//42 51//51 57//57
f 46//46 37//37 45//45
f 19//19 27//27 28//28
f 33//33 57//57 43//43
f 59//59 57//57 33//33
f 43//43 57//57 44//44
f 44//44 57//57 51//51
f 39//39 32//32 20//20
f 42//42 57//57 56//56
f 28//28 37//37 35//35
f 35//35 37//37 11//11
f 35//35 19//19 28//28
f 11//11 19//19 35//35
f 29//29 24//24 11//11
f 11//11 37//37 29//29
f 36//36 37//37 28//28
f 36//36 45//45 37//37
f 11//11 10//10 18//18
f 18//18 19//19 11//11
f 27//27 19//19 18//18
f 1//1 33//33 6//6
f 7//7 10//10 11//11
f 7//7 6//6 10//10
f 28//28 27//27 34//34
f 27//27 44//44 34//34
f 26//26 33//33 43//43
f 43//43 44//44 26//26
f 26//26 44//44 27//27
f 42//42 56//56 48//48
f 48//48 32//32 42//42
f 48//48 25//25 32//32
f 23//23 32//32 40//40
f 32//32 25//25 40//40
f 25//25 48//48 40//40
f 40//40 31//31 23//23
f 16//16 31//31 5//5
f 23//23 31//31 16//16
f 16//16 32//32 23//23
f 4//4 5//5 1//1
f 4//4 16//16 5//5
f 9//9 16//16 4//4
f 15//15 9//9 14//14
f 32//32 16//16 15//15
f 15//15 16//16 9//9
f 38//38 37//37 46//46
f 38//38 29//29 37//37
f 24//24 29//29 38//38
f 10//10 6//6 17//17
f 17//17 6//6 33//33
f 27//27 18//18 17//17
f 17//17 18//18 10//10
f 17//17 26//26 27//27
f 33//33 26//26 17//17
f 2//2 7//7 3//3
f 6//6 7//7 2//2
f 1//1 6//6 2//2
f 2//2 4//4 1//1
f 52//52 55//55 53//53
f 53//53 55//55 49//49
f 41//41 51//51 32//32
f 54//54 57//57 59//59
f 59//59 40//40 54//54
f 54//54 40//40 48//48
f 54//54 48//48 56//56
f 12//12 7//7 11//11
f 11//11 24//24 12//12
f 12//12 8//8 3//3
f 3//3 7//7 12//12
f 20//20 32//32 21//21
f 32//32 14//14 21//21
f 22//22 14//14 32//32
f 32//32 15//15 22//22
f 22//22 15//15 14//14
f 20//20 24//24 30//30
f 24//24 38//38 30//30
f 30//30 39//39 20//20
f 39//39 30//30 47//47
f 47//47 30//30 38//38
f 32//32 39//39 47//47
f 47//47 53//53 49//49
f 47//47 41//41 32//32
f 49//49 41//41 47//47
f 51//51 41//41 50//50
f 49//49 55//55 50//50
f 50//50 41//41 49//49
f 58//58 56//56 57//57
f 57//57 54//54 58//58
f 58//58 54//54 56//56
f 8//8 12//12 13//13
f 14//14 8//8 13//13
f 13//13 21//21 14//14
f 13//13 12//12 24//24
f 13//13 24//24 20//20
f 20//20 21//21 13//13
f 40//40 33//33 1//1
f 1//1 5//5 40//40
f 59//59 33//33 40//40
f 5//5 31//31 40//40
f 14//14 9//9 8//8
f 8//8 9//9 3//3
f 3//3 9//9 2//2
f 9//9 4//4 2//2
f 53//53 45//45 52//52
f 46//46 45//45 53//53
f 46//46 53//53 47//47
f 47//47 38//38 46//46
f 28//28 34//34 50//50
f 50//50 36//36 28//28
f 52//52 45//45 50//50
f 50//50 44//44 51//51
f 45//45 36//36 50//50
f 50//50 34//34 44//44
f 50//50 55//55 52//52

