# https://github.com/mikedh/trimesh
v -0.96437968 -0.32202315 -1.42737100
v -0.96349871 0.34512620 -1.42737100
v -0.95547206 -0.45192882 -0.78700294
v -0.95547206 0.43704899 -0.78700294
v -0.96330293 0.35276200 -1.42737100
v -0.96335187 -0.34458777 -1.42737100
v -0.92620425 -0.48256973 -0.68715956
v -0.93472030 -0.45192882 -0.66758243
v -0.93472030 0.43704899 -0.66758243
v -0.95429747 0.46778783 -0.78700294
v -0.96105154 0.39123451 -1.42737100
v -0.93538104 -0.46536481 -1.42737100
v -0.95063896 -0.45958905 -1.26359606
v -0.91651356 -0.49862435 -0.70996692
v -0.78446582 -0.46778768 -0.43343989
v -0.78456371 0.00792950 -0.43324412
v -0.78446582 0.48325499 -0.43343989
v -0.93056017 0.47826249 -0.67707734
v -0.95371015 0.46778783 -1.28127665
v -0.94039767 0.46778783 -1.42737100
v -0.91666042 -0.49837963 -1.42737100
v -0.92816197 -0.49074389 -0.98119588
v -0.78681508 -0.49852647 -0.56352996
v -0.49232603 -0.49999490 -0.42737099
v -0.75167412 -0.45192882 -0.43099275
v -0.75167412 0.46778783 -0.43099275
v -0.55717529 0.49999504 -0.42737099
v -0.75167412 0.49147815 -0.50450490
v -0.88147048 0.49999504 -0.78700294
v -0.93344778 0.49147815 -1.03413980
v -0.92825986 0.48942240 -1.42737100
v -0.88147048 -0.49999490 -1.06950099
v -0.58404491 -0.49926069 -0.42737099
v -0.63216183 0.23137924 -0.42737099
v -0.88147048 0.49999504 -1.35199903
v -0.44367684 -0.49997043 -1.28127665
v -0.40760597 -0.49950541 -0.42737099
v -0.42730644 0.50000516 -0.42737108
v -0.37540159 0.49147815 -0.42737099
v -0.49227709 0.49999504 -1.35199903
v -0.66918095 -0.49899148 -1.42737100
v -0.39135695 -0.49886910 -1.28127665
v -0.39116119 -0.49891804 -0.42737099
v -0.37540159 0.49147815 -1.21055427
v -0.03818544 0.41747006 -0.42737099
v -0.67713417 0.49485559 -1.42737100
v -0.39302101 -0.49842859 -1.42737100
v 0.01085527 -0.41198793 -1.42737100
v 0.01085527 -0.41198793 -0.42737099
v -0.03818544 0.41747006 -1.42737100
v -0.40212438 0.49519812 -1.35199903
v -0.40780175 0.49191874 -1.42737100
v 0.01486860 0.40396067 -0.42737099
v 0.03150914 -0.39054911 -1.42737100
v 0.03150914 -0.39054911 -0.42737099
v 0.01486860 0.40396067 -1.42737100
v 0.03562036 0.37576716 -0.42737099
v 0.03562036 -0.35990820 -1.42737100
v 0.03562036 -0.35990820 -0.42737099
v 0.03562036 0.37576716 -1.42737100
vn -0.42844202 -0.00112955 -0.90356857
vn -0.42714268 0.00085473 -0.90418383
vn -0.93955628 -0.06748576 0.33567792
vn -0.92211129 0.00470798 0.38689612
vn -0.42453829 0.00335968 -0.90540375
vn -0.42190191 -0.00736667 -0.90661156
vn -0.57162424 -0.10380618 0.81392260
vn -0.51629805 -0.02648682 0.85599928
vn -0.51228211 0.00677345 0.85879052
vn -0.92114899 0.12473460 0.36868120
vn -0.42088670 0.00876995 -0.90707082
vn -0.37098499 -0.03460853 -0.92799374
vn -0.98334032 -0.09675990 -0.15388094
vn -0.59630932 -0.37752642 0.70844125
vn -0.16043479 -0.06635554 0.98481350
vn -0.15376644 0.00000006 0.98810722
vn -0.17140769 0.13107553 0.97644181
vn -0.54285568 0.17149122 0.82213045
vn -0.98165660 0.11457037 -0.15239408
vn -0.36062578 0.03359486 -0.93210538
vn -0.32104448 -0.21040420 -0.92339619
vn -0.97271965 -0.23176187 0.01014494
vn -0.17906596 -0.40352089 0.89727714
vn 0.00125169 -0.21291940 0.97706897
vn -0.00998509 -0.00096728 0.99994968
vn -0.00946230 0.00140754 0.99995424
vn -0.01167556 0.21206918 0.97718491
vn -0.18748853 0.54361902 0.81812371
vn -0.47183938 0.69355000 0.54438589
vn -0.89385301 0.44670861 0.03844762
vn -0.33289843 0.16732727 -0.92799796
vn -0.08878420 -0.99597226 -0.01251454
vn -0.02198643 -0.20478281 0.97856047
vn -0.00319749 0.00001371 0.99999489
vn -0.24097713 0.68113288 -0.69136678
vn 0.03892758 -0.99585643 -0.08218644
vn 0.02027276 -0.21585603 0.97621472
vn 0.08193179 0.22944320 0.96986752
vn 0.17149893 0.20024684 0.96461874
vn 0.06653221 0.74114529 -0.66803976
vn -0.00149781 -0.20856973 -0.97800635
vn 0.45505050 -0.88954234 -0.04053965
vn 0.12290243 -0.22543252 0.96647565
vn 0.63549477 0.76915119 -0.06747469
vn 0.20141420 0.19001179 0.96089949
vn -0.00037873 0.15739674 -0.98753538
vn 0.10686944 -0.22530680 -0.96840889
vn 0.36125312 -0.17052958 -0.91674197
vn 0.36136031 -0.17048393 0.91670822
vn 0.20075301 0.19020733 -0.96099917
vn 0.43358510 0.76883072 -0.47000350
vn 0.09117587 0.17871935 -0.97966645
vn 0.38753901 0.15607309 0.90854538
vn 0.44345444 -0.05247057 -0.89475974
vn 0.44345444 -0.05247057 0.89475974
vn 0.38753901 0.15607309 -0.90854538
vn 0.44679801 0.03568278 0.89392297
vn 0.42407890 -0.00634895 -0.90560299
vn 0.42407890 -0.00634895 0.90560299
vn 0.44679801 0.03568278 -0.89392297
f 1//1 6//6 3//3
f 38//38 27//27 39//39
f 18//18 9//9 17//17
f 34//34 25//25 33//33
f 33//33 14//14 24//24
f 17//17 9//9 16//16
f 9//9 8//8 16//16
f 34//34 27//27 26//26
f 26//26 27//27 17//17
f 26//26 25//25 34//34
f 17//17 16//16 26//26
f 26//26 16//16 25//25
f 47//47 36//36 41//41
f 24//24 36//36 37//37
f 32//32 14//14 21//21
f 21//21 41//41 32//32
f 32//32 41//41 36//36
f 32//32 36//36 24//24
f 24//24 14//14 32//32
f 13//13 3//3 6//6
f 8//8 3//3 7//7
f 7//7 3//3 14//14
f 29//29 18//18 17//17
f 29//29 27//27 38//38
f 1//1 3//3 4//4
f 15//15 33//33 25//25
f 15//15 7//7 14//14
f 8//8 7//7 15//15
f 15//15 16//16 8//8
f 25//25 16//16 15//15
f 42//42 36//36 47//47
f 42//42 37//37 36//36
f 43//43 37//37 42//42
f 47//47 48//48 42//42
f 42//42 48//48 43//43
f 43//43 48//48 49//49
f 21//21 13//13 12//12
f 12//12 13//13 6//6
f 21//21 14//14 22//22
f 22//22 13//13 21//21
f 14//14 3//3 22//22
f 3//3 13//13 22//22
f 38//38 39//39 44//44
f 44//44 51//51 38//38
f 52//52 51//51 50//50
f 51//51 44//44 50//50
f 17//17 27//27 28//28
f 28//28 29//29 17//17
f 27//27 29//29 28//28
f 38//38 51//51 40//40
f 52//52 46//46 40//40
f 40//40 51//51 52//52
f 1//1 4//4 2//2
f 2//2 4//4 5//5
f 10//10 4//4 9//9
f 9//9 18//18 10//10
f 5//5 4//4 10//10
f 14//14 33//33 23//23
f 23//23 15//15 14//14
f 33//33 15//15 23//23
f 35//35 29//29 38//38
f 38//38 40//40 35//35
f 35//35 46//46 31//31
f 35//35 40//40 46//46
f 30//30 10//10 18//18
f 18//18 29//29 30//30
f 30//30 35//35 31//31
f 29//29 35//35 30//30
f 19//19 30//30 31//31
f 10//10 30//30 19//19
f 5//5 10//10 11//11
f 10//10 19//19 11//11
f 20//20 19//19 31//31
f 20//20 11//11 19//19
f 60//60 53//53 57//57
f 56//56 53//53 60//60
f 58//58 59//59 55//55
f 58//58 55//55 54//54
f 57//57 59//59 58//58
f 58//58 60//60 57//57
f 4//4 3//3 8//8
f 4//4 8//8 9//9
f 49//49 27//27 34//34
f 49//49 59//59 57//57
f 24//24 37//37 49//49
f 55//55 59//59 49//49
f 57//57 53//53 49//49
f 49//49 33//33 24//24
f 53//53 45//45 49//49
f 49//49 39//39 27//27
f 34//34 33//33 49//49
f 49//49 37//37 43//43
f 49//49 45//45 39//39
f 54//54 55//55 49//49
f 49//49 48//48 54//54
f 50//50 53//53 56//56
f 50//50 45//45 53//53
f 39//39 45//45 50//50
f 50//50 44//44 39//39
f 21//21 12//12 20//20
f 20//20 41//41 21//21
f 20//20 6//6 1//1
f 31//31 46//46 20//20
f 54//54 48//48 20//20
f 56//56 60//60 20//20
f 20//20 58//58 54//54
f 60//60 58//58 20//20
f 20//20 50//50 56//56
f 1//1 2//2 20//20
f 47//47 41//41 20//20
f 20//20 48//48 47//47
f 20//20 12//12 6//6
f 52//52 50//50 20//20
f 20//20 46//46 52//52
f 20//20 2//2 5//5
f 5//5 11//11 20//20

