# https://github.com/mikedh/trimesh
v -3.86110341 0.33447533 0.49999997
v -3.86110341 0.37431480 0.49784648
v -4.86110337 0.30628426 0.45879013
v -3.86110341 -0.30628426 0.49999997
v -3.86110341 0.40808537 0.49030930
v -4.86110337 0.37431480 0.44449880
v -4.86110337 -0.30628426 0.45879013
v -3.86110341 -0.37431480 0.49784648
v -3.86110341 0.43715741 0.48198902
v -3.86110341 0.46583789 0.46466325
v -4.86110337 0.42413861 0.40867267
v -4.86110337 -0.30912295 0.45820280
v -4.86110337 -0.37431480 0.44449880
v -3.86110341 -0.43715741 0.48198902
v -3.86110341 0.47288565 0.45644086
v -3.86110341 0.48972199 0.41572043
v -4.86110337 -0.42413861 0.40867267
v -3.86110341 -0.47288565 0.45644086
v -3.86110341 0.49265856 0.39878620
v -4.86110337 0.44312842 0.35028386
v -3.86110341 -0.48972199 0.41572043
v -3.86110341 -0.47954191 0.44058340
v -3.86110341 0.49990212 0.34906029
v -4.86110337 -0.44361786 0.34744517
v -3.86110341 -0.49990212 0.34906029
v -4.86110337 0.44709280 0.27417775
v -4.86110337 -0.44714174 0.27261159
v -3.86110341 0.50000000 -0.00675412
v -4.86110337 0.44714174 -0.26252939
v -4.86110337 -0.44714174 -0.26566171
v -3.86110341 -0.50000000 0.01683632
v -3.86110341 0.49990212 -0.33897809
v -4.86110337 0.44586924 -0.33574784
v -4.86110337 -0.44577136 -0.33897809
v -3.86110341 -0.49990212 -0.33897809
v -3.86110341 0.49774862 -0.36247064
v -4.86110337 0.44577136 -0.33897809
v -4.86110337 -0.44498824 -0.34162100
v -3.86110341 -0.49001567 -0.41542681
v -3.86110341 0.49001567 -0.41542681
v -4.86110337 0.42638996 -0.40368051
v -4.86110337 -0.42638996 -0.40368051
v -3.86110341 0.48003134 -0.44616290
v -3.86110341 0.47464759 -0.45732182
v -3.86110341 -0.47464759 -0.45732182
v -3.86110341 -0.47880775 -0.44988256
v -3.86110341 0.44087705 -0.47846516
v -4.86110337 0.38327134 -0.44107283
v -3.86110341 -0.45937744 -0.46848085
v -4.86110337 -0.38165623 -0.44214958
v -3.86110341 -0.44087705 -0.47846516
v -3.86110341 0.37431480 -0.49774864
v -4.86110337 0.34837510 -0.45624513
v -4.86110337 -0.34837510 -0.45624513
v -3.86110341 -0.40260377 -0.49275646
v -3.86110341 0.30628426 -0.49999999
v -4.86110337 0.30716523 -0.45874122
v -3.86110341 -0.37431480 -0.49774864
v -4.86110337 -0.30628426 -0.45879018
v -3.86110341 -0.33447533 -0.49999999
vn 0.93129829 0.00823817 0.36416428
vn 0.92528492 0.04412975 0.37669667
vn -0.95391106 0.02191697 0.29928804
vn 0.93234062 -0.00453012 0.36155283
vn 0.92765672 0.07427842 0.36597231
vn -0.95413876 0.09471604 0.28398608
vn -0.95394035 -0.02159699 0.29921794
vn 0.92381051 -0.04574733 0.38010699
vn 0.91805931 0.13379797 0.37318254
vn 0.91500616 0.22751103 0.33317033
vn -0.95627997 0.21748111 0.19552642
vn -0.96001286 -0.04561868 0.27621413
vn -0.95389371 -0.09560986 0.28450931
vn 0.91364210 -0.14651837 0.37919715
vn 0.91880892 0.31220607 0.24149026
vn 0.92769730 0.35004964 0.12978047
vn -0.95587006 -0.21863608 0.19624142
vn 0.90765618 -0.29843099 0.29512572
vn 0.93787913 0.34006400 0.06884199
vn -0.96471699 0.25692168 0.05755321
vn 0.92729274 -0.35265522 0.12554870
vn 0.93429147 -0.31590326 0.16524096
vn 0.93423123 0.35507314 0.03369081
vn -0.96473007 -0.25730128 0.05560520
vn 0.93398825 -0.35556024 0.03525413
vn -0.96819935 0.25007778 0.00714956
vn -0.96826990 -0.24982402 0.00643087
vn 0.94064495 0.33939222 0.00001220
vn -0.96871129 0.24817909 -0.00236264
vn -0.96868784 -0.24826860 -0.00256484
vn 0.94065328 -0.33936912 0.00000429
vn 0.93686065 0.34909453 -0.02061868
vn -0.96894089 0.24718084 -0.00742791
vn -0.96431517 -0.26043919 -0.04762016
vn 0.93540437 -0.35239086 -0.02897141
vn 0.93780546 0.34328125 -0.05175804
vn -0.96449729 0.25935446 -0.04980208
vn -0.97017452 -0.22691795 -0.08526224
vn 0.92994063 -0.35265823 -0.10412781
vn 0.93037866 0.35068117 -0.10685627
vn -0.95825602 0.22398442 -0.17769744
vn -0.95816881 -0.22382102 -0.17837234
vn 0.92833319 0.33137529 -0.16848712
vn 0.90683914 0.28453448 -0.31093875
vn 0.91109804 -0.27777349 -0.30453613
vn 0.92516919 -0.33195534 -0.18403159
vn 0.91927056 0.13708955 -0.36898251
vn -0.95819634 0.12449121 -0.25760768
vn 0.92234252 -0.17536349 -0.34428466
vn -0.95794991 -0.12313235 -0.25917250
vn 0.92405254 -0.13181738 -0.35881901
vn 0.92376573 0.04992498 -0.37968985
vn -0.95191532 0.05373666 -0.30161166
vn -0.95208161 -0.05262021 -0.30128345
vn 0.92443462 -0.08318093 -0.37215799
vn 0.93228233 0.00473699 -0.36170045
vn -0.95613159 0.00661565 -0.29286278
vn 0.92838397 -0.03491440 -0.36997864
vn -0.95614078 -0.00657492 -0.29283371
vn 0.93120256 -0.00861692 -0.36440025
f 34//34 39//39 35//35
f 4//4 7//7 8//8
f 14//14 8//8 13//13
f 18//18 13//13 17//17
f 14//14 13//13 18//18
f 3//3 1//1 2//2
f 56//56 60//60 59//59
f 59//59 57//57 56//56
f 56//56 57//57 52//52
f 30//30 35//35 31//31
f 30//30 34//34 35//35
f 51//51 49//49 50//50
f 12//12 8//8 7//7
f 12//12 13//13 8//8
f 16//16 11//11 15//15
f 6//6 5//5 9//9
f 2//2 5//5 6//6
f 3//3 2//2 6//6
f 20//20 11//11 16//16
f 20//20 23//23 26//26
f 26//26 23//23 28//28
f 29//29 28//28 32//32
f 26//26 28//28 29//29
f 41//41 37//37 40//40
f 58//58 59//59 60//60
f 53//53 52//52 57//57
f 31//31 25//25 27//27
f 27//27 30//30 31//31
f 45//45 42//42 50//50
f 50//50 49//49 45//45
f 39//39 34//34 38//38
f 38//38 42//42 39//39
f 22//22 18//18 17//17
f 17//17 21//21 22//22
f 10//10 6//6 9//9
f 11//11 6//6 10//10
f 10//10 15//15 11//11
f 19//19 20//20 16//16
f 23//23 20//20 19//19
f 32//32 37//37 33//33
f 33//33 29//29 32//32
f 36//36 37//37 32//32
f 36//36 40//40 37//37
f 43//43 44//44 41//41
f 41//41 40//40 43//43
f 54//54 58//58 55//55
f 59//59 58//58 54//54
f 55//55 51//51 54//54
f 54//54 51//51 50//50
f 52//52 53//53 47//47
f 41//41 44//44 48//48
f 44//44 47//47 48//48
f 48//48 47//47 53//53
f 25//25 21//21 24//24
f 24//24 27//27 25//25
f 24//24 21//21 17//17
f 39//39 42//42 46//46
f 42//42 45//45 46//46
f 7//7 4//4 1//1
f 7//7 1//1 3//3
f 24//24 37//37 41//41
f 24//24 7//7 3//3
f 17//17 13//13 24//24
f 24//24 54//54 50//50
f 24//24 12//12 7//7
f 26//26 29//29 24//24
f 24//24 33//33 37//37
f 50//50 42//42 24//24
f 3//3 6//6 24//24
f 24//24 20//20 26//26
f 57//57 59//59 24//24
f 34//34 30//30 24//24
f 41//41 48//48 24//24
f 13//13 12//12 24//24
f 24//24 6//6 11//11
f 11//11 20//20 24//24
f 24//24 38//38 34//34
f 24//24 53//53 57//57
f 30//30 27//27 24//24
f 42//42 38//38 24//24
f 29//29 33//33 24//24
f 59//59 54//54 24//24
f 24//24 48//48 53//53
f 1//1 4//4 46//46
f 46//46 25//25 31//31
f 46//46 60//60 56//56
f 14//14 18//18 46//46
f 31//31 35//35 46//46
f 56//56 52//52 46//46
f 46//46 2//2 1//1
f 16//16 15//15 46//46
f 46//46 58//58 60//60
f 46//46 8//8 14//14
f 9//9 5//5 46//46
f 32//32 28//28 46//46
f 35//35 39//39 46//46
f 46//46 19//19 16//16
f 4//4 8//8 46//46
f 49//49 51//51 46//46
f 46//46 21//21 25//25
f 46//46 10//10 9//9
f 44//44 43//43 46//46
f 46//46 51//51 55//55
f 46//46 45//45 49//49
f 46//46 5//5 2//2
f 18//18 22//22 46//46
f 46//46 28//28 23//23
f 46//46 36//36 32//32
f 55//55 58//58 46//46
f 46//46 47//47 44//44
f 46//46 22//22 21//21
f 15//15 10//10 46//46
f 23//23 19//19 46//46
f 40//40 36//36 46//46
f 46//46 43//43 40//40
f 52//52 47//47 46//46

