# https://github.com/mikedh/trimesh
v 2.60012638 0.49658713 1.23493666
v 2.71083965 0.49756848 0.93840919
v 2.86065639 0.38354614 1.00648609
v 2.85720116 0.38336315 0.93577292
v 2.68971450 0.46590231 0.60325244
v 2.55267617 0.49989411 0.75407454
v 2.69457894 0.46585555 1.38227688
v 2.84663448 0.37908189 1.15615068
v 2.26121488 0.46569161 1.38053280
v 2.85470930 -0.38175403 1.09223618
v 2.55183827 0.46088750 0.53489168
v 2.84337538 0.37811987 0.83216695
v 2.79150169 0.37775674 0.68722798
v 2.48459299 0.42421743 0.50945146
v 2.39065895 0.49744568 1.01620970
v 2.60390769 0.35868415 1.49139187
v 2.66962989 0.43179003 1.46300417
v 2.75842707 -0.39015327 1.36766141
v 2.81426820 -0.37865150 1.26210833
v 2.86060837 -0.38321208 1.00531343
v 2.84780980 -0.37904033 0.85277433
v 2.66514124 0.42677430 0.53552177
v 2.61149479 0.00000000 0.51299833
v 2.80970382 -0.37841367 0.72574458
v 2.21213512 0.42537519 0.58982997
v 2.20792003 0.46438790 1.36387259
v 2.60831608 0.45711293 1.47902904
v 2.55848309 0.00000000 1.50005957
v 2.61642212 -0.42438395 1.48607951
v 2.72415074 -0.40004393 1.41661893
v 2.78848219 0.37760599 1.31936309
v 2.72665258 0.41167714 0.58750583
v 2.72787833 -0.41020900 0.58657664
v 2.54357318 0.40035382 0.50009683
v 1.86066694 0.30343196 0.73658885
v 2.20859057 0.46473849 0.64214437
v 1.86107723 0.30362335 1.26289421
v 2.22874949 0.41915023 1.41832024
v 1.86065635 0.25760172 0.68119394
v 2.50056499 0.42429782 1.49608966
v 2.50795938 -0.41903046 1.49811318
v 2.48624784 -0.46368998 1.44896357
v 2.69225523 -0.46328896 1.40813726
v 1.86066685 0.25065279 1.31984942
v 2.57240950 -0.49764209 1.26107033
v 2.71804783 -0.50010591 0.99549305
v 2.69360063 -0.46573180 0.62104674
v 2.56470499 -0.41111363 0.50005952
v 2.50107477 -0.36837068 0.50490708
v 2.21756530 -0.42421185 1.41323727
v 1.86066664 -0.24961067 1.31971750
v 2.55901861 -0.46209408 0.53467640
v 2.21378235 -0.42344372 0.58682288
v 1.86065646 -0.25362604 0.68187580
v 2.20834769 -0.46460520 1.35555312
v 2.54726035 -0.49749928 0.74201742
v 1.86066700 -0.30344659 0.73519901
v 2.39386169 -0.49844819 0.96954242
v 2.20870012 -0.46478362 0.64127064
v 1.86066691 -0.30334570 1.26750167
vn 0.02785990 0.99315389 0.11344240
vn 0.20259517 0.97882986 -0.02910846
vn 0.77459459 0.62954030 0.06068136
vn 0.76125600 0.61944564 -0.19177176
vn 0.24331349 0.85641202 -0.45536470
vn 0.00580928 0.99288066 -0.11897162
vn 0.28748125 0.86381879 0.41372893
vn 0.72646135 0.57326452 0.37897454
vn -0.06610540 0.86071389 0.50477884
vn 0.75578925 -0.58836775 0.28741259
vn 0.02266283 0.74636726 -0.66514833
vn 0.72052654 0.54404317 -0.42995178
vn 0.60874156 0.37842161 -0.69730251
vn -0.07657917 0.34326175 -0.93611271
vn -0.04535117 0.99891105 0.01095363
vn 0.09187312 0.03246404 0.99524139
vn 0.29169817 0.36774096 0.88299420
vn 0.54505652 -0.31264358 0.77792505
vn 0.66723787 -0.46254623 0.58381899
vn 0.78926182 -0.61382178 -0.01698826
vn 0.74475137 -0.56736496 -0.35134371
vn 0.20064729 0.36280540 -0.91000709
vn 0.15080976 -0.00458195 -0.98855218
vn 0.63426937 -0.43800021 -0.63707000
vn -0.14336121 0.41174295 -0.89995295
vn -0.17081001 0.87131685 0.46003356
vn 0.07225970 0.62309086 0.77880441
vn 0.03141020 -0.00047622 0.99950646
vn 0.12016198 -0.37906430 0.91753548
vn 0.39192945 -0.23578983 0.88926625
vn 0.57775128 0.35947927 0.73278791
vn 0.45151403 0.36712749 -0.81323581
vn 0.38882371 -0.37458756 -0.84172459
vn 0.02939360 0.17027468 -0.98495815
vn -0.63512919 0.70515048 -0.31523596
vn -0.16019016 0.90273377 -0.39926290
vn -0.62646954 0.70219394 0.33831877
vn -0.13318935 0.34190031 0.93024984
vn -0.55458536 0.24621922 -0.79486551
vn -0.05467920 0.34648103 0.93646200
vn -0.02853285 -0.31532559 0.94855450
vn -0.03306922 -0.82724983 0.56086018
vn 0.25467543 -0.77534648 0.57790852
vn -0.55749482 0.22759289 0.79837398
vn 0.01530919 -0.99114897 0.13186870
vn 0.20916234 -0.97786870 -0.00489030
vn 0.22909708 -0.85661181 -0.46231021
vn 0.06622098 -0.24415355 -0.96747291
vn -0.07616539 -0.07404276 -0.99434225
vn -0.14116887 -0.40870233 0.90168384
vn -0.55875011 -0.20990259 0.80233361
vn 0.03231092 -0.74832654 -0.66254313
vn -0.13938440 -0.38910571 -0.91058703
vn -0.55746803 -0.22582457 -0.79889465
vn -0.16323915 -0.90476218 0.39339341
vn 0.00774318 -0.99192981 -0.12655157
vn -0.62985540 -0.69789575 -0.34091598
vn -0.04580975 -0.99894242 -0.00393750
vn -0.16116624 -0.89983035 -0.40537734
vn -0.62491384 -0.69124591 0.36285229
f 49//49 54//54 39//39
f 40//40 41//41 28//28
f 44//44 41//41 40//40
f 17//17 31//31 7//7
f 37//37 44//44 26//26
f 26//26 36//36 37//37
f 51//51 41//41 44//44
f 51//51 54//54 60//60
f 39//39 54//54 51//51
f 51//51 44//44 39//39
f 28//28 41//41 29//29
f 53//53 49//49 48//48
f 54//54 49//49 53//53
f 14//14 49//49 39//39
f 24//24 47//47 33//33
f 33//33 13//13 24//24
f 33//33 23//23 22//22
f 48//48 23//23 33//33
f 46//46 20//20 10//10
f 10//10 20//20 3//3
f 46//46 47//47 21//21
f 21//21 20//20 46//46
f 21//21 47//47 24//24
f 24//24 13//13 12//12
f 12//12 21//21 24//24
f 16//16 40//40 28//28
f 28//28 29//29 16//16
f 16//16 29//29 17//17
f 26//26 44//44 38//38
f 44//44 40//40 38//38
f 26//26 38//38 9//9
f 9//9 38//38 40//40
f 17//17 7//7 27//27
f 27//27 16//16 17//17
f 40//40 16//16 27//27
f 27//27 9//9 40//40
f 35//35 37//37 36//36
f 39//39 44//44 35//35
f 44//44 37//37 35//35
f 17//17 29//29 30//30
f 30//30 31//31 17//17
f 41//41 51//51 50//50
f 50//50 51//51 60//60
f 60//60 55//55 50//50
f 52//52 53//53 48//48
f 48//48 33//33 52//52
f 52//52 33//33 47//47
f 60//60 54//54 57//57
f 54//54 53//53 57//57
f 57//57 55//55 60//60
f 25//25 14//14 39//39
f 39//39 35//35 25//25
f 25//25 35//35 36//36
f 22//22 23//23 34//34
f 34//34 23//23 48//48
f 48//48 49//49 34//34
f 49//49 14//14 34//34
f 32//32 33//33 22//22
f 13//13 33//33 32//32
f 8//8 31//31 19//19
f 19//19 10//10 8//8
f 8//8 10//10 3//3
f 8//8 7//7 31//31
f 3//3 2//2 8//8
f 8//8 2//2 7//7
f 22//22 34//34 11//11
f 11//11 34//34 14//14
f 11//11 25//25 36//36
f 14//14 25//25 11//11
f 15//15 36//36 26//26
f 4//4 2//2 3//3
f 21//21 12//12 4//4
f 3//3 20//20 4//4
f 20//20 21//21 4//4
f 19//19 31//31 18//18
f 31//31 30//30 18//18
f 55//55 45//45 42//42
f 42//42 29//29 41//41
f 41//41 50//50 42//42
f 42//42 50//50 55//55
f 43//43 30//30 29//29
f 29//29 42//42 43//43
f 43//43 42//42 45//45
f 43//43 45//45 46//46
f 43//43 18//18 30//30
f 19//19 18//18 43//43
f 46//46 10//10 43//43
f 43//43 10//10 19//19
f 56//56 47//47 46//46
f 56//56 52//52 47//47
f 22//22 11//11 5//5
f 5//5 32//32 22//22
f 5//5 4//4 12//12
f 2//2 4//4 5//5
f 5//5 12//12 13//13
f 13//13 32//32 5//5
f 6//6 11//11 36//36
f 36//36 15//15 6//6
f 2//2 5//5 6//6
f 6//6 5//5 11//11
f 7//7 2//2 1//1
f 2//2 6//6 1//1
f 1//1 6//6 15//15
f 1//1 27//27 7//7
f 9//9 27//27 1//1
f 26//26 9//9 1//1
f 1//1 15//15 26//26
f 46//46 45//45 58//58
f 58//58 56//56 46//46
f 58//58 45//45 55//55
f 53//53 52//52 59//59
f 52//52 56//56 59//59
f 56//56 58//58 59//59
f 59//59 58//58 55//55
f 55//55 57//57 59//59
f 59//59 57//57 53//53

