# https://github.com/mikedh/trimesh
v 0.68519570 4.54923590 0.68819664
v 0.68503844 5.42308016 0.68819604
v 0.51384546 4.54924548 0.68819648
v 0.68519570 4.54923590 0.46817934
v 0.66300004 5.51904601 0.68846026
v -0.15619727 4.61472685 0.24228969
v -0.24054328 4.61472685 0.16027256
v 0.58386302 5.49062416 0.31134179
v 0.64523715 5.52317970 0.42707289
v -0.28795699 4.61519092 0.08104348
v 0.68507481 5.38865444 0.44091521
v 0.42642478 5.51715347 0.09731001
v 0.56005462 5.54921982 0.40686225
v 0.16976991 5.54921982 -0.21917898
v -0.21152166 4.66943090 0.21946095
v -0.29714710 4.70202953 0.08498418
v 0.52069274 4.54923590 0.42923222
v 0.52907688 5.26200594 0.20596677
v 0.55623216 5.52886740 0.68777599
v 0.26732878 5.46971160 -0.15263181
v 0.58163935 4.54923590 0.37945795
v 0.67989946 4.54923590 0.43773490
v 0.41161256 5.41444469 0.03681257
v -0.31480427 5.00401547 0.03231044
v -0.24883248 4.61684161 -0.18495535
v 0.59095849 4.80150768 0.29587486
v 0.06026973 5.54922267 0.40775411
v 0.18817446 5.46626095 -0.23830079
v 0.11239103 5.54921982 -0.25425398
v 0.40773871 4.65725060 0.68819523
v -0.30260004 4.61632379 -0.07657300
v 0.66654509 4.54923590 0.40916225
v 0.20035847 4.66028963 -0.24398501
v 0.25775744 4.69313955 -0.18149806
v 0.27694933 4.70704051 -0.15918317
v 0.24922565 5.15147771 -0.19195818
v -0.18733701 4.69660951 0.25482584
v -0.18857747 5.40972095 0.25315354
v -0.21828034 5.16783209 0.22482100
v -0.26567112 5.03845646 0.17089786
v -0.30529496 5.54923587 0.01106849
v -0.26043949 5.10586541 -0.17832485
v 0.06733179 4.61738311 -0.29979113
v 0.64255520 4.54923590 0.38731222
v 0.22864970 4.62157934 -0.18370019
v -0.20363575 5.52305740 0.19614282
v -0.19137630 5.48370442 0.23290006
v 0.01417103 5.51456917 -0.31153970
v 0.40363901 5.42019365 0.68822502
v -0.28249480 5.35297342 0.13613478
v -0.12053770 5.08933217 -0.28560682
v -0.25486338 5.48918628 0.16022367
v -0.20915957 5.05852768 -0.23296677
v 0.11015197 5.25373685 -0.28596162
v -0.05846673 5.54921794 -0.20428534
v -0.19544842 5.44597234 -0.23367020
v -0.09604725 5.47489698 -0.27941333
v -0.06604614 4.61611393 -0.30395973
v -0.30566102 5.52601834 -0.09209759
vn 0.12141649 -0.98557026 0.11793768
vn 0.19739741 0.96576464 0.16832388
vn -0.00334832 -0.99301185 0.11796716
vn 0.12598548 -0.99199503 -0.00857413
vn 0.03276081 0.99367780 0.10738324
vn -0.01574751 -0.99971500 0.01794280
vn -0.04886429 -0.99839172 0.02874469
vn 0.06147971 0.99735180 -0.03885406
vn 0.03458210 0.99930673 -0.01378926
vn -0.05883717 -0.99811635 0.01737625
vn 0.20494449 0.97727731 -0.05409997
vn 0.02928722 0.99938488 -0.01929029
vn 0.00284752 0.99999554 -0.00089674
vn 0.01574314 0.99970887 -0.01828454
vn -0.09400502 -0.99321708 0.06843164
vn -0.24844205 -0.96559647 0.07681145
vn -0.00061402 -0.99999978 -0.00023826
vn 0.72863165 0.49782611 -0.47038823
vn -0.00159681 0.99410016 0.10845420
vn 0.09929194 0.99230919 -0.07391609
vn -0.00007767 -0.99999967 -0.00081304
vn 0.12128457 -0.99194027 -0.03666823
vn 0.17815613 0.97697099 -0.11742267
vn -0.87104586 -0.48303649 0.08919004
vn -0.09639810 -0.99259845 -0.07386291
vn 0.83356395 -0.13631943 -0.53533928
vn -0.02390017 0.99923935 0.03081413
vn 0.09634302 0.98746945 -0.12498839
vn 0.01324822 0.99956783 -0.02624192
vn -0.05998108 -0.98520208 0.16055881
vn -0.12427135 -0.99184280 -0.02836344
vn 0.11086489 -0.99193223 -0.06147697
vn 0.10145362 -0.98592348 -0.13289866
vn 0.15374954 -0.98042324 -0.12300954
vn 0.21535464 -0.96446094 -0.15309301
vn 0.46757676 0.78825051 -0.40004138
vn -0.11906549 -0.98479397 0.12650789
vn -0.14949754 0.97539078 0.16205961
vn -0.68349192 0.44483643 0.57875672
vn -0.65542706 -0.63639276 0.40671811
vn -0.10933962 0.99395621 0.00979242
vn -0.66808915 0.59151735 -0.45140239
vn 0.03104682 -0.99163172 -0.12531014
vn 0.00247017 -0.99999319 -0.00274102
vn 0.01601927 -0.99978250 -0.01335438
vn -0.01658336 0.99975774 0.01447232
vn -0.04295807 0.99823195 0.04108005
vn 0.00478808 0.98982368 -0.14221873
vn -0.06009272 0.98493614 0.16214091
vn -0.28971622 0.94929828 0.12205442
vn -0.37159326 0.49867844 -0.78309531
vn -0.08049435 0.99531961 0.05347465
vn -0.58846798 -0.37128148 -0.71823081
vn 0.21255287 0.84730770 -0.48671443
vn -0.00250121 0.99998850 -0.00409091
vn -0.08216324 0.99125940 -0.10321821
vn -0.04122289 0.99427437 -0.09858576
vn -0.03281960 -0.99063885 -0.13250485
vn -0.14023412 0.98913122 -0.04420194
f 1//1 5//5 3//3
f 5//5 30//30 3//3
f 49//49 30//30 5//5
f 48//48 43//43 58//58
f 2//2 5//5 1//1
f 24//24 31//31 16//16
f 59//59 55//55 48//48
f 41//41 55//55 59//59
f 24//24 41//41 59//59
f 59//59 31//31 24//24
f 53//53 58//58 25//25
f 21//21 58//58 43//43
f 25//25 58//58 21//21
f 41//41 27//27 13//13
f 5//5 9//9 13//13
f 54//54 43//43 48//48
f 43//43 54//54 33//33
f 26//26 32//32 35//35
f 19//19 49//49 5//5
f 19//19 27//27 49//49
f 5//5 13//13 19//19
f 19//19 13//13 27//27
f 57//57 59//59 48//48
f 56//56 59//59 57//57
f 42//42 59//59 56//56
f 56//56 53//53 42//42
f 42//42 53//53 25//25
f 25//25 31//31 42//42
f 31//31 59//59 42//42
f 44//44 21//21 43//43
f 17//17 31//31 25//25
f 25//25 21//21 17//17
f 3//3 31//31 17//17
f 1//1 3//3 17//17
f 14//14 13//13 9//9
f 41//41 13//13 14//14
f 36//36 20//20 23//23
f 23//23 35//35 36//36
f 43//43 33//33 45//45
f 45//45 33//33 32//32
f 32//32 44//44 45//45
f 45//45 44//44 43//43
f 32//32 33//33 34//34
f 34//34 35//35 32//32
f 34//34 33//33 36//36
f 36//36 35//35 34//34
f 10//10 16//16 31//31
f 10//10 7//7 16//16
f 10//10 31//31 3//3
f 3//3 7//7 10//10
f 6//6 3//3 30//30
f 6//6 7//7 3//3
f 49//49 27//27 38//38
f 51//51 53//53 56//56
f 56//56 57//57 51//51
f 58//58 53//53 51//51
f 48//48 58//58 51//51
f 51//51 57//57 48//48
f 12//12 14//14 9//9
f 20//20 14//14 12//12
f 28//28 20//20 36//36
f 28//28 14//14 20//20
f 36//36 33//33 28//28
f 28//28 33//33 54//54
f 28//28 54//54 48//48
f 29//29 55//55 41//41
f 41//41 14//14 29//29
f 48//48 55//55 29//29
f 29//29 28//28 48//48
f 14//14 28//28 29//29
f 11//11 32//32 26//26
f 11//11 22//22 32//32
f 4//4 22//22 11//11
f 5//5 2//2 11//11
f 11//11 9//9 5//5
f 1//1 4//4 11//11
f 11//11 2//2 1//1
f 26//26 35//35 18//18
f 35//35 23//23 18//18
f 18//18 11//11 26//26
f 23//23 11//11 18//18
f 46//46 27//27 41//41
f 8//8 23//23 20//20
f 20//20 12//12 8//8
f 8//8 12//12 9//9
f 9//9 11//11 8//8
f 8//8 11//11 23//23
f 16//16 7//7 15//15
f 15//15 40//40 16//16
f 7//7 6//6 15//15
f 24//24 16//16 50//50
f 16//16 40//40 50//50
f 50//50 41//41 24//24
f 50//50 40//40 38//38
f 47//47 38//38 27//27
f 27//27 46//46 47//47
f 40//40 15//15 37//37
f 30//30 49//49 37//37
f 49//49 38//38 37//37
f 37//37 6//6 30//30
f 37//37 15//15 6//6
f 52//52 47//47 46//46
f 52//52 46//46 41//41
f 41//41 50//50 52//52
f 52//52 50//50 38//38
f 38//38 47//47 52//52
f 38//38 40//40 39//39
f 39//39 37//37 38//38
f 40//40 37//37 39//39
f 22//22 4//4 1//1
f 22//22 44//44 32//32
f 1//1 17//17 22//22
f 21//21 44//44 22//22
f 22//22 17//17 21//21

