# https://github.com/mikedh/trimesh
v -4.36303536 0.36831919 -1.29505889
v -4.55579084 0.36734034 -1.29505889
v -3.78476805 0.36753609 -1.29505889
v -3.71751403 0.50075846 -2.29505895
v -4.65603573 0.36998326 -1.36848034
v -4.66739157 0.35853063 -1.29505889
v -4.60092063 0.48196444 -2.29505895
v -4.65535032 0.47873424 -2.27763357
v -3.76107737 0.36743822 -1.29505889
v -3.71751403 0.36665512 -1.29505889
v -3.71751403 -0.49924152 -2.29505895
v -4.68442520 0.35716017 -1.29505889
v -4.66376946 0.48000669 -2.29505895
v -3.71751403 -0.36631276 -1.29505889
v -3.71751403 -0.49718590 -2.26931247
v -4.55579084 -0.48230732 -2.29505895
v -4.71751402 0.33709364 -1.29505889
v -4.69724954 0.46747735 -2.29505895
v -3.78476805 -0.36748741 -1.29505889
v -3.71751403 -0.48915928 -2.20822578
v -4.38907529 -0.36827051 -1.29505889
v -4.55579084 -0.36729160 -1.29505889
v -4.65535032 -0.47868549 -2.27763357
v -4.66376946 -0.47995802 -2.29505895
v -4.71751402 0.44574674 -2.24953761
v -4.71751402 -0.33704496 -1.29505889
v -4.71751402 0.44574674 -2.29505895
v -4.36303536 -0.36827051 -1.29505889
v -4.56695106 -0.36650857 -1.29505889
v -4.65603573 -0.37003245 -1.36848034
v -4.67316731 -0.47751091 -2.29505895
v -4.68442520 -0.35720943 -1.29505889
v -4.71751402 -0.44579594 -2.24953761
v -4.70674534 -0.46233859 -2.29505895
v -4.71418549 -0.33910058 -1.29505889
v -4.71751402 -0.44579594 -2.29505895
v -4.69724954 -0.46752654 -2.29505895
vn -0.04443370 0.25053187 0.96708812
vn -0.65148351 0.20922318 0.72924269
vn 0.05293784 0.24658648 0.96767386
vn 0.94945638 0.15274594 -0.27422848
vn -0.98368100 0.13174737 0.12253294
vn -0.79793110 0.12722213 0.58916932
vn -0.63534224 0.33770489 -0.69447508
vn -0.95569288 0.22331226 0.19178833
vn 0.21558752 0.24705316 0.94471517
vn 0.94852053 0.07002368 0.30887778
vn 0.94642740 -0.14445093 -0.28880634
vn -0.94548868 0.05605674 0.32079401
vn -0.95172861 0.11917787 -0.28285912
vn 0.94837718 -0.07025906 0.30926428
vn 0.98638113 -0.13153832 0.09874175
vn -0.55894036 -0.34337097 -0.75477285
vn -0.95723574 0.00796216 0.28919947
vn -0.96197528 0.02463657 -0.27202315
vn 0.18478330 -0.25019561 0.95039849
vn 0.98868441 -0.10603216 0.10611463
vn -0.06553091 -0.25040559 0.96592067
vn -0.62587553 -0.21490307 0.74973095
vn -0.95341564 -0.23309155 0.19148617
vn -0.94080778 -0.14000221 -0.30867476
vn -0.99995379 0.00796285 0.00538553
vn -0.95719525 -0.00781190 0.28933758
vn -0.95738054 0.00566572 -0.28877396
vn 0.01142194 -0.24640014 0.96910088
vn -0.78779874 -0.13562717 0.60081480
vn -0.98350114 -0.13254837 0.12311145
vn -0.96122483 -0.03970108 -0.27289312
vn -0.94537633 -0.05640141 0.32106460
vn -0.99997150 -0.00612713 0.00441050
vn -0.96043439 -0.01710824 -0.27798038
vn -0.94791545 -0.01965084 0.31791531
vn -0.95667075 -0.00395767 -0.29114500
vn -0.95979455 -0.02653116 -0.27944682
f 1//1 2//2 6//6
f 1//1 6//6 12//12
f 1//1 12//12 17//17
f 1//1 17//17 26//26
f 1//1 26//26 35//35
f 1//1 35//35 32//32
f 1//1 32//32 29//29
f 1//1 29//29 22//22
f 1//1 22//22 21//21
f 1//1 21//21 28//28
f 1//1 28//28 19//19
f 1//1 19//19 14//14
f 1//1 14//14 10//10
f 1//1 10//10 9//9
f 1//1 9//9 3//3
f 1//1 3//3 4//4
f 1//1 4//4 2//2
f 2//2 5//5 6//6
f 2//2 4//4 7//7
f 2//2 7//7 8//8
f 2//2 8//8 5//5
f 3//3 9//9 4//4
f 4//4 9//9 10//10
f 4//4 10//10 14//14
f 4//4 14//14 20//20
f 4//4 20//20 15//15
f 4//4 15//15 11//11
f 4//4 11//11 16//16
f 4//4 16//16 24//24
f 4//4 24//24 31//31
f 4//4 31//31 37//37
f 4//4 37//37 34//34
f 4//4 34//34 36//36
f 4//4 36//36 27//27
f 4//4 27//27 18//18
f 4//4 18//18 13//13
f 4//4 13//13 7//7
f 5//5 12//12 6//6
f 5//5 8//8 13//13
f 5//5 13//13 12//12
f 7//7 13//13 8//8
f 11//11 15//15 16//16
f 12//12 13//13 18//18
f 12//12 18//18 17//17
f 14//14 19//19 20//20
f 15//15 20//20 21//21
f 15//15 21//21 22//22
f 15//15 22//22 23//23
f 15//15 23//23 16//16
f 16//16 23//23 24//24
f 17//17 18//18 25//25
f 17//17 25//25 27//27
f 17//17 27//27 36//36
f 17//17 36//36 33//33
f 17//17 33//33 26//26
f 18//18 27//27 25//25
f 19//19 28//28 20//20
f 20//20 28//28 21//21
f 22//22 29//29 30//30
f 22//22 30//30 23//23
f 23//23 30//30 24//24
f 24//24 30//30 32//32
f 24//24 32//32 31//31
f 26//26 33//33 34//34
f 26//26 34//34 35//35
f 29//29 32//32 30//30
f 31//31 32//32 37//37
f 32//32 35//35 34//34
f 32//32 34//34 37//37
f 33//33 36//36 34//34

