# https://github.com/mikedh/trimesh
v 0.77525419 9.36195319 1.14081039
v 0.76269786 9.36195319 1.18964281
v 0.43356628 9.26542887 0.64793330
v 0.66290835 10.15960407 1.10801065
v 0.66680006 10.13809166 1.14357633
v 0.49112073 9.36141866 1.30870260
v 0.23276346 9.26542887 0.31220118
v 0.76914736 9.36195319 1.09092542
v 0.72116878 9.36195318 1.25205191
v 0.63138765 9.36195454 1.30240296
v 0.57964030 9.36195319 1.31220118
v 0.63750206 10.24203221 1.09704476
v 0.63750206 10.26082750 1.11897655
v -0.13359644 9.26542887 0.64744375
v 0.43439847 9.36195319 1.27377164
v 0.39430643 9.36195319 1.24155939
v -0.22474583 9.26542887 0.31220118
v 0.10157099 10.18202257 0.31220118
v 0.73158860 9.36195319 1.01548605
v 0.65140455 10.17007930 1.08421861
v 0.75916555 9.36203543 1.05887993
v 0.66421783 10.00723021 1.19099518
v 0.67007560 9.36200332 1.28862727
v 0.58999372 10.17119255 1.21427931
v 0.63750206 10.20072010 1.07619001
v 0.08071479 10.25017678 0.31220244
v 0.61214468 10.26542885 1.09704476
v 0.05545781 10.26542885 0.31220118
v 0.34329802 9.36195319 1.18418435
v -0.03716016 9.36195319 0.74633247
v -0.03392930 10.16645693 0.57268975
v 0.54072313 9.88167941 1.25078737
v 0.50334794 10.07629534 1.21284739
v 0.47243449 10.16469477 1.17429548
v -0.22474583 9.29029411 0.31220118
v 0.09912336 10.19837055 0.31220118
v 0.05756276 10.14912941 0.70021704
v -0.01116643 9.77056815 0.69473409
v 0.01082544 10.14369621 0.64344169
v 0.05502948 10.22763368 0.66975949
v -0.15396064 9.26542887 0.61097240
v 0.53653769 10.22098485 1.19992332
v 0.48470930 10.21453608 1.16982834
v -0.22474583 9.28676978 0.33002071
v -0.22374389 9.26543160 0.41032764
v 0.60578088 10.25171133 1.17361011
v -0.07302555 10.26533101 0.31220118
v -0.01319796 10.22808238 0.57680195
v 0.51091107 10.26542885 1.16274214
v 0.34782001 10.16222295 1.03148203
v -0.09249632 10.24235171 0.31220147
v 0.07752311 10.26542885 0.65876455
v 0.24927266 10.21948242 0.89929485
v 0.27051190 10.25858252 0.89847181
v -0.03636468 10.25828272 0.49988169
v -0.06129370 10.17962358 0.51223055
v -0.19257186 9.26542887 0.53085785
v -0.08160895 10.18610957 0.44512574
v -0.22132349 9.26542916 0.42895959
vn 0.35313959 -0.93538463 0.01865549
vn 0.32362862 -0.94004982 0.10756791
vn 0.01056275 -0.99993608 -0.00403287
vn 0.09690940 0.99518875 -0.01441948
vn 0.08799856 0.99591094 0.02043645
vn -0.12423938 -0.94175576 0.31250706
vn 0.19560459 -0.95798594 -0.20976603
vn 0.33900207 -0.93925300 -0.05367869
vn 0.26779173 -0.94211484 0.20176030
vn 0.10116731 -0.95537509 0.27753128
vn 0.02964596 -0.95445771 0.29686966
vn 0.04519771 0.99884907 -0.01605327
vn 0.03627961 0.99933820 0.00263547
vn -0.28645318 -0.94691420 0.14593857
vn -0.22121389 -0.94619433 0.23617940
vn -0.27307274 -0.93648304 0.22006995
vn -0.13221173 -0.98459894 -0.11438961
vn 0.11811968 0.96661210 -0.22739568
vn 0.40789120 -0.89005362 -0.20354193
vn 0.08920353 0.99534508 -0.03648156
vn 0.33952194 -0.93351428 -0.11522129
vn 0.08562654 0.99472212 0.05653311
vn 0.18468414 -0.94708220 0.26253967
vn 0.02507196 0.99747561 0.06643642
vn 0.05889493 0.99780519 -0.03026878
vn 0.02329190 0.99255255 -0.11956976
vn 0.00429228 0.99998945 -0.00163648
vn 0.00349335 0.99341914 -0.11448231
vn -0.24790792 0.95475419 0.16427449
vn -0.12968262 0.98805605 0.08323252
vn -0.08452680 0.99574874 0.03660149
vn -0.01648107 0.99457536 0.10270458
vn -0.05532360 0.99519676 0.08076331
vn -0.07093767 0.99577892 0.05824244
vn -0.29056248 0.93132634 -0.21955565
vn 0.07011894 0.98549405 -0.15454715
vn -0.08102097 0.99539192 0.05128873
vn -0.10620261 0.99222453 0.06489592
vn -0.08259114 0.99549667 0.04653053
vn -0.04188859 0.99881065 0.02495275
vn -0.29617851 -0.94815396 0.11524909
vn -0.01614356 0.99863231 0.04972823
vn -0.03893216 0.99859779 0.03587111
vn -0.32549731 0.94552790 0.00533734
vn -0.32784827 -0.94440196 0.02490897
vn 0.02655163 0.99937543 0.02331849
vn -0.01180862 0.99401170 -0.10863374
vn -0.04054152 0.99897592 0.02008736
vn -0.01197301 0.99982623 0.01428841
vn -0.08221901 0.99517467 0.05354812
vn -0.06729323 0.99235611 -0.10344552
vn -0.01105480 0.99991806 0.00645484
vn -0.04759543 0.99838725 0.03094476
vn -0.02055941 0.99969827 0.01344164
vn -0.02520209 0.99965526 0.00736284
vn -0.07990999 0.99650511 0.02433016
vn -0.31869763 -0.94355761 0.09017125
vn -0.07894465 0.99677285 0.01454754
vn -0.33165941 -0.94211378 0.04923067
f 7//7 19//19 21//21
f 7//7 21//21 3//3
f 1//1 3//3 8//8
f 8//8 3//3 21//21
f 8//8 4//4 1//1
f 8//8 21//21 4//4
f 44//44 35//35 17//17
f 2//2 3//3 1//1
f 2//2 9//9 3//3
f 10//10 3//3 23//23
f 3//3 9//9 23//23
f 10//10 23//23 24//24
f 18//18 19//19 7//7
f 18//18 36//36 19//19
f 19//19 36//36 20//20
f 20//20 21//21 19//19
f 4//4 21//21 20//20
f 20//20 12//12 4//4
f 26//26 36//36 28//28
f 15//15 34//34 16//16
f 3//3 6//6 14//14
f 6//6 15//15 14//14
f 14//14 15//15 16//16
f 14//14 30//30 38//38
f 16//16 34//34 29//29
f 29//29 14//14 16//16
f 30//30 14//14 29//29
f 38//38 30//30 37//37
f 30//30 29//29 37//37
f 42//42 34//34 33//33
f 33//33 15//15 6//6
f 34//34 15//15 33//33
f 4//4 12//12 13//13
f 12//12 26//26 13//13
f 13//13 28//28 27//27
f 13//13 26//26 28//28
f 10//10 24//24 11//11
f 11//11 3//3 10//10
f 11//11 6//6 3//3
f 32//32 24//24 42//42
f 42//42 33//33 32//32
f 32//32 33//33 6//6
f 6//6 11//11 32//32
f 32//32 11//11 24//24
f 12//12 20//20 25//25
f 25//25 20//20 36//36
f 25//25 26//26 12//12
f 36//36 26//26 25//25
f 50//50 29//29 34//34
f 50//50 37//37 29//29
f 28//28 35//35 47//47
f 39//39 14//14 38//38
f 38//38 37//37 39//39
f 9//9 2//2 22//22
f 22//22 23//23 9//9
f 22//22 24//24 23//23
f 57//57 59//59 17//17
f 45//45 44//44 17//17
f 17//17 59//59 45//45
f 4//4 13//13 5//5
f 5//5 22//22 2//2
f 1//1 4//4 5//5
f 5//5 2//2 1//1
f 59//59 57//57 58//58
f 37//37 50//50 53//53
f 53//53 50//50 34//34
f 49//49 13//13 27//27
f 24//24 22//22 46//46
f 22//22 5//5 46//46
f 46//46 5//5 13//13
f 42//42 24//24 46//46
f 46//46 49//49 42//42
f 13//13 49//49 46//46
f 51//51 45//45 59//59
f 59//59 58//58 51//51
f 44//44 45//45 51//51
f 35//35 44//44 51//51
f 51//51 47//47 35//35
f 47//47 51//51 55//55
f 55//55 51//51 58//58
f 54//54 53//53 43//43
f 43//43 49//49 54//54
f 43//43 53//53 34//34
f 43//43 34//34 42//42
f 42//42 49//49 43//43
f 56//56 55//55 58//58
f 57//57 41//41 56//56
f 56//56 58//58 57//57
f 40//40 39//39 37//37
f 37//37 53//53 40//40
f 40//40 53//53 54//54
f 14//14 39//39 31//31
f 31//31 41//41 14//14
f 31//31 56//56 41//41
f 52//52 40//40 54//54
f 54//54 49//49 52//52
f 47//47 55//55 52//52
f 28//28 47//47 52//52
f 48//48 52//52 55//55
f 40//40 52//52 48//48
f 55//55 56//56 48//48
f 56//56 31//31 48//48
f 39//39 40//40 48//48
f 48//48 31//31 39//39
f 17//17 35//35 18//18
f 18//18 7//7 17//17
f 18//18 35//35 28//28
f 28//28 36//36 18//18
f 17//17 7//7 41//41
f 7//7 3//3 41//41
f 3//3 14//14 41//41
f 41//41 57//57 17//17
f 52//52 49//49 27//27
f 27//27 28//28 52//52

