# https://github.com/mikedh/trimesh
v -0.53875112 4.17163552 1.10330904
v -0.37387595 4.17231087 1.10328789
v -0.37387593 4.20726365 0.52462900
v -0.67050505 4.16974515 0.98640490
v -1.17019772 3.96663710 1.10319028
v -0.37387593 4.20726365 0.18885420
v -1.04352582 4.17192337 0.52472677
v -1.19500595 3.44174710 1.10319028
v -1.14325043 3.20726366 1.06642519
v -0.37387605 3.41195511 1.10319073
v -0.66528034 3.20726366 0.99235721
v -0.55021345 3.20726366 0.96546785
v -0.44765828 3.20726366 0.88562785
v -0.37387593 3.20726366 0.43692128
v -1.20115262 3.97975503 1.05640280
v -1.29578779 3.97975509 0.97236130
v -0.98043567 4.17114032 0.65516462
v -0.37387593 4.20452246 0.14925348
v -1.00143292 4.17221720 0.48737503
v -1.00143292 4.16624537 0.45012100
v -1.04352582 4.16487490 0.48737503
v -1.34444535 3.96455673 0.84177681
v -1.33778229 3.97672033 0.89765777
v -1.04352582 4.16786069 0.58070554
v -1.29505017 3.20726366 1.02819340
v -1.19430517 3.20726366 1.06346736
v -0.37387595 3.20726390 0.14593417
v -1.22087432 3.76865189 1.10319527
v -0.37387593 4.20207511 0.14671117
v -1.00143292 3.98004867 0.15150245
v -1.06781766 3.95410652 0.16748936
v -1.11807335 3.94558964 0.22601039
v -1.37288018 3.90895230 0.89302547
v -1.31467059 3.94190011 0.99384835
v -1.00143292 3.94833057 0.12099517
v -1.06186768 3.90711679 0.14121115
v -1.34540429 3.93677893 0.77386892
v -1.37387595 3.79047460 0.84177681
v -1.34381839 3.79047460 0.98260371
v -1.34914140 3.20726366 0.97793474
v -0.96467203 3.20726366 0.14612464
v -0.37387608 3.53407270 0.10435573
v -0.37387593 4.14304427 0.11664406
v -0.98038654 3.87579034 0.10706162
v -1.16198567 3.87579034 0.30545622
v -1.26168879 3.93722870 0.56826461
v -1.11030395 3.90491417 0.19117642
v -1.36207419 3.87579034 0.79655378
v -1.37348256 3.20726366 0.84177681
v -1.02228265 3.44916273 0.12634863
v -1.37134349 3.20726366 0.92221265
v -0.37387593 4.04651963 0.10456826
v -0.98038654 3.59847747 0.10701273
v -1.16198567 3.53452738 0.30545622
v -1.07349729 3.52385680 0.14897238
v -1.02287276 3.20726366 0.15969143
v -0.37387713 3.86669985 0.10330906
v -1.07155496 3.20726366 0.19794764
v -1.11168085 3.46874178 0.19814319
v -1.36754221 3.20727186 0.81469253
vn -0.02152337 0.91459158 0.40380563
vn 0.41522249 0.83007066 0.37225393
vn 0.43071567 0.90247853 0.00406405
vn -0.05107528 0.99784314 0.04123582
vn -0.18085445 0.85210627 0.49112785
vn 0.42550859 0.90491952 -0.00794400
vn -0.10705178 0.99413638 -0.01525720
vn -0.27494363 -0.35504643 0.89350324
vn -0.00687709 -0.95523926 0.29575439
vn 0.52792310 -0.69925046 0.48202282
vn 0.02510229 -0.99298865 0.11551371
vn 0.05217109 -0.99349930 0.10117965
vn 0.18303547 -0.98193215 0.04803403
vn 0.44195570 -0.89703362 0.00241630
vn -0.10672388 0.98939068 0.09857023
vn -0.17349881 0.97970847 0.10034674
vn -0.04764097 0.99841461 0.02997680
vn 0.37156719 0.92273678 -0.10244345
vn -0.03249298 0.99908702 -0.02773695
vn -0.08108884 0.99373586 -0.07690026
vn -0.15893785 0.98503829 -0.06662080
vn -0.34841680 0.93651575 -0.03929345
vn -0.27513336 0.95991113 0.05359335
vn -0.08487442 0.99617165 0.02093748
vn -0.28579555 -0.90566524 0.31319542
vn -0.08008587 -0.94861519 0.30612985
vn 0.39642259 -0.87228241 -0.28630843
vn -0.46638167 0.18878069 0.86420483
vn 0.40148011 0.88584877 -0.23256330
vn -0.11318643 0.98098146 -0.15768387
vn -0.27692673 0.93337996 -0.22828367
vn -0.45545885 0.87111444 -0.18362153
vn -0.75727085 0.64672502 0.09103627
vn -0.48427392 0.81649478 0.31434861
vn -0.19892239 0.85722754 -0.47496403
vn -0.53975906 0.56947600 -0.61996552
vn -0.53632430 0.83163158 -0.14403182
vn -0.99303977 0.07256472 -0.09277060
vn -0.86776445 0.21214419 0.44942152
vn -0.41960422 -0.87946747 0.22465366
vn -0.04360881 -0.93953720 -0.33965882
vn 0.70385082 -0.22320506 -0.67436898
vn 0.49857452 0.72775370 -0.47095435
vn -0.21410630 0.30815441 -0.92693007
vn -0.91487189 0.26511326 -0.30450680
vn -0.61513502 0.76337281 -0.19715696
vn -0.73842619 0.53702109 -0.40784201
vn -0.91625394 0.34857988 -0.19741017
vn -0.46328524 -0.88552310 -0.03486595
vn -0.37095538 -0.39800527 -0.83903749
vn -0.47035797 -0.87896905 0.07859253
vn 0.69430203 0.24726092 -0.67587478
vn -0.22471515 -0.17890591 -0.95786000
vn -0.94231796 -0.08827608 -0.32286870
vn -0.68966793 -0.19601412 -0.69709154
vn -0.18939644 -0.93263205 -0.30712610
vn 0.74315632 0.00747795 -0.66907606
vn -0.31830277 -0.92547911 -0.20535763
vn -0.85167248 -0.29439375 -0.43357387
vn -0.44189248 -0.89040534 -0.10913006
f 3//3 2//2 14//14
f 10//10 14//14 2//2
f 38//38 49//49 33//33
f 1//1 2//2 3//3
f 1//1 10//10 2//2
f 57//57 44//44 52//52
f 14//14 27//27 52//52
f 3//3 14//14 52//52
f 41//41 14//14 56//56
f 41//41 27//27 14//14
f 14//14 10//10 13//13
f 56//56 14//14 13//13
f 51//51 33//33 49//49
f 39//39 51//51 40//40
f 33//33 51//51 39//39
f 10//10 1//1 8//8
f 9//9 10//10 8//8
f 30//30 35//35 31//31
f 56//56 58//58 55//55
f 55//55 58//58 59//59
f 43//43 52//52 44//44
f 44//44 35//35 43//43
f 60//60 58//58 49//49
f 59//59 58//58 60//60
f 60//60 49//49 38//38
f 27//27 41//41 42//42
f 57//57 52//52 42//42
f 42//42 52//52 27//27
f 12//12 13//13 10//10
f 6//6 7//7 3//3
f 18//18 7//7 6//6
f 17//17 1//1 3//3
f 3//3 7//7 17//17
f 33//33 39//39 34//34
f 28//28 1//1 5//5
f 28//28 8//8 1//1
f 5//5 34//34 28//28
f 28//28 34//34 39//39
f 25//25 8//8 28//28
f 40//40 25//25 28//28
f 28//28 39//39 40//40
f 9//9 8//8 26//26
f 26//26 8//8 25//25
f 18//18 30//30 20//20
f 20//20 30//30 31//31
f 36//36 35//35 44//44
f 31//31 35//35 36//36
f 53//53 42//42 41//41
f 53//53 36//36 44//44
f 53//53 44//44 57//57
f 57//57 42//42 53//53
f 29//29 43//43 35//35
f 29//29 30//30 18//18
f 35//35 30//30 29//29
f 59//59 60//60 54//54
f 38//38 33//33 48//48
f 48//48 60//60 38//38
f 45//45 54//54 48//48
f 48//48 54//54 60//60
f 11//11 10//10 9//9
f 11//11 12//12 10//10
f 16//16 34//34 5//5
f 19//19 7//7 18//18
f 18//18 20//20 19//19
f 19//19 20//20 7//7
f 50//50 41//41 56//56
f 50//50 53//53 41//41
f 56//56 55//55 50//50
f 55//55 36//36 50//50
f 36//36 53//53 50//50
f 21//21 22//22 7//7
f 7//7 20//20 21//21
f 21//21 20//20 31//31
f 31//31 32//32 21//21
f 31//31 36//36 47//47
f 47//47 32//32 31//31
f 47//47 55//55 59//59
f 47//47 36//36 55//55
f 59//59 54//54 47//47
f 47//47 54//54 45//45
f 5//5 1//1 15//15
f 15//15 16//16 5//5
f 1//1 16//16 15//15
f 1//1 17//17 4//4
f 4//4 16//16 1//1
f 17//17 16//16 4//4
f 7//7 22//22 23//23
f 23//23 22//22 33//33
f 33//33 34//34 23//23
f 34//34 16//16 23//23
f 24//24 17//17 7//7
f 24//24 16//16 17//17
f 7//7 23//23 24//24
f 24//24 23//23 16//16
f 22//22 21//21 37//37
f 37//37 21//21 32//32
f 33//33 22//22 37//37
f 37//37 48//48 33//33
f 32//32 47//47 46//46
f 46//46 37//37 32//32
f 46//46 47//47 45//45
f 45//45 48//48 46//46
f 48//48 37//37 46//46
f 3//3 52//52 29//29
f 29//29 6//6 3//3
f 52//52 43//43 29//29
f 18//18 6//6 29//29
f 11//11 51//51 49//49
f 11//11 58//58 56//56
f 9//9 26//26 11//11
f 49//49 58//58 11//11
f 56//56 13//13 11//11
f 11//11 25//25 40//40
f 40//40 51//51 11//11
f 13//13 12//12 11//11
f 11//11 26//26 25//25

