# https://github.com/mikedh/trimesh
v -0.41402822 -0.38391323 -0.95401782
v -0.49254655 0.01526746 -0.36435833
v -0.41402239 0.39382800 -0.95401442
v -0.09890751 -0.49385402 -0.92695309
v -0.48110758 -0.03721598 -0.02063470
v 0.47481914 -0.18791666 -0.95275739
v -0.48652539 -0.08635888 -0.36435833
v 0.18079600 -0.49378176 -0.95289395
v -0.46155432 -0.13864436 -0.01529992
v 0.32216829 -0.38730195 -0.88295377
v 0.07445957 0.49342208 -0.95306758
v 0.44087626 0.18843681 -0.94441331
v -0.41400818 -0.41179165 -0.84613331
v -0.41378506 -0.40439462 -0.43293648
v -0.38453559 -0.24731984 0.02992596
v -0.46524106 0.12242065 0.04597048
v -0.48347172 0.11065815 -0.36435833
v -0.09890751 0.49385402 -0.92695309
v -0.04941481 0.49999998 -0.66766764
v 0.50204797 -0.08601246 -0.82486044
v -0.10563049 -0.49286424 -0.46385858
v -0.41418686 -0.41326816 -0.52850117
v -0.04941481 -0.49999998 -0.66766764
v -0.31209734 -0.35968846 0.00926921
v -0.41400381 0.41390439 -0.54096941
v -0.41400900 0.41299199 -0.83892872
v 0.26351768 0.41580317 -0.93797735
v 0.31759087 0.39337832 -0.66234816
v 0.03562440 -0.49082745 -0.34113512
v -0.41384234 0.40430984 -0.43392729
v -0.10563049 0.49286424 -0.46385858
v 0.40050144 -0.31135593 -0.72609281
v 0.50745345 0.03688192 -0.82011155
v 0.50520012 -0.01266308 -0.48436546
v -0.06806327 -0.46810065 0.04598217
v -0.20877157 -0.42419161 0.01463451
v 0.05665679 0.34971017 0.04597612
v -0.07267127 0.46734941 0.01164899
v -0.00010681 0.48429022 -0.14636824
v 0.23083934 0.44715234 -0.80028366
v 0.47626424 -0.14106933 -0.23534580
v -0.23213268 0.39422891 0.02871466
v 0.29068662 -0.41052017 -0.49922567
v 0.30058024 -0.37260518 -0.01960693
v 0.08731499 0.49471545 -0.62579724
v 0.41451381 0.29151071 -0.80613530
v 0.47806503 0.17304563 -0.75826947
v 0.47579635 0.15826688 -0.35038525
v 0.48121806 -0.00510059 0.04597672
v 0.43998970 -0.23537125 -0.29566753
v 0.16198347 -0.45328515 -0.12326732
v 0.24068602 -0.38927689 0.02683652
v 0.37968606 -0.30301699 -0.11372971
v 0.17596505 0.44923321 -0.15460279
v 0.30413874 0.37665711 -0.12855919
v 0.40525431 0.27924973 -0.26074089
v 0.40944386 0.21558171 0.02792398
v 0.12014493 0.42829922 0.03124136
vn -0.22975776 -0.11261777 -0.96671020
vn -0.92017547 0.01887708 -0.39105085
vn -0.23673684 0.14348831 -0.96091975
vn -0.05294554 -0.33488050 -0.94077193
vn -0.41036410 -0.03270704 0.91133504
vn 0.29506349 -0.11674926 -0.94831806
vn -0.96630053 -0.11482354 -0.23038847
vn 0.12121188 -0.33957206 -0.93273710
vn -0.32229618 -0.08502956 0.94281236
vn 0.37122905 -0.38450622 -0.84518871
vn 0.04841440 0.28980697 -0.95585980
vn 0.17487972 0.07248995 -0.98191766
vn -0.51436199 -0.51403252 -0.68644177
vn -0.48455386 -0.40890160 0.77330915
vn -0.12980262 -0.07856168 0.98842265
vn -0.25581053 0.05849758 0.96495544
vn -0.98511654 0.13503711 -0.10635023
vn -0.05701239 0.35539358 -0.93297642
vn -0.02944043 0.99847406 0.04672051
vn 0.79879404 -0.09866627 -0.59345855
vn -0.15434446 -0.92131897 0.35686012
vn -0.67473987 -0.66979335 0.31000480
vn -0.03170063 -0.99852605 0.04405450
vn -0.12808130 -0.14044778 0.98176861
vn -0.67209102 0.67500322 0.30440812
vn -0.59208233 0.59355107 -0.54510149
vn 0.15494521 0.21131704 -0.96505808
vn 0.63744734 0.76953264 -0.03847608
vn 0.07489867 -0.84785633 0.52490936
vn -0.45399890 0.39169308 0.80028840
vn -0.15876190 0.91842832 0.36233145
vn 0.77151219 -0.60626332 -0.19290859
vn 0.56145304 0.05643082 -0.82558225
vn 0.94891586 -0.00980741 0.31537677
vn -0.02378049 -0.25105164 0.96768154
vn -0.10119996 -0.22655464 0.96872678
vn 0.00095149 0.00929331 0.99995636
vn -0.03732943 0.26180564 0.96439843
vn 0.05611024 0.66005370 0.74911998
vn 0.41009829 0.83408154 -0.36895444
vn 0.67786480 -0.21705513 0.70241468
vn -0.08809619 0.14987939 0.98477166
vn 0.55485509 -0.74282079 0.37463729
vn 0.22944511 -0.26102554 0.93766764
vn 0.18866023 0.96518390 0.18118324
vn 0.53201161 0.38242409 -0.75545712
vn 0.78751012 0.28346710 -0.54724237
vn 0.80593017 0.27039423 0.52665313
vn 0.26643400 -0.00249282 0.96384994
vn 0.71263731 -0.37618995 0.59213950
vn 0.17099731 -0.51878093 0.83763134
vn 0.07415380 -0.15180342 0.98562515
vn 0.39967119 -0.28708333 0.87054357
vn 0.22624230 0.55706725 0.79905601
vn 0.29186398 0.36839273 0.88266767
vn 0.64744636 0.45343190 0.61254610
vn 0.20246119 0.11400979 0.97263109
vn 0.05260411 0.16858154 0.98428302
f 35//35 16//16 15//15
f 17//17 3//3 2//2
f 2//2 16//16 17//17
f 51//51 8//8 43//43
f 3//3 11//11 6//6
f 11//11 12//12 6//6
f 6//6 12//12 33//33
f 37//37 49//49 58//58
f 58//58 42//42 37//37
f 37//37 42//42 16//16
f 37//37 16//16 35//35
f 35//35 49//49 37//37
f 35//35 15//15 24//24
f 24//24 15//15 14//14
f 9//9 15//15 16//16
f 9//9 7//7 14//14
f 14//14 15//15 9//9
f 16//16 42//42 30//30
f 30//30 17//17 16//16
f 43//43 8//8 10//10
f 10//10 32//32 43//43
f 8//8 6//6 10//10
f 10//10 6//6 32//32
f 3//3 6//6 1//1
f 1//1 6//6 8//8
f 2//2 3//3 1//1
f 1//1 7//7 2//2
f 1//1 13//13 7//7
f 14//14 7//7 22//22
f 7//7 13//13 22//22
f 35//35 14//14 22//22
f 22//22 21//21 35//35
f 29//29 51//51 35//35
f 8//8 51//51 29//29
f 23//23 8//8 29//29
f 29//29 21//21 23//23
f 35//35 21//21 29//29
f 44//44 51//51 43//43
f 27//27 12//12 11//11
f 33//33 12//12 47//47
f 20//20 6//6 33//33
f 36//36 14//14 35//35
f 35//35 24//24 36//36
f 36//36 24//24 14//14
f 5//5 16//16 2//2
f 5//5 9//9 16//16
f 2//2 7//7 5//5
f 7//7 9//9 5//5
f 3//3 17//17 26//26
f 38//38 30//30 42//42
f 38//38 42//42 58//58
f 4//4 1//1 8//8
f 13//13 1//1 4//4
f 4//4 8//8 23//23
f 23//23 21//21 4//4
f 21//21 22//22 4//4
f 4//4 22//22 13//13
f 43//43 32//32 53//53
f 53//53 44//44 43//43
f 49//49 44//44 53//53
f 35//35 51//51 52//52
f 51//51 44//44 52//52
f 52//52 49//49 35//35
f 52//52 44//44 49//49
f 40//40 54//54 28//28
f 40//40 27//27 11//11
f 28//28 27//27 40//40
f 58//58 49//49 57//57
f 34//34 20//20 33//33
f 17//17 30//30 25//25
f 25//25 26//26 17//17
f 30//30 38//38 25//25
f 45//45 40//40 11//11
f 54//54 40//40 45//45
f 49//49 53//53 41//41
f 6//6 20//20 41//41
f 41//41 34//34 49//49
f 20//20 34//34 41//41
f 28//28 54//54 55//55
f 55//55 54//54 58//58
f 58//58 57//57 55//55
f 31//31 25//25 38//38
f 50//50 53//53 32//32
f 50//50 41//41 53//53
f 32//32 6//6 50//50
f 6//6 41//41 50//50
f 28//28 55//55 56//56
f 56//56 55//55 57//57
f 39//39 31//31 38//38
f 54//54 45//45 39//39
f 58//58 54//54 39//39
f 39//39 38//38 58//58
f 19//19 45//45 11//11
f 19//19 39//39 45//45
f 31//31 39//39 19//19
f 28//28 56//56 46//46
f 46//46 27//27 28//28
f 12//12 27//27 46//46
f 46//46 47//47 12//12
f 48//48 56//56 57//57
f 48//48 57//57 49//49
f 47//47 46//46 48//48
f 48//48 46//46 56//56
f 49//49 34//34 48//48
f 33//33 47//47 48//48
f 48//48 34//34 33//33
f 18//18 19//19 11//11
f 18//18 11//11 3//3
f 3//3 26//26 18//18
f 31//31 19//19 18//18
f 26//26 25//25 18//18
f 25//25 31//31 18//18

