# https://github.com/mikedh/trimesh
v 2.98677275 2.29174258 -0.06342991
v 2.98677275 2.29174258 0.06342991
v 2.98863274 2.29174258 -0.19048550
v 3.02847613 1.29174261 -0.31744320
v 3.02739931 1.29174261 -0.19753326
v 3.02681186 1.29174261 -0.06342991
v 2.98706641 2.29174258 0.10131166
v 3.02681186 1.29174261 0.06342991
v 3.02730138 1.29174261 0.18304618
v 2.99186327 2.29174258 -0.30951446
v 3.02896564 1.29174261 -0.32263114
v 2.98863274 2.29174258 0.19048550
v 3.02847613 1.29174261 0.31744320
v 3.06577422 1.29174261 -0.44851209
v 2.99254851 2.29174258 0.22308143
v 3.06577422 1.29174261 0.44851209
v 2.99842226 2.29174258 0.26987077
v 3.07781538 2.29174258 -0.44557554
v 3.14565671 1.29174261 -0.49999998
v 3.05794255 2.29174258 -0.43686371
v 3.12549036 1.29174261 0.49706337
v 3.05794255 2.29174258 0.43686371
v 3.04492250 2.29174258 0.40563819
v 3.02181921 2.29174258 0.33927170
v 3.14565671 2.29174258 -0.47425604
v 3.16797683 1.29174261 -0.49706337
v 3.16807476 2.29174258 -0.47494120
v 3.23679719 2.29174258 -0.47680106
v 3.43033615 2.29174258 -0.47675211
v 3.51012071 2.29174258 -0.47631163
v 3.60126120 2.29174258 -0.47357082
v 3.69249961 2.29174258 -0.46534842
v 3.14565671 1.29174261 0.49999998
v 3.14565671 2.29174258 0.47425604
v 3.92451141 1.29174261 -0.38361391
v 3.71883350 2.29174258 -0.45898588
v 3.69249961 2.29174258 0.46534842
v 3.66606793 2.29174258 0.46897019
v 3.57884328 2.29174258 0.47533278
v 3.51012071 2.29174258 0.47631163
v 3.41907816 2.29174258 0.47680106
v 3.23679719 2.29174258 0.47680106
v 3.21437927 2.29174258 0.47621374
v 3.95769794 1.29174261 -0.31744320
v 3.83121715 2.29174258 -0.42443222
v 3.90042923 2.29174258 -0.39477287
v 3.92451141 2.29174258 -0.38380968
v 3.92455921 1.29174256 0.38360606
v 3.92451141 2.29174258 0.38380968
v 3.94164302 2.29174258 -0.34964757
v 3.95769794 2.29174258 -0.31744320
v 3.95769794 1.29174261 0.31744320
v 3.95769794 2.29174258 0.31744320
v 3.98677276 1.29174261 -0.19058436
v 3.97277370 2.29174258 -0.25195769
v 3.98579389 1.29174261 0.19498824
v 3.97179481 2.29174258 0.25597100
v 3.98677278 1.29174261 0.19048550
v 3.98677278 2.29174258 -0.19048550
v 3.98677278 2.29174258 0.19048550
vn -0.78803646 0.61553702 -0.01061696
vn -0.78734967 0.61647940 0.00580058
vn -0.78684435 0.61634922 -0.03145795
vn -0.77521259 -0.62679450 -0.07857537
vn -0.76703686 -0.64152323 -0.01011934
vn -0.76697085 -0.64167365 -0.00326179
vn -0.78717685 0.61644124 0.01878322
vn -0.76693130 -0.64172198 0.00304706
vn -0.76703427 -0.64153281 0.00969951
vn -0.76069432 0.54360937 -0.35472949
vn -0.75042521 -0.59954685 -0.27821859
vn -0.79182688 0.60225379 0.10149168
vn -0.77623796 -0.59062695 0.22048682
vn -0.51915304 -0.48567727 -0.70327642
vn -0.76570490 0.61676893 0.18246121
vn -0.55269555 -0.49764447 0.66848905
vn -0.74772829 0.57944411 0.32426367
vn -0.18564417 0.51545803 -0.83656396
vn -0.11355559 -0.45286150 -0.88431985
vn -0.40781261 0.47443659 -0.78012743
vn -0.20003519 -0.46318483 0.86339200
vn -0.44069933 0.47097521 0.76417697
vn -0.65256156 0.58385609 0.48298599
vn -0.66873375 0.59599012 0.44451203
vn -0.09990936 0.48064522 -0.87120508
vn 0.06109793 -0.51149818 -0.85710948
vn -0.01276694 0.50861295 -0.86090062
vn -0.00566885 0.50624893 -0.86236876
vn 0.00144992 0.50768015 -0.86154440
vn 0.00891128 0.50474698 -0.86322134
vn 0.02984624 0.49748634 -0.86695821
vn 0.07521132 0.48654322 -0.87041309
vn -0.00721782 -0.47986394 0.87731323
vn -0.09952883 0.48081635 0.87115421
vn 0.35439957 -0.45136752 -0.81894341
vn 0.11987583 0.49699084 -0.85943580
vn 0.10399062 0.48338878 0.86920725
vn 0.05060565 0.49239607 0.86889883
vn 0.02226206 0.49904501 0.86629006
vn 0.00471575 0.50682725 0.86203475
vn 0.00135849 0.50768052 0.86154434
vn -0.00554436 0.50633826 0.86231713
vn -0.01210529 0.50870418 0.86085627
vn 0.68022565 -0.56328510 -0.46904474
vn 0.15989822 0.49819638 -0.85219301
vn 0.19085322 0.50957884 -0.83899014
vn 0.41419789 0.47257766 -0.77788847
vn 0.35452494 -0.45116669 0.81899981
vn 0.39368242 0.46333375 0.79393701
vn 0.58531744 0.57835244 -0.56825343
vn 0.68035665 0.56379106 -0.46824616
vn 0.68025694 -0.56338733 0.46887654
vn 0.68043547 0.56350304 0.46847827
vn 0.78842586 -0.59084163 -0.17114566
vn 0.72136604 0.61382402 -0.32070409
vn 0.72481879 -0.61301857 0.31439776
vn 0.72113242 0.61411463 0.32067312
vn 0.78871046 -0.59281583 0.16280416
vn 0.78846751 0.59107999 -0.17012769
vn 0.78843926 0.59091809 0.17081963
f 48//48 54//54 58//58
f 58//58 54//54 59//59
f 5//5 6//6 1//1
f 5//5 48//48 6//6
f 9//9 48//48 13//13
f 19//19 32//32 26//26
f 26//26 32//32 35//35
f 26//26 48//48 19//19
f 35//35 48//48 26//26
f 49//49 48//48 52//52
f 44//44 48//48 35//35
f 54//54 48//48 44//44
f 44//44 35//35 47//47
f 58//58 59//59 60//60
f 13//13 48//48 16//16
f 4//4 5//5 1//1
f 4//4 10//10 11//11
f 11//11 48//48 4//4
f 48//48 5//5 4//4
f 6//6 48//48 8//8
f 48//48 9//9 8//8
f 31//31 32//32 19//19
f 19//19 30//30 31//31
f 47//47 35//35 46//46
f 35//35 45//45 46//46
f 35//35 32//32 36//36
f 36//36 45//45 35//35
f 58//58 60//60 56//56
f 56//56 48//48 58//58
f 56//56 52//52 48//48
f 49//49 52//52 53//53
f 52//52 56//56 53//53
f 13//13 16//16 17//17
f 21//21 48//48 33//33
f 21//21 16//16 48//48
f 22//22 16//16 21//21
f 33//33 34//34 21//21
f 21//21 34//34 22//22
f 3//3 4//4 1//1
f 10//10 4//4 3//3
f 18//18 20//20 10//10
f 18//18 25//25 19//19
f 19//19 20//20 18//18
f 14//14 20//20 19//19
f 19//19 48//48 14//14
f 14//14 48//48 11//11
f 11//11 10//10 14//14
f 10//10 20//20 14//14
f 19//19 25//25 27//27
f 27//27 28//28 19//19
f 29//29 30//30 19//19
f 19//19 28//28 29//29
f 50//50 44//44 47//47
f 50//50 51//51 44//44
f 55//55 59//59 54//54
f 54//54 44//44 55//55
f 44//44 51//51 55//55
f 57//57 56//56 60//60
f 57//57 53//53 56//56
f 22//22 34//34 23//23
f 23//23 16//16 22//22
f 33//33 48//48 37//37
f 37//37 38//38 33//33
f 37//37 48//48 49//49
f 24//24 17//17 16//16
f 16//16 23//23 24//24
f 13//13 17//17 15//15
f 15//15 12//12 13//13
f 2//2 8//8 9//9
f 33//33 38//38 39//39
f 39//39 40//40 33//33
f 7//7 9//9 13//13
f 7//7 2//2 9//9
f 13//13 12//12 7//7
f 43//43 34//34 33//33
f 33//33 42//42 43//43
f 33//33 40//40 41//41
f 41//41 42//42 33//33
f 1//1 6//6 2//2
f 6//6 8//8 2//2
f 30//30 29//29 41//41
f 41//41 36//36 32//32
f 49//49 53//53 41//41
f 1//1 2//2 41//41
f 32//32 31//31 41//41
f 41//41 3//3 1//1
f 25//25 18//18 41//41
f 47//47 46//46 41//41
f 41//41 60//60 59//59
f 41//41 23//23 34//34
f 41//41 27//27 25//25
f 41//41 31//31 30//30
f 41//41 46//46 45//45
f 45//45 36//36 41//41
f 41//41 50//50 47//47
f 59//59 55//55 41//41
f 41//41 57//57 60//60
f 41//41 15//15 17//17
f 10//10 3//3 41//41
f 41//41 18//18 10//10
f 28//28 27//27 41//41
f 41//41 29//29 28//28
f 51//51 50//50 41//41
f 41//41 55//55 51//51
f 53//53 57//57 41//41
f 41//41 37//37 49//49
f 17//17 24//24 41//41
f 41//41 7//7 12//12
f 38//38 37//37 41//41
f 41//41 24//24 23//23
f 12//12 15//15 41//41
f 41//41 39//39 38//38
f 34//34 43//43 41//41
f 40//40 39//39 41//41
f 2//2 7//7 41//41
f 41//41 43//43 42//42

