# https://github.com/mikedh/trimesh
v 1.05247902 -0.27099148 5.44776984
v 1.06351443 -0.27979616 5.58874737
v 1.06217130 0.29492408 5.29111394
v 1.06495990 -0.29767909 5.24694148
v 1.05737412 -0.29433678 5.44776984
v 1.10926209 -0.26320972 5.66511403
v 1.05247902 0.27162772 5.44776984
v 1.06510829 0.29492408 5.24694147
v 1.05776571 0.29492408 5.44776984
v 1.14274339 0.48109824 5.24694146
v 1.14577951 -0.48667856 5.24694147
v 1.10926209 -0.27877324 5.65817543
v 1.51535909 -0.09269602 6.24531749
v 1.10926209 0.26389489 5.66511403
v 1.06647896 0.28714231 5.57403274
v 1.37281396 0.49039814 5.69218433
v 1.37281396 -0.48981086 5.69218433
v 1.61597021 -0.49068606 6.15386504
v 1.64615602 -0.48051191 6.17378151
v 1.70577826 -0.48051191 6.18726782
v 1.51544429 -0.10653271 6.24542683
v 1.10926209 0.27936054 5.65758908
v 1.62158741 0.49354017 6.15943616
v 1.69936569 -0.49393422 6.09435414
v 2.05235061 -0.27892322 6.20327625
v 2.05234864 -0.17089134 6.24529630
v 1.70577826 0.48109918 6.18726782
v 1.21545617 -0.49837479 5.24709763
v 1.76980610 -0.48535716 6.15482255
v 2.05235094 -0.29316219 6.17759285
v 2.05235094 0.16924120 6.24531749
v 1.88714151 -0.48530821 5.92237957
v 1.51786907 0.10983567 6.24694151
v 1.75100894 0.49078969 6.16283615
v 2.05235055 0.27947554 6.20329129
v 1.18073416 0.49424168 5.24694183
v 1.26415244 -0.50000981 5.24694947
v 1.82502277 -0.48051191 6.08944336
v 1.80681301 0.48109918 6.11802842
v 1.86016954 0.49069183 6.00940518
v 2.05235094 0.29188968 6.18003601
v 1.72853663 0.49870682 5.90939186
v 1.55051633 0.49999020 5.24694147
v 1.92379427 -0.49981695 5.57441550
v 1.92952148 -0.48666521 5.24694148
v 2.05241211 0.30172089 5.72849591
v 1.99407485 0.39075238 5.79980585
v 1.91411347 0.48109918 5.83535395
v 1.91959598 0.49108334 5.73225227
v 1.96404343 -0.27877324 5.24694147
v 2.05244882 0.29463042 5.43408812
v 1.93790365 0.48109918 5.24694147
v 1.90508415 0.49731356 5.24694376
v 1.90643726 -0.49994752 5.24694190
v 2.05244882 0.28366743 5.37327766
v 1.96384763 0.27936054 5.24694147
v 1.96482666 0.00009787 5.24694147
v 2.05247902 -0.30183930 5.36591212
vn -0.99826927 -0.00373632 0.05868987
vn -0.47282833 -0.01113654 0.88108419
vn -0.94508404 0.01570767 -0.32644973
vn -0.33560508 -0.00652339 -0.94198019
vn -0.97754669 -0.02589211 0.20912216
vn -0.20697973 -0.00222694 0.97834270
vn -0.98769972 0.00330676 0.15632764
vn -0.31414741 0.00444422 -0.94936382
vn -0.97106252 0.02567867 0.23744092
vn -0.71368442 0.08125649 -0.69573841
vn -0.70702767 -0.11031086 -0.69852945
vn -0.19693837 -0.00705426 0.98039049
vn -0.16227267 0.00001701 0.98674596
vn -0.23185943 0.00249651 0.97274610
vn -0.47757420 0.01440829 0.87847327
vn -0.27817036 0.06422209 0.95838237
vn -0.27223396 -0.07143911 0.95957549
vn -0.12579825 -0.07991064 0.98883219
vn -0.04956738 -0.00659813 0.99874899
vn 0.01364280 -0.02018797 0.99970312
vn -0.09656889 -0.00091578 0.99532588
vn -0.21776671 0.00763605 0.97597098
vn -0.11713962 0.08563936 0.98941610
vn 0.06068334 -0.20532012 0.97681174
vn 0.37777193 -0.00502913 0.92588502
vn 0.35292606 -0.00116796 0.93565048
vn 0.00477059 0.01038351 0.99993471
vn -0.29867532 -0.16312747 -0.94030978
vn 0.13734835 -0.06500765 0.98838729
vn 0.52379387 -0.02247834 0.85154841
vn 0.35331850 0.00114884 0.93550239
vn 0.42721342 -0.09001402 0.89965892
vn -0.09576903 0.00094352 0.99540314
vn 0.09940330 0.07887968 0.99191581
vn 0.37722755 0.00504227 0.92610688
vn -0.49407617 0.16616341 -0.85339233
vn -0.04894736 -0.12374344 -0.99110631
vn 0.25884182 -0.04659280 0.96479533
vn 0.19132807 0.02398561 0.98123303
vn 0.34209199 0.11507259 0.93259389
vn 0.52706470 0.02219441 0.84953529
vn 0.13253018 0.56087689 0.81722265
vn -0.01327137 0.10564781 -0.99431505
vn 0.83699954 -0.25308751 0.48515819
vn 0.34953061 -0.02452799 -0.93660383
vn 0.99970200 0.02404228 0.00422940
vn 0.98289487 0.04746729 0.17794530
vn 0.59176923 0.05003670 0.80455298
vn 0.79358462 0.19510598 0.57633072
vn 0.09184974 -0.00029146 -0.99577284
vn 0.96343737 0.02235020 -0.26699983
vn 0.37689922 0.03144876 -0.92572024
vn 0.25692298 0.10867384 -0.96030234
vn 0.23148987 -0.10246699 -0.96742594
vn 0.53812193 0.00310404 -0.84286129
vn 0.09709674 0.00041337 -0.99527486
vn 0.09333009 0.00002106 -0.99563522
vn 0.54669497 -0.01036295 -0.83726771
f 1//1 2//2 7//7
f 7//7 2//2 15//15
f 5//5 2//2 1//1
f 11//11 2//2 5//5
f 15//15 2//2 14//14
f 4//4 5//5 1//1
f 11//11 5//5 4//4
f 43//43 52//52 10//10
f 33//33 31//31 27//27
f 27//27 23//23 33//33
f 46//46 31//31 58//58
f 22//22 23//23 15//15
f 15//15 14//14 22//22
f 33//33 23//23 22//22
f 22//22 14//14 33//33
f 9//9 7//7 15//15
f 15//15 10//10 9//9
f 43//43 10//10 36//36
f 36//36 42//42 43//43
f 23//23 42//42 36//36
f 15//15 23//23 16//16
f 16//16 10//10 15//15
f 23//23 36//36 16//16
f 16//16 36//36 10//10
f 11//11 4//4 8//8
f 8//8 10//10 11//11
f 58//58 45//45 50//50
f 50//50 45//45 11//11
f 11//11 10//10 50//50
f 35//35 27//27 31//31
f 35//35 46//46 41//41
f 31//31 46//46 35//35
f 27//27 35//35 34//34
f 23//23 27//27 34//34
f 34//34 42//42 23//23
f 53//53 52//52 43//43
f 43//43 42//42 53//53
f 51//51 55//55 52//52
f 52//52 46//46 51//51
f 58//58 55//55 51//51
f 51//51 46//46 58//58
f 6//6 14//14 2//2
f 2//2 12//12 6//6
f 26//26 31//31 33//33
f 58//58 31//31 26//26
f 44//44 45//45 58//58
f 17//17 2//2 11//11
f 3//3 8//8 4//4
f 1//1 7//7 3//3
f 3//3 4//4 1//1
f 7//7 9//9 3//3
f 3//3 9//9 10//10
f 10//10 8//8 3//3
f 56//56 10//10 52//52
f 52//52 55//55 56//56
f 56//56 55//55 58//58
f 39//39 35//35 41//41
f 39//39 34//34 35//35
f 42//42 34//34 40//40
f 34//34 39//39 40//40
f 40//40 39//39 41//41
f 18//18 12//12 2//2
f 2//2 17//17 18//18
f 21//21 26//26 33//33
f 20//20 26//26 21//21
f 21//21 6//6 12//12
f 12//12 18//18 21//21
f 11//11 45//45 54//54
f 45//45 44//44 54//54
f 30//30 44//44 58//58
f 11//11 54//54 37//37
f 37//37 54//54 44//44
f 57//57 50//50 10//10
f 10//10 56//56 57//57
f 58//58 50//50 57//57
f 57//57 56//56 58//58
f 49//49 53//53 42//42
f 42//42 40//40 49//49
f 52//52 53//53 49//49
f 19//19 18//18 20//20
f 20//20 21//21 19//19
f 19//19 21//21 18//18
f 33//33 14//14 13//13
f 13//13 21//21 33//33
f 14//14 6//6 13//13
f 6//6 21//21 13//13
f 25//25 26//26 20//20
f 58//58 26//26 25//25
f 25//25 30//30 58//58
f 44//44 30//30 32//32
f 28//28 17//17 11//11
f 11//11 37//37 28//28
f 28//28 18//18 17//17
f 28//28 37//37 18//18
f 24//24 37//37 44//44
f 18//18 37//37 24//24
f 47//47 49//49 41//41
f 52//52 49//49 47//47
f 41//41 46//46 47//47
f 47//47 46//46 52//52
f 48//48 40//40 41//41
f 41//41 49//49 48//48
f 48//48 49//49 40//40
f 44//44 32//32 29//29
f 29//29 24//24 44//44
f 20//20 18//18 29//29
f 18//18 24//24 29//29
f 29//29 25//25 20//20
f 30//30 25//25 29//29
f 38//38 32//32 30//30
f 30//30 29//29 38//38
f 38//38 29//29 32//32

