# https://github.com/mikedh/trimesh
v 0.72988547 0.39008675 6.17726202
v 0.73000736 -0.39850327 6.32722869
v 0.72997757 -0.37150537 6.09999738
v 0.73000736 -0.38892185 6.16983014
v 1.08694503 -0.48483422 6.22645643
v 0.91233261 -0.44469058 6.37117890
v 1.10974001 -0.49368840 7.09993072
v 1.51881133 -0.39366060 6.10899724
v 0.72990970 0.34943634 6.09994049
v 1.15717198 -0.47181333 6.10998590
v 1.09465785 -0.47181333 6.12362859
v 1.19543710 -0.49910806 6.37117890
v 0.72990970 -0.39811018 6.90474822
v 0.97249749 -0.44585754 7.09993026
v 0.72990970 -0.38798827 7.02299290
v 0.72990970 0.37444627 6.10175135
v 1.19879620 -0.48944836 6.19717667
v 0.72990970 -0.36912028 7.05216259
v 1.51879491 0.39190696 6.10899380
v 1.70982865 0.00037820 6.87597014
v 1.29150565 0.45094401 6.10910493
v 0.78518697 -0.30660773 7.09993026
v 0.72990970 0.38392942 6.13018687
v 1.10525078 0.47276629 6.11961531
v 1.19872908 0.49005582 6.19771809
v 1.48203798 0.42150574 6.24727526
v 1.71636988 0.03622250 6.91791373
v 1.72988549 -0.10375006 7.09994045
v 1.71643090 -0.03299704 6.91754665
v 1.65198247 -0.21934318 6.77317901
v 1.63738666 -0.27920242 6.96778596
v 1.37285336 -0.46031257 6.17556864
v 1.09465785 0.48642593 6.21466131
v 1.16360950 0.49743227 6.37108102
v 1.34229191 0.46949878 6.16986073
v 1.56321145 0.36763046 7.09974809
v 1.63728903 0.27976229 6.97013518
v 1.66936072 0.21996447 6.96577935
v 1.70106628 0.14520490 6.96543674
v 1.29196331 -0.49282487 6.62140883
v 1.57487831 -0.35439632 7.09992740
v 1.48313328 -0.41906952 6.23536087
v 0.72990986 0.39975171 6.37083079
v 1.09465785 0.48976713 6.37108102
v 1.19914338 0.50089197 7.09983231
v 1.66428087 0.23241723 7.08705841
v 1.10431787 0.49147855 7.09983235
v 1.51894543 -0.40160187 6.81317406
v 1.28650308 0.49375625 7.09983234
v 1.29480069 0.49234675 6.41298789
v 1.49438945 0.41848449 7.09131315
v 1.71533256 0.09086111 7.06315008
v 1.37896865 0.47158774 7.09983234
v 0.72990970 0.39955449 6.63766991
v 0.72990970 0.39778562 6.90484614
v 0.72990989 0.38172953 7.09989254
v 1.44772407 -0.44564686 7.09764663
v 1.37939766 0.47168530 6.34780894
v 1.28795130 -0.49252700 7.09993026
vn -0.20598638 0.14614449 -0.96758018
vn -0.44167706 -0.37126788 -0.81675059
vn -0.11131925 -0.02104560 -0.99356183
vn -0.15459390 -0.09938616 -0.98296649
vn -0.04276286 -0.22381568 -0.97369291
vn -0.20556026 -0.77428191 -0.59852528
vn -0.01847080 -0.12399744 0.99211061
vn 0.08025026 -0.07857555 -0.99367287
vn -0.11770775 0.00043247 -0.99304819
vn -0.00053798 -0.03380678 -0.99942824
vn -0.00841853 -0.05217673 -0.99860238
vn 0.00830780 -0.47424587 -0.88035324
vn -0.35809060 -0.30074371 0.88392553
vn -0.00707737 -0.01857376 0.99980244
vn -0.12891137 -0.06249309 0.98968504
vn -0.11229396 0.01667226 -0.99353515
vn 0.00939133 -0.11810318 -0.99295692
vn -0.12082514 -0.01060471 0.99261716
vn 0.08024519 0.07608761 -0.99386689
vn 0.07236144 0.00004584 -0.99737847
vn 0.00220395 0.01717542 -0.99985006
vn -0.00547015 -0.00190382 0.99998323
vn -0.13447902 0.06219404 -0.98896274
vn -0.00514731 0.04192049 -0.99910769
vn 0.00627439 0.12342707 -0.99233381
vn 0.15123115 0.26711390 -0.95172438
vn 0.16662993 0.01236425 -0.98594198
vn 0.31827433 -0.06264913 0.94592629
vn 0.11338962 -0.00456248 -0.99354012
vn 0.17249949 -0.07231635 -0.98235140
vn 0.67170151 -0.36866740 0.64257407
vn 0.04037893 -0.12461393 -0.99138333
vn -0.03294146 0.17846776 -0.98339418
vn -0.02209691 0.49782734 -0.86699462
vn 0.02191942 0.09118560 -0.99559265
vn 0.10049789 0.09598678 0.99029628
vn 0.84310062 0.52354709 -0.12279979
vn 0.31966069 0.13420206 -0.93798020
vn 0.38879231 0.10958929 -0.91478453
vn 0.13118859 -0.65471115 -0.74440773
vn 0.10121124 -0.09090555 0.99070302
vn 0.16384142 -0.31111667 -0.93614230
vn -0.50568417 0.42110227 -0.75296507
vn -0.14893003 0.77591319 -0.61300780
vn -0.00034652 0.12435503 0.99223773
vn 0.12110069 0.05818177 0.99093365
vn -0.02144035 0.11782746 0.99280260
vn 0.60645887 -0.77288046 0.18671751
vn 0.01962072 0.11896357 0.99270474
vn 0.06583555 0.41880408 -0.90568694
vn 0.07589199 0.11741844 0.99017843
vn 0.21183470 0.03472023 0.97668857
vn 0.04230569 0.11417129 0.99255989
vn -0.78534941 0.59933866 0.15498217
vn -0.34954718 0.28768324 0.89165863
vn -0.11254317 0.04777103 0.99249784
vn 0.05845591 -0.12182717 0.99082846
vn 0.12537487 0.33176525 -0.93499356
vn 0.01997519 -0.11937144 0.99264871
f 1//1 18//18 56//56
f 1//1 3//3 13//13
f 47//47 56//56 45//45
f 22//22 56//56 18//18
f 28//28 56//56 22//22
f 20//20 8//8 19//19
f 28//28 59//59 41//41
f 12//12 59//59 7//7
f 7//7 59//59 28//28
f 19//19 8//8 9//9
f 9//9 8//8 3//3
f 9//9 3//3 1//1
f 1//1 16//16 9//9
f 23//23 16//16 1//1
f 19//19 9//9 21//21
f 21//21 9//9 16//16
f 1//1 56//56 55//55
f 56//56 47//47 55//55
f 34//34 47//47 45//45
f 28//28 8//8 29//29
f 8//8 20//20 29//29
f 28//28 41//41 31//31
f 31//31 41//41 8//8
f 8//8 41//41 48//48
f 40//40 59//59 12//12
f 12//12 32//32 40//40
f 12//12 7//7 5//5
f 3//3 8//8 10//10
f 8//8 32//32 10//10
f 28//28 36//36 53//53
f 53//53 56//56 28//28
f 51//51 53//53 36//36
f 58//58 53//53 51//51
f 4//4 13//13 3//3
f 4//4 2//2 13//13
f 4//4 5//5 2//2
f 13//13 7//7 15//15
f 15//15 18//18 1//1
f 1//1 13//13 15//15
f 19//19 21//21 35//35
f 54//54 55//55 47//47
f 1//1 55//55 54//54
f 54//54 43//43 1//1
f 25//25 34//34 50//50
f 50//50 35//35 25//25
f 58//58 35//35 50//50
f 50//50 34//34 45//45
f 50//50 53//53 58//58
f 47//47 34//34 44//44
f 44//44 54//54 47//47
f 43//43 54//54 44//44
f 19//19 36//36 37//37
f 27//27 20//20 19//19
f 19//19 39//39 27//27
f 27//27 29//29 20//20
f 28//28 29//29 27//27
f 30//30 8//8 28//28
f 28//28 31//31 30//30
f 30//30 31//31 8//8
f 57//57 40//40 32//32
f 59//59 40//40 57//57
f 57//57 41//41 59//59
f 57//57 48//48 41//41
f 2//2 5//5 6//6
f 6//6 5//5 7//7
f 13//13 2//2 6//6
f 6//6 7//7 13//13
f 3//3 10//10 11//11
f 11//11 4//4 3//3
f 5//5 4//4 11//11
f 17//17 32//32 12//12
f 17//17 10//10 32//32
f 12//12 5//5 17//17
f 5//5 11//11 17//17
f 17//17 11//11 10//10
f 45//45 56//56 49//49
f 56//56 53//53 49//49
f 49//49 50//50 45//45
f 53//53 50//50 49//49
f 58//58 51//51 26//26
f 19//19 35//35 26//26
f 26//26 35//35 58//58
f 26//26 36//36 19//19
f 26//26 51//51 36//36
f 18//18 15//15 14//14
f 14//14 15//15 7//7
f 14//14 22//22 18//18
f 28//28 22//22 14//14
f 14//14 7//7 28//28
f 16//16 23//23 24//24
f 24//24 21//21 16//16
f 25//25 35//35 24//24
f 24//24 35//35 21//21
f 33//33 34//34 25//25
f 33//33 44//44 34//34
f 25//25 24//24 33//33
f 1//1 43//43 33//33
f 43//43 44//44 33//33
f 33//33 23//23 1//1
f 33//33 24//24 23//23
f 46//46 37//37 36//36
f 46//46 36//36 28//28
f 28//28 27//27 52//52
f 52//52 27//27 39//39
f 52//52 46//46 28//28
f 39//39 46//46 52//52
f 8//8 48//48 42//42
f 48//48 57//57 42//42
f 42//42 32//32 8//8
f 42//42 57//57 32//32
f 38//38 46//46 39//39
f 37//37 46//46 38//38
f 38//38 39//39 19//19
f 19//19 37//37 38//38

