# https://github.com/mikedh/trimesh
v 0.55294870 -3.31952262 0.18992821
v 0.58466687 -3.31952262 0.19593297
v 0.63297814 -2.90778019 0.28777726
v 0.75754979 -2.49603775 0.36524933
v 0.65309556 -3.31191140 0.24618647
v 0.77370251 -2.31953493 0.41614267
v 0.82147538 -2.33323999 0.42377176
v 0.86273515 -2.31952819 0.45318139
v 0.73021256 -2.83697838 0.32550429
v 0.72142644 -3.20087504 0.31110749
v 0.71927271 -3.31952262 0.31317471
v 0.51036894 -3.31951419 0.21417836
v 0.74359926 -2.31953476 0.43526408
v 0.89881270 -2.36593662 0.49007091
v 1.10635060 -2.31953493 0.71165876
v 0.75686451 -3.31952262 0.36406805
v 1.12661494 -2.31953493 0.73813903
v 0.43508284 -2.31953493 0.74591577
v 0.75911611 -3.31952262 0.37273076
v 1.15588558 -2.31953493 0.78484869
v 1.17340883 -2.35095887 0.83657879
v 0.20202725 -3.31952818 0.52458989
v 0.40400115 -2.40367484 0.74709706
v 0.41888118 -2.31953493 0.78036969
v 0.74036922 -3.31952262 0.40014623
v 1.13258652 -2.47743792 0.83657879
v 1.13258652 -2.47606735 1.01554219
v 1.18285572 -2.31953493 0.85981055
v 0.19269420 -3.31952262 0.56321164
v 1.19269419 -2.31953493 0.92606049
v 1.17705075 -2.39800287 0.92608071
v 1.17233197 -2.34949042 1.01554219
v 0.21129440 -3.31952262 0.61036427
v 0.26533255 -3.05560040 0.68094555
v 0.42070692 -2.31955044 0.82914181
v 0.72034964 -3.31952262 0.42165530
v 1.08818402 -2.45319878 1.10505339
v 1.08387165 -2.31953580 1.14786088
v 0.99925316 -2.47342430 1.14981399
v 0.40777851 -3.31952486 0.73642476
v 1.17480385 -2.31953493 1.01261363
v 1.16420285 -2.31953558 1.04807458
v 0.22404261 -3.31952244 0.63991289
v 0.44252292 -2.31953493 0.86040116
v 0.89925320 -2.35017565 1.18992819
v 0.36773091 -3.31952262 0.74867209
v 1.01774548 -2.31953545 1.18389423
v 0.82147538 -2.46314535 1.14981399
v 0.89925320 -2.47670380 1.14981399
v 0.26623075 -3.31952258 0.68318913
v 0.50397509 -2.31953647 0.92234988
v 0.82401531 -2.31953539 1.18867541
v 0.33405498 -3.31952262 0.73991094
v 0.30938538 -3.31952262 0.72593251
v 0.66823146 -2.31953593 1.07294150
v 0.80855318 -2.31953493 1.18111783
v 0.31535703 -3.31952262 0.73114982
v 0.73258656 -2.31953493 1.13012605
v 0.76621355 -2.31953493 1.15503130
vn -0.15151423 -0.81889546 -0.55358258
vn 0.10315405 -0.92925722 -0.35473971
vn -0.04012088 0.99646248 -0.07384331
vn 0.05126821 0.98559388 -0.16117160
vn 0.14586086 -0.97106912 -0.18907504
vn -0.00463846 0.99875421 -0.04968410
vn 0.06209677 0.99232219 -0.10696107
vn 0.11022264 0.98709081 -0.11620115
vn 0.34947810 0.81544100 -0.46143367
vn 0.66289356 -0.34104674 -0.66652776
vn 0.10081677 -0.99041751 -0.09438821
vn -0.36129001 -0.80902365 -0.46362729
vn -0.02503967 0.99916954 -0.03214410
vn 0.70586795 0.21657993 -0.67442091
vn 0.18181444 0.97277120 -0.14373485
vn 0.08303134 -0.99487949 -0.05762471
vn 0.24959229 0.95465256 -0.16230275
vn -0.03347065 0.99915059 -0.02403757
vn 0.03978348 -0.99919429 -0.00529629
vn 0.35613356 0.91834124 -0.17267964
vn 0.19400415 -0.97901914 -0.06232105
vn -0.51812348 -0.79372589 -0.31866482
vn -0.07791820 0.99641876 -0.03283924
vn -0.05317111 0.99857355 -0.00486771
vn 0.01284281 -0.99986759 0.00999342
vn 0.07768616 -0.99684111 -0.01651265
vn 0.05518670 -0.99818439 0.02413202
vn 0.39430764 0.91651417 -0.06725515
vn -0.51917529 -0.85399989 -0.03378172
vn 0.44512796 0.89545957 0.00363962
vn 0.09120857 -0.99583102 0.00125236
vn 0.17491492 -0.98316055 0.05291594
vn -0.24748244 -0.96366993 0.10046243
vn -0.29437653 0.93835989 0.18117166
vn -0.09706098 0.99372869 0.05551996
vn 0.01083533 -0.99988625 0.01049226
vn 0.05715989 -0.99684239 0.05511800
vn 0.29581876 0.86209135 0.41144836
vn 0.02091112 -0.99758534 0.06622854
vn 0.00851668 -0.99980776 0.01766116
vn 0.22176951 0.97366525 0.05286070
vn 0.44931257 0.85536976 0.25779991
vn -0.22578249 -0.96656140 0.12157852
vn -0.11429270 0.98740349 0.10941450
vn 0.00395008 -0.86872333 0.49528190
vn -0.00638542 -0.99927404 0.03755818
vn 0.16148827 0.85497464 0.49288934
vn -0.01690656 -0.99659243 0.08073225
vn -0.00101369 -0.99772000 0.06748165
vn -0.11400367 -0.98700048 0.11328377
vn -0.11617214 0.98514574 0.12645914
vn -0.11810784 0.85524153 0.50459138
vn -0.02274654 -0.99838516 0.05205446
vn -0.10798539 -0.98777298 0.11244419
vn -0.11871016 0.98371065 0.13498617
vn -0.17732725 0.91695936 0.35740814
vn -0.08593540 -0.99081760 0.10438190
vn -0.14382660 0.97051831 0.19341181
vn -0.16402462 0.95029624 0.26463744
f 8//8 44//44 58//58
f 44//44 51//51 58//58
f 59//59 56//56 8//8
f 8//8 58//58 59//59
f 8//8 13//13 18//18
f 18//18 22//22 23//23
f 18//18 13//13 22//22
f 6//6 13//13 8//8
f 1//1 22//22 12//12
f 22//22 13//13 12//12
f 2//2 22//22 1//1
f 1//1 4//4 2//2
f 36//36 40//40 25//25
f 40//40 22//22 19//19
f 22//22 16//16 19//19
f 19//19 25//25 40//40
f 27//27 25//25 19//19
f 55//55 58//58 51//51
f 57//57 59//59 58//58
f 56//56 59//59 57//57
f 57//57 22//22 40//40
f 35//35 34//34 44//44
f 29//29 34//34 35//35
f 8//8 4//4 7//7
f 7//7 6//6 8//8
f 4//4 6//6 7//7
f 13//13 6//6 3//3
f 3//3 12//12 13//13
f 1//1 12//12 3//3
f 3//3 4//4 1//1
f 3//3 6//6 4//4
f 39//39 38//38 47//47
f 8//8 56//56 47//47
f 31//31 19//19 26//26
f 27//27 19//19 31//31
f 32//32 31//31 30//30
f 27//27 31//31 32//32
f 37//37 38//38 39//39
f 37//37 39//39 40//40
f 37//37 40//40 36//36
f 36//36 25//25 37//37
f 37//37 25//25 27//27
f 11//11 16//16 22//22
f 22//22 2//2 11//11
f 11//11 17//17 16//16
f 26//26 19//19 21//21
f 21//21 19//19 16//16
f 30//30 31//31 21//21
f 21//21 31//31 26//26
f 58//58 55//55 54//54
f 54//54 57//57 58//58
f 54//54 55//55 51//51
f 22//22 57//57 54//54
f 56//56 57//57 52//52
f 52//52 47//47 56//56
f 24//24 18//18 23//23
f 29//29 35//35 24//24
f 24//24 35//35 44//44
f 24//24 22//22 29//29
f 23//23 22//22 24//24
f 24//24 44//44 8//8
f 8//8 18//18 24//24
f 41//41 47//47 38//38
f 41//41 32//32 30//30
f 30//30 8//8 41//41
f 8//8 47//47 41//41
f 46//46 49//49 48//48
f 40//40 39//39 46//46
f 39//39 49//49 46//46
f 5//5 11//11 2//2
f 8//8 17//17 15//15
f 17//17 11//11 15//15
f 16//16 17//17 20//20
f 20//20 21//21 16//16
f 20//20 17//17 8//8
f 50//50 51//51 44//44
f 50//50 54//54 51//51
f 22//22 54//54 50//50
f 48//48 52//52 53//53
f 53//53 52//52 57//57
f 53//53 46//46 48//48
f 53//53 57//57 40//40
f 40//40 46//46 53//53
f 45//45 49//49 39//39
f 39//39 47//47 45//45
f 47//47 52//52 45//45
f 48//48 49//49 45//45
f 45//45 52//52 48//48
f 42//42 41//41 38//38
f 32//32 41//41 42//42
f 38//38 37//37 42//42
f 27//27 32//32 42//42
f 42//42 37//37 27//27
f 10//10 5//5 8//8
f 11//11 5//5 10//10
f 10//10 15//15 11//11
f 9//9 2//2 4//4
f 9//9 5//5 2//2
f 9//9 4//4 8//8
f 8//8 5//5 9//9
f 30//30 21//21 28//28
f 21//21 20//20 28//28
f 28//28 8//8 30//30
f 28//28 20//20 8//8
f 44//44 34//34 43//43
f 43//43 50//50 44//44
f 22//22 50//50 43//43
f 8//8 15//15 14//14
f 14//14 10//10 8//8
f 15//15 10//10 14//14
f 33//33 34//34 29//29
f 33//33 43//43 34//34
f 29//29 22//22 33//33
f 22//22 43//43 33//33

