# https://github.com/mikedh/trimesh
v -1.79019521 0.14747355 -21.09865233
v -1.72808108 0.01111109 -20.09865232
v -1.78716075 -0.23829388 -21.09865233
v -1.72373090 -0.05671596 -20.09865232
v -1.78314740 -0.26100335 -21.09865233
v -1.73889094 0.10466081 -20.34865232
v -1.78251120 0.26278287 -21.09865233
v -1.76817097 -0.28371284 -21.09865233
v -1.63837473 -0.30642231 -20.09865232
v -1.69593139 -0.15744033 -20.09865232
v -1.71446238 -0.09936964 -20.09865232
v -1.70714549 0.12553492 -20.09865232
v -1.66915974 0.22695672 -20.09865232
v -1.62689769 0.33242852 -20.10256774
v -1.62585764 -0.33394043 -20.10269014
v -1.76807304 0.28363251 -21.09865233
v -1.75006214 -0.29751471 -21.09865233
v -1.60739394 0.35161411 -20.09865232
v -1.73635825 -0.30730330 -21.09865233
v -1.60017493 -0.35600141 -20.09865232
v -1.73758176 0.30658668 -21.09865233
v -1.71785784 -0.31718970 -21.09865233
v -1.50558076 0.41103071 -20.09865232
v -1.49262317 -0.41399864 -21.09865233
v -1.43575169 -0.44796499 -20.09865232
v -1.49046969 -0.41942521 -20.09865232
v -1.43810091 0.44661218 -20.09865232
v -1.59535403 0.36967400 -21.09600957
v -1.47189593 0.42178589 -21.09865233
v -1.46413843 -0.42515762 -21.09865233
v -1.43976496 -0.43328217 -21.09865233
v -1.38485118 -0.46685694 -20.09865232
v -1.41617456 -0.45560007 -20.09865232
v -1.32735563 -0.48155200 -20.09865232
v -1.37768103 0.46808582 -20.09865232
v -1.40912679 0.44034749 -21.09865233
v -1.30996873 0.48537488 -20.09865232
v -1.38575661 -0.44446559 -21.09865233
v -1.35842208 0.44915721 -21.09865233
v -1.26650755 0.49222685 -20.09865232
v -1.29198225 0.45368440 -21.09865233
v -1.19578524 0.49765956 -20.09865232
v -1.33086729 -0.45131758 -21.09865233
v -1.13578141 -0.49942839 -20.09865232
v -1.24715066 -0.49399572 -20.09865232
v -1.12388831 0.49937253 -20.09865232
v -1.19926021 0.45473667 -21.09865233
v -1.02874353 0.49986194 -20.09865232
v -1.25275462 -0.45462120 -21.09865233
v -1.00500630 0.45458985 -21.09865233
v -0.79019630 0.49595699 -20.09865235
v -1.02874353 -0.45511067 -21.09865233
v -1.02874353 -0.50013806 -20.09865232
v -0.89743969 0.43697025 -21.09865231
v -0.93668218 0.44844753 -21.09865233
v -0.79019649 0.39607911 -21.09865232
v -0.95613696 -0.45070580 -21.09865233
v -0.89826213 -0.43700180 -21.09865233
v -0.79019648 -0.39510676 -21.09865233
v -0.79019521 -0.49599904 -20.09865263
vn -0.24789888 0.00299205 -0.96878129
vn -0.11912767 0.00023774 0.99287892
vn -0.27838007 -0.00970570 -0.96042196
vn -0.11035950 -0.00215804 0.99388939
vn -0.31711316 -0.03039842 -0.94790041
vn -0.29470437 0.00990169 0.95553718
vn -0.31830159 0.03008643 -0.94751195
vn -0.27681646 -0.05229487 -0.95949877
vn -0.08630400 -0.00875847 0.99623035
vn -0.08746325 -0.00669952 0.99614522
vn -0.09493711 -0.00507988 0.99547031
vn -0.09348289 0.00529222 0.99560682
vn -0.08477348 0.00748611 0.99637213
vn -0.10752555 0.01973420 0.99400645
vn -0.11227269 -0.02398630 0.99338789
vn -0.27252411 0.05297420 -0.96068952
vn -0.20093877 -0.06104167 -0.97770012
vn -0.10935792 0.03764946 0.99328916
vn -0.18933670 -0.06478612 -0.97977261
vn -0.10819840 -0.03874623 0.99337397
vn -0.19328738 0.06557030 -0.97894868
vn -0.14502567 -0.06367017 -0.98737716
vn -0.10905602 0.04637064 0.99295345
vn -0.10248427 -0.05608205 -0.99315244
vn -0.12438754 -0.06844617 0.98987012
vn -0.10975991 -0.04719899 0.99283685
vn -0.12352641 0.07157126 0.98975693
vn -0.13070920 0.06796842 -0.98908817
vn -0.09692012 0.05881356 -0.99355295
vn -0.09385793 -0.05762667 -0.99391642
vn -0.07694811 -0.06057289 -0.99519341
vn -0.11003645 -0.08659974 0.99014770
vn -0.11833301 -0.07278651 0.99030269
vn -0.08640743 -0.10559446 0.99064805
vn -0.10951308 0.08685371 0.99018348
vn -0.06705644 0.06037166 -0.99592103
vn -0.08698173 0.10590573 0.99056456
vn -0.04599935 -0.05837485 -0.99723439
vn -0.03520824 0.05798866 -0.99769619
vn -0.05537281 0.12256765 0.99091424
vn -0.01149839 0.05255133 -0.99855202
vn -0.02402198 0.13292575 0.99083484
vn -0.02367822 -0.05567005 -0.99816842
vn -0.01177119 -0.13628171 0.99060019
vn -0.04659935 -0.12821043 0.99065160
vn -0.00648779 0.13601457 0.99068559
vn -0.00158032 0.04860071 -0.99881704
vn 0.00383265 0.13819996 0.99039693
vn -0.00670492 -0.05098055 -0.99867714
vn 0.00567387 0.04858133 -0.99880311
vn 0.27171579 0.15256490 0.95020760
vn 0.00365431 -0.04858514 -0.99881236
vn 0.00396027 -0.13840095 0.99036836
vn 0.04320323 0.02956808 -0.99862866
vn 0.02761752 0.04066475 -0.99879109
vn 0.16534072 0.01612250 -0.98610472
vn 0.02121458 -0.04313374 -0.99884404
vn 0.04162964 -0.03143873 -0.99863836
vn 0.16541874 -0.01585033 -0.98609604
vn 0.27321308 -0.15314716 0.94968445
f 60//60 56//56 51//51
f 59//59 56//56 60//60
f 48//48 51//51 50//50
f 4//4 12//12 2//2
f 1//1 3//3 2//2
f 2//2 3//3 4//4
f 18//18 16//16 14//14
f 55//55 50//50 51//51
f 56//56 59//59 55//55
f 15//15 8//8 20//20
f 6//6 2//2 12//12
f 18//18 14//14 13//13
f 36//36 35//35 37//37
f 18//18 23//23 21//21
f 21//21 16//16 18//18
f 28//28 21//21 27//27
f 27//27 21//21 23//23
f 54//54 51//51 56//56
f 56//56 55//55 54//54
f 54//54 55//55 51//51
f 5//5 8//8 15//15
f 4//4 3//3 5//5
f 22//22 25//25 26//26
f 19//19 26//26 20//20
f 22//22 26//26 19//19
f 60//60 51//51 53//53
f 53//53 51//51 48//48
f 58//58 59//59 60//60
f 60//60 57//57 58//58
f 24//24 25//25 22//22
f 24//24 30//30 25//25
f 12//12 13//13 7//7
f 7//7 6//6 12//12
f 7//7 14//14 16//16
f 7//7 13//13 14//14
f 1//1 2//2 7//7
f 2//2 6//6 7//7
f 39//39 37//37 40//40
f 36//36 37//37 39//39
f 41//41 39//39 42//42
f 42//42 39//39 40//40
f 48//48 50//50 47//47
f 29//29 21//21 28//28
f 28//28 27//27 29//29
f 29//29 27//27 35//35
f 29//29 35//35 36//36
f 9//9 5//5 15//15
f 10//10 5//5 9//9
f 15//15 20//20 9//9
f 4//4 5//5 11//11
f 11//11 5//5 10//10
f 17//17 20//20 8//8
f 17//17 19//19 20//20
f 44//44 45//45 43//43
f 52//52 57//57 60//60
f 60//60 53//53 52//52
f 45//45 34//34 38//38
f 43//43 45//45 38//38
f 41//41 42//42 46//46
f 46//46 47//47 41//41
f 48//48 47//47 46//46
f 53//53 44//44 49//49
f 49//49 52//52 53//53
f 49//49 44//44 43//43
f 25//25 30//30 33//33
f 30//30 32//32 33//33
f 34//34 32//32 31//31
f 31//31 32//32 30//30
f 31//31 38//38 34//34
f 33//33 9//9 20//20
f 33//33 12//12 4//4
f 33//33 23//23 18//18
f 33//33 26//26 25//25
f 45//45 44//44 33//33
f 18//18 13//13 33//33
f 33//33 37//37 35//35
f 35//35 27//27 33//33
f 48//48 46//46 33//33
f 33//33 53//53 48//48
f 33//33 13//13 12//12
f 40//40 37//37 33//33
f 33//33 27//27 23//23
f 20//20 26//26 33//33
f 4//4 11//11 33//33
f 33//33 34//34 45//45
f 33//33 42//42 40//40
f 10//10 9//9 33//33
f 33//33 11//11 10//10
f 33//33 44//44 53//53
f 33//33 32//32 34//34
f 33//33 46//46 42//42
f 31//31 3//3 1//1
f 59//59 58//58 31//31
f 31//31 55//55 59//59
f 31//31 24//24 22//22
f 1//1 7//7 31//31
f 22//22 19//19 31//31
f 31//31 5//5 3//3
f 50//50 55//55 31//31
f 31//31 47//47 50//50
f 31//31 17//17 8//8
f 43//43 38//38 31//31
f 36//36 39//39 31//31
f 16//16 21//21 31//31
f 8//8 5//5 31//31
f 31//31 29//29 36//36
f 31//31 58//58 57//57
f 30//30 24//24 31//31
f 31//31 7//7 16//16
f 31//31 39//39 41//41
f 41//41 47//47 31//31
f 21//21 29//29 31//31
f 19//19 17//17 31//31
f 57//57 52//52 31//31
f 31//31 49//49 43//43
f 52//52 49//49 31//31

