# https://github.com/mikedh/trimesh
v -2.11625520 0.31902503 -0.25056732
v -2.11576578 -0.47897431 -0.24133816
v -2.11576578 0.47682447 -0.28392923
v -2.88169841 0.47682447 -0.28392923
v -2.88169841 0.45763793 -0.28034078
v -3.00906013 0.45763793 -0.28169870
v -2.18786555 0.29489503 -0.25056732
v -2.11782155 0.48906080 -0.31632119
v -2.88169841 0.48896291 -0.31632119
v -3.04533030 0.47883123 -0.30082833
v -3.07866357 0.45763793 -0.28528698
v -2.48964000 0.09210270 -0.25056732
v -2.39391066 0.18501299 -0.25056732
v -3.00906013 -0.45763793 -0.28169870
v -2.88169841 -0.47682447 -0.28392923
v -2.11576578 0.48304053 -0.30036770
v -2.11782155 0.49679413 -0.37383175
v -2.88169841 0.49669624 -0.37383175
v -3.10020055 0.45763793 -0.31632119
v -3.07866357 -0.45763793 -0.28528698
v -2.52310789 -0.01468357 -0.25056732
v -3.04533030 -0.47883123 -0.30082833
v -2.88169841 -0.48896291 -0.31632119
v -2.11679367 -0.48906080 -0.31632119
v -2.11576578 0.49679413 -0.37383175
v -2.88169841 0.50002450 -1.24133816
v -3.00906013 0.49366165 -0.37383175
v -3.00906013 0.49875196 -1.24133816
v -3.11576582 0.45763793 -0.37383175
v -3.10020055 -0.45763793 -0.31632119
v -3.09422903 0.48152321 -0.37383175
v -2.88169841 -0.49669624 -0.37383175
v -2.11576578 0.49679413 -0.54723604
v -3.09403322 0.48494936 -1.24133816
v -3.11576582 0.45763793 -1.24133816
v -3.11576582 -0.45763793 -0.37383175
v -3.09422903 -0.48152321 -0.37383175
v -3.00906013 -0.49366165 -0.37383175
v -2.89031312 -0.49997556 -1.24133816
v -2.11679367 -0.49679413 -0.37383175
v -2.49197725 0.49889875 -1.24133816
v -2.11576578 0.49464052 -0.60377666
v -2.36559446 0.49410214 -1.24133816
v -3.11576582 -0.45763793 -1.24133816
v -3.11361214 -0.46047678 -1.24133816
v -3.09403322 -0.48494936 -1.24133816
v -3.01273112 -0.49816461 -1.24133816
v -2.49980884 -0.49894770 -1.24133816
v -2.11576578 -0.49679413 -0.54626627
v -2.27925082 0.48171899 -1.24133816
v -2.11591259 0.43017967 -1.24133816
v -2.37254501 -0.49473841 -1.24133816
v -2.11576578 -0.49464052 -0.60377666
v -2.11576578 -0.43042440 -1.24133816
v -2.27925082 -0.48171899 -1.24133816
vn 0.90031083 0.01157188 0.43509366
vn 0.87002770 -0.17320795 0.46157427
vn 0.89177149 0.12818875 0.43394845
vn -0.11569975 0.28508461 0.95149374
vn -0.04236653 0.04598311 0.99804340
vn -0.19841205 0.05803080 0.97839925
vn -0.07700580 0.00981171 0.99698237
vn 0.93625833 0.26065716 0.23553808
vn -0.21480122 0.71988241 0.66002254
vn -0.84864398 0.27299758 0.45307364
vn -0.88104738 0.06753295 0.46818246
vn -0.14220530 0.00375921 0.98983005
vn -0.09933257 0.00693740 0.99503011
vn -0.23892676 -0.03504046 0.97040516
vn -0.28268386 -0.31876212 0.90469915
vn 0.95091661 0.17817009 0.25300793
vn -0.00101253 0.96828212 0.24985736
vn -0.20699354 0.94708701 0.24531585
vn -0.99327412 0.04249767 0.10770544
vn -0.88132559 -0.06745473 0.46766983
vn -0.19020755 0.00043832 0.98174380
vn -0.84864398 -0.27299758 0.45307364
vn -0.27515826 -0.71960566 0.63753873
vn 0.02847530 -0.89044874 0.45419181
vn 0.96880866 0.23998642 0.06177616
vn -0.03382085 0.46478852 -0.88477555
vn -0.80835132 0.56606594 0.16167095
vn -0.58824089 0.40258898 -0.70135210
vn -0.99933712 0.02381690 0.02753307
vn -0.99327412 -0.04249767 0.10770544
vn -0.98464573 0.16393389 0.05998726
vn -0.20766165 -0.94708338 0.24476460
vn 0.97531396 0.22081363 -0.00200267
vn -0.90828454 0.13591498 -0.39565935
vn -0.91885107 0.01949248 -0.39412277
vn -0.99933712 -0.02381690 0.02753331
vn -0.98464554 -0.16394089 0.05997115
vn -0.80824685 -0.56630520 0.16135504
vn -0.05577233 -0.46650923 -0.88275625
vn 0.96733026 -0.24560608 0.06284758
vn 0.15199964 0.46229571 -0.87360105
vn 0.98788390 0.15335430 -0.02382962
vn 0.56809849 0.37394862 -0.73309381
vn -0.91857132 -0.01859237 -0.39481776
vn -0.90867543 -0.03808102 -0.41576291
vn -0.90820978 -0.13599436 -0.39580364
vn -0.59878848 -0.39616435 -0.69606477
vn 0.13297768 -0.46248361 -0.87659902
vn 0.97530488 -0.22085466 -0.00190147
vn 0.81361489 0.20731960 -0.54318450
vn 0.92140121 0.06135853 -0.38373813
vn 0.54962242 -0.38298376 -0.74245447
vn 0.98772932 -0.15437960 -0.02361613
vn 0.92142781 -0.06166518 -0.38362508
vn 0.81173052 -0.21006672 -0.54494544
f 25//25 16//16 2//2
f 34//34 35//35 29//29
f 2//2 20//20 15//15
f 16//16 25//25 8//8
f 8//8 4//4 16//16
f 33//33 25//25 2//2
f 31//31 34//34 29//29
f 29//29 19//19 31//31
f 31//31 28//28 34//34
f 27//27 28//28 31//31
f 53//53 54//54 2//2
f 2//2 15//15 23//23
f 20//20 21//21 11//11
f 11//11 31//31 19//19
f 46//46 47//47 37//37
f 37//37 47//47 38//38
f 26//26 28//28 18//18
f 18//18 28//28 27//27
f 54//54 53//53 55//55
f 55//55 53//53 52//52
f 16//16 4//4 3//3
f 4//4 1//1 3//3
f 2//2 16//16 3//3
f 3//3 1//1 2//2
f 14//14 20//20 2//2
f 2//2 21//21 14//14
f 14//14 21//21 20//20
f 12//12 21//21 2//2
f 4//4 11//11 6//6
f 6//6 11//11 21//21
f 21//21 12//12 6//6
f 27//27 31//31 10//10
f 31//31 11//11 10//10
f 10//10 11//11 4//4
f 20//20 37//37 22//22
f 22//22 37//37 38//38
f 38//38 23//23 22//22
f 22//22 15//15 20//20
f 22//22 23//23 15//15
f 44//44 45//45 36//36
f 36//36 45//45 46//46
f 46//46 37//37 36//36
f 17//17 8//8 25//25
f 17//17 25//25 26//26
f 26//26 18//18 17//17
f 4//4 8//8 9//9
f 9//9 10//10 4//4
f 9//9 18//18 27//27
f 27//27 10//10 9//9
f 33//33 43//43 41//41
f 26//26 25//25 41//41
f 25//25 33//33 41//41
f 49//49 53//53 2//2
f 2//2 40//40 49//49
f 52//52 53//53 49//49
f 2//2 23//23 24//24
f 24//24 40//40 2//2
f 39//39 40//40 32//32
f 32//32 47//47 39//39
f 38//38 47//47 32//32
f 32//32 23//23 38//38
f 13//13 12//12 2//2
f 13//13 6//6 12//12
f 5//5 1//1 4//4
f 4//4 6//6 5//5
f 5//5 6//6 1//1
f 30//30 37//37 20//20
f 30//30 36//36 37//37
f 51//51 50//50 42//42
f 54//54 51//51 42//42
f 42//42 50//50 43//43
f 42//42 43//43 33//33
f 2//2 54//54 42//42
f 42//42 33//33 2//2
f 52//52 49//49 48//48
f 48//48 40//40 39//39
f 48//48 49//49 40//40
f 2//2 1//1 7//7
f 7//7 13//13 2//2
f 1//1 6//6 7//7
f 6//6 13//13 7//7
f 35//35 44//44 36//36
f 29//29 35//35 36//36
f 9//9 17//17 18//18
f 8//8 17//17 9//9
f 40//40 24//24 32//32
f 32//32 24//24 23//23
f 30//30 11//11 19//19
f 20//20 11//11 30//30
f 29//29 36//36 30//30
f 30//30 19//19 29//29
f 48//48 50//50 51//51
f 39//39 47//47 48//48
f 48//48 28//28 26//26
f 48//48 44//44 35//35
f 35//35 34//34 48//48
f 48//48 45//45 44//44
f 54//54 55//55 48//48
f 48//48 51//51 54//54
f 34//34 28//28 48//48
f 48//48 47//47 46//46
f 26//26 41//41 48//48
f 48//48 55//55 52//52
f 46//46 45//45 48//48
f 48//48 41//41 43//43
f 43//43 50//50 48//48

