# https://github.com/mikedh/trimesh
v -1.42666568 -0.50616109 1.98291212
v -1.42665388 0.49383871 1.88414361
v -1.42306262 0.40694072 1.99968986
v -1.42224224 -0.50616109 1.84466218
v -1.40370446 -0.50616109 2.11535209
v -1.37617955 -0.50616109 2.19917200
v -1.38308521 0.14624675 2.18057795
v -1.40240660 0.49383871 2.11965806
v -1.41487127 0.40694072 1.78848862
v -1.40135365 -0.50616109 1.73402771
v -1.40145157 0.14624675 1.73402771
v -1.37782027 0.49383871 1.67594584
v -1.36092538 -0.50613804 1.64097653
v -1.36533121 0.49383871 2.21957649
v -1.34919337 0.49383871 1.61962546
v -1.34442441 -0.50609701 2.25374013
v -1.31285246 0.49383871 1.57754426
v -1.31290696 -0.50616109 1.57711231
v -1.33058203 0.49383871 2.27119936
v -1.29241077 -0.50312649 2.30210851
v -1.24369721 -0.50009219 2.32776436
v -1.25226816 0.49383871 1.53313884
v -1.25652916 -0.50616109 1.53443554
v -1.26910393 0.49327587 2.31446718
v -1.19952011 -0.50616109 1.50908895
v -1.12221016 0.49383871 1.48430503
v -1.17917114 -0.50616075 2.33585093
v -1.18980773 0.49383890 2.33831749
v -0.71895943 -0.50616109 1.34981641
v -0.71739213 0.49383871 1.35040361
v -0.66880714 -0.50616109 1.33831747
v -0.66704399 0.49383871 1.33910039
v -0.62680951 -0.50616109 1.34007899
v -0.61101450 0.49383871 1.34448281
v -0.64338816 -0.50616109 2.15792260
v -0.64162499 0.49383871 2.15635680
v -0.57153916 -0.50616109 1.36302795
v -0.56517216 0.49383871 1.37102825
v -0.60170893 0.49383871 2.13859464
v -0.52030938 -0.50616109 1.40951299
v -0.52030938 0.49383871 1.40951299
v -0.57937545 -0.50616109 2.12320560
v -0.54671106 0.49383871 2.09838628
v -0.48225439 -0.50616109 1.47407833
v -0.48623703 0.49383871 1.46710480
v -0.52446600 -0.50616109 2.07463856
v -0.45531715 -0.50616109 1.53560983
v -0.48680924 -0.50616109 2.01959283
v -0.49924934 0.49383871 2.03833365
v -0.45043227 0.49383871 1.55654426
v -0.47432014 0.49383871 1.98876587
v -0.43984044 -0.50616109 1.60871379
v -0.45614976 -0.50616109 1.94472741
v -0.43450198 0.49383871 1.63861103
v -0.42666568 -0.50616109 1.72042474
v -0.44077097 -0.50616109 1.88366073
v -0.42764524 0.49383871 1.71352537
v -0.43019197 -0.50616109 1.80214056
v -0.43058380 0.49383871 1.80214056
v -0.44407694 0.49383871 1.89961244
vn -0.93971334 -0.25644402 0.22621959
vn -0.94800326 0.25028591 -0.19658786
vn -0.94225626 0.00074114 0.33489192
vn -0.90339662 -0.25613944 -0.34389989
vn -0.73547276 -0.22768610 0.63815270
vn -0.53140437 -0.19174560 0.82513212
vn -0.60459557 0.00005174 0.79653261
vn -0.75733783 0.22363784 0.61353527
vn -0.79795174 0.00106540 -0.60272041
vn -0.67236090 -0.21062617 -0.70962486
vn -0.66238941 0.00000121 -0.74915970
vn -0.60299209 0.20190342 -0.77177429
vn -0.43904122 -0.17738320 -0.88078261
vn -0.48425369 0.18423447 0.85531048
vn -0.39049670 0.17338028 -0.90413030
vn -0.33023028 -0.16346352 0.92963845
vn -0.25357449 0.16227249 -0.95360769
vn -0.27580288 -0.16193377 -0.94747571
vn -0.28411494 0.15935039 0.94545553
vn -0.17744537 -0.07127253 0.98154642
vn -0.09524549 -0.02639875 0.99510371
vn -0.15247320 0.15517564 -0.97604941
vn -0.16514738 -0.15691932 -0.97370564
vn -0.13787127 0.11889271 0.98328838
vn -0.10808642 -0.15829923 -0.98145743
vn -0.09843858 0.15968031 -0.98224846
vn 0.02133254 -0.14818199 0.98873000
vn 0.00402742 0.14436118 0.98951687
vn -0.07834470 -0.15743613 -0.98441656
vn -0.07759085 0.15735959 -0.98448851
vn -0.02616076 -0.15221576 -0.98800100
vn -0.01794714 0.15106240 -0.98836130
vn 0.06336775 -0.15064373 -0.98655511
vn 0.09287647 0.14934805 -0.98441308
vn 0.12126930 -0.15664742 0.98018128
vn 0.10822258 0.15834619 0.98143485
vn 0.17982524 -0.15425824 -0.97152832
vn 0.19654403 0.16009079 -0.96733727
vn 0.16188297 0.15730606 0.97419131
vn 0.33327709 -0.16539796 -0.92820789
vn 0.32599078 0.16376181 -0.93108113
vn 0.19474571 -0.15859342 0.96794743
vn 0.26525647 0.16146940 0.95056122
vn 0.47900943 -0.19084343 -0.85681314
vn 0.49406399 0.19066355 -0.84826186
vn 0.30718664 -0.16558004 0.93713373
vn 0.65552154 -0.20956895 -0.72551524
vn 0.46484893 -0.18324372 0.86622007
vn 0.40571209 0.17708775 0.89668146
vn 0.68484464 0.21545564 -0.69610824
vn 0.55340862 0.19996814 0.80854910
vn 0.83840817 -0.25209950 -0.48323657
vn 0.64239297 -0.21296712 0.73619039
vn 0.86521187 0.25583550 -0.43122688
vn 0.95644964 -0.26484893 -0.12271567
vn 0.80815260 -0.24329933 0.53637189
vn 0.95793218 0.27002266 -0.09723020
vn 0.92204124 -0.26850531 0.27882763
vn 0.92344523 0.26630238 0.27628237
vn 0.75461040 0.22653804 0.61582762
f 28//28 27//27 36//36
f 1//1 18//18 5//5
f 18//18 6//6 5//5
f 37//37 40//40 18//18
f 59//59 57//57 28//28
f 28//28 60//60 59//59
f 55//55 57//57 59//59
f 28//28 43//43 49//49
f 43//43 46//46 49//49
f 48//48 49//49 46//46
f 39//39 43//43 28//28
f 28//28 36//36 39//39
f 35//35 36//36 27//27
f 27//27 6//6 35//35
f 35//35 39//39 36//36
f 35//35 6//6 18//18
f 1//1 5//5 8//8
f 21//21 27//27 28//28
f 21//21 20//20 27//27
f 16//16 6//6 27//27
f 27//27 20//20 16//16
f 55//55 18//18 52//52
f 18//18 47//47 52//52
f 18//18 40//40 44//44
f 44//44 47//47 18//18
f 33//33 18//18 31//31
f 33//33 37//37 18//18
f 31//31 32//32 33//33
f 4//4 18//18 1//1
f 4//4 10//10 18//18
f 18//18 10//10 13//13
f 13//13 10//10 12//12
f 40//40 37//37 41//41
f 28//28 32//32 30//30
f 30//30 32//32 31//31
f 51//51 60//60 28//28
f 28//28 49//49 51//51
f 49//49 48//48 51//51
f 56//56 59//59 60//60
f 18//18 48//48 42//42
f 42//42 35//35 18//18
f 42//42 48//48 46//46
f 39//39 35//35 42//42
f 42//42 46//46 43//43
f 43//43 39//39 42//42
f 7//7 5//5 6//6
f 7//7 8//8 5//5
f 10//10 4//4 9//9
f 50//50 52//52 47//47
f 34//34 32//32 28//28
f 37//37 33//33 34//34
f 34//34 33//33 32//32
f 58//58 18//18 55//55
f 58//58 56//56 18//18
f 55//55 59//59 58//58
f 59//59 56//56 58//58
f 53//53 48//48 18//18
f 18//18 56//56 53//53
f 53//53 56//56 60//60
f 60//60 51//51 53//53
f 53//53 51//51 48//48
f 6//6 16//16 14//14
f 14//14 7//7 6//6
f 28//28 8//8 14//14
f 8//8 7//7 14//14
f 12//12 10//10 11//11
f 11//11 9//9 12//12
f 10//10 9//9 11//11
f 12//12 9//9 2//2
f 28//28 12//12 2//2
f 2//2 8//8 28//28
f 2//2 4//4 1//1
f 2//2 9//9 4//4
f 28//28 57//57 54//54
f 54//54 50//50 28//28
f 52//52 50//50 54//54
f 54//54 57//57 55//55
f 55//55 52//52 54//54
f 45//45 41//41 28//28
f 28//28 50//50 45//45
f 45//45 44//44 40//40
f 40//40 41//41 45//45
f 47//47 44//44 45//45
f 45//45 50//50 47//47
f 28//28 41//41 38//38
f 38//38 34//34 28//28
f 38//38 41//41 37//37
f 37//37 34//34 38//38
f 28//28 22//22 17//17
f 19//19 16//16 20//20
f 19//19 14//14 16//16
f 28//28 14//14 19//19
f 1//1 8//8 3//3
f 3//3 2//2 1//1
f 8//8 2//2 3//3
f 18//18 13//13 15//15
f 15//15 17//17 18//18
f 15//15 13//13 12//12
f 15//15 12//12 28//28
f 28//28 17//17 15//15
f 23//23 25//25 18//18
f 22//22 25//25 23//23
f 18//18 17//17 23//23
f 23//23 17//17 22//22
f 29//29 30//30 31//31
f 31//31 18//18 29//29
f 18//18 25//25 29//29
f 26//26 25//25 22//22
f 28//28 30//30 26//26
f 26//26 22//22 28//28
f 30//30 29//29 26//26
f 26//26 29//29 25//25
f 24//24 21//21 28//28
f 28//28 19//19 24//24
f 20//20 21//21 24//24
f 24//24 19//19 20//20

