# https://github.com/mikedh/trimesh
v -3.73693431 0.38265972 -1.13594147
v -3.73693431 0.49161353 -1.27249196
v -4.23081581 0.47291614 -1.27621161
v -4.58500092 0.37316421 -1.13594147
v -3.73693492 -0.38280436 -1.13594152
v -3.73693431 -0.48466318 -1.26583572
v -3.73693431 0.49665494 -1.28820260
v -4.24496175 0.48319480 -1.32133691
v -3.73697194 0.50010158 -1.32288976
v -4.25318497 0.47817784 -1.30016912
v -4.73693427 0.43965733 -1.29042950
v -4.64931828 0.36268976 -1.13594147
v -4.61613168 -0.37238107 -1.13594147
v -4.23081581 -0.47291614 -1.27621161
v -3.73694381 0.49995264 -1.67892911
v -4.73693427 0.44673002 -1.31884082
v -4.66929175 0.34584795 -1.13594153
v -4.73693427 -0.43689190 -1.28482555
v -3.73693431 -0.49689967 -1.28878992
v -4.17701014 0.48740416 -1.60331492
v -4.39072779 0.47401743 -1.73686157
v -4.73693427 0.37962508 -1.25771122
v -4.66928870 -0.34585235 -1.13594147
v -4.73693427 -0.42335832 -1.27435178
v -4.64799657 -0.36261634 -1.13594147
v -4.73693415 -0.44500101 -1.30404464
v -4.45100685 -0.46884138 -1.32133691
v -4.11838316 -0.48882359 -1.31179306
v -3.73693431 -0.49989839 -1.33316316
v -4.58868118 0.45911031 -1.79938297
v -4.51503036 0.46444849 -1.42151065
v -4.73693427 -0.37972296 -1.25771122
v -4.12895884 -0.48918457 -1.58105205
v -4.05159413 0.48826071 -1.77481673
v -4.73693427 0.44730514 -1.73021757
v -4.41170801 0.46306269 -1.86505508
v -4.26689031 -0.48018461 -1.77399694
v -4.73693427 0.43010675 -1.96804915
v -4.73693424 -0.44779737 -1.73378688
v -4.36689334 -0.47586665 -1.63953874
v -3.73693431 -0.49900434 -1.69031693
v -3.73693431 0.48772230 -1.79510353
v -4.73693396 -0.44526665 -1.89505613
v -4.05372340 -0.48997381 -1.76767108
v -3.87129541 0.47420709 -1.87404220
v -3.89681556 0.44398906 -1.97056972
v -4.40886282 0.44465594 -1.95711043
v -4.00305023 -0.47833384 -1.84826157
v -3.73693431 -0.49101392 -1.77131732
v -3.73693431 0.45368036 -1.93162958
v -4.73693428 0.37117989 -2.13594136
v -4.73693225 -0.43335363 -1.97391049
v -4.43835069 0.42633637 -2.01422978
v -3.73693431 0.36627615 -2.13594143
v -3.96537281 0.39868955 -2.07716722
v -4.40668619 -0.43504417 -1.98820748
v -3.73693496 -0.45571381 -1.93312346
v -3.92002287 -0.41826794 -2.03529050
v -3.73693436 -0.36825771 -2.13594135
v -4.73693428 -0.37162022 -2.13594133
vn 0.98326825 0.03507574 0.17875468
vn 0.98300505 0.10719840 0.14902875
vn -0.97485388 0.13795961 0.17500591
vn -0.94571709 0.07820020 0.31544242
vn 0.98314423 -0.03583199 0.17928604
vn 0.98520135 -0.08182029 0.15061125
vn 0.98734179 0.13325427 0.08602032
vn -0.98772739 0.14928747 0.04591148
vn 0.99100352 0.13221684 0.02075383
vn -0.98569884 0.13492111 0.10096582
vn -0.99793061 0.04049267 0.04994838
vn -0.98300839 0.01901205 0.18257343
vn -0.96756179 -0.05687919 0.24614820
vn -0.97364871 -0.13959351 0.18033813
vn 0.99209941 0.12500998 -0.01054822
vn -0.99876883 0.04578268 0.01909922
vn -0.98613547 0.00251178 0.16592327
vn -0.99789795 -0.03623658 0.05372697
vn 0.98594254 -0.12895408 0.10624575
vn -0.98469219 0.17429117 -0.00197118
vn -0.99121760 0.13172645 -0.01165411
vn -0.99996558 0.00102822 0.00823273
vn -0.98612676 -0.00259672 0.16597369
vn -0.99994170 -0.00245209 0.01051633
vn -0.98268421 -0.01393216 0.18476376
vn -0.99837826 -0.04629281 0.03313352
vn -0.99315526 -0.11103892 0.03623507
vn -0.98220323 -0.17364360 0.07158710
vn 0.99232001 -0.12325388 0.01046361
vn -0.99462230 0.10139845 -0.02109095
vn -0.99456040 0.10415534 0.00113200
vn -0.99996988 -0.00065831 0.00773299
vn -0.98168651 -0.19050233 -0.00067006
vn -0.95517282 0.28336130 -0.08573948
vn -0.99921470 0.03960896 -0.00105743
vn -0.97988777 0.18099804 -0.08402184
vn -0.98886267 -0.14636283 -0.02699133
vn -0.99714143 0.05897587 -0.04723143
vn -0.99911162 -0.04211431 -0.00153592
vn -0.99273429 -0.12031688 -0.00157640
vn 0.99286351 -0.11895969 -0.00840487
vn 0.99460555 0.09473270 -0.04225528
vn -0.99804164 -0.05827333 -0.02273976
vn -0.95012923 -0.30079409 -0.08232477
vn 0.66526718 0.60789581 -0.43345387
vn 0.79383207 0.39661848 -0.46100371
vn -0.91603800 0.31054700 -0.25384040
vn -0.68912352 -0.61408560 -0.38471762
vn 0.99494942 -0.09270433 -0.03849108
vn 0.99570328 0.06496902 -0.06598492
vn -0.98361373 0.04876078 -0.17356960
vn -0.99574048 -0.06906782 -0.06107814
vn -0.84649863 0.34976977 -0.40137412
vn 0.98452667 0.04183347 -0.17016817
vn 0.68205410 0.41937964 -0.59910177
vn -0.71817780 -0.47935682 -0.50441818
vn 0.99326433 -0.08405876 -0.07975025
vn 0.73340530 -0.41224267 -0.54052997
vn 0.98416357 -0.04406986 -0.17169714
vn -0.98358964 -0.04908836 -0.17361379
f 1//1 29//29 54//54
f 51//51 54//54 60//60
f 59//59 60//60 54//54
f 29//29 1//1 6//6
f 1//1 5//5 6//6
f 13//13 5//5 1//1
f 13//13 6//6 5//5
f 54//54 29//29 49//49
f 49//49 59//59 54//54
f 2//2 1//1 54//54
f 54//54 7//7 2//2
f 42//42 7//7 54//54
f 15//15 7//7 42//42
f 6//6 13//13 14//14
f 59//59 49//49 57//57
f 23//23 12//12 17//17
f 17//17 32//32 23//23
f 23//23 32//32 24//24
f 51//51 60//60 24//24
f 24//24 32//32 51//51
f 55//55 54//54 51//51
f 55//55 46//46 54//54
f 15//15 42//42 34//34
f 34//34 42//42 45//45
f 45//45 46//46 47//47
f 1//1 2//2 4//4
f 54//54 46//46 50//50
f 50//50 42//42 54//54
f 50//50 46//46 45//45
f 45//45 42//42 50//50
f 26//26 14//14 18//18
f 18//18 14//14 13//13
f 13//13 25//25 18//18
f 18//18 24//24 60//60
f 18//18 25//25 23//23
f 23//23 24//24 18//18
f 60//60 59//59 58//58
f 59//59 57//57 58//58
f 6//6 14//14 19//19
f 14//14 28//28 19//19
f 29//29 6//6 19//19
f 19//19 28//28 29//29
f 52//52 43//43 60//60
f 27//27 14//14 26//26
f 27//27 28//28 14//14
f 53//53 55//55 51//51
f 46//46 55//55 53//53
f 53//53 47//47 46//46
f 51//51 38//38 53//53
f 38//38 47//47 53//53
f 36//36 47//47 38//38
f 36//36 34//34 45//45
f 45//45 47//47 36//36
f 15//15 34//34 20//20
f 32//32 17//17 22//22
f 51//51 32//32 22//22
f 12//12 4//4 11//11
f 11//11 17//17 12//12
f 11//11 22//22 17//17
f 11//11 16//16 51//51
f 51//51 22//22 11//11
f 60//60 43//43 39//39
f 39//39 18//18 60//60
f 26//26 18//18 39//39
f 39//39 27//27 26//26
f 56//56 58//58 57//57
f 60//60 58//58 56//56
f 56//56 52//52 60//60
f 41//41 49//49 29//29
f 43//43 52//52 44//44
f 44//44 37//37 43//43
f 49//49 41//41 44//44
f 28//28 27//27 40//40
f 27//27 39//39 40//40
f 43//43 37//37 40//40
f 40//40 39//39 43//43
f 3//3 4//4 2//2
f 3//3 11//11 4//4
f 3//3 2//2 7//7
f 52//52 56//56 48//48
f 48//48 44//44 52//52
f 48//48 56//56 57//57
f 48//48 57//57 49//49
f 49//49 44//44 48//48
f 37//37 44//44 33//33
f 28//28 40//40 33//33
f 33//33 40//40 37//37
f 29//29 28//28 33//33
f 33//33 41//41 29//29
f 33//33 44//44 41//41
f 30//30 36//36 38//38
f 16//16 11//11 10//10
f 11//11 3//3 10//10
f 10//10 3//3 7//7
f 21//21 30//30 31//31
f 21//21 20//20 34//34
f 34//34 36//36 21//21
f 36//36 30//30 21//21
f 16//16 31//31 35//35
f 31//31 30//30 35//35
f 35//35 30//30 38//38
f 35//35 38//38 51//51
f 51//51 16//16 35//35
f 8//8 10//10 7//7
f 20//20 21//21 8//8
f 8//8 21//21 31//31
f 8//8 31//31 16//16
f 16//16 10//10 8//8
f 9//9 7//7 15//15
f 9//9 8//8 7//7
f 15//15 20//20 9//9
f 20//20 8//8 9//9
f 4//4 12//12 23//23
f 23//23 25//25 4//4
f 4//4 13//13 1//1
f 4//4 25//25 13//13

