# https://github.com/mikedh/trimesh
v 0.66385902 6.62194533 0.52848689
v 0.66327055 6.62194533 0.50423849
v 0.65076534 7.44064494 0.52848689
v 0.65110862 7.36541680 0.50571707
v 0.64875471 7.51509002 0.50926559
v 0.65630687 6.62194533 0.55214387
v 0.59478614 7.58172836 0.56510592
v 0.58615509 7.49598933 0.59276734
v 0.56975120 6.62194533 0.63632327
v 0.60697261 6.62194533 0.60044353
v 0.65537512 6.62194533 0.48033509
v 0.20984635 6.62194533 -0.24608185
v 0.63355228 7.55679111 0.50246421
v 0.44305932 7.62190584 0.48570720
v 0.60697261 7.62041923 0.50423849
v 0.48319553 7.40002079 0.68531293
v 0.53076439 6.62194533 0.67062587
v 0.18709180 6.62194533 -0.27131595
v 0.58225639 7.58899670 0.45584027
v 0.08861940 7.60837892 -0.07752598
v 0.17629017 6.86499585 -0.26121042
v 0.15033626 7.59939744 -0.01692959
v 0.21190604 7.58713684 0.04371605
v 0.47730765 7.61923853 0.64063573
v 0.47019992 7.54807898 0.67530800
v 0.46367760 7.50383278 0.68866434
v 0.47122975 6.62194533 0.70157708
v 0.14938000 6.62194533 -0.29842290
v 0.10123615 6.62194533 -0.29840028
v 0.12963004 6.86264097 -0.28520102
v 0.03310606 7.58424910 -0.11434210
v 0.35545236 7.61746114 0.22702372
v 0.01162653 7.61671170 0.17538190
v 0.26741936 7.54041896 0.48676684
v 0.43935373 7.51694987 0.66954160
v 0.44769054 7.36541680 0.68551004
v 0.43523439 6.62194533 0.69802853
v 0.06733604 6.62194533 0.47900438
v -0.09145562 6.87636030 -0.21355355
v 0.26452599 7.60653110 0.45879739
v 0.08768758 6.84929368 0.46801376
v -0.10861965 6.62194533 -0.22281914
v -0.15805200 6.62194533 -0.19778224
v -0.04584332 7.62194534 -0.11284825
v 0.01615046 7.58527387 0.20288315
v 0.07188704 6.88131335 0.44903777
v -0.29488138 6.86132939 0.05630021
v -0.20397806 7.20891584 0.06131092
v -0.33053362 6.62194542 0.04290235
v -0.30527020 6.62194533 -0.07555451
v -0.15381006 6.86189707 -0.17572701
v -0.10234253 7.50628008 -0.09605724
v -0.10925722 7.56643316 -0.06564815
v -0.10871778 7.61515761 -0.00176203
v -0.13274740 7.52962668 0.03095115
v -0.31978607 6.86715853 0.01266630
v -0.31304307 6.87699650 -0.01961564
v -0.29869882 6.88086307 -0.04647616
v -0.13402239 7.53584275 -0.01577138
v -0.33614094 6.62194533 0.00099796
vn 0.14837668 -0.98872327 0.02026455
vn 0.14670420 -0.98887375 -0.02462890
vn 0.21496132 0.97282403 0.08605253
vn 0.54509070 0.82259857 -0.16188797
vn 0.13986860 0.98996067 -0.02036275
vn 0.13687051 -0.98690532 0.08534838
vn 0.04256037 0.99844882 0.03589675
vn 0.12148872 0.98445067 0.12687543
vn 0.10071797 -0.98918045 0.10666734
vn 0.10188325 -0.98964045 0.10115126
vn 0.13625634 -0.98861805 -0.06378529
vn 0.17712459 -0.97602522 -0.12649762
vn 0.04541654 0.99879205 -0.01875550
vn -0.00010315 0.99999998 0.00014201
vn 0.02216638 0.99974898 -0.00326171
vn 0.15845415 0.94923746 0.27173612
vn 0.09123114 -0.98856610 0.12005805
vn 0.13855708 -0.97911387 -0.14878834
vn 0.03493475 0.99894461 -0.02981988
vn 0.01860356 0.99956313 -0.02296622
vn 0.07575802 0.99336369 -0.08654079
vn 0.03000183 0.99918261 -0.02709251
vn 0.03452505 0.99894747 -0.03019897
vn 0.00343693 0.99977768 0.02080331
vn 0.01607097 0.99874462 0.04744364
vn -0.00506464 0.98865684 0.15010661
vn 0.02927409 -0.98800919 0.15159442
vn 0.08062911 -0.97021198 -0.22844620
vn -0.05213376 -0.97185265 -0.22974876
vn 0.01228399 0.99348487 -0.11330011
vn 0.01106833 0.99923097 -0.03761603
vn 0.00510250 0.99997630 -0.00462199
vn -0.01496267 0.99983125 0.01065768
vn -0.04928888 0.99772368 0.04602250
vn -0.05378867 0.99623528 0.06798557
vn -0.20309226 0.90704209 0.36881999
vn -0.05398629 -0.98762964 0.14721814
vn -0.16943071 -0.96856482 0.18214124
vn -0.05991633 0.98969721 -0.13003637
vn -0.02236614 0.99953546 0.02070292
vn -0.08993812 0.99087030 0.10043494
vn -0.08313417 -0.98021098 -0.17965285
vn -0.13606227 -0.97200425 -0.19155885
vn -0.01785103 0.99900887 -0.04077534
vn -0.03997834 0.99860383 0.03452716
vn -0.08219012 0.99365809 0.07673584
vn -0.09199961 0.99339565 0.06856492
vn -0.05525845 0.99776063 0.03768594
vn -0.23455514 -0.96553277 0.11282891
vn -0.20427240 -0.96483473 -0.16542892
vn -0.07802961 0.99183929 -0.10082760
vn -0.05200784 0.99709771 -0.05559981
vn -0.03962772 0.99895555 -0.02274775
vn -0.02407894 0.99970870 0.00165116
vn -0.04339665 0.99888254 0.01871887
vn -0.11202583 0.99360020 0.01445161
vn -0.11240980 0.99301649 -0.03580913
vn -0.09318535 0.99377782 -0.06100927
vn -0.04835647 0.99880649 -0.00687426
vn -0.22393167 -0.97427482 -0.02536088
f 57//57 50//50 60//60
f 43//43 50//50 51//51
f 51//51 39//39 43//43
f 44//44 39//39 51//51
f 20//20 31//31 44//44
f 36//36 38//38 37//37
f 36//36 37//37 26//26
f 26//26 38//38 36//36
f 26//26 37//37 27//27
f 42//42 29//29 28//28
f 43//43 39//39 42//42
f 39//39 29//29 42//42
f 28//28 29//29 30//30
f 44//44 31//31 30//30
f 30//30 39//39 44//44
f 30//30 29//29 39//39
f 44//44 51//51 52//52
f 50//50 57//57 58//58
f 58//58 51//51 50//50
f 58//58 52//52 51//51
f 16//16 27//27 17//17
f 26//26 27//27 16//16
f 1//1 3//3 6//6
f 7//7 3//3 5//5
f 33//33 54//54 55//55
f 40//40 24//24 33//33
f 44//44 54//54 33//33
f 33//33 24//24 44//44
f 55//55 54//54 59//59
f 35//35 24//24 40//40
f 40//40 34//34 35//35
f 35//35 38//38 26//26
f 44//44 24//24 14//14
f 60//60 38//38 49//49
f 38//38 47//47 49//49
f 28//28 30//30 21//21
f 5//5 12//12 21//21
f 21//21 20//20 22//22
f 31//31 20//20 21//21
f 21//21 30//30 31//31
f 2//2 3//3 1//1
f 8//8 16//16 17//17
f 8//8 6//6 3//3
f 3//3 7//7 8//8
f 26//26 16//16 8//8
f 15//15 7//7 5//5
f 22//22 20//20 15//15
f 44//44 14//14 15//15
f 24//24 7//7 15//15
f 15//15 14//14 24//24
f 45//45 33//33 55//55
f 45//45 34//34 40//40
f 40//40 33//33 45//45
f 53//53 54//54 44//44
f 53//53 59//59 54//54
f 44//44 52//52 53//53
f 52//52 58//58 53//53
f 53//53 58//58 57//57
f 57//57 59//59 53//53
f 25//25 35//35 26//26
f 24//24 35//35 25//25
f 25//25 7//7 24//24
f 26//26 8//8 25//25
f 25//25 8//8 7//7
f 46//46 35//35 34//34
f 34//34 45//45 46//46
f 46//46 45//45 47//47
f 46//46 47//47 38//38
f 56//56 57//57 60//60
f 60//60 49//49 56//56
f 56//56 49//49 47//47
f 55//55 59//59 56//56
f 56//56 59//59 57//57
f 28//28 21//21 18//18
f 18//18 21//21 12//12
f 22//22 15//15 19//19
f 4//4 2//2 11//11
f 4//4 11//11 12//12
f 4//4 12//12 5//5
f 5//5 3//3 4//4
f 3//3 2//2 4//4
f 9//9 8//8 17//17
f 32//32 20//20 44//44
f 44//44 15//15 32//32
f 32//32 15//15 20//20
f 48//48 45//45 55//55
f 47//47 45//45 48//48
f 55//55 56//56 48//48
f 48//48 56//56 47//47
f 38//38 35//35 41//41
f 41//41 46//46 38//38
f 35//35 46//46 41//41
f 23//23 21//21 22//22
f 22//22 19//19 23//23
f 23//23 19//19 21//21
f 5//5 21//21 13//13
f 21//21 19//19 13//13
f 13//13 15//15 5//5
f 13//13 19//19 15//15
f 6//6 8//8 10//10
f 8//8 9//9 10//10
f 1//1 6//6 10//10
f 60//60 50//50 10//10
f 10//10 27//27 37//37
f 10//10 38//38 60//60
f 10//10 50//50 43//43
f 37//37 38//38 10//10
f 10//10 42//42 28//28
f 10//10 2//2 1//1
f 17//17 27//27 10//10
f 43//43 42//42 10//10
f 12//12 11//11 10//10
f 28//28 18//18 10//10
f 11//11 2//2 10//10
f 10//10 18//18 12//12
f 10//10 9//9 17//17

