# https://github.com/mikedh/trimesh
v -0.19990480 4.26918801 0.93015243
v -0.19990480 4.24960892 1.37498848
v 0.61587368 4.26918801 0.93015243
v -0.19990480 4.26918801 1.93015238
v 0.63408045 4.26928606 0.93015243
v 0.65659413 4.26918801 1.11370607
v 0.73539203 4.26918801 1.73401927
v 0.75800361 4.26938379 1.93015238
v 0.74664887 4.26918801 1.93015238
v 0.20690771 5.24960889 0.93015243
v -0.19990479 5.22063878 1.93015236
v 0.63838737 4.27046069 0.93015243
v 0.76906465 4.27026492 1.93015238
v -0.19990480 5.24960889 0.93015243
v 0.38545104 5.24960889 1.93015238
v 0.56663723 5.22043602 0.98311385
v -0.18479372 5.24960889 1.42301219
v -0.12097050 5.24960886 1.93015238
v 0.65659413 4.27525758 0.98311385
v 0.68895755 4.27042398 1.29739424
v 0.75222834 4.27310393 1.75034328
v 0.78169192 4.29464090 1.93015238
v 0.67910782 5.22053407 1.93015238
v 0.67910782 5.22043602 1.89725958
v 0.62287252 5.22014236 1.40758756
v 0.56665556 5.21877910 0.93015243
v 0.64533729 5.21642238 1.53813085
v 0.61166460 5.21142988 1.24439617
v 0.58915091 5.20604568 1.04840991
v 0.58572493 5.16669172 0.93015243
v 0.66214912 4.31698543 0.93015243
v 0.67362621 4.32528221 0.98311385
v 0.69036466 4.28695614 1.21169919
v 0.76906465 4.28553671 1.83196348
v 0.79079523 4.31862534 1.93015238
v 0.70240454 5.19048007 1.93015238
v 0.67910782 5.21916334 1.83196348
v 0.67910782 5.20359805 1.76666732
v 0.78805446 4.94006402 1.89725958
v 0.75252200 4.93619729 1.60342698
v 0.67362621 4.93585477 0.98311385
v 0.67029812 4.92126833 0.93122931
v 0.67029812 4.34300100 0.93122931
v 0.75846855 4.32449889 1.65239909
v 0.78267075 4.34539960 1.81169914
v 0.79079523 4.94202206 1.93015238
v 0.78394327 4.92714212 1.83196348
v 0.67005338 4.91798876 0.93015243
v 0.69085408 4.90795457 1.07719114
v 0.67049385 4.35190973 0.93015243
v 0.69085408 4.36169928 1.07719114
v 0.72136991 4.34048040 1.33553668
v 0.75800361 4.36630007 1.60200753
v 0.80009520 4.42260540 1.93015238
v 0.78139823 4.91226187 1.79143481
v 0.79901765 4.86096488 1.93015238
v 0.80009437 4.86351325 1.93015238
v 0.67265128 4.42284731 0.93015243
v 0.67264779 4.84968071 0.93015243
vn -0.17858172 -0.83323026 -0.52329332
vn -0.20301643 -0.97917403 -0.00159792
vn 0.00019070 -0.84828480 -0.52954024
vn -0.17824078 -0.83453876 0.52132070
vn 0.00439975 -0.85465733 -0.51917385
vn 0.00318735 -0.99998898 -0.00344549
vn 0.00318698 -0.99998966 -0.00324343
vn 0.00213499 -0.85484976 0.51887121
vn 0.00061065 -0.85235534 0.52296272
vn 0.00109869 0.85373994 -0.52069848
vn -0.18976850 0.81893645 0.54160041
vn 0.02628409 -0.84972210 -0.52657526
vn 0.04287162 -0.88174373 0.46977656
vn -0.17692377 0.83995602 -0.51300280
vn 0.00224867 0.85590550 0.51712738
vn 0.00688841 0.99993025 -0.00959397
vn -0.02071519 0.99976578 0.00626560
vn -0.00540821 0.85611151 0.51676283
vn 0.06941396 -0.99214544 -0.10406306
vn 0.01607999 -0.99971703 -0.01752985
vn 0.05130837 -0.99721905 -0.05405190
vn 0.08957492 -0.85928460 0.50359339
vn 0.02632039 0.86741022 0.49689711
vn 0.03077718 0.99951802 -0.00406134
vn 0.00990429 0.99989622 -0.01046223
vn 0.03845444 0.85878915 -0.51088398
vn 0.06758844 0.99524517 -0.07013449
vn 0.09183514 0.99104795 -0.09690335
vn 0.10236822 0.98795967 -0.11600189
vn 0.09330066 0.74916706 -0.65577717
vn 0.08908526 -0.74966621 -0.65579294
vn 0.16892155 -0.96647288 -0.19337961
vn 0.12288492 -0.98356429 -0.13228974
vn 0.10412092 -0.98950231 -0.10021982
vn 0.20451927 -0.82424720 0.52800419
vn 0.08735049 0.87058286 0.48420592
vn 0.05108160 0.99780045 -0.04224853
vn 0.10564853 0.98868901 -0.10645385
vn 0.18748114 0.96937227 -0.15864496
vn 0.14569757 0.97705124 -0.15538046
vn 0.15315959 0.97281365 -0.17371168
vn 0.21426061 0.79162298 -0.57221102
vn 0.21002087 -0.72972057 -0.65069126
vn 0.17524671 -0.96659938 -0.18701398
vn 0.33020249 -0.88449728 -0.32959199
vn 0.18608409 0.82999437 0.52581562
vn 0.23126976 0.94949626 -0.21206402
vn 0.12974914 0.25401691 -0.95845739
vn 0.45919470 0.73735194 -0.49543147
vn 0.21996613 -0.22059049 -0.95023930
vn 0.51901738 -0.64588583 -0.55986824
vn 0.24380978 -0.93402012 -0.26108086
vn 0.54861258 -0.59479577 -0.58757316
vn 0.43665280 -0.34410594 0.83121925
vn 0.40090360 0.81306599 -0.42213741
vn 0.00000004 0.00000004 1.00000000
vn 0.42224257 0.43893884 0.79312288
vn 0.23987558 -0.07419428 -0.96796432
vn 0.24061784 0.08572830 -0.96682662
f 1//1 2//2 14//14
f 14//14 2//2 4//4
f 4//4 11//11 14//14
f 10//10 1//1 14//14
f 58//58 1//1 10//10
f 14//14 11//11 17//17
f 11//11 4//4 18//18
f 18//18 17//17 11//11
f 26//26 10//10 16//16
f 9//9 4//4 2//2
f 2//2 8//8 9//9
f 59//59 42//42 49//49
f 59//59 48//48 42//42
f 15//15 18//18 4//4
f 15//15 16//16 10//10
f 17//17 18//18 15//15
f 15//15 10//10 14//14
f 14//14 17//17 15//15
f 2//2 1//1 3//3
f 3//3 5//5 2//2
f 3//3 1//1 58//58
f 58//58 5//5 3//3
f 7//7 8//8 2//2
f 58//58 51//51 50//50
f 51//51 43//43 50//50
f 8//8 7//7 13//13
f 13//13 5//5 20//20
f 13//13 7//7 5//5
f 45//45 43//43 51//51
f 42//42 48//48 30//30
f 26//26 29//29 30//30
f 30//30 10//10 26//26
f 48//48 59//59 30//30
f 58//58 10//10 30//30
f 30//30 59//59 58//58
f 49//49 42//42 55//55
f 40//40 29//29 39//39
f 28//28 38//38 39//39
f 39//39 29//29 28//28
f 28//28 27//27 38//38
f 28//28 29//29 26//26
f 26//26 27//27 28//28
f 20//20 5//5 12//12
f 12//12 19//19 20//20
f 12//12 5//5 58//58
f 32//32 34//34 33//33
f 33//33 19//19 32//32
f 34//34 19//19 33//33
f 31//31 43//43 32//32
f 32//32 19//19 31//31
f 19//19 12//12 31//31
f 31//31 50//50 43//43
f 58//58 50//50 31//31
f 31//31 12//12 58//58
f 2//2 5//5 6//6
f 6//6 7//7 2//2
f 5//5 7//7 6//6
f 20//20 19//19 21//21
f 21//21 13//13 20//20
f 21//21 19//19 34//34
f 34//34 13//13 21//21
f 32//32 43//43 52//52
f 43//43 45//45 52//52
f 44//44 34//34 32//32
f 32//32 52//52 44//44
f 44//44 52//52 45//45
f 54//54 45//45 53//53
f 53//53 45//45 51//51
f 53//53 58//58 54//54
f 53//53 51//51 58//58
f 22//22 13//13 34//34
f 57//57 46//46 56//56
f 57//57 56//56 54//54
f 54//54 58//58 57//57
f 58//58 59//59 57//57
f 57//57 59//59 49//49
f 49//49 55//55 57//57
f 39//39 38//38 36//36
f 36//36 46//46 39//39
f 29//29 40//40 41//41
f 42//42 30//30 41//41
f 41//41 30//30 29//29
f 47//47 55//55 42//42
f 47//47 41//41 40//40
f 47//47 40//40 39//39
f 42//42 41//41 47//47
f 47//47 57//57 55//55
f 39//39 46//46 47//47
f 46//46 57//57 47//47
f 26//26 16//16 25//25
f 16//16 15//15 25//25
f 34//34 44//44 35//35
f 35//35 44//44 45//45
f 35//35 22//22 34//34
f 35//35 45//45 54//54
f 54//54 56//56 35//35
f 37//37 36//36 38//38
f 38//38 27//27 37//37
f 37//37 27//27 26//26
f 26//26 25//25 37//37
f 23//23 36//36 24//24
f 36//36 37//37 24//24
f 24//24 37//37 25//25
f 24//24 15//15 23//23
f 24//24 25//25 15//15
f 4//4 9//9 35//35
f 8//8 13//13 35//35
f 35//35 9//9 8//8
f 35//35 15//15 4//4
f 23//23 15//15 35//35
f 35//35 36//36 23//23
f 56//56 46//46 35//35
f 13//13 22//22 35//35
f 46//46 36//36 35//35

