# https://github.com/mikedh/trimesh
v 2.15386345 0.49676842 2.04246744
v 2.15386345 0.49676842 1.38937426
v 1.61569148 0.49676842 2.04246744
v 2.18264161 0.33701947 2.04246744
v 2.14965438 0.49676842 1.35726774
v 2.18371835 0.31832336 2.04246744
v 2.15386345 -0.50322864 1.38937426
v 1.32502180 0.45981668 1.59630457
v 1.26183707 0.44146317 1.73863034
v 2.14583687 0.49676842 1.32858730
v 2.18371835 -0.31822528 2.04246744
v 2.18283739 -0.33633407 2.04246744
v 2.15386345 -0.50322864 2.04246744
v 1.62227422 0.49676842 1.33492538
v 1.26834639 0.43644654 1.61892839
v 1.18371836 0.38180470 2.04246744
v 2.14529850 -0.50322864 1.32653167
v 1.65181103 0.49676842 1.20906892
v 1.33060125 0.45903360 1.49602071
v 2.13171693 0.49676842 1.27898370
v 2.13281812 -0.50322864 1.28150432
v 1.26144551 -0.44097353 1.74117538
v 1.56928729 -0.50322865 2.04246743
v 1.32193844 -0.45957177 1.57222470
v 1.19654770 -0.38459156 2.04246744
v 1.71631729 0.49676842 1.15170787
v 1.32409193 0.44332300 1.40846199
v 1.31048590 0.39320567 1.38937426
v 1.29730096 0.42243778 1.45072643
v 2.12273597 -0.50322864 1.25096393
v 1.26149447 -0.44165872 1.67045296
v 1.57829936 -0.50322864 1.20750271
v 1.57024833 -0.50322864 1.34371061
v 1.22213854 -0.40240056 1.85165768
v 1.32507076 0.39320567 1.35090517
v 1.32786048 0.41762808 1.35438015
v 1.77935526 0.49676842 1.13242438
v 1.82947239 -0.50322864 1.04246747
v 1.31048590 -0.39242238 1.38937426
v 1.29736934 -0.41121639 1.45035704
v 2.12273597 0.49676842 1.25096393
v 2.08681217 -0.50322864 1.20192320
v 1.32805626 -0.45878869 1.49391616
v 1.69771425 -0.50323161 1.09748180
v 1.32379829 -0.44273550 1.40777676
v 1.32776262 -0.41694267 1.35423332
v 1.18817853 -0.36937038 2.04246744
v 1.32507076 -0.39242238 1.35090517
v 1.82947239 0.49676842 1.12253792
v 1.89574056 0.49676842 1.11304300
v 1.89574056 -0.50322864 1.04873217
v 2.10276743 0.49676842 1.22384962
v 2.06243879 -0.50322864 1.17431947
v 2.08798680 0.49676842 1.20505554
v 1.26847121 -0.43340511 1.60058629
v 1.96210662 0.49676842 1.12361473
v 1.96465164 -0.50322864 1.09738137
v 2.02925576 0.49676842 1.15219728
v 2.04423217 0.49676842 1.16120279
v 2.03268175 -0.50322864 1.14759669
vn 0.70877749 0.21045015 0.67330914
vn 0.96210346 0.26518443 -0.06351496
vn -0.32893010 0.29896655 0.89578122
vn 0.74638240 0.00550387 0.66549457
vn 0.95643661 0.27173661 -0.10671559
vn 0.75067517 0.00092491 0.66067082
vn 0.96208103 -0.26481516 -0.06536837
vn -0.93861670 0.34464200 -0.01485223
vn -0.97938949 0.19081584 0.06622347
vn 0.95052158 0.26203472 -0.16687277
vn 0.75059632 -0.00076462 0.66076061
vn 0.74696668 -0.00496657 0.66484292
vn 0.70922956 -0.21019527 0.67291260
vn -0.66318520 0.74201951 -0.09794098
vn -0.98743244 0.07922087 -0.13675241
vn -0.79781873 0.06241109 0.59965834
vn 0.95060773 -0.26269688 -0.16533389
vn -0.71241801 0.39598515 -0.57935856
vn -0.94371101 0.26409442 -0.19915738
vn 0.93272648 0.27060289 -0.23831785
vn 0.93286109 -0.26944099 -0.23910611
vn -0.97690249 -0.19323423 0.09122535
vn -0.38960023 -0.29441175 0.87265880
vn -0.95316721 -0.30038661 -0.03521593
vn -0.75574097 -0.07628040 0.65041285
vn -0.46271222 0.27740640 -0.84198759
vn -0.90234466 0.13378374 -0.40972677
vn -0.96883620 0.00527854 -0.24764602
vn -0.97755969 0.02980829 -0.20853901
vn 0.88651022 -0.25351317 -0.38707971
vn -0.98889545 -0.13317395 -0.06595818
vn -0.76699422 -0.33643324 -0.54638132
vn -0.72940160 -0.68355197 -0.02701868
vn -0.99391699 -0.02659207 -0.10687322
vn -0.79814812 0.00757808 -0.60241360
vn -0.81290376 0.04529645 -0.58063389
vn -0.27321950 0.28886872 -0.91755434
vn -0.16868897 -0.25064332 -0.95326909
vn -0.96917466 -0.00635941 -0.24629258
vn -0.97931974 -0.01772383 -0.20154087
vn 0.88770224 0.25280202 -0.38480628
vn 0.79572411 -0.27166896 -0.54131240
vn -0.95802780 -0.21681759 -0.18754428
vn -0.53943235 -0.26752792 -0.79839937
vn -0.93000480 -0.10530529 -0.35213900
vn -0.85700925 -0.03839115 -0.51386892
vn -0.79277913 -0.01184918 0.60939383
vn -0.83080390 -0.00539135 -0.55653915
vn -0.18879935 0.29443329 -0.93683715
vn 0.01049163 0.27418620 -0.96161939
vn 0.37957202 -0.24885525 -0.89106462
vn 0.80857997 0.27580892 -0.51973827
vn 0.73756367 -0.27167559 -0.61821695
vn 0.77054035 0.27076292 -0.57702254
vn -0.98406895 -0.04248534 -0.17263630
vn 0.31132503 0.27514526 -0.90959981
vn 0.62315341 -0.28235967 -0.72935097
vn 0.49831168 0.27863212 -0.82100525
vn 0.65541337 0.26555586 -0.70704554
vn 0.66730943 -0.27521281 -0.69206649
f 13//13 23//23 44//44
f 13//13 25//25 23//23
f 47//47 3//3 16//16
f 23//23 25//25 22//22
f 22//22 25//25 31//31
f 16//16 3//3 9//9
f 4//4 2//2 1//1
f 6//6 2//2 4//4
f 51//51 38//38 50//50
f 51//51 59//59 57//57
f 51//51 57//57 44//44
f 44//44 38//38 51//51
f 23//23 22//22 24//24
f 24//24 22//22 31//31
f 25//25 47//47 34//34
f 31//31 25//25 34//34
f 34//34 47//47 16//16
f 14//14 18//18 19//19
f 19//19 18//18 27//27
f 44//44 35//35 26//26
f 26//26 38//38 44//44
f 8//8 9//9 3//3
f 19//19 9//9 8//8
f 3//3 14//14 8//8
f 8//8 14//14 19//19
f 7//7 13//13 44//44
f 44//44 17//17 7//7
f 12//12 13//13 7//7
f 7//7 11//11 12//12
f 7//7 17//17 10//10
f 56//56 51//51 50//50
f 23//23 24//24 33//33
f 33//33 24//24 32//32
f 44//44 23//23 33//33
f 33//33 32//32 44//44
f 48//48 35//35 44//44
f 15//15 27//27 29//29
f 16//16 9//9 15//15
f 15//15 29//29 16//16
f 15//15 9//9 19//19
f 19//19 27//27 15//15
f 18//18 26//26 36//36
f 36//36 27//27 18//18
f 36//36 26//26 35//35
f 29//29 27//27 36//36
f 35//35 28//28 36//36
f 28//28 29//29 36//36
f 38//38 26//26 37//37
f 44//44 57//57 60//60
f 57//57 59//59 60//60
f 44//44 42//42 30//30
f 2//2 7//7 5//5
f 5//5 7//7 10//10
f 59//59 51//51 58//58
f 51//51 56//56 58//58
f 50//50 38//38 49//49
f 38//38 37//37 49//49
f 53//53 42//42 44//44
f 44//44 60//60 53//53
f 53//53 60//60 59//59
f 21//21 17//17 44//44
f 44//44 30//30 21//21
f 10//10 17//17 21//21
f 41//41 21//21 30//30
f 41//41 30//30 42//42
f 32//32 24//24 43//43
f 43//43 45//45 32//32
f 43//43 24//24 31//31
f 31//31 45//45 43//43
f 32//32 45//45 46//46
f 44//44 32//32 46//46
f 46//46 48//48 44//44
f 46//46 39//39 48//48
f 16//16 29//29 55//55
f 55//55 34//34 16//16
f 31//31 34//34 55//55
f 55//55 45//45 31//31
f 10//10 21//21 20//20
f 21//21 41//41 20//20
f 54//54 53//53 59//59
f 42//42 53//53 54//54
f 40//40 55//55 29//29
f 28//28 39//39 40//40
f 40//40 29//29 28//28
f 39//39 46//46 40//40
f 40//40 46//46 45//45
f 45//45 55//55 40//40
f 52//52 41//41 42//42
f 42//42 54//54 52//52
f 1//1 3//3 11//11
f 3//3 47//47 11//11
f 25//25 13//13 11//11
f 6//6 4//4 11//11
f 11//11 13//13 12//12
f 11//11 47//47 25//25
f 11//11 4//4 1//1
f 6//6 11//11 7//7
f 7//7 2//2 6//6
f 35//35 48//48 39//39
f 39//39 28//28 35//35
f 52//52 56//56 50//50
f 52//52 3//3 1//1
f 1//1 2//2 52//52
f 59//59 58//58 52//52
f 50//50 49//49 52//52
f 52//52 14//14 3//3
f 18//18 14//14 52//52
f 52//52 26//26 18//18
f 52//52 5//5 10//10
f 52//52 37//37 26//26
f 2//2 5//5 52//52
f 52//52 58//58 56//56
f 52//52 49//49 37//37
f 10//10 20//20 52//52
f 52//52 20//20 41//41
f 52//52 54//54 59//59

