# https://github.com/mikedh/trimesh
v 3.91113953 -2.17983027 0.19551595
v 3.91113953 -2.17983027 -0.19551595
v 3.88696170 -2.17983027 0.30575679
v 3.91113953 -3.17983030 0.19551595
v 3.91113953 -3.17983030 -0.19551595
v 3.90086155 -3.17983030 -0.24241238
v 3.88255688 -2.17983027 -0.32582730
v 3.88255688 -2.17983027 0.32582730
v 3.88255688 -3.17983030 0.32582730
v 3.88255688 -3.17983030 -0.32582730
v 3.87756472 -2.17983027 -0.33630311
v 3.84996102 -2.17983027 0.39377324
v 3.86170724 -3.17983030 0.36949283
v 3.84996102 -3.17983030 -0.39396905
v 3.84996102 -2.17983027 -0.39377324
v 3.84996102 -3.17983030 0.39396905
v 3.44344186 -2.17983027 0.43254356
v 3.62227890 -3.17983030 0.49109067
v 3.62776046 -3.17983030 0.48971999
v 3.74473385 -3.17983030 0.44811044
v 3.71321461 -3.17983030 -0.45388680
v 3.62227890 -3.17983030 -0.49109067
v 3.61689527 -3.17983030 -0.49187388
v 3.44344186 -2.17983027 -0.43254356
v 3.53290934 -3.17983030 0.49813979
v 3.08586544 -2.17983027 0.43254356
v 3.35417011 -3.17983030 0.49999998
v 3.44344186 -3.17983030 0.49951047
v 3.53251774 -3.17983030 -0.49813979
v 3.44314818 -3.17983030 -0.49951047
v 3.35387643 -3.17983030 -0.49999998
v 3.08586544 -2.17983027 -0.43254356
v 3.02693831 -2.17983027 0.41501860
v 3.08586544 -3.17983030 0.49735658
v 3.17533293 -3.17983030 0.49999998
v 3.17503939 -3.17983030 -0.49999998
v 3.08566971 -3.17983030 -0.49725863
v 3.07519598 -2.17983027 -0.42941061
v 3.01617091 -2.17983027 0.41178774
v 2.99796412 -3.17983030 0.45848833
v 3.01617091 -2.17983027 -0.41178774
v 2.99512546 -3.17983030 -0.45711766
v 2.98651158 -2.17983027 0.33904444
v 2.92210281 -3.17983030 0.31760328
v 2.99512546 -3.17983030 0.45711766
v 2.92474572 -3.17983030 -0.30115526
v 2.98112781 -2.17983027 -0.32582730
v 2.98112781 -2.17983027 0.32582730
v 2.91231423 -3.17983030 0.19551595
v 2.92239648 -3.17983030 -0.28157430
v 2.91231423 -3.17983030 -0.19551595
v 2.97956165 -2.17983027 -0.30575679
v 2.97261179 -2.17983027 0.21558645
v 2.91113954 -3.17983030 0.06510671
v 2.97114350 -2.17983027 0.19551595
v 2.91172689 -3.17983030 -0.15909536
v 2.97114350 -2.17983027 -0.19551595
v 2.91113954 -3.17983030 -0.06510671
vn 0.67982548 0.71689683 0.15458411
vn 0.67982486 0.71689477 -0.15459640
vn 0.61374642 0.73581241 0.28617379
vn 0.67982564 -0.71689356 0.15459862
vn 0.67982229 -0.71692242 -0.15447944
vn 0.61379792 -0.73580592 -0.28607999
vn 0.58966188 0.68732803 -0.42412150
vn 0.58922343 0.68683083 0.42553398
vn 0.58954718 -0.68717262 0.42453257
vn 0.58940365 -0.68703863 -0.42494854
vn 0.50202639 0.69816472 -0.51042681
vn 0.30837595 0.56590146 0.76463050
vn 0.50180109 -0.69824067 0.51054445
vn 0.36082229 -0.58513509 -0.72623977
vn 0.30825401 0.56569000 -0.76483612
vn 0.37242732 -0.59225243 0.71451728
vn 0.01634513 0.63016543 0.77628884
vn 0.05786974 -0.58613290 0.80814560
vn 0.10922828 -0.60331442 0.78998791
vn 0.15623802 -0.61027507 0.77662992
vn 0.15257928 -0.62173485 -0.76822219
vn 0.09574580 -0.58747956 -0.80355492
vn 0.04053491 -0.59054821 -0.80598370
vn 0.01630947 0.63019796 -0.77626319
vn 0.01863805 -0.59050741 0.80681697
vn -0.05506794 0.61398803 0.78739204
vn 0.00096888 -0.59602505 0.80296525
vn 0.00393046 -0.59574438 0.80316448
vn 0.01770172 -0.59094671 -0.80651636
vn 0.00393323 -0.59574390 -0.80316483
vn 0.00096866 -0.59602526 -0.80296510
vn -0.05438259 0.61423357 -0.78724815
vn -0.10704009 0.63943191 0.76136013
vn -0.08719208 -0.56975616 0.81717529
vn -0.00522595 -0.59432987 0.80420439
vn -0.00542702 -0.59424991 -0.80426214
vn -0.08761142 -0.56981425 -0.81708993
vn -0.10613266 0.63919315 -0.76168758
vn -0.35292886 0.59134467 0.72508806
vn -0.16894813 -0.60734268 0.77626761
vn -0.35492691 0.58986685 -0.72531648
vn -0.37519473 -0.56850249 -0.73214331
vn -0.51863052 0.72748835 0.44920273
vn -0.65521629 -0.65453986 0.37718588
vn -0.35957369 -0.57427812 0.73546679
vn -0.64662433 -0.66883331 -0.36679556
vn -0.62853205 0.71096550 -0.31539740
vn -0.62810662 0.71307537 0.31145721
vn -0.69278138 -0.71819708 0.06516827
vn -0.66648281 -0.72637091 -0.16788676
vn -0.69383031 -0.71377436 -0.09552834
vn -0.62826668 0.77113049 -0.10314424
vn -0.62894203 0.77092100 0.10056213
vn -0.68529984 -0.72823520 0.00613360
vn -0.64444498 0.76298310 0.05047233
vn -0.68514212 -0.72823025 -0.01615491
vn -0.64484849 0.76249200 -0.05269127
vn -0.68491712 -0.72860857 -0.00425326
f 1//1 2//2 7//7
f 1//1 7//7 11//11
f 1//1 11//11 15//15
f 1//1 15//15 24//24
f 1//1 24//24 32//32
f 1//1 32//32 38//38
f 1//1 38//38 41//41
f 1//1 41//41 47//47
f 1//1 47//47 52//52
f 1//1 52//52 57//57
f 1//1 57//57 55//55
f 1//1 55//55 53//53
f 1//1 53//53 48//48
f 1//1 48//48 43//43
f 1//1 43//43 39//39
f 1//1 39//39 33//33
f 1//1 33//33 26//26
f 1//1 26//26 17//17
f 1//1 17//17 12//12
f 1//1 12//12 8//8
f 1//1 8//8 3//3
f 1//1 3//3 4//4
f 1//1 4//4 5//5
f 1//1 5//5 2//2
f 2//2 5//5 6//6
f 2//2 6//6 7//7
f 3//3 8//8 9//9
f 3//3 9//9 4//4
f 4//4 9//9 13//13
f 4//4 13//13 16//16
f 4//4 16//16 20//20
f 4//4 20//20 19//19
f 4//4 19//19 18//18
f 4//4 18//18 25//25
f 4//4 25//25 28//28
f 4//4 28//28 27//27
f 4//4 27//27 35//35
f 4//4 35//35 34//34
f 4//4 34//34 40//40
f 4//4 40//40 45//45
f 4//4 45//45 44//44
f 4//4 44//44 49//49
f 4//4 49//49 54//54
f 4//4 54//54 58//58
f 4//4 58//58 56//56
f 4//4 56//56 51//51
f 4//4 51//51 50//50
f 4//4 50//50 46//46
f 4//4 46//46 42//42
f 4//4 42//42 37//37
f 4//4 37//37 36//36
f 4//4 36//36 31//31
f 4//4 31//31 30//30
f 4//4 30//30 29//29
f 4//4 29//29 23//23
f 4//4 23//23 22//22
f 4//4 22//22 21//21
f 4//4 21//21 14//14
f 4//4 14//14 10//10
f 4//4 10//10 6//6
f 4//4 6//6 5//5
f 6//6 10//10 7//7
f 7//7 10//10 11//11
f 8//8 12//12 13//13
f 8//8 13//13 9//9
f 10//10 14//14 11//11
f 11//11 14//14 15//15
f 12//12 16//16 13//13
f 12//12 17//17 18//18
f 12//12 18//18 19//19
f 12//12 19//19 20//20
f 12//12 20//20 16//16
f 14//14 21//21 15//15
f 15//15 21//21 22//22
f 15//15 22//22 23//23
f 15//15 23//23 24//24
f 17//17 25//25 18//18
f 17//17 26//26 35//35
f 17//17 35//35 27//27
f 17//17 27//27 28//28
f 17//17 28//28 25//25
f 23//23 29//29 24//24
f 24//24 29//29 30//30
f 24//24 30//30 31//31
f 24//24 31//31 36//36
f 24//24 36//36 32//32
f 26//26 33//33 34//34
f 26//26 34//34 35//35
f 32//32 36//36 37//37
f 32//32 37//37 38//38
f 33//33 39//39 34//34
f 34//34 39//39 40//40
f 37//37 41//41 38//38
f 37//37 42//42 41//41
f 39//39 43//43 44//44
f 39//39 44//44 45//45
f 39//39 45//45 40//40
f 41//41 42//42 46//46
f 41//41 46//46 47//47
f 43//43 48//48 44//44
f 44//44 48//48 49//49
f 46//46 50//50 47//47
f 47//47 50//50 51//51
f 47//47 51//51 52//52
f 48//48 53//53 49//49
f 49//49 53//53 55//55
f 49//49 55//55 54//54
f 51//51 56//56 57//57
f 51//51 57//57 52//52
f 54//54 55//55 57//57
f 54//54 57//57 58//58
f 56//56 58//58 57//57

