# https://github.com/mikedh/trimesh
v 0.91823918 -2.94612606 0.49876613
v 0.97803409 -2.74095273 0.53015232
v 0.97793634 -2.94612614 0.51024424
v 0.92709516 -1.94620004 0.74865072
v 1.02713325 -2.46614137 0.57905701
v 1.49475614 -1.94620004 0.75482909
v 1.01645830 -2.94612614 0.53574228
v 1.49475614 -2.16174942 0.75865379
v 0.87077881 -2.94612614 0.53711525
v 0.83493583 -1.94761475 0.80703665
v 1.08372508 -1.94620004 0.69186861
v 1.06993924 -2.94612614 0.58820934
v 1.49475614 -2.31812551 0.77929739
v 1.49475614 -2.50660886 0.80886528
v 1.15569960 -1.94620169 1.49876615
v 1.49475615 -1.94620004 1.45926429
v 1.31690993 -2.94612614 0.85417330
v 1.49475614 -2.54047811 0.84299339
v 1.39188838 -2.94612614 0.97816967
v 1.34105947 -2.94612614 0.88594776
v 0.51782927 -2.94618409 0.89534313
v 0.51782397 -2.78451299 0.96106884
v 0.74191608 -1.94620004 0.92831368
v 0.78029137 -1.94620004 0.87307616
v 1.05748460 -1.94620235 1.49862245
v 1.08372508 -2.70698575 1.45759376
v 1.49475236 -2.29777393 1.43731726
v 1.49475614 -2.58296160 1.05707870
v 1.41976550 -2.94612614 1.11140910
v 1.41380142 -2.94612614 1.05972656
v 0.49475612 -2.94607854 0.96961498
v 0.57619351 -2.45110631 1.05766712
v 0.57560686 -2.45267248 1.02265635
v 0.71713105 -1.94620004 0.99306395
v 0.96653791 -1.94629340 1.48854796
v 1.11031889 -2.94612614 1.43341965
v 1.00685221 -2.94612614 1.42563542
v 1.18951374 -2.94612614 1.42562315
v 1.49475614 -2.49525395 1.41091276
v 1.49475614 -2.57642757 1.18974194
v 1.49475614 -2.52912321 1.37992286
v 0.58010439 -2.46530013 1.08581301
v 0.70663281 -1.94620004 1.18673857
v 0.68706627 -1.94620004 1.11140910
v 0.94097876 -2.17467062 1.46632193
v 1.22407593 -2.94612614 1.41476196
v 1.49475614 -2.50308483 1.40375364
v 1.32456052 -2.94612614 1.34331848
v 1.38427445 -2.94612614 1.25797367
v 1.40685959 -2.94612614 1.18819736
v 0.50330339 -2.94605972 1.00504021
v 0.78004696 -1.94620004 1.34084222
v 0.74475142 -1.94620004 1.28832611
v 0.94058760 -2.91509554 1.41385482
v 0.84183849 -2.15245009 1.41012824
v 0.52672128 -2.94612614 1.03256138
v 0.84268251 -1.94618407 1.41621977
v 0.84447833 -2.84667192 1.35413066
v 0.89912803 -2.94612606 1.37681815
v 0.57609572 -2.94612614 1.08301801
vn -0.14940694 -0.87546632 -0.45960450
vn 0.01155988 0.98749534 -0.15722378
vn 0.06694579 -0.96289909 -0.26142608
vn -0.02250489 0.99878858 -0.04375959
vn -0.00113161 0.99266162 -0.12091991
vn 0.16614934 0.97909229 -0.11735710
vn 0.04454463 -0.99669840 -0.06788279
vn 0.44192071 -0.84743648 -0.29420656
vn -0.25459112 -0.91785803 -0.30449960
vn -0.04093967 0.99815461 -0.04484780
vn -0.00195079 0.99851613 -0.05442185
vn 0.02348786 -0.99942563 -0.02442821
vn 0.31860069 -0.93617664 -0.14854934
vn 0.19893292 -0.97775543 -0.06648322
vn 0.01642595 0.97397186 0.22607299
vn 0.18106393 0.96251915 0.20192263
vn 0.02249401 -0.99954592 -0.02004913
vn 0.21534931 -0.97633436 -0.01989713
vn 0.03101383 -0.99945656 -0.01116849
vn 0.02430257 -0.99956857 -0.01649395
vn -0.36243703 -0.90137300 -0.23699390
vn -0.12838400 0.99128451 -0.02953940
vn -0.04351022 0.99870933 -0.02620176
vn -0.04133241 0.99857827 -0.03366119
vn -0.01332645 0.97556649 0.21929986
vn -0.00901889 -0.95873044 0.28417355
vn 0.28479158 -0.92820898 0.23941980
vn 0.27570602 -0.96123851 -0.00259050
vn 0.04929780 -0.99878399 0.00051680
vn 0.03977240 -0.99919189 -0.00580698
vn -0.36047690 -0.93269413 -0.01175018
vn -0.13114205 0.99120555 0.01770067
vn -0.10367162 0.99447692 -0.01636622
vn -0.04116483 0.99905037 -0.01427650
vn -0.06193969 0.97130249 0.22964093
vn 0.00372464 -0.99613801 0.08772228
vn -0.01771317 -0.99523480 0.09588501
vn 0.01264769 -0.99567138 0.09207897
vn 0.18425290 -0.97842492 0.09346415
vn 0.27535897 -0.96133184 0.00430388
vn 0.21343203 -0.97671353 0.02185076
vn -0.20557152 0.97348361 0.10034945
vn -0.05596720 0.99823001 0.02011268
vn -0.05425045 0.99851385 0.00519377
vn -0.15601948 -0.91531870 0.37128102
vn 0.01878502 -0.99835426 0.05418385
vn 0.21450226 -0.97641283 0.02463258
vn 0.02200743 -0.99944979 0.02481524
vn 0.02954149 -0.99947231 0.01350538
vn 0.03647127 -0.99930621 0.00754595
vn -0.27879855 -0.95512131 0.10007324
vn -0.11552428 0.98857245 0.09684339
vn -0.09258337 0.99383543 0.06098735
vn -0.05635311 -0.98959852 0.13235969
vn -0.31470794 -0.86065036 0.40029973
vn -0.10585660 -0.98994318 0.09384499
vn -0.11486823 0.98243563 0.14705617
vn -0.12771203 -0.97997988 0.15273857
vn -0.03743319 -0.99800027 0.05093339
vn -0.07652411 -0.99404875 0.07753161
f 6//6 57//57 16//16
f 57//57 6//6 11//11
f 31//31 21//21 56//56
f 16//16 57//57 15//15
f 57//57 25//25 15//15
f 35//35 25//25 57//57
f 9//9 10//10 1//1
f 1//1 21//21 9//9
f 9//9 21//21 10//10
f 5//5 11//11 6//6
f 1//1 10//10 4//4
f 4//4 5//5 1//1
f 11//11 5//5 4//4
f 57//57 11//11 4//4
f 60//60 56//56 21//21
f 26//26 15//15 25//25
f 25//25 35//35 26//26
f 55//55 35//35 57//57
f 55//55 60//60 58//58
f 57//57 56//56 55//55
f 56//56 60//60 55//55
f 27//27 39//39 16//16
f 16//16 15//15 27//27
f 15//15 26//26 27//27
f 29//29 28//28 40//40
f 40//40 28//28 16//16
f 8//8 6//6 16//16
f 18//18 28//28 29//29
f 16//16 28//28 18//18
f 18//18 14//14 16//16
f 57//57 44//44 43//43
f 57//57 43//43 53//53
f 10//10 21//21 24//24
f 21//21 23//23 24//24
f 24//24 4//4 10//10
f 24//24 23//23 57//57
f 57//57 4//4 24//24
f 22//22 23//23 21//21
f 22//22 21//21 31//31
f 31//31 32//32 22//22
f 34//34 44//44 57//57
f 57//57 23//23 34//34
f 14//14 18//18 19//19
f 1//1 5//5 2//2
f 2//2 5//5 6//6
f 54//54 55//55 58//58
f 39//39 48//48 49//49
f 49//49 48//48 21//21
f 21//21 48//48 46//46
f 46//46 48//48 39//39
f 29//29 40//40 41//41
f 41//41 40//40 16//16
f 57//57 53//53 52//52
f 42//42 32//32 31//31
f 42//42 52//52 53//53
f 42//42 53//53 43//43
f 44//44 32//32 42//42
f 42//42 43//43 44//44
f 23//23 22//22 33//33
f 33//33 34//34 23//23
f 44//44 34//34 33//33
f 33//33 32//32 44//44
f 33//33 22//22 32//32
f 3//3 21//21 1//1
f 3//3 7//7 21//21
f 1//1 2//2 3//3
f 3//3 2//2 6//6
f 6//6 8//8 3//3
f 8//8 7//7 3//3
f 12//12 17//17 21//21
f 21//21 7//7 12//12
f 14//14 17//17 12//12
f 12//12 7//7 14//14
f 14//14 7//7 13//13
f 13//13 7//7 8//8
f 16//16 14//14 13//13
f 13//13 8//8 16//16
f 21//21 17//17 20//20
f 20//20 19//19 21//21
f 20//20 17//17 14//14
f 14//14 19//19 20//20
f 30//30 18//18 29//29
f 30//30 19//19 18//18
f 29//29 21//21 30//30
f 21//21 19//19 30//30
f 37//37 26//26 35//35
f 35//35 54//54 37//37
f 36//36 26//26 37//37
f 37//37 21//21 36//36
f 35//35 55//55 45//45
f 45//45 54//54 35//35
f 55//55 54//54 45//45
f 58//58 60//60 59//59
f 59//59 54//54 58//58
f 59//59 37//37 54//54
f 59//59 60//60 21//21
f 21//21 37//37 59//59
f 36//36 21//21 38//38
f 21//21 46//46 38//38
f 38//38 26//26 36//36
f 38//38 27//27 26//26
f 39//39 27//27 38//38
f 38//38 46//46 39//39
f 29//29 41//41 50//50
f 50//50 41//41 49//49
f 50//50 21//21 29//29
f 50//50 49//49 21//21
f 39//39 49//49 47//47
f 49//49 41//41 47//47
f 16//16 39//39 47//47
f 47//47 41//41 16//16
f 31//31 56//56 51//51
f 51//51 42//42 31//31
f 52//52 42//42 51//51
f 51//51 56//56 57//57
f 57//57 52//52 51//51

