# https://github.com/mikedh/trimesh
v -0.49995334 -0.50349250 0.57500859
v -0.49985544 -0.50349250 0.49366063
v -0.49995334 -0.50349250 0.73809595
v -0.49956182 0.49123509 0.49366063
v -0.49672312 0.49123509 0.81963976
v -0.49965966 0.49123509 0.73819387
v -0.49667418 -0.50349250 0.43502359
v -0.49662523 0.49123509 0.43751992
v -0.49349291 0.49123509 0.86232047
v -0.48412031 0.49123509 0.37344995
v -0.49513249 -0.50349250 0.84195900
v -0.48786448 -0.50349250 0.88620594
v -0.49972257 0.49123509 0.83655961
v -0.47411803 -0.50349248 0.94337048
v -0.37710683 -0.03592380 -0.03896741
v -0.46535373 0.49049003 0.32619097
v -0.46848309 0.49123509 0.94665403
v -0.44895687 -0.50349250 0.95512131
v -0.47545574 -0.50876494 0.33918177
v -0.44522901 -0.50349052 0.31882337
v -0.30420648 0.15343569 -0.03833100
v -0.37710085 0.07368870 -0.04471250
v 0.45169114 -0.50349250 0.95512169
v -0.44490433 0.49123509 0.95433858
v -0.31433764 -0.10682026 -0.04293353
v -0.44453309 0.49123146 0.31901345
v -0.23067598 0.20081208 -0.03924873
v 0.45286578 -0.50349250 0.95473002
v 0.45159327 0.49123509 0.95433858
v 0.06191041 -0.25064805 -0.04006870
v 0.45170049 -0.50349186 0.31882487
v 0.45160077 0.49123506 0.31902217
v 0.34558309 0.10633316 -0.03906515
v 0.30667353 0.15039289 -0.03872256
v 0.03311555 0.24800283 -0.04474960
v 0.46529726 -0.50349250 0.94856293
v 0.46510148 0.49123509 0.94817138
v 0.48252514 -0.50349250 0.36483549
v 0.47095954 -0.50349224 0.33837776
v 0.38395428 -0.00778399 -0.03789061
v 0.47498793 -0.50349250 0.92869094
v 0.47498793 0.49123509 0.92869094
v 0.48252514 0.49123509 0.36483549
v 0.38242624 -0.10889468 -0.04483924
v 0.47073905 0.49123129 0.33817146
v 0.19399119 -0.24863517 -0.04487834
v 0.48741943 0.49123509 0.88787020
v 0.49143275 -0.50349250 0.41020814
v 0.49182429 0.49123509 0.41221499
v 0.48785992 -0.50349250 0.88493341
v 0.49681645 0.49123509 0.81963976
v 0.49701223 -0.50349250 0.81963976
v 0.49975298 -0.50349250 0.49366063
v 0.49828472 0.49123509 0.47995584
v 0.49965515 0.49123509 0.73819387
v 0.49994877 -0.50349250 0.73574662
v 0.50004666 -0.50349250 0.57510651
v 0.49960620 0.49123509 0.53438357
vn -0.89844362 -0.43901793 -0.00789451
vn -0.85153982 -0.39003554 -0.35036012
vn -0.82260688 -0.43558430 0.36549177
vn -0.78827177 0.49892757 -0.36013732
vn -0.00000000 1.00000000 0.00000000
vn -0.00000011 1.00000000 -0.00000000
vn -0.45349061 -0.17498923 -0.87391363
vn -0.42582658 0.27764559 -0.86115309
vn -0.20468083 0.19992964 0.95819304
vn -0.20313846 0.18995344 -0.96054800
vn -0.46625183 -0.27664485 0.84028380
vn -0.26759619 -0.20554772 0.94135138
vn -0.47745538 0.28134339 0.83239550
vn -0.11165894 -0.13854375 0.98404162
vn -0.09181027 -0.00316011 -0.99577150
vn -0.08384914 0.12911560 -0.98807818
vn -0.09333745 0.14407382 0.98515524
vn -0.01304145 -0.14570466 0.98924217
vn -0.14443309 -0.17168560 -0.97450661
vn -0.01301202 -0.05460689 -0.99842314
vn -0.02433538 0.01320253 -0.99961667
vn -0.09314772 0.00256805 -0.99564899
vn 0.00967352 -0.14935830 0.98873582
vn -0.00916280 0.15477654 0.98790701
vn -0.02066592 -0.01061966 -0.99973003
vn -0.01640006 0.18256458 -0.98305708
vn -0.01355113 0.01502811 -0.99979524
vn 0.02350069 -0.15252571 0.98802005
vn 0.01283939 0.15344677 0.98807350
vn -0.00437580 -0.01918854 -0.99980631
vn 0.03639721 -0.16725640 -0.98524136
vn 0.03628425 0.17129336 -0.98455169
vn 0.04199594 0.00787731 -0.99908673
vn 0.02170809 0.01213147 -0.99969075
vn 0.00205607 0.01926487 -0.99981230
vn 0.06991781 -0.14729186 0.98661877
vn 0.06636063 0.14908860 0.98659457
vn 0.19870897 -0.18560820 -0.96232237
vn 0.09545058 -0.16845440 -0.98107711
vn 0.10363304 0.00178970 -0.99461399
vn 0.14899496 -0.17131229 0.97388531
vn 0.14366844 0.17157364 0.97463935
vn 0.19595524 0.18535285 -0.96293606
vn 0.09603429 -0.00331734 -0.99537250
vn 0.09398959 0.16827128 -0.98124958
vn 0.00967711 -0.01847758 -0.99978244
vn 0.26002046 0.20658873 0.94324464
vn 0.35732528 -0.25429966 -0.89869368
vn 0.36223496 0.25775185 -0.89573981
vn 0.26252639 -0.20727840 0.94239883
vn 0.53365470 0.33954120 0.77454789
vn 0.53009228 -0.33457988 0.77913958
vn 0.68564750 -0.41755888 -0.59626511
vn 0.63758926 0.40563193 -0.65493715
vn 0.81513031 0.52449613 0.24589915
vn 0.81528634 -0.52092135 0.25288164
vn 0.83367697 -0.55181947 -0.02186263
vn 0.82470484 0.53744881 -0.17609853
f 13//13 4//4 1//1
f 46//46 31//31 20//20
f 17//17 18//18 24//24
f 24//24 18//18 23//23
f 1//1 4//4 2//2
f 3//3 13//13 1//1
f 3//3 11//11 13//13
f 18//18 17//17 14//14
f 47//47 52//52 51//51
f 24//24 23//23 29//29
f 29//29 17//17 24//24
f 28//28 36//36 37//37
f 37//37 29//29 28//28
f 28//28 29//29 23//23
f 46//46 20//20 30//30
f 30//30 25//25 46//46
f 20//20 25//25 30//30
f 19//19 7//7 10//10
f 15//15 25//25 19//19
f 19//19 25//25 20//20
f 19//19 20//20 31//31
f 31//31 39//39 19//19
f 19//19 39//39 38//38
f 38//38 48//48 19//19
f 2//2 7//7 19//19
f 19//19 48//48 53//53
f 1//1 2//2 19//19
f 19//19 53//53 57//57
f 19//19 3//3 1//1
f 11//11 3//3 19//19
f 18//18 14//14 19//19
f 36//36 28//28 19//19
f 19//19 23//23 18//18
f 19//19 28//28 23//23
f 10//10 7//7 8//8
f 8//8 2//2 4//4
f 8//8 7//7 2//2
f 35//35 26//26 32//32
f 32//32 26//26 10//10
f 10//10 26//26 16//16
f 13//13 11//11 12//12
f 12//12 14//14 13//13
f 11//11 19//19 12//12
f 12//12 19//19 14//14
f 13//13 14//14 9//9
f 9//9 14//14 17//17
f 9//9 5//5 13//13
f 4//4 13//13 6//6
f 13//13 5//5 6//6
f 57//57 53//53 58//58
f 58//58 55//55 57//57
f 58//58 53//53 54//54
f 37//37 36//36 42//42
f 38//38 39//39 44//44
f 44//44 39//39 31//31
f 46//46 35//35 44//44
f 44//44 31//31 46//46
f 56//56 19//19 57//57
f 52//52 19//19 56//56
f 57//57 55//55 56//56
f 56//56 55//55 51//51
f 51//51 52//52 56//56
f 50//50 19//19 52//52
f 52//52 47//47 50//50
f 43//43 32//32 10//10
f 43//43 48//48 38//38
f 38//38 44//44 43//43
f 43//43 44//44 40//40
f 35//35 32//32 34//34
f 27//27 26//26 35//35
f 27//27 16//16 26//26
f 36//36 19//19 41//41
f 19//19 50//50 41//41
f 41//41 42//42 36//36
f 47//47 42//42 41//41
f 41//41 50//50 47//47
f 45//45 43//43 40//40
f 32//32 43//43 45//45
f 48//48 43//43 49//49
f 54//54 53//53 49//49
f 53//53 48//48 49//49
f 10//10 16//16 22//22
f 22//22 25//25 15//15
f 15//15 19//19 22//22
f 22//22 19//19 10//10
f 22//22 27//27 35//35
f 22//22 35//35 46//46
f 46//46 25//25 22//22
f 33//33 34//34 32//32
f 32//32 45//45 33//33
f 33//33 45//45 40//40
f 40//40 44//44 33//33
f 33//33 44//44 35//35
f 35//35 34//34 33//33
f 16//16 27//27 21//21
f 21//21 22//22 16//16
f 27//27 22//22 21//21
f 49//49 9//9 17//17
f 49//49 29//29 37//37
f 37//37 42//42 49//49
f 49//49 58//58 54//54
f 4//4 6//6 49//49
f 49//49 8//8 4//4
f 51//51 55//55 49//49
f 49//49 47//47 51//51
f 17//17 29//29 49//49
f 10//10 8//8 49//49
f 5//5 9//9 49//49
f 49//49 6//6 5//5
f 55//55 58//58 49//49
f 49//49 42//42 47//47
f 49//49 43//43 10//10

