# https://github.com/mikedh/trimesh
v 0.72288910 -0.21671480 0.86316960
v 0.72288941 0.21501229 0.86317230
v 0.72289980 -0.18878021 1.81552422
v 0.77248075 -0.30601476 0.86234432
v 0.75856303 0.27665203 0.86316960
v 0.72288912 0.18941404 1.80598067
v 0.78004570 0.30826243 0.86316960
v 0.78969084 -0.30000944 1.80993557
v 0.89136886 -0.39709517 1.80688200
v 0.72288912 -0.14297911 1.82079409
v 0.72288910 0.14379046 1.82079397
v 0.72291301 0.20917231 1.81300816
v 0.83197398 0.36147509 0.86317206
v 0.85347470 -0.38536277 0.86272612
v 0.81455758 0.34164414 1.80537214
v 0.86244766 0.38928518 0.86316894
v 1.09190135 -0.44453433 1.85719423
v 0.98200994 -0.45286009 1.80543444
v 1.11519112 -0.49476320 1.84903473
v 0.97027543 0.44686700 0.86316965
v 1.34904019 -0.48138273 1.85066809
v 1.19984120 -0.50026283 0.86318330
v 0.98032837 0.45235940 1.81398320
v 0.97746209 -0.45130834 0.86317386
v 1.15748027 0.49828299 1.86234428
v 1.07326688 0.48273205 0.86316960
v 1.22943843 -0.49972839 0.86317798
v 1.09181750 0.49594007 1.85719126
v 1.23974543 0.49880680 1.81281456
v 1.18940202 0.49928463 0.86317052
v 1.11187708 0.49209264 0.86316960
v 1.11190624 -0.49248062 0.86316964
v 1.45766955 0.43800589 1.85718442
v 1.34329100 0.48268086 1.85718603
v 1.22901924 0.49973713 0.86316405
v 1.49046719 -0.42395014 1.84642636
v 1.63839175 -0.27497162 1.85718235
v 1.34323789 -0.48361700 0.86317041
v 1.63316734 0.28099385 1.85718424
v 1.34293656 0.48362911 0.86318225
v 1.51872611 -0.39935697 0.86317049
v 1.56644026 -0.35784638 0.86316964
v 1.46341921 -0.43366856 0.86316978
v 1.54740258 -0.37573340 0.86316962
v 1.54632915 0.37630503 0.86316961
v 1.72027279 0.05133993 1.85718196
v 1.45678106 0.43835567 0.86316966
v 1.51776929 0.39923906 0.86316972
v 1.63638514 -0.27516371 0.86316966
v 1.72183112 -0.04435858 1.85438533
v 1.59587355 0.32395730 0.86316961
v 1.66749724 0.21838419 0.86316961
v 1.63799158 0.27340357 0.86316962
v 1.69414675 0.16299457 0.86316973
v 1.69368581 -0.16691466 0.86316963
v 1.71960661 -0.05057657 0.86316960
v 1.72288911 0.03961896 0.86316960
vn -0.73289376 -0.17999437 -0.65610118
vn -0.72656489 0.18465843 -0.66181925
vn -0.77929945 -0.22864819 0.58344869
vn -0.59384877 -0.42515241 -0.68307325
vn -0.60880050 0.35986275 -0.70700832
vn -0.99999956 0.00055052 0.00075428
vn -0.56976860 0.43434437 -0.69764512
vn -0.64892516 -0.49133230 0.58093778
vn -0.55645057 -0.65851006 0.50668262
vn -0.72996773 -0.01961430 0.68320012
vn -0.73042227 0.01844218 0.68274680
vn -0.78359137 0.25366122 0.56713363
vn -0.50356484 0.48843339 -0.71263965
vn -0.44928135 -0.57196637 -0.68629494
vn -0.63134122 0.58051388 0.51420998
vn -0.43368954 0.57456161 -0.69411262
vn -0.12501604 -0.13204194 0.98332900
vn -0.44789377 -0.83989141 0.30655112
vn -0.13696449 -0.75452604 0.64181866
vn -0.30032637 0.63930200 -0.70788207
vn 0.17868130 -0.71841391 0.67227558
vn -0.02406271 -0.70200037 -0.71176996
vn -0.50408888 0.81520155 0.28520315
vn -0.28920377 -0.65526847 -0.69784269
vn -0.02603259 0.68143429 0.73141617
vn -0.20957772 0.66510447 -0.71673790
vn 0.05822887 -0.70223088 -0.70956408
vn -0.21798443 0.69749692 0.68262789
vn 0.08218307 0.99471511 0.06154512
vn -0.03713805 0.69585317 -0.71722321
vn -0.12225534 0.69138312 -0.71206953
vn -0.14493882 -0.69741422 -0.70185907
vn 0.40336283 0.61652884 0.67615872
vn 0.20506661 0.71509181 0.66827494
vn 0.04822953 0.70350108 -0.70905581
vn 0.45222505 -0.65116339 0.60949057
vn 0.62933938 -0.38169926 0.67693251
vn 0.20031819 -0.68836539 -0.69715544
vn 0.62412263 0.40206561 0.66993596
vn 0.19486078 0.68782310 -0.69923434
vn 0.42996134 -0.55988526 -0.70828084
vn 0.52792681 -0.47127218 -0.70653791
vn 0.33903344 -0.62083692 -0.70683650
vn 0.48098958 -0.51048787 -0.71277708
vn 0.49741014 0.50742836 -0.70363315
vn 0.72209119 0.12415952 0.68056500
vn 0.34177922 0.62415441 -0.70257970
vn 0.43087002 0.55858308 -0.70875664
vn 0.60672720 -0.38468435 -0.69562925
vn 0.75909140 -0.12066768 0.63970271
vn 0.53901790 0.44971324 -0.71219219
vn 0.63497295 0.30171114 -0.71118193
vn 0.60661790 0.38316514 -0.69656242
vn 0.68550329 0.22737534 -0.69165432
vn 0.68606391 -0.23690163 -0.68789093
vn 0.71277197 -0.08612699 -0.69608783
vn 0.72310660 0.06593697 -0.68758212
f 29//29 35//35 25//25
f 35//35 29//29 40//40
f 25//25 46//46 39//39
f 21//21 38//38 36//36
f 4//4 55//55 49//49
f 1//1 2//2 4//4
f 4//4 3//3 1//1
f 4//4 16//16 20//20
f 4//4 31//31 35//35
f 27//27 38//38 21//21
f 27//27 4//4 38//38
f 3//3 17//17 10//10
f 1//1 3//3 10//10
f 37//37 17//17 21//21
f 21//21 36//36 37//37
f 37//37 46//46 25//25
f 25//25 17//17 37//37
f 49//49 55//55 37//37
f 21//21 17//17 19//19
f 19//19 27//27 21//21
f 24//24 32//32 19//19
f 5//5 12//12 7//7
f 2//2 12//12 5//5
f 7//7 4//4 5//5
f 5//5 4//4 2//2
f 25//25 35//35 30//30
f 35//35 31//31 30//30
f 13//13 4//4 7//7
f 16//16 4//4 13//13
f 35//35 40//40 47//47
f 47//47 4//4 35//35
f 53//53 39//39 52//52
f 52//52 4//4 53//53
f 56//56 4//4 57//57
f 55//55 4//4 56//56
f 38//38 4//4 43//43
f 43//43 4//4 41//41
f 43//43 36//36 38//38
f 41//41 36//36 43//43
f 42//42 4//4 49//49
f 49//49 37//37 42//42
f 42//42 37//37 36//36
f 14//14 32//32 24//24
f 14//14 4//4 32//32
f 57//57 4//4 54//54
f 54//54 4//4 52//52
f 54//54 46//46 57//57
f 54//54 39//39 46//46
f 52//52 39//39 54//54
f 26//26 4//4 20//20
f 31//31 4//4 26//26
f 1//1 10//10 11//11
f 46//46 37//37 50//50
f 50//50 37//37 55//55
f 55//55 56//56 50//50
f 57//57 46//46 50//50
f 50//50 56//56 57//57
f 8//8 17//17 3//3
f 3//3 4//4 8//8
f 8//8 19//19 17//17
f 9//9 19//19 8//8
f 4//4 14//14 8//8
f 8//8 14//14 9//9
f 22//22 19//19 32//32
f 27//27 19//19 22//22
f 32//32 4//4 22//22
f 4//4 27//27 22//22
f 24//24 19//19 18//18
f 18//18 19//19 9//9
f 18//18 14//14 24//24
f 9//9 14//14 18//18
f 25//25 30//30 28//28
f 28//28 30//30 31//31
f 31//31 26//26 28//28
f 12//12 11//11 28//28
f 28//28 26//26 20//20
f 28//28 17//17 25//25
f 28//28 10//10 17//17
f 28//28 11//11 10//10
f 45//45 4//4 48//48
f 4//4 47//47 48//48
f 25//25 39//39 33//33
f 33//33 47//47 40//40
f 33//33 48//48 47//47
f 33//33 39//39 45//45
f 45//45 48//48 33//33
f 51//51 4//4 45//45
f 51//51 53//53 4//4
f 45//45 39//39 51//51
f 39//39 53//53 51//51
f 41//41 4//4 44//44
f 4//4 42//42 44//44
f 44//44 36//36 41//41
f 44//44 42//42 36//36
f 6//6 12//12 2//2
f 6//6 11//11 12//12
f 6//6 2//2 1//1
f 1//1 11//11 6//6
f 12//12 28//28 15//15
f 16//16 13//13 15//15
f 7//7 12//12 15//15
f 15//15 13//13 7//7
f 34//34 29//29 25//25
f 25//25 33//33 34//34
f 34//34 40//40 29//29
f 34//34 33//33 40//40
f 16//16 15//15 23//23
f 23//23 15//15 28//28
f 20//20 16//16 23//23
f 23//23 28//28 20//20

