# https://github.com/mikedh/trimesh
v -2.15714824 0.42355613 -1.43210041
v -2.89767056 0.19001166 -1.44929633
v -2.15714824 -0.42376100 -1.43210041
v -2.72288906 0.31374272 -1.45248712
v -3.01832191 0.17522015 -1.46775877
v -2.77623577 -0.28281850 -1.45153263
v -2.15714824 -0.44478260 -1.43577148
v -2.15720578 0.49927913 -1.45120643
v -2.85950279 0.27542413 -1.47348869
v -2.81868789 -0.29100716 -1.46758132
v -2.55415162 0.40194788 -1.50444501
v -2.65949853 0.36803222 -1.50444501
v -2.79236338 0.31795926 -1.50444501
v -3.09588457 0.06553660 -1.46603184
v -2.15714824 -0.48132595 -1.45613369
v -2.39372892 0.44449829 -1.57563321
v -2.52222684 0.41152983 -2.21438140
v -2.41822415 0.43767620 -2.22119505
v -2.96114382 0.28354250 -2.43210041
v -2.93895054 0.24825799 -1.50444501
v -3.03723444 0.18544985 -1.50444501
v -3.10049640 0.12705380 -1.50444501
v -3.13497045 -0.05972525 -1.49792733
v -2.83413003 -0.30085798 -1.50444501
v -2.72430287 -0.34514999 -1.50444501
v -2.93274444 -0.25233718 -1.50444501
v -2.45026750 -0.41562430 -1.46258869
v -2.98337355 0.26437862 -2.43210041
v -3.14651073 0.04046803 -1.51501158
v -2.96094780 -0.28355181 -2.43210041
v -2.61014243 -0.38418661 -1.50444501
v -2.15714864 -0.50072092 -1.48717378
v -2.59618141 0.38275269 -2.36861687
v -3.10617619 0.12231172 -2.43210041
v -3.11605329 0.10820769 -1.84146777
v -3.14643881 0.05062593 -2.00781628
v -3.15409256 -0.01791732 -1.99438015
v -2.99346013 -0.25412158 -2.43210041
v -3.09699541 -0.13175631 -1.52979988
v -3.03654925 -0.18509914 -1.44907613
v -2.89773481 -0.30332679 -2.43210041
v -2.24232791 0.48093470 -2.07385886
v -3.11158056 -0.11548917 -2.43210032
v -2.97093656 -0.27634091 -2.43210041
v -3.13266601 0.08400841 -2.43210041
v -3.14968116 0.04299185 -2.43210041
v -3.15714821 -0.00000466 -2.43210041
v -2.75790198 -0.33963566 -2.43210041
v -2.43004828 -0.43597064 -1.58190616
v -2.15714824 0.49599817 -2.13150081
v -2.49867800 -0.41742091 -2.08921771
v -2.43697980 0.39802466 -2.43210041
v -2.22185469 0.46467658 -2.27559039
v -3.14857516 -0.04883375 -2.43209891
v -2.15714873 -0.49852101 -2.17202853
v -2.15714848 -0.42570214 -2.43209957
v -2.15714826 0.41741821 -2.43210035
v -2.55008592 -0.38278608 -2.43210043
v -2.91286487 0.29977313 -2.43210041
vn 0.90004616 0.02591574 0.43502332
vn -0.56919923 0.03302812 0.82153599
vn 0.90771395 -0.01774646 0.41921409
vn -0.84312035 0.10122106 0.52811209
vn -0.94147433 0.05137995 0.33314588
vn -0.74331446 -0.09863320 0.66163064
vn 0.87509395 -0.06599157 0.47943267
vn 0.73138384 0.43696506 0.52358305
vn -0.96245336 0.09052023 0.25590939
vn -0.94462226 -0.11171555 0.30855863
vn -0.98076315 0.15407816 0.11984807
vn -0.98204024 0.13532506 0.13146900
vn -0.98795989 0.11490262 0.10359848
vn -0.92876752 0.01584499 0.37032396
vn 0.81766701 -0.20289602 0.53875214
vn -0.98257585 0.18574476 0.00660245
vn -0.98460609 0.17438830 -0.01181409
vn -0.97499523 0.21463483 -0.05758643
vn -0.93174655 0.08778885 -0.35233717
vn -0.99316919 0.08249658 0.08251839
vn -0.99560579 0.06238101 0.06984064
vn -0.99562510 0.03585813 0.08628359
vn -0.99361646 -0.01185991 0.11218588
vn -0.99091532 -0.10744667 0.08088287
vn -0.98486179 -0.12831578 0.11654318
vn -0.99503137 -0.08842139 0.04576280
vn -0.90326531 -0.14833531 0.40262689
vn -0.93145997 0.04519480 -0.36102598
vn -0.99769129 0.00874014 0.06734764
vn -0.92878496 -0.09588973 -0.35799953
vn -0.98273628 -0.14684832 0.11253882
vn 0.79453946 -0.50330655 0.33969039
vn -0.96980148 0.21410237 -0.11681294
vn -0.93112453 0.03405077 -0.36310834
vn -0.99954485 0.03015216 0.00096524
vn -0.99986168 0.01660853 0.00087651
vn -0.99997779 -0.00646322 0.00162870
vn -0.93055677 -0.04129414 -0.36381161
vn -0.99918143 -0.03599674 0.01845814
vn -0.93395630 -0.05330790 0.35338916
vn -0.89457339 -0.14370773 -0.42318618
vn -0.97589195 0.21810498 -0.00806989
vn -0.93268657 -0.03064259 -0.35938392
vn -0.93141439 -0.05335182 -0.36002891
vn -0.93307984 0.02420524 -0.35885390
vn -0.93370262 0.01279720 -0.35782070
vn -0.93488747 0.00006180 -0.35494425
vn -0.87023193 -0.16573571 -0.46392678
vn -0.98395778 -0.17802793 0.01153891
vn 0.88567336 0.45241909 -0.10440149
vn -0.98410782 -0.17743512 -0.00696914
vn -0.72809189 0.23467737 -0.64405646
vn -0.52205548 0.69444526 -0.49518064
vn -0.93471085 -0.01616439 -0.35504132
vn 0.85639774 -0.50051405 -0.12676198
vn 0.85943739 -0.20579372 -0.46799180
vn 0.88339205 0.16706255 -0.43784539
vn -0.79535423 -0.21013134 -0.56855648
vn -0.89796106 0.14174337 -0.41662304
f 52//52 57//57 58//58
f 58//58 57//57 56//56
f 58//58 56//56 55//55
f 1//1 40//40 3//3
f 23//23 40//40 14//14
f 59//59 52//52 58//58
f 58//58 19//19 59//59
f 33//33 52//52 59//59
f 50//50 8//8 1//1
f 29//29 37//37 23//23
f 23//23 14//14 29//29
f 47//47 37//37 29//29
f 2//2 14//14 40//40
f 2//2 40//40 1//1
f 46//46 58//58 47//47
f 46//46 45//45 58//58
f 47//47 29//29 46//46
f 58//58 45//45 34//34
f 12//12 59//59 19//19
f 53//53 52//52 33//33
f 57//57 52//52 53//53
f 53//53 50//50 57//57
f 15//15 27//27 32//32
f 32//32 55//55 15//15
f 15//15 55//55 56//56
f 15//15 56//56 57//57
f 57//57 50//50 15//15
f 7//7 3//3 40//40
f 27//27 15//15 7//7
f 55//55 51//51 48//48
f 58//58 55//55 48//48
f 39//39 40//40 23//23
f 23//23 37//37 54//54
f 54//54 39//39 23//23
f 43//43 39//39 54//54
f 54//54 37//37 47//47
f 47//47 43//43 54//54
f 35//35 34//34 45//45
f 22//22 29//29 14//14
f 22//22 35//35 29//29
f 34//34 35//35 22//22
f 1//1 8//8 4//4
f 4//4 2//2 1//1
f 8//8 12//12 4//4
f 45//45 46//46 36//36
f 36//36 46//46 29//29
f 36//36 35//35 45//45
f 29//29 35//35 36//36
f 28//28 19//19 58//58
f 58//58 34//34 28//28
f 34//34 22//22 28//28
f 8//8 50//50 42//42
f 11//11 12//12 8//8
f 59//59 12//12 11//11
f 11//11 17//17 59//59
f 6//6 7//7 40//40
f 27//27 7//7 6//6
f 40//40 30//30 26//26
f 10//10 25//25 27//27
f 10//10 6//6 40//40
f 27//27 6//6 10//10
f 49//49 55//55 32//32
f 49//49 51//51 55//55
f 32//32 27//27 31//31
f 27//27 25//25 31//31
f 31//31 49//49 32//32
f 31//31 25//25 30//30
f 51//51 49//49 31//31
f 41//41 48//48 51//51
f 41//41 31//31 30//30
f 51//51 31//31 41//41
f 41//41 30//30 58//58
f 58//58 48//48 41//41
f 38//38 39//39 43//43
f 38//38 43//43 47//47
f 47//47 58//58 38//38
f 14//14 2//2 5//5
f 5//5 22//22 14//14
f 2//2 4//4 5//5
f 13//13 19//19 20//20
f 13//13 12//12 19//19
f 18//18 42//42 50//50
f 18//18 53//53 33//33
f 50//50 53//53 18//18
f 33//33 59//59 18//18
f 59//59 17//17 18//18
f 8//8 42//42 16//16
f 16//16 11//11 8//8
f 42//42 18//18 16//16
f 17//17 11//11 16//16
f 16//16 18//18 17//17
f 30//30 25//25 24//24
f 24//24 26//26 30//30
f 25//25 10//10 24//24
f 40//40 26//26 24//24
f 24//24 10//10 40//40
f 58//58 30//30 44//44
f 44//44 38//38 58//58
f 44//44 30//30 40//40
f 40//40 39//39 44//44
f 39//39 38//38 44//44
f 21//21 5//5 20//20
f 22//22 5//5 21//21
f 20//20 19//19 21//21
f 19//19 28//28 21//21
f 21//21 28//28 22//22
f 20//20 5//5 9//9
f 9//9 5//5 4//4
f 9//9 13//13 20//20
f 9//9 4//4 12//12
f 12//12 13//13 9//9
f 7//7 50//50 1//1
f 1//1 3//3 7//7
f 7//7 15//15 50//50

