# https://github.com/mikedh/trimesh
v 0.06699772 -5.07022014 -0.26311861
v -0.00582986 -4.69027324 -0.27617307
v 0.17623353 -4.69360068 -0.21093613
v -0.03232669 -5.20868440 -0.22869912
v -0.08092255 -5.04578164 -0.25806090
v -0.07564520 -4.33432452 -0.25654139
v 0.12001194 -4.24815584 -0.25414725
v 0.21842204 -5.02195033 -0.17105384
v 0.16373035 -5.10900475 -0.19577119
v 0.06900559 -5.22150177 -0.22031640
v -0.13907136 -5.13672604 -0.20593018
v -0.10762700 -4.69027324 -0.25431101
v -0.20947064 -4.22415247 -0.14293826
v -0.17039362 -4.38007807 -0.20678802
v 0.21724927 -4.42485328 -0.16987738
v 0.63967100 -4.22157801 0.25160818
v 0.22184259 -4.77874655 -0.17468115
v 0.40195753 -5.08840370 0.03026339
v 0.32787884 -5.20476935 -0.00216206
v 0.48678655 -5.22150506 0.20285603
v -0.13828958 -5.22135829 -0.15318672
v -0.17822416 -4.89202964 -0.20932470
v 0.62412051 -4.51332660 0.23528148
v 0.49377417 -5.02195033 0.10937856
v 0.52910324 -5.19498258 0.20285603
v 0.35964080 -5.21171830 0.37535062
v 0.19017836 -5.22150506 0.50480735
v -0.24828385 -5.12172783 -0.03448950
v -0.20075078 -5.12496982 -0.14752516
v -0.21796327 -4.70196840 -0.16534322
v 0.55292477 -4.77874655 0.16258768
v 0.59858873 -4.99914708 0.21765948
v 0.14776378 -5.16493710 0.50480735
v -0.26853818 -4.60179992 0.01403840
v -0.25770251 -4.88968080 -0.09023529
v -0.25442476 -4.23351688 -0.06983066
v 0.57414218 -5.14652826 0.22302672
v 0.25888200 -4.97330979 0.61637251
v 0.23680104 -5.13780606 0.56582835
v -0.14884428 -5.16493710 0.20285603
v -0.19125887 -4.22412413 0.09491825
v 0.73146180 -4.22177592 0.36126049
v 0.20900017 -4.98686173 0.61199489
v -0.20864752 -5.22149379 0.09733229
v -0.25932724 -4.96273999 0.07577668
v -0.23477275 -4.45162024 0.12278501
v -0.25353676 -4.25629843 0.03830235
v 0.60486829 -5.00295153 0.25469126
v 0.37534125 -4.22177583 0.72382696
v 0.29812324 -4.22178626 0.70451823
v -0.18593254 -5.00100656 0.20114040
v -0.17102882 -4.57204771 0.22530630
v -0.21063677 -4.23919512 0.14821982
v 0.21124388 -4.22150504 0.61359893
v 0.26219501 -4.22177547 0.66739634
v -0.12386231 -4.77874655 0.27434888
v -0.20739640 -4.77874655 0.18120230
vn 0.04358044 -0.98360497 -0.17499143
vn -0.02438918 0.29230835 -0.95601307
vn 0.38431471 -0.72381070 -0.57306219
vn -0.00536440 -0.99931165 -0.03670753
vn -0.04976052 -0.98429822 -0.16935438
vn -0.03447957 0.99100556 -0.12930247
vn 0.05901249 0.98849751 -0.13924872
vn 0.10995414 -0.98528537 -0.13085422
vn 0.04497116 -0.99683052 -0.06562404
vn 0.01056469 -0.99952468 -0.02896221
vn -0.04301082 -0.99729673 -0.05957607
vn -0.37682946 0.30768598 -0.87368695
vn -0.07065166 0.99612502 -0.05237633
vn -0.11873879 0.98101645 -0.15332261
vn 0.30636000 0.89225981 -0.33168657
vn 0.09279561 0.99205283 -0.08497155
vn 0.64374628 -0.19346605 -0.74037937
vn 0.05259214 -0.99715498 -0.05400019
vn 0.02218511 -0.99947991 -0.02340371
vn 0.00653738 -0.99997858 -0.00031736
vn -0.01251597 -0.99985732 -0.01134380
vn -0.22508540 -0.93880631 -0.26072836
vn 0.63432076 -0.50869890 -0.58211907
vn 0.13386893 -0.98176081 -0.13499933
vn 0.01738160 -0.99981321 -0.00845121
vn 0.00926105 -0.99991046 0.00965968
vn -0.00634077 -0.99982179 0.01778172
vn -0.09481794 -0.99544724 -0.00971371
vn -0.07266061 -0.99614512 -0.04914616
vn -0.81357825 -0.01100251 -0.58135134
vn 0.55405913 -0.62078185 -0.55466059
vn 0.15010715 -0.98351395 -0.10083726
vn -0.03514884 -0.99863078 0.03874436
vn -0.89233838 0.44888941 0.04722836
vn -0.32782823 -0.93778100 -0.11443533
vn -0.11593092 0.99277913 -0.03081592
vn 0.04583624 -0.99887081 -0.01249545
vn 0.01758675 -0.99766974 0.06592261
vn 0.00629820 -0.99948342 0.03151552
vn -0.04183259 -0.99836664 0.03891131
vn -0.00325871 0.99999404 0.00114428
vn 0.46484066 0.87860672 0.10942301
vn -0.08512405 -0.98763381 0.13165619
vn -0.04286718 -0.99890283 0.01885588
vn -0.25958845 -0.96302018 0.07215244
vn -0.38246271 0.90721023 0.17519096
vn -0.11112689 0.99353546 0.02319713
vn 0.06625643 -0.99769226 0.01484062
vn 0.17652911 0.88379578 0.43329261
vn -0.08548239 0.97131438 0.22190342
vn -0.15225715 -0.98050228 0.12422975
vn -0.37188042 0.86600351 0.33427963
vn -0.08318682 0.99508126 0.05378890
vn -0.06717494 0.99556496 0.06586308
vn -0.08043043 0.99349080 0.08066583
vn -0.54383323 -0.64028431 0.54247711
vn -0.77961282 -0.34456796 0.52295007
f 42//42 49//49 38//38
f 10//10 21//21 4//4
f 20//20 27//27 10//10
f 4//4 21//21 11//11
f 38//38 39//39 37//37
f 36//36 53//53 41//41
f 1//1 10//10 4//4
f 44//44 10//10 27//27
f 21//21 10//10 44//44
f 27//27 40//40 44//44
f 47//47 36//36 34//34
f 47//47 53//53 36//36
f 43//43 39//39 38//38
f 43//43 38//38 49//49
f 32//32 37//37 24//24
f 8//8 17//17 24//24
f 37//37 25//25 19//19
f 20//20 10//10 19//19
f 19//19 25//25 20//20
f 26//26 39//39 27//27
f 26//26 37//37 39//39
f 26//26 25//25 37//37
f 26//26 27//27 20//20
f 20//20 25//25 26//26
f 42//42 38//38 48//48
f 38//38 37//37 48//48
f 48//48 32//32 42//42
f 48//48 37//37 32//32
f 7//7 17//17 3//3
f 3//3 17//17 8//8
f 3//3 1//1 7//7
f 8//8 1//1 3//3
f 7//7 16//16 15//15
f 15//15 17//17 7//7
f 16//16 17//17 15//15
f 54//54 49//49 42//42
f 42//42 16//16 54//54
f 54//54 41//41 53//53
f 53//53 52//52 54//54
f 2//2 6//6 7//7
f 7//7 1//1 2//2
f 21//21 44//44 28//28
f 56//56 52//52 57//57
f 57//57 52//52 53//53
f 51//51 43//43 56//56
f 40//40 43//43 51//51
f 56//56 57//57 51//51
f 51//51 44//44 40//40
f 27//27 39//39 33//33
f 39//39 43//43 33//33
f 33//33 40//40 27//27
f 33//33 43//43 40//40
f 13//13 30//30 36//36
f 7//7 6//6 13//13
f 13//13 16//16 7//7
f 36//36 41//41 13//13
f 13//13 54//54 16//16
f 41//41 54//54 13//13
f 14//14 13//13 6//6
f 30//30 13//13 14//14
f 8//8 24//24 18//18
f 18//18 24//24 37//37
f 37//37 19//19 18//18
f 31//31 24//24 17//17
f 32//32 24//24 31//31
f 9//9 19//19 10//10
f 9//9 1//1 8//8
f 10//10 1//1 9//9
f 8//8 18//18 9//9
f 9//9 18//18 19//19
f 50//50 43//43 49//49
f 49//49 54//54 50//50
f 56//56 43//43 50//50
f 50//50 52//52 56//56
f 30//30 14//14 22//22
f 5//5 1//1 4//4
f 5//5 2//2 1//1
f 4//4 11//11 5//5
f 11//11 22//22 5//5
f 29//29 11//11 21//21
f 21//21 28//28 29//29
f 29//29 22//22 11//11
f 46//46 47//47 34//34
f 53//53 47//47 46//46
f 46//46 57//57 53//53
f 44//44 51//51 45//45
f 45//45 51//51 57//57
f 45//45 28//28 44//44
f 45//45 46//46 34//34
f 57//57 46//46 45//45
f 23//23 17//17 16//16
f 23//23 31//31 17//17
f 32//32 31//31 23//23
f 42//42 32//32 23//23
f 23//23 16//16 42//42
f 55//55 54//54 52//52
f 52//52 50//50 55//55
f 55//55 50//50 54//54
f 6//6 2//2 12//12
f 2//2 5//5 12//12
f 12//12 5//5 22//22
f 12//12 14//14 6//6
f 12//12 22//22 14//14
f 30//30 22//22 35//35
f 22//22 29//29 35//35
f 35//35 29//29 28//28
f 36//36 30//30 35//35
f 34//34 36//36 35//35
f 35//35 45//45 34//34
f 28//28 45//45 35//35

