# https://github.com/mikedh/trimesh
v 3.37441188 -2.60159375 -0.39184899
v 2.80250337 -2.59995569 -0.35660439
v 3.43649330 -2.58510835 -0.43095157
v 2.67648782 -2.59543329 -0.29779011
v 3.45644077 -2.54751940 -0.39183425
v 3.43471011 -2.58741489 0.39183425
v 2.75401328 -2.60159363 0.00000000
v 2.62421687 -2.58125454 -0.29779011
v 2.67648782 -2.59543329 0.29779011
v 3.45663332 -2.54681222 0.45338273
v 2.83742059 -2.57824132 0.43422728
v 2.80250337 -2.59995569 0.35660439
v 3.37441165 -2.60159376 0.39184899
v 2.62421687 -2.58125454 0.29779011
v 2.60539832 -2.55764604 0.33404750
v 3.45663654 -2.47031932 -0.43890525
v 2.75571208 -2.55123400 -0.40453550
v 2.86935566 -2.45265026 -0.49917807
v 3.43490588 -2.14870955 -0.48441049
v 3.45659919 -1.83623807 -0.45511322
v 3.20592409 -2.44328126 -0.50001177
v 2.47291479 -2.48042367 -0.29894236
v 2.54669141 -2.53070069 0.29779011
v 3.45661543 -1.83629856 0.45509544
v 3.37446496 -1.78057921 -0.49966399
v 2.87000701 -2.46397851 0.49958645
v 2.47239615 -2.47926643 0.29779011
v 2.49554574 -2.47812463 -0.37079967
v 2.67019828 -2.41780050 -0.45099292
v 3.43236088 -1.78519962 -0.45456298
v 3.43241129 -2.49001338 0.48622007
v 2.45937735 -2.44455334 0.29779011
v 2.45669826 -2.42411492 -0.32725755
v 2.45663658 -1.67265085 -0.29779011
v 2.45663658 -2.39311924 0.29779011
v 2.91962324 -1.61133788 -0.49885302
v 3.33085350 -1.71442880 -0.45456298
v 3.39209815 -1.60263620 -0.04708240
v 3.11906966 -1.61584524 -0.49308816
v 3.43236088 -1.78519962 0.45456298
v 3.37561456 -1.78094323 0.49939211
v 2.83283821 -1.63843636 0.49568987
v 2.46857861 -2.03288504 0.34075096
v 2.53111150 -2.47990452 0.39249369
v 2.45663658 -1.67265085 0.29779011
v 2.73966919 -1.63338138 -0.47638218
v 3.39212986 -1.60263778 0.04697301
v 3.14173835 -1.61417630 0.45456298
v 3.20477674 -1.63246179 0.45456298
v 3.33085350 -1.71442880 0.45456298
v 2.69129298 -2.41883629 0.45665473
v 2.51118446 -1.62266136 -0.38060336
v 2.46965538 -1.63373300 0.00000000
v 2.67648782 -1.61065608 -0.39188317
v 2.52467684 -1.60159378 -0.06774596
v 2.99246536 -1.61044872 0.47705995
v 3.09434394 -1.63713809 0.49998827
v 2.51912057 -1.65491996 0.38257939
v 2.71654943 -1.63761014 0.46775545
v 2.55587852 -1.60547371 0.26141579
vn 0.20452956 -0.97681405 -0.06326105
vn -0.26756995 -0.95066396 -0.15698521
vn 0.76792089 -0.58540814 -0.25999003
vn -0.37183357 -0.92634241 -0.06024560
vn 0.99365971 -0.11188379 -0.01106327
vn 0.80745788 -0.58773588 0.05077703
vn -0.08938974 -0.99599672 -0.00000000
vn -0.69080627 -0.71924163 -0.07401476
vn -0.36776845 -0.92841175 0.05289600
vn 0.85250692 -0.47054553 0.22763756
vn -0.37977442 -0.86637093 0.32430357
vn -0.20576518 -0.97566477 0.07575584
vn 0.22413789 -0.96655829 0.12460853
vn -0.69052212 -0.72122032 0.05495864
vn -0.73237062 -0.66897882 0.12688820
vn 0.97778611 -0.07276772 -0.19656851
vn -0.50352629 -0.80096008 -0.32392008
vn -0.49740409 -0.52213633 -0.69279349
vn 0.92789305 -0.03507081 -0.37119338
vn 0.98927208 0.09043179 -0.11472944
vn 0.36553614 -0.42433063 -0.82844845
vn -0.94046744 -0.33929353 -0.02002229
vn -0.83733822 -0.54549951 0.03598579
vn 0.98933922 0.08547245 0.11790831
vn 0.81013937 0.31531171 -0.49421931
vn -0.48605731 -0.45436974 0.74652290
vn -0.94086966 -0.33568367 0.04561536
vn -0.91763538 -0.33694436 -0.21074586
vn -0.88044357 -0.19215049 -0.43347123
vn 0.93528464 0.33753468 -0.10636253
vn 0.81654751 -0.30224461 0.49183164
vn -0.99465801 -0.08768389 0.05447001
vn -0.99572295 -0.06646568 -0.06417266
vn -0.98529577 0.16670230 -0.03745113
vn -0.99830867 -0.01659939 0.05571583
vn -0.19831727 0.82075441 -0.53575410
vn 0.80967861 0.57439026 -0.12040089
vn 0.78167153 0.62363214 -0.00851882
vn 0.42595124 0.80788389 -0.40729492
vn 0.93531216 0.33769663 0.10560373
vn 0.81346333 0.31155567 0.49113182
vn -0.49106630 0.63189077 0.59963984
vn -0.99315081 -0.00006398 0.11683946
vn -0.92049400 -0.31143416 0.23600755
vn -0.96377676 0.26176667 0.05111339
vn -0.74179536 0.49235048 -0.45533575
vn 0.78169296 0.62361226 0.00799125
vn 0.35442005 0.92664163 0.12538626
vn 0.69857359 0.69603632 0.16591676
vn 0.82906737 0.54603359 0.12039360
vn -0.87906598 -0.12148198 0.46096109
vn -0.84853292 0.49704302 -0.18149414
vn -0.92103377 0.38944257 0.00559251
vn -0.12100078 0.99189012 -0.03889467
vn -0.51299945 0.85837326 -0.00518837
vn -0.01648300 0.97874474 0.20441878
vn 0.32315874 0.70624449 0.62991043
vn -0.89262837 0.40360404 0.20079438
vn -0.74073481 0.56896594 0.35719700
vn -0.51726441 0.85520571 0.03256872
f 16//16 19//19 20//20
f 3//3 19//19 16//16
f 30//30 20//20 25//25
f 25//25 20//20 19//19
f 38//38 20//20 30//30
f 5//5 3//3 16//16
f 7//7 1//1 13//13
f 17//17 18//18 3//3
f 16//16 20//20 24//24
f 55//55 38//38 36//36
f 42//42 26//26 57//57
f 34//34 35//35 45//45
f 44//44 58//58 43//43
f 58//58 45//45 43//43
f 43//43 45//45 35//35
f 19//19 3//3 21//21
f 3//3 18//18 21//21
f 21//21 25//25 19//19
f 21//21 36//36 25//25
f 18//18 36//36 21//21
f 1//1 7//7 2//2
f 2//2 7//7 4//4
f 2//2 3//3 1//1
f 2//2 17//17 3//3
f 8//8 23//23 22//22
f 8//8 2//2 4//4
f 17//17 2//2 8//8
f 22//22 23//23 27//27
f 4//4 7//7 9//9
f 47//47 38//38 55//55
f 20//20 38//38 47//47
f 47//47 24//24 20//20
f 13//13 1//1 6//6
f 1//1 3//3 6//6
f 10//10 5//5 16//16
f 16//16 24//24 10//10
f 3//3 5//5 10//10
f 10//10 6//6 3//3
f 13//13 6//6 10//10
f 25//25 36//36 39//39
f 39//39 36//36 38//38
f 44//44 26//26 51//51
f 60//60 47//47 55//55
f 60//60 45//45 58//58
f 34//34 45//45 53//53
f 53//53 52//52 34//34
f 55//55 52//52 53//53
f 53//53 60//60 55//55
f 45//45 60//60 53//53
f 18//18 17//17 28//28
f 28//28 29//29 18//18
f 28//28 8//8 22//22
f 17//17 8//8 28//28
f 28//28 52//52 29//29
f 32//32 27//27 44//44
f 44//44 43//43 32//32
f 32//32 43//43 35//35
f 22//22 27//27 32//32
f 23//23 8//8 14//14
f 12//12 7//7 13//13
f 12//12 9//9 7//7
f 24//24 47//47 40//40
f 31//31 10//10 24//24
f 55//55 36//36 54//54
f 54//54 52//52 55//55
f 36//36 52//52 54//54
f 46//46 52//52 36//36
f 29//29 52//52 46//46
f 46//46 36//36 18//18
f 18//18 29//29 46//46
f 37//37 38//38 30//30
f 37//37 39//39 38//38
f 30//30 25//25 37//37
f 25//25 39//39 37//37
f 57//57 48//48 56//56
f 56//56 42//42 57//57
f 48//48 47//47 56//56
f 47//47 60//60 56//56
f 34//34 52//52 33//33
f 52//52 28//28 33//33
f 33//33 28//28 22//22
f 33//33 35//35 34//34
f 22//22 32//32 33//33
f 33//33 32//32 35//35
f 13//13 10//10 11//11
f 11//11 12//12 13//13
f 11//11 31//31 26//26
f 10//10 31//31 11//11
f 11//11 26//26 44//44
f 11//11 14//14 9//9
f 9//9 12//12 11//11
f 49//49 48//48 57//57
f 49//49 47//47 48//48
f 24//24 40//40 41//41
f 41//41 31//31 24//24
f 41//41 49//49 57//57
f 57//57 26//26 41//41
f 26//26 31//31 41//41
f 42//42 56//56 59//59
f 59//59 56//56 60//60
f 59//59 60//60 58//58
f 59//59 58//58 44//44
f 44//44 51//51 59//59
f 26//26 42//42 59//59
f 59//59 51//51 26//26
f 15//15 11//11 44//44
f 14//14 11//11 15//15
f 23//23 14//14 15//15
f 44//44 27//27 15//15
f 15//15 27//27 23//23
f 50//50 41//41 40//40
f 49//49 41//41 50//50
f 50//50 40//40 47//47
f 47//47 49//49 50//50
f 4//4 9//9 14//14
f 14//14 8//8 4//4

