# https://github.com/mikedh/trimesh
v -0.33160540 -0.49890149 -0.79459926
v 0.57112220 -0.49990770 -0.78254140
v 0.55225712 -0.48951502 -0.68900792
v -0.31620365 -0.49061201 -0.69089290
v 0.57924406 -0.49106111 -0.87655046
v 0.59022334 -0.39378020 -0.78469434
v 0.58031501 -0.46190857 -0.59272469
v -0.36832574 -0.47234608 -0.95350282
v 0.58000995 -0.46187203 -0.97675767
v 0.55225712 -0.19110299 -0.32332072
v -0.36263309 -0.26771025 -0.34313033
v -0.31243844 -0.09523372 -0.29426626
v -0.31245182 0.00054950 -0.28456428
v -0.36814039 -0.46191470 -0.59358223
v 0.58006610 -0.27778771 -0.36916384
v 0.57966874 -0.09623406 -0.29391791
v -0.36263309 0.26790604 -0.34313057
v -0.36852864 0.48099478 -0.64512526
v -0.31245464 0.09712225 -0.29388913
v -0.32474989 -0.35182822 -0.43004317
v -0.36832678 -0.34738373 -1.14334066
v -0.32458384 0.37959658 -0.46291894
v 0.62942178 0.35645381 -0.43441431
v 0.56015566 -0.41537943 -0.50575724
v -0.34344719 -0.39401170 -1.08879540
v 0.57997314 -0.35707542 -0.43505214
v 0.55225712 -0.36492407 -1.12360159
v 0.57958610 0.09642770 -0.29394635
v -0.35410958 0.46188732 -0.59263095
v 0.58040306 0.20141591 -0.32831857
v -0.36834575 0.34819319 -1.14314296
v -0.31243844 -0.19027189 -1.24616582
v 0.58026683 -0.27928535 -1.19951586
v -0.31243844 0.27981017 -1.19793740
v -0.31242053 0.19110920 -1.24689546
v -0.31235465 0.09166448 -1.27518368
v -0.31243844 0.00000000 -1.28402460
v 0.57620490 -0.10380202 -1.27433714
v -0.31235047 -0.09784254 -1.27523592
v 0.55225712 -0.19324184 -1.24446606
v -0.31217222 -0.27626233 -1.20135506
v 0.57993921 0.00007052 -1.28456433
v 0.60104515 -0.08218134 -1.06531518
v 0.55225712 0.35768866 -1.13241819
v 0.57950209 0.27843893 -1.19989495
v 0.57334806 0.19102145 -1.24667390
v 0.55225712 0.08741165 -1.27600284
v -0.21393497 0.49634710 -0.82195396
v 0.57978216 0.41666439 -0.50818395
v 0.57337974 0.46723143 -0.60922751
v -0.33967633 0.49252147 -0.69685595
v 0.57912578 0.50009226 -0.78286195
v -0.36832959 0.46215878 -0.97561364
v 0.58006631 0.41696812 -1.06029841
v -0.36832522 0.41294984 -1.06591344
v 0.55225712 0.49063944 -0.69139244
v 0.63147133 0.00210628 -0.79150732
v 0.11751347 0.48885807 -0.88551359
v 0.58004785 0.46591039 -0.96422886
vn -0.40632300 -0.91363187 -0.01335754
vn 0.60361566 -0.79687980 0.02511408
vn 0.19998812 -0.96214941 0.18513039
vn -0.17232310 -0.97154005 0.16252594
vn 0.71741848 -0.68574663 -0.12272847
vn 0.99695303 -0.07795591 0.00274404
vn 0.71825521 -0.64585724 0.25880087
vn -0.73134291 -0.64373172 -0.22527100
vn 0.71033436 -0.63762376 -0.29809571
vn 0.19453329 -0.37188948 0.90766459
vn -0.71013289 -0.35286691 0.60925875
vn -0.33403754 -0.14693590 0.93103639
vn -0.48806017 -0.00127642 0.87280905
vn -0.73749063 -0.61681285 0.27504450
vn 0.71956721 -0.38399823 0.57859173
vn 0.68886077 -0.12760554 0.71357387
vn -0.70933676 0.35866082 0.60679798
vn -0.75202894 0.63548753 0.17495162
vn -0.34334136 0.14534697 0.92789599
vn -0.19075654 -0.76433764 0.61595447
vn -0.74898864 -0.44044178 -0.49500208
vn -0.24714201 0.76787785 0.59100291
vn 0.75752904 0.45526344 0.46785141
vn 0.25834545 -0.80300178 0.53707148
vn -0.20360116 -0.80536845 -0.55671198
vn 0.72051487 -0.49845243 0.48208245
vn 0.33292074 -0.71777944 -0.61151979
vn 0.62794343 0.10478043 0.77117321
vn -0.47097734 0.76862415 0.43289405
vn 0.47444993 0.34844736 0.80838215
vn -0.74701087 0.43726318 -0.50077507
vn -0.43369845 -0.32188722 -0.84160221
vn 0.71626286 -0.39713272 -0.57380582
vn -0.15183404 0.52660717 -0.83643966
vn -0.45301826 0.31134435 -0.83536768
vn -0.58647543 0.13532644 -0.79858207
vn -0.62581550 0.00212140 -0.77996825
vn 0.68624704 -0.16177268 -0.70915062
vn -0.58600751 -0.14101105 -0.79794178
vn 0.16735448 -0.38423378 -0.90794101
vn -0.18378075 -0.51321241 -0.83835414
vn 0.71982919 0.00606924 -0.69412470
vn 0.99706121 -0.02144620 -0.07354587
vn 0.17911170 0.70072594 -0.69058103
vn 0.71712318 0.39146011 -0.57662235
vn 0.64418993 0.27308122 -0.71445502
vn 0.19637088 0.18877779 -0.96218575
vn -0.05857811 0.99435694 -0.08844702
vn 0.25838699 0.83446972 0.48672010
vn 0.50374856 0.81866891 0.27571472
vn -0.27757496 0.95969730 0.04396853
vn 0.66372767 0.74736803 -0.03010976
vn -0.73686265 0.63908863 -0.22045217
vn 0.71366095 0.57951378 -0.39351217
vn -0.74401204 0.55206204 -0.37639551
vn 0.18438927 0.96476740 0.18768180
vn 0.99973402 -0.01518221 -0.01736051
vn 0.00040012 0.98019596 -0.19802957
vn 0.69674843 0.67571632 -0.24072615
f 43//43 42//42 57//57
f 31//31 21//21 18//18
f 21//21 31//31 37//37
f 57//57 26//26 7//7
f 23//23 26//26 57//57
f 54//54 23//23 57//57
f 51//51 52//52 48//48
f 33//33 27//27 21//21
f 33//33 9//9 27//27
f 42//42 43//43 33//33
f 33//33 43//43 57//57
f 57//57 9//9 33//33
f 42//42 33//33 38//38
f 38//38 33//33 40//40
f 32//32 38//38 40//40
f 57//57 7//7 6//6
f 5//5 7//7 2//2
f 5//5 6//6 7//7
f 5//5 9//9 57//57
f 57//57 6//6 5//5
f 16//16 23//23 28//28
f 28//28 23//23 30//30
f 50//50 23//23 52//52
f 57//57 42//42 45//45
f 45//45 54//54 57//57
f 52//52 23//23 59//59
f 23//23 54//54 59//59
f 36//36 37//37 31//31
f 31//31 35//35 36//36
f 42//42 37//37 36//36
f 21//21 37//37 39//39
f 39//39 32//32 21//21
f 38//38 32//32 39//39
f 39//39 37//37 42//42
f 42//42 38//38 39//39
f 41//41 33//33 21//21
f 21//21 32//32 41//41
f 40//40 33//33 41//41
f 41//41 32//32 40//40
f 26//26 23//23 15//15
f 23//23 16//16 15//15
f 15//15 11//11 26//26
f 29//29 50//50 18//18
f 28//28 30//30 17//17
f 17//17 29//29 18//18
f 17//17 30//30 23//23
f 18//18 14//14 17//17
f 17//17 14//14 11//11
f 52//52 51//51 56//56
f 56//56 50//50 52//52
f 56//56 51//51 18//18
f 18//18 50//50 56//56
f 26//26 11//11 20//20
f 11//11 14//14 20//20
f 7//7 14//14 4//4
f 46//46 45//45 42//42
f 35//35 45//45 46//46
f 46//46 36//36 35//35
f 44//44 45//45 31//31
f 54//54 45//45 44//44
f 34//34 35//35 31//31
f 31//31 45//45 34//34
f 34//34 45//45 35//35
f 48//48 52//52 58//58
f 52//52 59//59 58//58
f 55//55 44//44 31//31
f 54//54 44//44 55//55
f 55//55 31//31 18//18
f 10//10 16//16 11//11
f 11//11 15//15 10//10
f 10//10 15//15 16//16
f 23//23 50//50 49//49
f 50//50 29//29 49//49
f 13//13 16//16 28//28
f 13//13 17//17 11//11
f 26//26 20//20 24//24
f 24//24 20//20 14//14
f 24//24 7//7 26//26
f 24//24 14//14 7//7
f 2//2 7//7 3//3
f 3//3 4//4 2//2
f 7//7 4//4 3//3
f 1//1 5//5 2//2
f 2//2 4//4 1//1
f 1//1 4//4 14//14
f 42//42 36//36 47//47
f 47//47 46//46 42//42
f 36//36 46//46 47//47
f 53//53 58//58 59//59
f 53//53 59//59 54//54
f 54//54 55//55 53//53
f 48//48 58//58 53//53
f 53//53 51//51 48//48
f 18//18 51//51 53//53
f 53//53 55//55 18//18
f 29//29 17//17 22//22
f 22//22 49//49 29//29
f 22//22 17//17 23//23
f 23//23 49//49 22//22
f 28//28 17//17 19//19
f 19//19 13//13 28//28
f 17//17 13//13 19//19
f 11//11 16//16 12//12
f 12//12 13//13 11//11
f 16//16 13//13 12//12
f 9//9 5//5 8//8
f 5//5 1//1 8//8
f 8//8 1//1 14//14
f 18//18 21//21 8//8
f 8//8 14//14 18//18
f 25//25 8//8 21//21
f 9//9 8//8 25//25
f 21//21 27//27 25//25
f 27//27 9//9 25//25

