# https://github.com/mikedh/trimesh
v -1.56523512 0.04986186 -3.20890884
v -1.57813685 -0.12124092 -3.23507621
v -1.57098230 0.23235215 -3.41181865
v -1.36286261 0.25675299 -3.03099783
v -1.38612463 -0.03598930 -3.05100959
v -1.35918691 -0.28670307 -3.03099783
v -1.56659261 -0.27662094 -3.24573198
v -1.56263036 0.27231748 -3.39106249
v -0.92921161 -0.38644778 -3.99676196
v -1.57472049 -0.23978946 -3.40743441
v -1.36322545 0.31533488 -3.05254902
v -1.10379000 -0.47347007 -3.03100959
v -1.33468396 -0.33282747 -3.03100000
v -1.58698521 0.28130671 -3.27497515
v -1.09758194 0.45242566 -3.74014039
v -0.95780326 0.44863263 -3.94570245
v -0.94965869 -0.44924092 -3.95649310
v -1.33015506 -0.36231915 -3.56565054
v -1.09787541 0.47582015 -3.03099783
v -1.09141845 0.47347091 -3.63223385
v -1.21273730 0.42230159 -3.60069564
v -0.91817061 -0.41929993 -4.00135908
v -1.60226300 -0.27499914 -3.30563396
v -1.09151633 -0.47346741 -3.63223385
v -1.05487793 0.48859412 -3.03099783
v -0.85671752 0.00000175 -4.03099780
v -1.06357279 -0.47749293 -3.69886612
v -0.92481527 -0.47583348 -3.89624784
v -1.05473114 0.48061652 -3.67235541
v -1.00119133 0.49791549 -3.03103204
v -0.98611060 0.47568250 -3.83121420
v -0.89188908 0.42568526 -4.03077517
v -0.80237138 0.00000175 -4.02991865
v -1.05200346 -0.48920810 -3.03099814
v -0.83171511 0.47222288 -3.96432555
v -0.78474923 -0.43906547 -4.00308763
v -0.99270577 -0.49868952 -3.03100147
v -0.77973035 0.50000814 -3.03102246
v -1.10258017 0.49605999 -3.03224928
v -0.74232646 -0.47890615 -3.91837019
v -0.68162423 0.43714644 -3.89928422
v -0.78892318 -0.49999189 -3.03099941
v -0.72947915 0.49562026 -3.03104061
v -0.73870052 0.43929991 -3.98510372
v -0.74274224 0.00000175 -4.00738094
v -0.73062249 -0.49561691 -3.03100176
v -0.67582678 0.47577815 -3.03101530
v -0.68986358 0.00000175 -3.96002458
v -0.69124853 -0.42527440 -3.94039909
v -0.67592296 -0.47560463 -3.03100279
v -0.65185553 0.41141189 -3.83294007
v -0.60232256 0.43403117 -3.03099790
v -0.66139422 0.00000175 -3.89520706
v -0.65185553 -0.41140840 -3.83294007
v -0.60235211 0.19492113 -3.19513083
v -0.65156203 0.00000175 -3.83294007
v -0.60235211 -0.00019402 -3.24259284
v -0.60235211 -0.21272045 -3.18798813
v -0.60226302 -0.43399101 -3.03099793
vn -0.76208126 0.00832557 0.64742786
vn -0.80220350 -0.01468784 0.59687002
vn -0.83783311 0.07429087 -0.54084798
vn -0.34828399 0.04763432 0.93617799
vn -0.56567047 -0.00241746 0.82462784
vn -0.36178919 -0.05727638 0.93049879
vn -0.73525814 -0.26960629 0.62185844
vn -0.81970654 0.34458572 -0.45753894
vn -0.49852052 -0.02130762 -0.86661599
vn -0.79351200 -0.13186883 -0.59409538
vn -0.51340449 0.23274360 0.82598199
vn -0.36249209 -0.46237260 0.80920397
vn -0.38907374 -0.23471650 0.89080289
vn -0.91708498 0.31631796 0.24268928
vn -0.66541373 0.57251449 -0.47901121
vn -0.55618879 0.44851629 -0.69963359
vn -0.47004950 -0.43645311 -0.76717805
vn -0.70942059 -0.47064450 -0.52461051
vn -0.01567737 0.01197991 0.99980533
vn -0.58826348 0.78605064 -0.18992229
vn -0.70137412 0.65419463 -0.28302604
vn -0.30298320 -0.17820822 -0.93618535
vn -0.94524567 -0.32247505 0.05020432
vn -0.56076697 -0.81877015 -0.12310911
vn -0.00608356 0.01563894 0.99985920
vn -0.10977313 -0.01062625 -0.99389987
vn -0.48573018 -0.81187717 -0.32391614
vn -0.25463304 -0.84906958 -0.46286376
vn -0.34886656 0.91231632 -0.21440860
vn -0.01616335 0.54591682 0.83768346
vn -0.38178032 0.84058356 -0.38426952
vn -0.21759546 0.22139857 -0.95059712
vn 0.15855886 -0.00502252 -0.98733675
vn -0.24839637 -0.51943484 0.81761035
vn 0.09910919 0.77311250 -0.62647779
vn 0.18964218 -0.29030672 -0.93795408
vn -0.09322353 -0.56078226 0.82269838
vn 0.04938146 0.56203514 0.82563792
vn -0.28725813 0.56918561 0.77039634
vn 0.46771532 -0.73025769 -0.49796193
vn 0.80693097 0.41707280 -0.41822564
vn 0.03827536 -0.55440927 0.83136355
vn 0.26125644 0.55469136 0.78997631
vn 0.52114549 0.32537022 -0.78901305
vn 0.44491937 -0.00063527 -0.89557040
vn 0.24594004 -0.54810982 0.79943050
vn 0.44048984 0.45295816 0.77511135
vn 0.75027252 0.00165844 -0.66112661
vn 0.75714649 -0.20459995 -0.62037734
vn 0.43659626 -0.44587118 0.78139784
vn 0.95890127 0.16566196 -0.23035726
vn 0.71589865 0.23681378 0.65681684
vn 0.93912105 0.00199205 -0.34358069
vn 0.95323518 -0.21664362 -0.21073262
vn 0.99895932 0.00730495 -0.04502118
vn 0.98927792 0.00000006 -0.14604518
vn 0.99864766 -0.00005566 -0.05198894
vn 0.99895034 -0.00770467 -0.04515370
vn 0.71507878 -0.23521273 0.65828361
f 59//59 6//6 34//34
f 25//25 6//6 59//59
f 26//26 22//22 32//32
f 13//13 34//34 6//6
f 30//30 25//25 38//38
f 23//23 3//3 10//10
f 52//52 25//25 59//59
f 48//48 49//49 45//45
f 7//7 13//13 6//6
f 7//7 2//2 23//23
f 6//6 2//2 7//7
f 50//50 40//40 59//59
f 59//59 46//46 50//50
f 50//50 46//46 40//40
f 6//6 25//25 19//19
f 19//19 4//4 6//6
f 1//1 2//2 6//6
f 9//9 32//32 22//22
f 22//22 10//10 9//9
f 3//3 32//32 9//9
f 9//9 10//10 3//3
f 23//23 27//27 24//24
f 24//24 27//27 34//34
f 17//17 10//10 22//22
f 34//34 27//27 37//37
f 36//36 49//49 40//40
f 40//40 17//17 36//36
f 36//36 17//17 22//22
f 36//36 45//45 49//49
f 36//36 22//22 26//26
f 59//59 40//40 54//54
f 40//40 49//49 54//54
f 38//38 25//25 47//47
f 25//25 52//52 47//47
f 26//26 32//32 33//33
f 33//33 36//36 26//26
f 45//45 36//36 33//33
f 34//34 13//13 12//12
f 13//13 7//7 12//12
f 12//12 7//7 23//23
f 23//23 24//24 12//12
f 12//12 24//24 34//34
f 35//35 32//32 16//16
f 16//16 3//3 8//8
f 16//16 32//32 3//3
f 4//4 19//19 39//39
f 39//39 19//19 25//25
f 25//25 30//30 39//39
f 6//6 4//4 5//5
f 5//5 1//1 6//6
f 4//4 1//1 5//5
f 14//14 1//1 4//4
f 8//8 3//3 14//14
f 14//14 21//21 8//8
f 14//14 3//3 23//23
f 20//20 21//21 14//14
f 14//14 39//39 20//20
f 23//23 2//2 14//14
f 2//2 1//1 14//14
f 18//18 27//27 23//23
f 18//18 17//17 27//27
f 23//23 10//10 18//18
f 10//10 17//17 18//18
f 28//28 17//17 40//40
f 27//27 17//17 28//28
f 40//40 37//37 28//28
f 28//28 37//37 27//27
f 34//34 37//37 42//42
f 59//59 34//34 42//42
f 42//42 46//46 59//59
f 40//40 46//46 42//42
f 42//42 37//37 40//40
f 53//53 49//49 48//48
f 53//53 54//54 49//49
f 43//43 35//35 38//38
f 38//38 47//47 43//43
f 44//44 32//32 35//35
f 44//44 33//33 32//32
f 45//45 33//33 44//44
f 48//48 45//45 44//44
f 15//15 21//21 20//20
f 8//8 21//21 15//15
f 15//15 16//16 8//8
f 4//4 39//39 11//11
f 11//11 14//14 4//4
f 39//39 14//14 11//11
f 54//54 53//53 56//56
f 56//56 53//53 51//51
f 56//56 57//57 54//54
f 51//51 57//57 56//56
f 35//35 43//43 41//41
f 41//41 44//44 35//35
f 41//41 43//43 47//47
f 41//41 47//47 52//52
f 52//52 51//51 41//41
f 48//48 44//44 41//41
f 41//41 53//53 48//48
f 51//51 53//53 41//41
f 59//59 54//54 58//58
f 58//58 57//57 59//59
f 54//54 57//57 58//58
f 55//55 51//51 52//52
f 55//55 57//57 51//51
f 55//55 52//52 59//59
f 59//59 57//57 55//55
f 16//16 15//15 31//31
f 35//35 16//16 31//31
f 29//29 15//15 20//20
f 29//29 31//31 15//15
f 20//20 39//39 29//29
f 29//29 39//39 30//30
f 29//29 30//30 38//38
f 38//38 35//35 29//29
f 35//35 31//31 29//29

