# https://github.com/mikedh/trimesh
v 2.19987727 0.01536805 0.49929321
v 1.19989130 0.01536805 0.49929321
v 1.82488253 -0.05926365 0.49353834
v 1.26552273 -0.11516249 0.48531535
v 2.19987727 0.12512235 0.48299384
v 1.19996079 0.13255241 0.48356179
v 2.19987727 -0.13831244 0.47984148
v 2.19987673 -0.24895932 0.43546785
v 1.19989130 0.28354418 0.40866314
v 1.19988622 -0.24815943 0.43585596
v 2.19987636 0.24683456 0.43701631
v 1.19989130 0.36080657 0.34460810
v 2.19981361 -0.34897098 0.35859332
v 2.19987727 0.34825273 0.35711976
v 1.19987800 -0.34636557 0.36086897
v 2.19987727 0.39702427 0.29974210
v 1.19989130 0.42843944 0.25790014
v 1.19989130 -0.43363352 0.25101506
v 2.19987727 -0.43216523 0.25292114
v 2.19987711 -0.45475063 0.20661068
v 1.19989065 0.48347156 0.13673399
v 2.19987727 -0.48541503 0.11394891
v 2.19987750 0.47967009 0.16167189
v 1.19988923 -0.48435045 0.12942855
v 1.19989130 -0.49999999 0.01534633
v 2.19987727 -0.49999999 0.01534633
v 1.19989130 -0.49999999 -0.01534633
v 2.19987727 -0.49999999 -0.01534633
v 2.19987727 0.49999999 0.01534633
v 1.19989130 0.49999999 0.01534633
v 2.19987727 0.49999999 -0.01534633
v 1.19989130 0.49999999 -0.01534633
v 2.19987727 -0.48570868 -0.11430325
v 1.19989130 0.49023590 -0.08957318
v 1.19989131 -0.48603410 -0.11203188
v 2.19987727 0.49021142 -0.08978090
v 2.19987726 -0.47239126 -0.16507071
v 1.19989130 0.46680450 -0.17289665
v 2.19987727 0.47462314 -0.15485616
v 2.19987722 0.45681155 -0.20234351
v 2.19987727 -0.44337296 -0.23160215
v 1.19989130 0.43363352 -0.25101506
v 1.19989141 -0.44087233 -0.24217298
v 2.19987727 0.43216523 -0.25292114
v 2.19987728 -0.35549661 -0.35386900
v 2.19987727 0.40150253 -0.29385282
v 2.19987727 0.34690680 -0.35848823
v 1.19989133 0.35427550 -0.35511915
v 1.19989485 -0.35027924 -0.35743144
v 1.19989130 0.22691449 -0.44359912
v 1.19989130 -0.25107673 -0.43302056
v 2.19987727 -0.25107673 -0.43302056
v 2.19987727 0.24831710 -0.43593322
v 2.19987728 -0.13228520 -0.48348238
v 2.19987727 0.13831244 -0.47984148
v 1.19989133 -0.13113329 -0.48350533
v 1.19989131 0.13832693 -0.47983258
v 1.19989130 0.06350783 -0.49298677
v 2.19987803 -0.00001012 -0.50070675
v 1.19989130 -0.01536805 -0.49929321
vn 0.93747139 0.00608932 0.34800907
vn -0.93778004 0.00308871 0.34721616
vn 0.01622816 -0.12017217 0.99262042
vn -0.64874749 -0.17646478 0.74026136
vn 0.93890208 0.08635382 0.33317548
vn -0.93532780 0.10108865 0.33903244
vn 0.93775117 -0.09015977 0.33540120
vn 0.93617865 -0.17449582 0.30515693
vn -0.93906239 0.18966764 0.28668453
vn -0.93590885 -0.16922911 0.30892740
vn 0.93508636 0.17533812 0.30800982
vn -0.93834180 0.24855145 0.24028492
vn 0.93678502 -0.24638964 0.24844714
vn 0.93878134 0.23913627 0.24799886
vn -0.93709312 -0.24469775 0.24895683
vn 0.94056983 0.27554976 0.19849614
vn -0.93806944 0.29567147 0.18056606
vn -0.93642621 -0.30207741 0.17848025
vn 0.93812546 -0.29348087 0.18381946
vn 0.94107610 -0.31296739 0.12816858
vn -0.93658612 0.33738428 0.09475386
vn 0.94012334 -0.33184626 0.07775702
vn 0.93244462 0.34140695 0.11827225
vn -0.93671496 -0.33806295 0.09098645
vn -0.94049746 -0.33901611 0.02307830
vn 0.94031218 -0.33942779 0.02453118
vn -0.94026959 -0.33956034 -0.02432860
vn 0.94027248 -0.33955267 -0.02432391
vn 0.94048678 0.33903241 0.02327317
vn -0.94053323 0.33892870 0.02290382
vn 0.94068259 0.33856709 -0.02210401
vn -0.94068128 0.33857034 -0.02210981
vn 0.94121793 -0.33108813 -0.06700337
vn -0.94064368 0.33266314 -0.06726592
vn -0.93940312 -0.33347190 -0.07948754
vn 0.94153732 0.33131660 -0.06112930
vn 0.93995659 -0.32275609 -0.11095096
vn -0.94155301 0.31788670 -0.11147184
vn 0.94070286 0.32437544 -0.09929102
vn 0.94174154 0.30928977 -0.13214655
vn 0.93906432 -0.29932393 -0.16900706
vn -0.93725633 0.30134575 -0.17533199
vn -0.93483113 -0.31137046 -0.17070209
vn 0.93889997 0.29390542 -0.17912693
vn 0.93571566 -0.25205424 -0.24678909
vn 0.94350980 0.26018846 -0.20516145
vn 0.93925783 0.23833021 -0.24696850
vn -0.93551540 0.24580626 -0.25375227
vn -0.93713406 -0.24488439 -0.24861897
vn -0.93902493 0.16314854 -0.30267927
vn -0.93692868 -0.17550212 -0.30226421
vn 0.93702217 -0.17547010 -0.30199288
vn 0.93567005 0.17611607 -0.30578536
vn 0.93628071 -0.09261489 -0.33882284
vn 0.93785143 0.09160315 -0.33472909
vn -0.93662396 -0.09257025 -0.33788505
vn -0.93823564 0.09595122 -0.33242631
vn -0.94228545 0.04329186 -0.33199991
vn 0.93630855 0.00316959 -0.35116415
vn -0.93849098 -0.01045536 -0.34514544
f 53//53 47//47 59//59
f 48//48 47//47 53//53
f 59//59 1//1 7//7
f 7//7 19//19 59//59
f 1//1 3//3 7//7
f 3//3 4//4 7//7
f 22//22 26//26 59//59
f 59//59 19//19 22//22
f 29//29 21//21 23//23
f 23//23 1//1 59//59
f 10//10 7//7 4//4
f 54//54 60//60 59//59
f 29//29 23//23 31//31
f 15//15 21//21 34//34
f 13//13 19//19 8//8
f 19//19 7//7 8//8
f 7//7 10//10 8//8
f 15//15 13//13 8//8
f 8//8 10//10 15//15
f 24//24 25//25 26//26
f 26//26 22//22 24//24
f 14//14 11//11 5//5
f 1//1 23//23 5//5
f 5//5 23//23 14//14
f 9//9 11//11 14//14
f 14//14 23//23 16//16
f 33//33 37//37 59//59
f 41//41 45//45 59//59
f 59//59 37//37 41//41
f 37//37 33//33 35//35
f 59//59 45//45 52//52
f 52//52 54//54 59//59
f 60//60 54//54 56//56
f 15//15 60//60 56//56
f 48//48 53//53 50//50
f 53//53 57//57 50//50
f 15//15 48//48 50//50
f 50//50 57//57 15//15
f 58//58 60//60 15//15
f 15//15 57//57 58//58
f 59//59 60//60 58//58
f 55//55 53//53 59//59
f 55//55 57//57 53//53
f 59//59 58//58 55//55
f 55//55 58//58 57//57
f 46//46 47//47 48//48
f 59//59 47//47 46//46
f 46//46 44//44 59//59
f 42//42 48//48 15//15
f 42//42 46//46 48//48
f 44//44 46//46 42//42
f 40//40 44//44 42//42
f 36//36 31//31 23//23
f 30//30 21//21 29//29
f 20//20 22//22 19//19
f 20//20 24//24 22//22
f 15//15 24//24 18//18
f 18//18 13//13 15//15
f 18//18 19//19 13//13
f 18//18 20//20 19//19
f 24//24 20//20 18//18
f 2//2 10//10 4//4
f 15//15 10//10 2//2
f 2//2 9//9 15//15
f 2//2 3//3 1//1
f 2//2 4//4 3//3
f 15//15 9//9 12//12
f 12//12 9//9 14//14
f 14//14 16//16 12//12
f 59//59 26//26 28//28
f 28//28 33//33 59//59
f 43//43 41//41 37//37
f 37//37 35//35 43//43
f 49//49 45//45 43//43
f 45//45 41//41 43//43
f 43//43 35//35 15//15
f 27//27 24//24 15//15
f 15//15 35//35 27//27
f 25//25 24//24 27//27
f 27//27 35//35 33//33
f 33//33 28//28 27//27
f 54//54 52//52 51//51
f 51//51 56//56 54//54
f 51//51 45//45 49//49
f 51//51 52//52 45//45
f 49//49 43//43 51//51
f 15//15 56//56 51//51
f 51//51 43//43 15//15
f 15//15 34//34 38//38
f 38//38 42//42 15//15
f 40//40 42//42 38//38
f 39//39 36//36 23//23
f 39//39 23//23 59//59
f 59//59 44//44 39//39
f 39//39 44//44 40//40
f 40//40 38//38 39//39
f 34//34 36//36 39//39
f 39//39 38//38 34//34
f 32//32 34//34 21//21
f 21//21 30//30 32//32
f 31//31 36//36 32//32
f 32//32 36//36 34//34
f 1//1 5//5 6//6
f 6//6 2//2 1//1
f 9//9 2//2 6//6
f 6//6 5//5 11//11
f 11//11 9//9 6//6
f 17//17 21//21 15//15
f 15//15 12//12 17//17
f 17//17 23//23 21//21
f 17//17 16//16 23//23
f 17//17 12//12 16//16
f 27//27 28//28 26//26
f 26//26 25//25 27//27
f 32//32 30//30 29//29
f 29//29 31//31 32//32

