# https://github.com/mikedh/trimesh
v 0.85150255 0.49994556 1.49610989
v 0.85150255 0.49965190 1.43648289
v 0.85150255 0.49984767 1.58961353
v 1.85150157 0.49201683 1.87688037
v 1.85150157 0.49201683 1.26905747
v 1.85150157 0.49172318 1.19307960
v 0.85150255 0.49730263 1.36256116
v 0.85150299 0.49965190 1.64924063
v 0.85150162 0.49162328 1.19302138
v 0.85150255 0.49211472 1.87688037
v 1.85150157 0.48976544 1.95285816
v 1.85150157 0.48526267 1.14432029
v 0.85150255 0.48506695 1.14471224
v 0.85150255 0.48947179 1.95285816
v 1.85150157 0.45344988 1.10633169
v 0.85150255 0.46010611 1.11543727
v 0.85150255 0.48291345 1.99681963
v 1.85150158 0.48320758 1.99740662
v 1.85150157 0.43857757 2.04097357
v 1.85150157 0.42002192 1.07382568
v 0.85150255 0.41830891 1.07372779
v 0.85150255 0.43940327 1.09399507
v 0.85150254 0.44478954 2.03400087
v 1.85150157 0.37827367 1.06706992
v 0.85150255 0.38600663 1.06941977
v 0.85150255 0.37631596 2.06535640
v 1.85150157 0.38835590 2.06653135
v 0.85150255 0.37631596 1.06824482
v 0.85150255 0.36045848 2.06545424
v 1.85150157 0.37631596 2.06672714
v 0.85150255 -0.01840801 1.06814692
v 0.85150255 0.30789386 2.06565014
v 1.85150157 0.33725956 2.06682509
v 1.85150157 0.18896278 1.06682513
v 1.85150157 -0.37632697 1.06687408
v 0.85150255 -0.37567182 2.06564270
v 1.85150158 -0.37612731 2.06682437
v 0.85150255 -0.37633788 1.06824482
v 0.85150255 -0.44474905 2.03402535
v 1.85150157 -0.43858224 2.04097689
v 1.85150157 -0.41822202 1.07289555
v 0.85150255 -0.41832011 1.07372781
v 0.85150255 -0.48292446 1.99681963
v 1.85150157 -0.45346089 1.10633169
v 0.85150255 -0.45257989 1.10672332
v 0.85150255 -0.48449066 1.98673502
v 1.85150157 -0.48321221 1.99744610
v 0.85150255 -0.47763866 1.13590037
v 0.85150255 -0.48948280 1.95285816
v 1.85150157 -0.48977646 1.95285816
v 0.85150255 -0.48511836 1.14476090
v 1.85150157 -0.49202784 1.87688037
v 0.85150255 -0.49540488 1.82136560
v 0.85150255 -0.49946715 1.70896537
v 1.85150151 -0.48470507 1.14377056
v 0.85150255 -0.49163631 1.19307960
v 1.85150157 -0.49202784 1.26905747
v 0.85150255 -0.50005445 1.55573683
v 1.85150157 -0.49173419 1.19307960
v 0.85150255 -0.49985868 1.49610989
vn -0.40119706 0.91598942 -0.00207582
vn -0.39922344 0.91663963 -0.01980974
vn -0.40167857 0.91577769 0.00235744
vn 0.40016678 0.91627060 0.01774076
vn 0.40370589 0.91488592 -0.00230530
vn 0.38873188 0.91805714 -0.07783708
vn -0.40035342 0.91562110 -0.03681217
vn -0.39875715 0.91684762 0.01957493
vn -0.39108792 0.91541512 -0.09521238
vn -0.40280623 0.91448477 0.03827207
vn 0.38940019 0.91566686 0.09960769
vn 0.34267239 0.82894708 -0.44206603
vn -0.34219563 0.82619822 -0.44754737
vn -0.38973176 0.91510554 0.10339729
vn 0.37375358 0.61026520 -0.69848740
vn -0.37835472 0.61685354 -0.69017347
vn -0.33534399 0.80174295 0.49472482
vn 0.33513596 0.80244252 0.49373059
vn 0.35025820 0.47208410 0.80898442
vn 0.32491576 0.36263604 -0.87345569
vn -0.32345178 0.35006263 -0.87911040
vn -0.37920049 0.58187286 -0.71946574
vn -0.34720554 0.45833396 0.81815542
vn 0.35481714 0.06126402 -0.93292632
vn -0.36810211 0.09546922 -0.92487105
vn -0.33563536 0.16722166 0.92703065
vn 0.33286979 0.18817052 0.92400734
vn -0.35826749 0.04578823 -0.93249549
vn -0.36858278 0.00372540 0.92958747
vn 0.36722151 0.00708973 0.93010650
vn -0.36875433 -0.00000991 -0.92952689
vn -0.36845208 0.00138452 0.92964571
vn 0.36825161 0.00095265 0.92972568
vn 0.36835179 0.00044137 -0.92968638
vn 0.35611842 -0.05410893 -0.93287293
vn -0.33502788 -0.16509082 0.92763212
vn 0.33713056 -0.15085605 0.92929298
vn -0.35750037 -0.04931263 -0.93261018
vn -0.34706536 -0.45792847 0.81844190
vn 0.34335420 -0.44501353 0.82708576
vn 0.32433118 -0.35113888 -0.87835686
vn -0.32318166 -0.34961168 -0.87938916
vn -0.33567623 -0.79982870 0.49758970
vn 0.37226745 -0.60707263 -0.70205396
vn -0.37444427 -0.60409614 -0.70346239
vn -0.40111070 -0.90048062 0.16806205
vn 0.33510134 -0.80234086 0.49391927
vn -0.38486347 -0.63649946 -0.66839251
vn -0.39102259 -0.91401046 0.10810282
vn 0.38950822 -0.91559631 0.09983358
vn -0.34256592 -0.82747587 -0.44489580
vn 0.40030183 -0.91621565 0.01753048
vn -0.40187482 -0.91455766 0.04561704
vn -0.39864082 -0.91684917 0.02175078
vn 0.34349160 -0.82649545 -0.44600313
vn -0.39048588 -0.91607916 -0.09121260
vn 0.40370421 -0.91488659 -0.00233289
vn -0.40116698 -0.91600490 0.00026955
vn 0.38764180 -0.91803273 -0.08336515
vn -0.39966730 -0.91651766 -0.01616863
f 9//9 39//39 36//36
f 37//37 34//34 24//24
f 24//24 18//18 37//37
f 37//37 18//18 27//27
f 60//60 58//58 9//9
f 9//9 56//56 60//60
f 51//51 56//56 9//9
f 38//38 42//42 9//9
f 9//9 58//58 54//54
f 43//43 39//39 9//9
f 32//32 36//36 37//37
f 9//9 36//36 32//32
f 14//14 17//17 18//18
f 9//9 17//17 14//14
f 9//9 26//26 23//23
f 23//23 17//17 9//9
f 26//26 27//27 23//23
f 9//9 42//42 45//45
f 52//52 54//54 58//58
f 28//28 24//24 34//34
f 25//25 24//24 28//28
f 9//9 25//25 28//28
f 30//30 27//27 26//26
f 37//37 27//27 30//30
f 9//9 2//2 7//7
f 7//7 6//6 9//9
f 2//2 6//6 7//7
f 18//18 17//17 19//19
f 17//17 23//23 19//19
f 19//19 27//27 18//18
f 19//19 23//23 27//27
f 48//48 51//51 9//9
f 9//9 45//45 48//48
f 53//53 49//49 9//9
f 9//9 54//54 53//53
f 31//31 28//28 34//34
f 31//31 38//38 9//9
f 9//9 28//28 31//31
f 29//29 30//30 26//26
f 32//32 30//30 29//29
f 29//29 26//26 9//9
f 9//9 32//32 29//29
f 33//33 32//32 37//37
f 37//37 30//30 33//33
f 33//33 30//30 32//32
f 18//18 24//24 20//20
f 20//20 15//15 18//18
f 12//12 6//6 18//18
f 18//18 15//15 12//12
f 9//9 6//6 12//12
f 18//18 6//6 5//5
f 5//5 4//4 18//18
f 9//9 14//14 10//10
f 11//11 14//14 18//18
f 18//18 4//4 11//11
f 11//11 10//10 14//14
f 11//11 4//4 8//8
f 8//8 10//10 11//11
f 44//44 48//48 45//45
f 44//44 45//45 42//42
f 51//51 48//48 44//44
f 50//50 52//52 37//37
f 50//50 47//47 49//49
f 49//49 53//53 50//50
f 54//54 52//52 50//50
f 50//50 53//53 54//54
f 49//49 47//47 46//46
f 46//46 47//47 43//43
f 9//9 49//49 46//46
f 46//46 43//43 9//9
f 9//9 12//12 13//13
f 13//13 16//16 9//9
f 13//13 12//12 15//15
f 15//15 16//16 13//13
f 15//15 20//20 22//22
f 22//22 16//16 15//15
f 9//9 16//16 22//22
f 4//4 5//5 1//1
f 1//1 6//6 2//2
f 1//1 5//5 6//6
f 1//1 2//2 9//9
f 42//42 38//38 35//35
f 35//35 31//31 34//34
f 38//38 31//31 35//35
f 35//35 34//34 37//37
f 56//56 51//51 59//59
f 59//59 60//60 56//56
f 59//59 44//44 37//37
f 40//40 50//50 37//37
f 47//47 50//50 40//40
f 37//37 36//36 40//40
f 40//40 36//36 39//39
f 39//39 43//43 40//40
f 43//43 47//47 40//40
f 21//21 22//22 20//20
f 21//21 24//24 25//25
f 21//21 20//20 24//24
f 21//21 25//25 9//9
f 9//9 22//22 21//21
f 8//8 4//4 3//3
f 4//4 1//1 3//3
f 3//3 10//10 8//8
f 9//9 10//10 3//3
f 3//3 1//1 9//9
f 41//41 44//44 42//42
f 42//42 35//35 41//41
f 37//37 44//44 41//41
f 41//41 35//35 37//37
f 51//51 44//44 55//55
f 55//55 59//59 51//51
f 44//44 59//59 55//55
f 58//58 60//60 57//57
f 60//60 59//59 57//57
f 57//57 52//52 58//58
f 37//37 52//52 57//57
f 57//57 59//59 37//37

