# https://github.com/mikedh/trimesh
v 0.81547148 1.27684787 0.38645080
v 1.00832511 0.28862174 0.65591010
v 0.96813911 0.28862174 0.66083686
v 0.90984252 0.28862174 0.67200742
v 0.86353805 0.28862174 0.68986079
v 0.78308561 0.28870643 0.73778551
v 1.39070389 0.28862174 0.69503145
v 0.83916216 1.21415866 0.40362126
v 1.05756641 0.28862174 0.65678813
v 0.77467347 1.27751950 0.39716060
v 0.83425680 1.28862172 0.39345504
v 1.39070389 0.82786524 0.69864115
v 1.39070389 0.74476333 0.69503145
v 0.40347601 1.27705884 0.77027997
v 0.74506033 0.28862174 0.77990819
v 0.71013621 0.28862174 0.82576116
v 1.39070389 0.96001570 0.74488434
v 1.39070389 0.89558511 0.72010423
v 1.39070389 0.28862174 1.34401009
v 0.69075292 0.28862174 0.85649240
v 0.67185916 0.28862174 0.90861355
v 0.39070393 1.27684787 0.80644438
v 1.25443375 1.18320098 0.87522382
v 1.25443375 1.20506489 0.92458892
v 0.92878519 1.27684787 0.47520554
v 0.97043964 1.27684787 0.53279001
v 1.02236285 0.28862199 1.38626551
v 1.39070389 0.74476333 1.34389958
v 0.39432611 1.27684787 0.82576116
v 0.65751747 0.28862174 0.97497839
v 0.65727274 0.28862174 1.07287932
v 1.30367504 1.16646458 1.02341667
v 0.97778176 1.27684787 0.57698447
v 0.41596101 1.27684787 0.87161412
v 0.66882448 0.28862174 1.12234198
v 0.68781603 0.28862174 1.17414607
v 1.25601530 1.20467093 1.11794463
v 1.39070389 0.96862576 1.27063238
v 1.39067897 1.00030963 0.88535329
v 1.01283671 0.74311076 1.38645083
v 1.39070389 0.86438562 1.32580229
v 1.10105354 1.12588452 1.31454375
v 1.01818847 1.12544018 1.33004694
v 0.44199221 1.27683977 0.90296750
v 0.71522680 0.28862174 1.22126732
v 0.74439156 0.28862185 1.25834608
v 1.19777743 1.20256658 1.21830135
v 1.39070389 0.95566225 1.29931491
v 0.89198240 0.80714214 1.36209265
v 0.87981593 0.28862178 1.35418056
v 0.78150179 0.74476333 1.30019295
v 0.78326388 0.82428579 1.29853442
v 0.84285155 1.27684787 0.72484502
v 1.07657573 1.20363895 1.28581043
v 0.90984252 1.19809936 1.27063238
v 0.81462394 1.08983373 1.27155097
v 0.49479135 1.27684862 0.95470039
v 0.58796294 1.27684787 0.97336867
v 0.54080188 1.27684787 0.97583204
v 0.78136648 0.28862174 1.30017745
vn -0.06357600 0.54445107 -0.83637978
vn -0.00638770 -0.98271492 -0.18501507
vn -0.02594078 -0.98467320 -0.17246962
vn -0.04748381 -0.98419871 -0.17058190
vn -0.07767351 -0.98424914 -0.15880948
vn -0.12761756 -0.98060155 -0.14877619
vn 0.34670393 -0.90760069 -0.23676437
vn 0.04949154 -0.86999206 -0.49057558
vn 0.01575965 -0.98114188 -0.19264538
vn -0.34893741 0.70178768 -0.62107708
vn 0.14622046 0.92046156 -0.36245014
vn 0.72859299 0.52230776 -0.44311044
vn 0.85080892 0.06933143 -0.52088131
vn -0.56433628 0.75641395 -0.33070003
vn -0.14053374 -0.98269956 -0.12063105
vn -0.14584954 -0.98383396 -0.10391652
vn 0.46602602 0.87450573 -0.13438558
vn 0.64194565 0.71734399 -0.27078290
vn 0.33672941 -0.89187253 0.30195479
vn -0.16134887 -0.98354551 -0.08126978
vn -0.16840193 -0.98452254 -0.04854030
vn -0.64767318 0.75741800 -0.08268873
vn 0.13575598 0.98869907 -0.06359602
vn 0.10418695 0.99426667 -0.02405964
vn 0.12765737 0.98373979 -0.12633140
vn 0.08191226 0.99523566 -0.05288056
vn -0.01644350 -0.92856601 0.37080289
vn 0.66363970 0.36123845 0.65504895
vn -0.52972231 0.83661995 0.13950391
vn -0.18526498 -0.98255385 -0.01627308
vn -0.21024952 -0.97704960 0.03419391
vn 0.17743383 0.98413132 0.00166509
vn 0.02403761 0.99971103 0.00023433
vn -0.39800760 0.89091857 0.21875571
vn -0.22207121 -0.97220684 0.07415014
vn -0.24732960 -0.95990230 0.13196831
vn 0.09472710 0.99501905 0.03104621
vn 0.49025729 0.87039331 0.04542328
vn 0.51429315 0.85726434 -0.02450326
vn -0.02893508 0.43622263 0.89937343
vn 0.54893747 0.70057131 0.45592487
vn 0.08141481 0.93045440 0.35724815
vn -0.02143318 0.91450125 0.40401496
vn -0.26502272 0.93695292 0.22777659
vn -0.26295792 -0.94463280 0.19627022
vn -0.26161900 -0.93851181 0.22528003
vn 0.06730832 0.99446909 0.08062772
vn 0.41703594 0.88090641 0.22379661
vn -0.27232387 0.54223725 0.79487010
vn -0.12992286 -0.93150486 0.33973333
vn -0.62519509 0.09725526 0.77438525
vn -0.51659245 0.52429040 0.67694300
vn 0.00828449 0.99993278 0.00811169
vn 0.03094330 0.98905954 0.14423499
vn -0.06580268 0.97952929 0.19024293
vn -0.23188158 0.89448624 0.38226340
vn -0.18573880 0.96244023 0.19801490
vn 0.00331029 0.99987608 0.01539047
vn -0.01756499 0.99893075 0.04276491
vn -0.23258461 -0.92755630 0.29247856
f 22//22 11//11 14//14
f 40//40 49//49 27//27
f 10//10 14//14 11//11
f 6//6 14//14 10//10
f 22//22 14//14 21//21
f 11//11 53//53 33//33
f 33//33 53//53 47//47
f 60//60 49//49 51//51
f 51//51 49//49 52//52
f 43//43 49//49 40//40
f 60//60 19//19 50//50
f 19//19 27//27 50//50
f 50//50 49//49 60//60
f 50//50 27//27 49//49
f 40//40 27//27 28//28
f 28//28 27//27 19//19
f 28//28 43//43 40//40
f 41//41 43//43 28//28
f 1//1 10//10 11//11
f 1//1 11//11 7//7
f 10//10 1//1 4//4
f 25//25 17//17 11//11
f 7//7 11//11 13//13
f 11//11 12//12 13//13
f 11//11 17//17 18//18
f 18//18 12//12 11//11
f 52//52 49//49 56//56
f 49//49 43//43 56//56
f 56//56 57//57 52//52
f 8//8 9//9 2//2
f 2//2 1//1 8//8
f 7//7 9//9 8//8
f 8//8 1//1 7//7
f 6//6 10//10 5//5
f 10//10 4//4 5//5
f 3//3 1//1 2//2
f 3//3 4//4 1//1
f 60//60 51//51 46//46
f 22//22 21//21 30//30
f 45//45 19//19 60//60
f 60//60 46//46 45//45
f 7//7 19//19 45//45
f 37//37 33//33 47//47
f 37//37 24//24 33//33
f 37//37 48//48 38//38
f 47//47 48//48 37//37
f 39//39 38//38 17//17
f 23//23 24//24 17//17
f 33//33 24//24 26//26
f 11//11 33//33 26//26
f 26//26 25//25 11//11
f 24//24 23//23 26//26
f 17//17 25//25 26//26
f 26//26 23//23 17//17
f 44//44 51//51 52//52
f 52//52 57//57 44//44
f 44//44 46//46 51//51
f 44//44 57//57 11//11
f 11//11 57//57 59//59
f 54//54 48//48 47//47
f 41//41 48//48 42//42
f 42//42 43//43 41//41
f 42//42 54//54 43//43
f 48//48 54//54 42//42
f 6//6 5//5 15//15
f 15//15 14//14 6//6
f 22//22 30//30 31//31
f 29//29 31//31 35//35
f 22//22 31//31 29//29
f 29//29 11//11 22//22
f 17//17 24//24 32//32
f 32//32 39//39 17//17
f 24//24 37//37 32//32
f 32//32 37//37 38//38
f 38//38 39//39 32//32
f 34//34 45//45 46//46
f 46//46 44//44 34//34
f 34//34 44//44 11//11
f 11//11 29//29 34//34
f 47//47 53//53 58//58
f 58//58 54//54 47//47
f 59//59 54//54 58//58
f 58//58 53//53 11//11
f 11//11 59//59 58//58
f 57//57 56//56 55//55
f 55//55 59//59 57//57
f 55//55 54//54 59//59
f 55//55 56//56 43//43
f 43//43 54//54 55//55
f 20//20 21//21 14//14
f 36//36 29//29 35//35
f 45//45 34//34 36//36
f 36//36 34//34 29//29
f 14//14 15//15 16//16
f 16//16 20//20 14//14
f 17//17 38//38 48//48
f 48//48 19//19 7//7
f 48//48 28//28 19//19
f 7//7 13//13 48//48
f 41//41 28//28 48//48
f 48//48 18//18 17//17
f 48//48 13//13 12//12
f 12//12 18//18 48//48
f 2//2 9//9 16//16
f 16//16 9//9 7//7
f 7//7 45//45 16//16
f 16//16 30//30 21//21
f 16//16 3//3 2//2
f 16//16 5//5 4//4
f 4//4 3//3 16//16
f 35//35 31//31 16//16
f 21//21 20//20 16//16
f 16//16 15//15 5//5
f 16//16 31//31 30//30
f 16//16 36//36 35//35
f 45//45 36//36 16//16

