# https://github.com/mikedh/trimesh
v 3.26376146 -0.50440898 0.90114095
v 2.62975597 -0.43030953 0.90114095
v 3.26376146 0.49559104 0.90114095
v 3.26376146 -0.44127273 1.87020910
v 2.44504570 -0.40270579 1.84759754
v 2.34950928 -0.39595164 1.82498591
v 2.62456803 -0.42903702 0.90114095
v 2.34950928 -0.39595164 1.71202583
v 2.34950928 -0.39585376 1.68951214
v 2.65481471 0.43323788 0.90114095
v 2.34950928 0.39594346 1.82498591
v 2.44504570 0.40269757 1.84759754
v 3.26376146 -0.42149980 1.88890532
v 2.54058212 -0.40231425 1.87020910
v 2.28275129 -0.37285062 1.76850587
v 2.28284909 -0.37275273 1.68951214
v 2.64081705 0.43088864 0.90114095
v 2.34950928 0.39584558 1.68951214
v 2.34950928 0.39594346 1.71202583
v 2.28759659 0.37015059 1.83954642
v 2.40278357 0.38236182 1.87039264
v 3.26376146 -0.38205189 1.89654039
v 2.34471290 -0.37926215 1.85650513
v 2.26376144 -0.33261963 1.82498591
v 2.54899545 -0.40816323 0.90114500
v 2.26390825 -0.33261963 1.70076899
v 2.28500262 -0.37138234 1.66690058
v 2.46090317 -0.37843014 0.90114095
v 2.53182467 0.40290392 0.90114096
v 2.28294704 0.37382129 1.71202583
v 2.26385935 0.31083187 1.82498591
v 2.54058212 0.38018385 1.89105878
v 3.26376146 0.44187604 1.87153154
v 2.58835033 -0.33261963 1.90089627
v 2.44504570 -0.33261963 1.89389749
v 2.47441141 -0.37452693 1.88651931
v 2.29342079 -0.01089388 1.86147281
v 2.27443100 -0.33261963 1.84759754
v 2.26390825 0.28699670 1.70076899
v 2.26816630 -0.33261963 1.66690058
v 2.42781782 -0.33261963 0.90114095
v 2.45757504 -0.37412312 0.90114095
v 2.46109898 0.37910712 0.90114095
v 2.28407270 0.37308715 1.67820636
v 2.26405513 0.33466703 1.70076899
v 3.26376146 0.41395443 1.89174397
v 3.26376146 -0.30878446 1.90109205
v 2.54058212 0.00102370 1.90084729
v 2.44504570 0.31083187 1.89384852
v 2.36086402 -0.33261963 1.87852942
v 2.27447990 0.31083187 1.84759754
v 2.26816630 0.28699670 1.66690058
v 2.42654528 -0.28494930 0.90114095
v 2.42751830 0.33382524 0.90114098
v 2.36086402 0.33466703 1.87852942
v 2.58835033 0.33466703 1.90089627
v 3.26376146 0.36187923 1.90006429
v 2.63611854 0.00102370 1.90114099
v 2.42659425 0.28929701 0.90114095
v 3.26376146 0.31083187 1.90109205
vn 0.82635826 -0.52049288 -0.21498649
vn -0.53635011 -0.76300668 -0.36076220
vn 0.83282657 0.51060890 -0.21372518
vn 0.85380638 -0.51690725 0.06181877
vn -0.41781993 -0.90565550 0.07221231
vn -0.77481049 -0.63136304 0.03239465
vn -0.67671079 -0.64867258 -0.34826196
vn -0.67146032 -0.74104049 -0.00017024
vn -0.68616270 -0.72744044 -0.00333981
vn -0.43408036 0.81433147 -0.38527717
vn -0.66929135 0.74241976 0.02935969
vn -0.38720982 0.91872029 0.07759881
vn 0.89328325 -0.40344353 0.19818766
vn -0.32947261 -0.92937927 0.16643907
vn -0.94689555 -0.32152577 0.00316197
vn -0.94807378 -0.31801380 -0.00483128
vn -0.59969815 0.71653207 -0.35629190
vn -0.67912681 0.73401294 -0.00343152
vn -0.66098436 0.75039966 -0.00018038
vn -0.94852732 0.30979850 0.06573292
vn -0.75960775 0.61887318 0.19998012
vn 0.96067836 -0.14050527 0.23948976
vn -0.86842012 -0.48071716 0.12148046
vn -0.99246755 -0.12122540 0.01767959
vn -0.73142910 -0.59713834 -0.32929815
vn -0.99840763 -0.05633332 -0.00295979
vn -0.96685122 -0.25514355 -0.01002426
vn -0.90037832 -0.36258384 -0.24052409
vn -0.72001353 0.60982260 -0.33120525
vn -0.94517746 0.32655703 0.00027063
vn -0.99905813 0.04160188 0.01233415
vn -0.51065697 0.77051444 0.38149305
vn 0.84999403 0.52133062 0.07566062
vn -0.35259797 -0.44183169 0.82489965
vn -0.87045308 -0.23017899 0.43511959
vn -0.64807212 -0.68130496 0.34033231
vn -0.99044757 -0.00002882 0.13788985
vn -0.98719801 -0.13956116 0.07721896
vn -0.99999368 0.00038010 -0.00353488
vn -0.99853155 -0.05336952 -0.00929701
vn -0.97101878 -0.08734026 -0.22247292
vn -0.95192475 -0.17659341 -0.25030790
vn -0.90223427 0.35894717 -0.23901937
vn -0.94887922 0.31551194 -0.00896929
vn -0.99821417 0.05963661 -0.00345519
vn 0.90849379 0.35995037 0.21230817
vn 0.97084380 -0.03146625 0.23763878
vn -0.55410605 0.00019802 0.83244606
vn -0.88268439 0.14054839 0.44845783
vn -0.96167957 -0.16593324 0.21826260
vn -0.99530112 0.04930198 0.08333664
vn -0.99993251 0.00599845 -0.00994926
vn -0.97075750 -0.00315801 -0.24004148
vn -0.97101201 0.08930640 -0.22172063
vn -0.95621203 0.18223161 0.22902006
vn -0.42400324 0.34439364 0.83762418
vn 0.96406632 0.10039086 0.24596301
vn -0.02719481 -0.00000000 0.99963015
vn -0.97071629 0.00252074 -0.24021558
vn 0.97246713 0.01016103 0.23281845
f 33//33 1//1 3//3
f 4//4 1//1 33//33
f 33//33 3//3 12//12
f 1//1 4//4 5//5
f 5//5 6//6 1//1
f 1//1 6//6 2//2
f 13//13 4//4 33//33
f 7//7 2//2 9//9
f 40//40 52//52 53//53
f 33//33 12//12 32//32
f 34//34 47//47 58//58
f 3//3 10//10 11//11
f 11//11 12//12 3//3
f 30//30 20//20 11//11
f 59//59 54//54 43//43
f 53//53 52//52 59//59
f 52//52 54//54 59//59
f 45//45 54//54 52//52
f 45//45 20//20 30//30
f 45//45 31//31 20//20
f 22//22 47//47 34//34
f 34//34 13//13 22//22
f 33//33 47//47 22//22
f 22//22 13//13 33//33
f 14//14 5//5 4//4
f 4//4 13//13 14//14
f 25//25 28//28 7//7
f 7//7 9//9 25//25
f 25//25 9//9 28//28
f 8//8 2//2 6//6
f 8//8 9//9 2//2
f 41//41 40//40 53//53
f 28//28 9//9 16//16
f 9//9 8//8 16//16
f 60//60 57//57 56//56
f 60//60 58//58 47//47
f 56//56 58//58 60//60
f 60//60 47//47 33//33
f 33//33 57//57 60//60
f 33//33 32//32 46//46
f 46//46 57//57 33//33
f 46//46 32//32 56//56
f 56//56 57//57 46//46
f 50//50 35//35 55//55
f 43//43 29//29 17//17
f 44//44 29//29 43//43
f 43//43 54//54 44//44
f 44//44 45//45 30//30
f 54//54 45//45 44//44
f 24//24 31//31 39//39
f 31//31 45//45 39//39
f 39//39 45//45 52//52
f 5//5 14//14 23//23
f 6//6 5//5 23//23
f 50//50 38//38 23//23
f 28//28 16//16 27//27
f 40//40 41//41 27//27
f 15//15 8//8 6//6
f 15//15 16//16 8//8
f 15//15 38//38 24//24
f 6//6 23//23 15//15
f 15//15 23//23 38//38
f 48//48 35//35 34//34
f 34//34 58//58 48//48
f 48//48 58//58 56//56
f 20//20 55//55 21//21
f 21//21 55//55 32//32
f 21//21 32//32 12//12
f 12//12 11//11 21//21
f 21//21 11//11 20//20
f 56//56 32//32 49//49
f 32//32 55//55 49//49
f 49//49 48//48 56//56
f 49//49 55//55 35//35
f 35//35 48//48 49//49
f 51//51 55//55 20//20
f 20//20 31//31 51//51
f 51//51 31//31 24//24
f 24//24 38//38 51//51
f 50//50 55//55 37//37
f 37//37 38//38 50//50
f 55//55 51//51 37//37
f 37//37 51//51 38//38
f 30//30 11//11 19//19
f 19//19 11//11 10//10
f 24//24 39//39 26//26
f 26//26 15//15 24//24
f 16//16 15//15 26//26
f 40//40 27//27 26//26
f 26//26 27//27 16//16
f 36//36 23//23 14//14
f 34//34 35//35 36//36
f 36//36 35//35 50//50
f 50//50 23//23 36//36
f 36//36 13//13 34//34
f 36//36 14//14 13//13
f 28//28 27//27 42//42
f 42//42 27//27 41//41
f 10//10 17//17 18//18
f 18//18 19//19 10//10
f 18//18 17//17 29//29
f 29//29 44//44 18//18
f 18//18 44//44 30//30
f 30//30 19//19 18//18
f 26//26 39//39 52//52
f 52//52 40//40 26//26
f 53//53 59//59 42//42
f 42//42 3//3 1//1
f 1//1 2//2 42//42
f 42//42 10//10 3//3
f 42//42 2//2 7//7
f 7//7 28//28 42//42
f 42//42 41//41 53//53
f 42//42 59//59 43//43
f 43//43 17//17 42//42
f 42//42 17//17 10//10

