# https://github.com/mikedh/trimesh
v -0.00844453 -0.50047150 0.01845835
v 0.94953008 -0.49777499 -0.01527233
v -0.02043105 -0.49563604 -0.03161736
v 0.96137150 -0.48273475 -0.12335027
v 0.07581841 -0.47803237 -0.14873378
v 0.01127009 -0.47168271 0.14540527
v 0.73789505 -0.41966876 -0.45929566
v -0.03861712 -0.42007255 -0.25233254
v 0.44168055 -0.41457402 -0.47798634
v -0.00340793 -0.44495705 0.21655377
v 0.47852140 -0.39830214 -0.50001471
v 0.39985263 -0.40161658 -0.49230029
v 0.77437402 -0.40267838 -0.49892996
v 0.94983388 -0.01963081 -0.49826438
v 0.94953008 -0.20318341 -0.45254057
v 0.94953008 -0.27785453 -0.41112907
v 0.94953008 -0.37001185 -0.32969502
v -0.01838314 -0.01942831 -0.49775826
v 0.95279796 -0.48302736 0.12169505
v 0.65011681 -0.42154467 0.45163502
v 0.43092075 -0.39183506 0.49986815
v 0.41699555 -0.40559602 0.49548826
v -0.03852628 -0.25177689 -0.42092437
v 0.78625771 -0.40446654 0.48367264
v -0.01335030 0.00000000 0.49781346
v -0.03862849 -0.35047901 0.33310846
v 0.42186205 0.38440907 -0.49980851
v 0.94953008 -0.40076649 0.29015892
v 0.94941742 -0.20295061 0.46208259
v 0.45701869 0.37803154 0.49996918
v -0.02136802 -0.20477654 0.45105172
v -0.03858368 0.20239140 -0.44775728
v 0.73687084 0.37324695 -0.49975393
v 0.73497196 -0.39727406 0.49998523
v 0.78200180 0.40198158 -0.49272835
v -0.03860887 0.35258799 -0.32444674
v 0.40488728 0.40245083 -0.49342731
v 0.94971945 0.02052545 0.49833716
v 0.73789505 0.38249155 0.49918972
v -0.03857185 0.04111379 0.48931298
v 0.73789505 0.41659909 -0.47461694
v 0.94953008 0.32941170 -0.37031722
v 0.94953008 0.20909741 -0.44923647
v 0.94953008 0.38844818 -0.30793074
v 0.44721182 0.41895542 -0.46805935
v -0.03861606 0.43258478 -0.22886689
v 0.78200180 0.40198158 0.49272835
v -0.03862043 0.34248312 0.34115095
v 0.40488931 0.40245176 0.49342747
v -0.03860320 0.44627427 0.20429043
v 0.94954401 0.48072437 -0.13418267
v 0.01039281 0.49768631 -0.00156116
v 0.73789505 0.41659909 0.47461694
v 0.94953008 0.21019981 0.44878368
v 0.94953008 0.32857729 0.37094131
v -0.02093223 0.48738624 0.09798216
v 0.44582961 0.41860113 0.46704214
v 0.94952983 0.49952854 -0.00075197
v 0.94952377 0.45265154 0.22283455
v 0.94953015 0.48578026 0.10685450
vn -0.85136793 -0.52230687 0.04866400
vn 0.86121742 -0.50822456 -0.00351610
vn -0.90258427 -0.42775558 -0.04864977
vn 0.91601257 -0.39436936 -0.07344235
vn -0.44261043 -0.86987107 -0.21776209
vn -0.70565523 -0.68452316 0.18297195
vn 0.29170507 -0.91772279 -0.26961644
vn -0.95456058 -0.26821411 -0.12990489
vn -0.27883083 -0.87530727 -0.39508296
vn -0.91771383 -0.36914302 0.14674725
vn -0.13531151 -0.42995237 -0.89265433
vn -0.64471611 -0.46021711 -0.61036165
vn 0.72119766 -0.40244449 -0.56383718
vn 0.91709657 -0.00086053 -0.39866420
vn 0.98713591 -0.04659919 -0.15294188
vn 0.99228542 -0.06873930 -0.10317247
vn 0.98891046 -0.11912439 -0.08868755
vn -0.89497755 -0.00941757 -0.44601176
vn 0.91135867 -0.40488090 0.07414057
vn 0.09084570 -0.95333798 0.28791275
vn -0.27346905 -0.14576512 0.95077190
vn -0.52093252 -0.58872857 0.61808412
vn -0.96700205 -0.11612135 -0.22676612
vn 0.82660253 -0.42068061 0.37383964
vn -0.77930523 -0.03802734 0.62548963
vn -0.97283539 -0.17324259 0.15355229
vn -0.30198740 0.16546041 -0.93884315
vn 0.98781089 -0.13265239 0.08144310
vn 0.97666379 -0.05142382 0.20852680
vn -0.12726907 0.12118250 0.98443760
vn -0.94893159 -0.10655928 0.29694099
vn -0.95995067 0.09292340 -0.26431034
vn 0.23172554 0.09496778 -0.96813449
vn 0.42872585 -0.43995194 0.78907315
vn 0.77578872 0.37283554 -0.50906337
vn -0.97601212 0.15621370 -0.15164965
vn -0.58521236 0.51260847 -0.62829854
vn 0.91764196 0.00288062 0.39739770
vn 0.20781179 0.13717629 0.96850241
vn -0.94819208 0.04950778 0.31381643
vn 0.32122327 0.86879423 -0.37684506
vn 0.99331644 0.07507126 -0.08767419
vn 0.98626706 0.04593616 -0.15864159
vn 0.98942160 0.12376258 -0.07568175
vn -0.25355047 0.90248679 -0.34818062
vn -0.94318044 0.31212649 -0.11396366
vn 0.77977523 0.37423052 0.50189851
vn -0.97217936 0.15494256 0.17567043
vn -0.58047094 0.48783943 0.65197099
vn -0.95074670 0.28540339 0.12093639
vn 0.91285976 0.40134124 -0.07491511
vn -0.76585130 0.64155652 -0.04332454
vn 0.31901743 0.87000904 0.37591509
vn 0.98806606 0.04862268 0.14615506
vn 0.99304984 0.07972702 0.08657719
vn -0.88364644 0.46360672 0.06509818
vn -0.24084936 0.90828966 0.34205480
vn 0.90315221 0.42930657 -0.00345732
vn 0.95689678 0.27587878 0.09077138
vn 0.91334022 0.40173317 0.06648390
f 13//13 9//9 11//11
f 20//20 22//22 1//1
f 24//24 22//22 20//20
f 59//59 55//55 4//4
f 54//54 38//38 4//4
f 4//4 55//55 54//54
f 7//7 13//13 4//4
f 9//9 13//13 7//7
f 4//4 5//5 7//7
f 7//7 5//5 9//9
f 51//51 58//58 4//4
f 4//4 28//28 19//19
f 19//19 28//28 24//24
f 24//24 20//20 19//19
f 19//19 20//20 1//1
f 38//38 24//24 29//29
f 24//24 28//28 29//29
f 4//4 38//38 29//29
f 29//29 28//28 4//4
f 26//26 1//1 10//10
f 10//10 22//22 26//26
f 34//34 24//24 38//38
f 34//34 22//22 24//24
f 4//4 58//58 60//60
f 60//60 59//59 4//4
f 48//48 46//46 26//26
f 3//3 5//5 4//4
f 3//3 1//1 26//26
f 4//4 13//13 17//17
f 17//17 16//16 4//4
f 13//13 16//16 17//17
f 15//15 13//13 14//14
f 15//15 16//16 13//13
f 15//15 14//14 4//4
f 4//4 16//16 15//15
f 11//11 27//27 33//33
f 33//33 13//13 11//11
f 14//14 13//13 33//33
f 37//37 27//27 18//18
f 18//18 32//32 37//37
f 18//18 27//27 11//11
f 46//46 37//37 36//36
f 37//37 32//32 36//36
f 4//4 19//19 2//2
f 2//2 19//19 1//1
f 2//2 3//3 4//4
f 1//1 3//3 2//2
f 1//1 22//22 6//6
f 6//6 10//10 1//1
f 22//22 10//10 6//6
f 22//22 34//34 21//21
f 55//55 59//59 47//47
f 47//47 54//54 55//55
f 38//38 54//54 47//47
f 4//4 14//14 43//43
f 43//43 42//42 4//4
f 35//35 27//27 37//37
f 35//35 33//33 27//27
f 42//42 43//43 35//35
f 14//14 33//33 35//35
f 35//35 43//43 14//14
f 32//32 18//18 23//23
f 26//26 22//22 31//31
f 59//59 60//60 53//53
f 53//53 47//47 59//59
f 38//38 47//47 39//39
f 39//39 34//34 38//38
f 45//45 37//37 46//46
f 42//42 35//35 44//44
f 44//44 35//35 51//51
f 4//4 42//42 44//44
f 44//44 51//51 4//4
f 9//9 5//5 8//8
f 5//5 3//3 8//8
f 8//8 3//3 26//26
f 32//32 23//23 8//8
f 8//8 36//36 32//32
f 26//26 46//46 8//8
f 46//46 36//36 8//8
f 56//56 60//60 58//58
f 22//22 21//21 25//25
f 25//25 31//31 22//22
f 47//47 53//53 49//49
f 49//49 39//39 47//47
f 51//51 35//35 41//41
f 41//41 45//45 51//51
f 41//41 35//35 37//37
f 37//37 45//45 41//41
f 9//9 8//8 12//12
f 12//12 8//8 23//23
f 11//11 9//9 12//12
f 12//12 18//18 11//11
f 12//12 23//23 18//18
f 52//52 45//45 46//46
f 46//46 56//56 52//52
f 51//51 45//45 52//52
f 58//58 51//51 52//52
f 52//52 56//56 58//58
f 48//48 49//49 50//50
f 46//46 48//48 50//50
f 50//50 56//56 46//46
f 57//57 49//49 53//53
f 57//57 53//53 60//60
f 60//60 56//56 57//57
f 56//56 50//50 57//57
f 57//57 50//50 49//49
f 40//40 49//49 48//48
f 25//25 49//49 40//40
f 31//31 25//25 40//40
f 40//40 48//48 26//26
f 26//26 31//31 40//40
f 39//39 49//49 30//30
f 30//30 49//49 25//25
f 30//30 25//25 21//21
f 30//30 21//21 34//34
f 34//34 39//39 30//30

