# https://github.com/mikedh/trimesh
v 1.27630435 0.27914225 0.88749557
v 1.34178993 0.27914225 0.87936982
v 1.36586979 0.27914225 0.87976142
v 1.40717753 0.27914225 0.88054464
v 1.85059959 0.27914225 0.93174650
v 1.85059960 -0.72085775 0.93174703
v 1.21081876 -0.72085771 0.90071210
v 1.21081876 0.27914225 0.90090788
v 1.34178993 -0.72085771 0.85420941
v 1.14905304 0.27914225 0.92489346
v 1.85059959 0.27914224 1.80189483
v 1.40717753 0.27914225 1.85308687
v 1.85059959 -0.72085771 1.80168638
v 1.14802526 -0.72085771 0.92420819
v 1.11498885 -0.72085771 0.94271136
v 1.40717753 -0.58920147 1.85308687
v 1.40717753 -0.72017250 1.85220577
v 1.07984779 -0.72085771 0.96424944
v 1.09805455 0.27914225 0.95441045
v 1.34178993 -0.72017250 1.85338064
v 1.34141844 0.27914132 1.85420944
v 1.05136315 0.27914225 0.98490642
v 1.03491829 -0.72085771 0.99567545
v 1.03482049 0.27914225 0.99636075
v 1.27658053 0.27914157 1.84623902
v 1.21081876 -0.58920147 1.83262575
v 1.24356156 -0.72017250 1.83889140
v 1.01817986 -0.72085771 1.01403179
v 0.97422923 -0.72085771 1.06518473
v 1.20112811 0.27914225 1.82919923
v 0.94398260 -0.72085771 1.10698819
v 1.15804501 0.27914191 1.81399556
v 1.10954344 0.27914162 1.78633432
v 0.91863018 -0.72085771 1.14595254
v 0.98854497 0.27914225 1.04910460
v 1.18702652 -0.72085771 1.81071750
v 0.91911953 0.27914225 1.14820426
v 0.93678785 0.27914225 1.12000894
v 0.90345777 -0.72085771 1.17904286
v 1.03981251 -0.72085771 1.74304690
v 1.08125000 0.27914188 1.76962605
v 1.03972503 0.27914221 1.74317153
v 0.88143357 -0.72085771 1.23915371
v 0.88623000 0.27914225 1.23964321
v 0.90157359 0.27914225 1.19673836
v 0.86332470 -0.72085771 1.30631335
v 0.87272179 0.27914225 1.30592174
v 0.85059960 -0.72085771 1.37210239
v 0.99023099 0.27914212 1.68639265
v 0.95185331 -0.72085766 1.63737081
v 0.85373203 -0.72085771 1.38737485
v 0.87458157 0.27914225 1.43838093
v 0.87223235 0.27914225 1.39305307
v 0.94613604 0.27914225 1.62865035
v 0.92148715 -0.72085749 1.59068807
v 0.88427223 0.27914225 1.48028233
v 0.88539800 -0.72085771 1.49736593
v 0.86445037 -0.72085771 1.43803830
v 0.88994976 0.27914225 1.50465952
v 0.91819710 0.27914220 1.58226500
vn -0.07186630 0.89569586 -0.43882133
vn -0.02354161 0.89347968 -0.44848618
vn 0.00748304 0.90077733 -0.43421677
vn 0.03096659 0.89458402 -0.44582563
vn 0.42643351 0.82169319 -0.37812004
vn 0.43068361 -0.82082207 -0.37518364
vn -0.15195763 -0.89141510 -0.42695198
vn -0.13303136 0.88602229 -0.44414767
vn -0.04604348 -0.86116849 -0.50623002
vn -0.19799120 0.88428536 -0.42289348
vn 0.42550265 0.81928148 0.38435055
vn 0.02978360 0.88661625 0.46154583
vn 0.42542976 -0.81943980 0.38409365
vn -0.19340592 -0.88360234 -0.42642826
vn -0.22639417 -0.89007685 -0.39561203
vn 0.06047618 -0.01045323 0.99811490
vn 0.02935907 -0.88771768 0.45945115
vn -0.24655596 -0.88905613 -0.38573223
vn -0.23446628 0.89030609 -0.39035962
vn -0.03013284 -0.88248079 0.46938222
vn -0.02425401 0.88405470 0.46675371
vn -0.24858992 0.89175749 -0.37811590
vn -0.30887411 -0.88032359 -0.36003771
vn -0.31249945 0.87947792 -0.35897448
vn -0.07680461 0.88656644 0.45618089
vn -0.32815370 -0.07785295 0.94141068
vn -0.11685136 -0.88141457 0.45766157
vn -0.33550707 -0.89156002 -0.30422974
vn -0.35740573 -0.88831452 -0.28837207
vn -0.12604501 0.88592884 0.44636615
vn -0.37239482 -0.89028625 -0.26213067
vn -0.19338087 0.88140401 0.43096498
vn -0.22360977 0.89088134 0.39538475
vn -0.40565872 -0.88494968 -0.22870301
vn -0.35392782 0.88889507 -0.29086193
vn -0.01772518 -0.99904782 0.03986568
vn -0.41975935 0.88291158 -0.21040254
vn -0.37429679 0.89028056 -0.25942714
vn -0.42315311 -0.88848335 -0.17759160
vn -0.30193451 -0.87237342 0.38444788
vn -0.23343400 0.89044879 0.39065268
vn -0.30946281 0.87671793 0.36823693
vn -0.43839399 -0.88744640 -0.14230109
vn -0.44072166 0.88855928 -0.12738454
vn -0.41750949 0.89555655 -0.15383205
vn -0.44882837 -0.88743112 -0.10497196
vn -0.45528660 0.88881993 -0.05208881
vn -0.49765829 -0.86736733 0.00318408
vn -0.34992169 0.88980572 0.29291737
vn -0.36851649 -0.88717218 0.27770691
vn -0.44540944 -0.89027755 0.09495424
vn -0.45121662 0.88981424 0.06807487
vn -0.43865373 0.89859221 0.01072147
vn -0.37758713 0.88776115 0.26326434
vn -0.41743379 -0.88199898 0.21869344
vn -0.42881976 0.89761658 0.10197108
vn -0.42285217 -0.89203270 0.15960484
vn -0.44932790 -0.88431365 0.12686138
vn -0.43682021 0.88929515 0.13543351
vn -0.42077131 0.88348835 0.20591224
f 6//6 13//13 36//36
f 9//9 5//5 6//6
f 11//11 13//13 6//6
f 6//6 5//5 11//11
f 6//6 36//36 40//40
f 20//20 36//36 13//13
f 6//6 14//14 7//7
f 7//7 9//9 6//6
f 5//5 9//9 4//4
f 12//12 11//11 5//5
f 6//6 40//40 57//57
f 46//46 6//6 48//48
f 46//46 43//43 6//6
f 34//34 31//31 6//6
f 34//34 38//38 31//31
f 6//6 23//23 18//18
f 6//6 31//31 29//29
f 31//31 38//38 29//29
f 2//2 9//9 1//1
f 13//13 11//11 16//16
f 11//11 12//12 16//16
f 21//21 20//20 16//16
f 16//16 12//12 21//21
f 6//6 57//57 58//58
f 21//21 12//12 25//25
f 25//25 20//20 21//21
f 36//36 20//20 27//27
f 27//27 40//40 36//36
f 27//27 26//26 40//40
f 20//20 25//25 27//27
f 27//27 25//25 26//26
f 47//47 46//46 48//48
f 6//6 43//43 39//39
f 39//39 34//34 6//6
f 15//15 14//14 6//6
f 6//6 18//18 15//15
f 28//28 23//23 6//6
f 6//6 29//29 28//28
f 3//3 4//4 9//9
f 9//9 2//2 3//3
f 17//17 20//20 13//13
f 13//13 16//16 17//17
f 17//17 16//16 20//20
f 48//48 6//6 51//51
f 6//6 58//58 51//51
f 51//51 52//52 48//48
f 51//51 58//58 52//52
f 50//50 57//57 40//40
f 50//50 55//55 57//57
f 30//30 25//25 12//12
f 26//26 25//25 30//30
f 57//57 55//55 60//60
f 48//48 52//52 53//53
f 53//53 47//47 48//48
f 43//43 46//46 44//44
f 46//46 47//47 44//44
f 38//38 34//34 37//37
f 34//34 39//39 37//37
f 37//37 39//39 43//43
f 19//19 15//15 18//18
f 18//18 22//22 19//19
f 24//24 18//18 23//23
f 24//24 22//22 18//18
f 23//23 28//28 24//24
f 42//42 30//30 54//54
f 55//55 50//50 54//54
f 54//54 60//60 55//55
f 32//32 30//30 42//42
f 26//26 30//30 32//32
f 32//32 33//33 40//40
f 40//40 26//26 32//32
f 43//43 44//44 45//45
f 45//45 37//37 43//43
f 14//14 15//15 10//10
f 15//15 19//19 10//10
f 35//35 28//28 29//29
f 35//35 24//24 28//28
f 38//38 24//24 35//35
f 35//35 29//29 38//38
f 60//60 54//54 59//59
f 59//59 58//58 57//57
f 57//57 60//60 59//59
f 42//42 54//54 49//49
f 49//49 54//54 50//50
f 40//40 42//42 49//49
f 49//49 50//50 40//40
f 33//33 32//32 41//41
f 41//41 32//32 42//42
f 40//40 33//33 41//41
f 41//41 42//42 40//40
f 8//8 7//7 14//14
f 14//14 10//10 8//8
f 9//9 7//7 8//8
f 1//1 9//9 8//8
f 52//52 58//58 56//56
f 58//58 59//59 56//56
f 4//4 3//3 56//56
f 56//56 24//24 38//38
f 56//56 2//2 1//1
f 5//5 4//4 56//56
f 56//56 12//12 5//5
f 38//38 37//37 56//56
f 56//56 53//53 52//52
f 56//56 45//45 44//44
f 56//56 3//3 2//2
f 56//56 30//30 12//12
f 47//47 53//53 56//56
f 56//56 44//44 47//47
f 1//1 8//8 56//56
f 56//56 19//19 22//22
f 22//22 24//24 56//56
f 56//56 54//54 30//30
f 37//37 45//45 56//56
f 56//56 10//10 19//19
f 56//56 59//59 54//54
f 56//56 8//8 10//10

