# https://github.com/mikedh/trimesh
v -0.40754527 4.25815334 0.70709551
v -0.39357056 4.15855986 0.72174967
v 0.10915311 4.16205570 1.55414845
v 0.01443001 4.22688976 1.40750531
v -0.08908397 4.73996116 1.23104384
v -0.40380119 4.70488274 0.70774769
v -0.13508925 4.69438405 1.15951501
v -0.39053101 4.10865644 0.70709551
v 0.12910126 4.11032069 1.55616655
v 0.16205003 4.16823501 1.62326777
v -0.10417452 4.76066189 1.19675109
v -0.14232475 4.78446774 1.11816279
v -0.37690549 4.79300853 0.71900713
v -0.37646437 4.10576870 0.70709551
v 0.12910126 4.79428135 1.55616655
v 0.10096799 5.01551377 1.29302834
v 0.16777225 4.79122209 1.60999025
v -0.01492245 5.02317366 1.05391027
v -0.18701415 5.02254560 0.70703048
v 0.16873719 4.74513098 1.63240759
v 0.11590460 4.66810037 1.57525222
v 0.23969581 4.10933610 1.68445298
v 0.19938543 5.02295336 1.43655830
v 0.21899049 5.10576871 1.35504748
v -0.06517784 5.10576356 0.70709684
v 0.48076703 4.10936308 0.70709553
v 0.15475327 4.35126573 1.62591958
v 0.25184736 5.10576871 1.39772865
v 0.24505298 4.90597424 1.58008819
v 0.22881079 5.10576871 0.70709551
v 0.43583430 5.02044007 0.70709576
v 0.28247414 4.48180875 1.70703048
v 0.37828318 4.14772847 1.67918955
v 0.57288643 4.14261975 1.11880806
v 0.59245474 4.23279383 1.26313859
v 0.21759363 4.39284468 1.68099229
v 0.57280354 4.10936651 1.37153895
v 0.26093308 4.73987860 1.69732153
v 0.32150048 4.90185060 1.59802942
v 0.36828919 5.10576871 1.39978367
v 0.41696489 5.10576871 1.14509927
v 0.55600367 4.73625978 0.96497436
v 0.35003197 4.59798946 1.70423100
v 0.42916598 4.73212992 1.66262652
v 0.50004968 4.73371142 0.70709553
v 0.49859375 4.17398398 0.70709576
v 0.57217575 4.19998825 1.04081735
v 0.58784448 4.45932148 1.13789293
v 0.59180533 4.71130681 1.23922925
v 0.54223756 4.10939568 1.51362013
v 0.42310679 4.33032327 1.67164021
v 0.58830091 4.74381870 1.15732466
v 0.58734518 4.63241935 1.33329155
v 0.51568865 5.02038382 1.30199898
v 0.53939802 5.02098807 1.21636712
v 0.49597970 4.75169637 1.60117295
v 0.39443132 4.90406543 1.57111758
v 0.56759521 4.75554737 1.44403293
v 0.42475178 5.10576871 1.27099250
vn -0.51857534 -0.78814139 -0.33153093
vn -0.15688291 -0.96602152 0.20540245
vn -0.13637038 -0.95568657 0.26089518
vn -0.32056279 -0.76163229 0.56316583
vn -0.12515468 0.96707362 0.22159628
vn -0.24362550 0.95568559 -0.16526241
vn -0.36286552 0.68659790 0.63000948
vn -0.07292562 -0.98568812 -0.15198942
vn -0.02543374 -0.99812308 0.05570860
vn -0.10170083 -0.95572977 0.27611148
vn -0.05938593 0.99293140 0.10276451
vn -0.04081507 0.99666368 0.07067978
vn -0.04861554 0.99821093 -0.03480622
vn -0.00280961 -0.97551463 -0.21991660
vn -0.05461544 0.99303881 0.10436035
vn -0.02518141 0.99878529 0.04235364
vn -0.03357817 0.99530008 0.09083097
vn -0.02033906 0.99935381 0.02963575
vn -0.01923342 0.97945505 -0.20074333
vn -0.09768328 0.94818436 0.30233160
vn -0.21486218 0.88005970 0.42347274
vn -0.02936289 -0.97649827 0.21351570
vn -0.02135945 0.99842262 0.05192339
vn -0.01060609 0.99973591 0.02038691
vn -0.00874188 0.97763469 -0.21012853
vn 0.02474064 -0.97624850 -0.21523653
vn -0.33239185 -0.34886936 0.87624530
vn -0.00606932 0.99949154 0.03130227
vn -0.01144456 0.99755719 0.06891062
vn 0.00224900 0.97429850 -0.22524957
vn 0.03474803 0.97372587 -0.22505669
vn -0.03166129 -0.25741220 0.96578285
vn 0.02708438 -0.97491039 0.22094380
vn 0.08346857 -0.99627788 -0.02152633
vn 0.28976015 -0.95691787 0.01863461
vn -0.22161250 -0.12062292 0.96764560
vn 0.11964879 -0.99102234 0.05965637
vn -0.03226412 0.95250741 0.30280135
vn 0.00319707 0.99699150 0.07744498
vn 0.00797946 0.99945015 0.03218264
vn 0.00754373 0.99996342 -0.00403078
vn 0.22456084 0.96554887 -0.13148308
vn 0.05220252 0.69940938 0.71281233
vn 0.06741233 0.95229834 0.29762971
vn 0.19286093 0.89355247 -0.40542402
vn 0.16772281 -0.91782655 -0.35981034
vn 0.22707744 -0.96687722 -0.11655162
vn 0.90728051 -0.31601526 -0.27744625
vn 0.27780136 0.96048326 0.01727198
vn 0.11895723 -0.98120338 0.15195099
vn 0.16127248 -0.77446081 0.61172023
vn 0.24273538 0.96789423 -0.06527097
vn 0.62756681 0.74483195 0.22668319
vn 0.03209241 0.99886469 0.03520525
vn 0.05672421 0.99838964 0.00070634
vn 0.12985651 0.95234408 0.27600368
vn 0.01487769 0.99748539 0.06929320
vn 0.19967059 0.96571776 0.16589411
vn 0.00905777 0.99993705 0.00662175
f 36//36 22//22 32//32
f 32//32 22//22 33//33
f 14//14 19//19 26//26
f 26//26 37//37 14//14
f 31//31 19//19 30//30
f 22//22 36//36 10//10
f 53//53 37//37 35//35
f 45//45 19//19 31//31
f 32//32 33//33 43//43
f 50//50 33//33 22//22
f 22//22 14//14 50//50
f 50//50 14//14 37//37
f 24//24 23//23 28//28
f 40//40 28//28 39//39
f 9//9 14//14 22//22
f 22//22 10//10 9//9
f 9//9 10//10 3//3
f 25//25 19//19 24//24
f 24//24 30//30 25//25
f 25//25 30//30 19//19
f 41//41 55//55 31//31
f 31//31 30//30 41//41
f 41//41 30//30 24//24
f 4//4 7//7 1//1
f 1//1 2//2 4//4
f 4//4 2//2 3//3
f 16//16 23//23 24//24
f 15//15 23//23 16//16
f 1//1 7//7 6//6
f 6//6 19//19 1//1
f 6//6 13//13 19//19
f 7//7 5//5 6//6
f 6//6 5//5 13//13
f 15//15 5//5 21//21
f 21//21 4//4 3//3
f 7//7 4//4 21//21
f 21//21 5//5 7//7
f 49//49 53//53 35//35
f 52//52 55//55 49//49
f 35//35 47//47 48//48
f 48//48 49//49 35//35
f 52//52 49//49 48//48
f 34//34 37//37 26//26
f 35//35 37//37 34//34
f 34//34 47//47 35//35
f 26//26 19//19 46//46
f 19//19 45//45 46//46
f 46//46 45//45 47//47
f 46//46 34//34 26//26
f 47//47 34//34 46//46
f 31//31 55//55 42//42
f 42//42 45//45 31//31
f 42//42 55//55 52//52
f 47//47 45//45 42//42
f 52//52 48//48 42//42
f 42//42 48//48 47//47
f 51//51 43//43 33//33
f 51//51 50//50 56//56
f 33//33 50//50 51//51
f 32//32 43//43 38//38
f 38//38 36//36 32//32
f 54//54 40//40 56//56
f 56//56 40//40 57//57
f 57//57 40//40 39//39
f 14//14 9//9 8//8
f 8//8 2//2 1//1
f 3//3 2//2 8//8
f 8//8 9//9 3//3
f 1//1 19//19 8//8
f 19//19 14//14 8//8
f 55//55 41//41 59//59
f 59//59 54//54 55//55
f 40//40 54//54 59//59
f 19//19 13//13 18//18
f 13//13 16//16 18//18
f 24//24 19//19 18//18
f 18//18 16//16 24//24
f 15//15 16//16 12//12
f 12//12 16//16 13//13
f 27//27 10//10 36//36
f 3//3 10//10 27//27
f 27//27 21//21 3//3
f 58//58 49//49 55//55
f 53//53 49//49 58//58
f 58//58 54//54 56//56
f 55//55 54//54 58//58
f 56//56 50//50 58//58
f 37//37 53//53 58//58
f 58//58 50//50 37//37
f 44//44 51//51 56//56
f 43//43 51//51 44//44
f 44//44 38//38 43//43
f 56//56 57//57 44//44
f 39//39 38//38 44//44
f 44//44 57//57 39//39
f 15//15 21//21 20//20
f 36//36 38//38 20//20
f 20//20 27//27 36//36
f 21//21 27//27 20//20
f 39//39 28//28 29//29
f 29//29 38//38 39//39
f 29//29 28//28 23//23
f 13//13 5//5 11//11
f 11//11 12//12 13//13
f 11//11 5//5 15//15
f 15//15 12//12 11//11
f 17//17 20//20 38//38
f 38//38 29//29 17//17
f 15//15 20//20 17//17
f 17//17 23//23 15//15
f 17//17 29//29 23//23
f 28//28 40//40 59//59
f 24//24 28//28 59//59
f 59//59 41//41 24//24

