# https://github.com/mikedh/trimesh
v 0.17383872 0.49921743 0.05944936
v -0.06967887 0.49955654 0.21412988
v 0.35316648 0.38977256 -0.00068363
v 0.12730363 0.49925030 -0.24942392
v 0.15490722 0.46367654 0.36501301
v 0.02301158 0.46683594 0.40948085
v 0.35306202 -0.38610605 -0.01101037
v 0.33546468 0.38123532 0.14455646
v 0.34069890 0.38536913 -0.11142997
v 0.14681845 0.46695656 -0.37439420
v 0.29616172 0.35746315 0.24266023
v -0.03967187 0.43164214 0.53863630
v 0.33591886 -0.38056723 0.14313502
v 0.25273131 0.38028542 0.31131574
v -0.06097801 0.39915363 0.54769681
v -0.42118472 0.42314724 0.52928251
v 0.28689653 0.37990392 -0.26371894
v -0.01207972 0.42357666 -0.45230318
v -0.17022087 0.49906204 -0.14281146
v -0.40334193 0.46574970 0.32541608
v -0.47437581 0.35218201 0.54339392
v -0.02989877 0.39893658 0.54125457
v 0.18459358 0.41267202 0.38519874
v 0.33501805 -0.38028387 -0.14532894
v 0.28280816 -0.38186542 -0.26852034
v 0.19363139 0.41654185 -0.37983209
v 0.10194242 -0.41769928 -0.43342140
v 0.28435227 -0.37473860 0.26393534
v 0.21205208 -0.40174312 0.36007135
v -0.50246018 0.37735512 0.53807309
v -0.64683354 0.30898940 0.21783762
v 0.15645366 -0.46410064 0.36288539
v 0.20692231 -0.35848418 -0.36681704
v -0.01774373 -0.42399184 -0.45133982
v -0.02872003 0.46771761 -0.40444556
v -0.06097648 -0.39915558 0.54769641
v -0.40374693 0.46552511 -0.32414878
v 0.15512702 -0.49964759 -0.13989522
v 0.14610583 -0.46514921 -0.38833580
v -0.03440410 -0.43126209 0.53965128
v -0.49923744 -0.34853774 0.54311696
v -0.64683141 0.27256219 0.31333812
v -0.64683354 -0.23130543 0.31198684
v -0.41958188 -0.42331035 0.52921306
v -0.64682284 -0.29461113 0.29117294
v -0.49828800 -0.38304795 0.52055321
v 0.03515886 -0.46334573 0.42485173
v -0.17161615 -0.49915005 -0.18936887
v -0.64683011 0.24108172 -0.31335675
v -0.37826578 0.42170958 -0.37371577
v -0.64680177 0.30533825 -0.27517790
v -0.64683175 -0.30902878 0.23361096
v -0.40066823 -0.46480302 0.27784370
v -0.34252616 -0.47027858 0.32063310
v 0.12792972 -0.50044344 0.24730019
v -0.40071175 -0.42112846 -0.36866808
v -0.64683353 -0.24084755 -0.31335650
v -0.39968257 -0.46603386 -0.33081162
v -0.26718356 -0.48515990 0.17076153
v -0.64683324 -0.30898884 -0.26634052
vn 0.25017594 0.96678727 0.05229130
vn -0.01246955 0.99322617 0.11552611
vn 0.83905304 0.54403036 0.00457884
vn 0.19315137 0.96888163 -0.15479320
vn 0.33327786 0.81583423 0.47258902
vn 0.04515526 0.95505025 0.29298468
vn 0.83903701 -0.54393677 -0.01223466
vn 0.80566057 0.48308979 0.34283420
vn 0.80877100 0.50899631 -0.29463915
vn 0.28124829 0.72863603 -0.62449094
vn 0.76387181 0.15443351 0.62661803
vn 0.13513087 0.58075855 0.80278213
vn 0.80802336 -0.49013086 0.32690975
vn 0.65094444 0.30855610 0.69358811
vn 0.04238572 0.09741950 0.99434043
vn -0.15585115 0.69200003 0.70487331
vn 0.71901824 0.36827531 -0.58939466
vn 0.02777349 0.30962813 -0.95045203
vn -0.05248479 0.99707110 -0.05562890
vn -0.24936454 0.96069997 0.12195451
vn -0.04834566 0.05271049 0.99743887
vn 0.27679542 0.07855901 0.95771226
vn 0.51570455 0.30962529 0.79886231
vn 0.80675477 -0.48127452 -0.34281420
vn 0.69939869 -0.36462437 -0.61472803
vn 0.46887700 0.32612009 -0.82085324
vn 0.21074530 -0.22504230 -0.95128460
vn 0.71207935 -0.32167034 0.62407627
vn 0.56045253 -0.31080925 0.76765264
vn -0.43819444 0.46649603 0.76835349
vn -0.83272156 0.54995671 0.06420608
vn 0.37140835 -0.75663191 0.53811151
vn 0.50720109 -0.10043366 -0.85595569
vn -0.02538670 -0.41349698 -0.91015151
vn -0.02662204 0.82817541 -0.55983637
vn 0.05955532 -0.08121305 0.99491588
vn -0.28616637 0.83777962 -0.46500979
vn 0.23231213 -0.96837024 -0.09105026
vn 0.31581949 -0.69898995 -0.64161601
vn 0.17385141 -0.52316468 0.83431074
vn -0.38219005 -0.17845939 0.90668794
vn -0.87913691 0.25512475 0.40252907
vn -0.90460090 -0.04163208 0.42422161
vn -0.16501903 -0.68816320 0.70654096
vn -0.86823164 -0.38200799 0.31661287
vn -0.49633134 -0.65777217 0.56656064
vn 0.05531266 -0.93392407 0.35316617
vn -0.04131336 -0.99393268 -0.10193645
vn -0.66708854 0.10684592 -0.73727663
vn -0.18083904 0.32305014 -0.92894340
vn -0.74750647 0.52174990 -0.41110962
vn -0.83001110 -0.55532545 0.05191554
vn -0.28066923 -0.95716309 0.07115897
vn -0.08274483 -0.98292533 0.16435050
vn 0.19626880 -0.96909574 0.14943898
vn -0.21349168 -0.31068259 -0.92622764
vn -0.66759877 -0.11693886 -0.73528034
vn -0.26853162 -0.84170587 -0.46842502
vn -0.07429928 -0.99635970 0.04179675
vn -0.75876550 -0.53757106 -0.36782097
f 10//10 9//9 17//17
f 3//3 1//1 8//8
f 14//14 11//11 8//8
f 8//8 13//13 3//3
f 8//8 11//11 13//13
f 5//5 8//8 1//1
f 14//14 8//8 5//5
f 55//55 13//13 32//32
f 23//23 5//5 12//12
f 14//14 5//5 23//23
f 53//53 58//58 59//59
f 52//52 58//58 53//53
f 34//34 58//58 56//56
f 34//34 39//39 58//58
f 7//7 13//13 55//55
f 3//3 13//13 7//7
f 7//7 9//9 3//3
f 58//58 39//39 48//48
f 55//55 59//59 48//48
f 48//48 59//59 58//58
f 17//17 25//25 33//33
f 33//33 25//25 39//39
f 55//55 32//32 47//47
f 47//47 32//32 40//40
f 40//40 44//44 47//47
f 14//14 23//23 29//29
f 40//40 32//32 29//29
f 29//29 23//23 40//40
f 54//54 44//44 53//53
f 54//54 59//59 55//55
f 53//53 59//59 54//54
f 55//55 47//47 54//54
f 54//54 47//47 44//44
f 22//22 23//23 12//12
f 40//40 23//23 22//22
f 12//12 15//15 22//22
f 58//58 52//52 60//60
f 60//60 57//57 56//56
f 56//56 58//58 60//60
f 43//43 57//57 60//60
f 60//60 52//52 43//43
f 41//41 42//42 43//43
f 53//53 44//44 46//46
f 46//46 52//52 53//53
f 44//44 41//41 46//46
f 9//9 10//10 4//4
f 4//4 1//1 3//3
f 3//3 9//9 4//4
f 50//50 49//49 51//51
f 51//51 37//37 50//50
f 18//18 34//34 50//50
f 50//50 34//34 56//56
f 56//56 57//57 50//50
f 57//57 49//49 50//50
f 39//39 25//25 24//24
f 9//9 7//7 24//24
f 17//17 9//9 24//24
f 24//24 25//25 17//17
f 55//55 48//48 38//38
f 38//38 48//48 39//39
f 38//38 7//7 55//55
f 39//39 24//24 38//38
f 38//38 24//24 7//7
f 39//39 34//34 27//27
f 27//27 33//33 39//39
f 27//27 34//34 18//18
f 26//26 10//10 17//17
f 17//17 33//33 26//26
f 33//33 27//27 26//26
f 18//18 10//10 26//26
f 26//26 27//27 18//18
f 28//28 32//32 13//13
f 28//28 29//29 32//32
f 13//13 11//11 28//28
f 28//28 11//11 14//14
f 14//14 29//29 28//28
f 40//40 22//22 36//36
f 36//36 22//22 15//15
f 36//36 44//44 40//40
f 36//36 41//41 44//44
f 43//43 52//52 45//45
f 52//52 46//46 45//45
f 45//45 41//41 43//43
f 45//45 46//46 41//41
f 12//12 5//5 6//6
f 16//16 15//15 12//12
f 12//12 6//6 16//16
f 16//16 6//6 20//20
f 51//51 49//49 31//31
f 31//31 37//37 51//51
f 31//31 20//20 37//37
f 31//31 49//49 57//57
f 31//31 57//57 43//43
f 43//43 42//42 31//31
f 35//35 4//4 10//10
f 37//37 4//4 35//35
f 35//35 10//10 18//18
f 18//18 50//50 35//35
f 35//35 50//50 37//37
f 37//37 20//20 19//19
f 19//19 4//4 37//37
f 21//21 36//36 15//15
f 41//41 36//36 21//21
f 30//30 16//16 20//20
f 20//20 31//31 30//30
f 30//30 31//31 42//42
f 42//42 41//41 30//30
f 41//41 21//21 30//30
f 15//15 16//16 30//30
f 30//30 21//21 15//15
f 2//2 19//19 20//20
f 20//20 6//6 2//2
f 1//1 4//4 2//2
f 4//4 19//19 2//2
f 2//2 5//5 1//1
f 2//2 6//6 5//5

