# https://github.com/mikedh/trimesh
v 0.05642842 3.22586497 1.24427141
v 0.05642842 3.22586497 0.35439287
v 0.08217404 3.22106813 1.24427141
v 0.05642842 3.20951651 0.28029338
v -0.07249538 3.22586497 0.35439287
v 0.08217404 3.22077435 0.35439287
v 0.08217404 3.20687321 0.28401303
v -0.07249538 3.22586497 1.22772873
v 0.64945840 2.89439160 1.24427141
v 0.08217404 3.16350565 0.25073189
v 0.05642842 3.16350565 0.24711012
v -0.08238247 3.20677541 0.28538343
v 0.09881568 3.20060783 0.29526989
v 0.64945840 2.89409800 1.22772873
v 0.62361488 2.73775921 0.28802635
v -0.09576921 3.20951651 0.76918334
v 0.59786926 2.68979059 0.24877418
v 0.08217404 3.10427902 0.24427143
v -0.08615131 3.16541459 0.26003103
v -0.17356893 3.01252672 0.28149248
v -0.10861754 3.18758786 0.35439287
v 0.64945840 2.76125403 0.44170693
v 0.64975205 2.74157709 0.35204361
v 0.64143120 2.72982967 0.29967475
v 0.68348810 2.77006459 0.73645285
v -0.10861754 3.18758786 1.22772873
v 0.71945117 2.79781800 1.24427141
v 0.57202577 2.66017728 0.24436932
v -0.08536818 3.10427902 0.24490769
v -0.22902478 2.80804806 0.24466298
v -0.22745850 2.91609992 0.33307825
v -0.22902478 2.91974655 0.44170693
v 0.71634309 2.72806762 0.76641803
v -0.09244089 3.20358159 1.24427141
v -0.22902478 2.91974655 1.22772873
v -0.22902478 2.91935496 1.24427141
v 0.57202577 2.45278609 0.24427143
v -0.22809478 2.74896823 0.24427143
v 0.67077437 2.71049541 0.39288642
v 0.77095756 2.68948268 1.24427141
v 0.61048511 2.45361825 0.27799306
v 0.57202577 2.39355946 0.26844921
v 0.24878628 2.42557137 0.25533252
v -0.22902478 2.45278609 0.24427143
v 0.68812574 2.57128834 0.48555973
v 0.65429179 2.50068139 0.33169562
v 0.64764114 2.22586504 0.41768214
v 0.59786926 2.22586502 0.34186349
v -0.22902478 2.22586502 1.02256039
v -0.22902472 2.36781185 1.24427140
v 0.77097525 2.45394642 1.24427140
v 0.70831595 2.40677541 0.69875453
v 0.76820145 2.40990810 1.24427141
v -0.22902478 2.22586553 0.34174845
v 0.59786926 2.22586502 1.02256039
v 0.73158977 2.36849829 1.24427141
v 0.66120543 2.22586502 0.52892284
v 0.63423616 2.22586502 0.97530606
v 0.75880379 2.39402449 1.24427141
v 0.65961469 2.22586502 0.78362148
vn 0.00986201 0.57064871 0.82113506
vn 0.01658856 0.97486239 -0.22218944
vn 0.04128138 0.57512664 0.81702215
vn 0.00833613 0.61550052 -0.78809239
vn -0.07884205 0.96953015 -0.23193795
vn 0.07566087 0.97615854 -0.20344515
vn 0.05031323 0.63753549 -0.76877635
vn -0.06191612 0.79812475 0.59930232
vn 0.10366967 0.56897573 0.81579361
vn 0.02574097 0.21266284 -0.97678653
vn 0.00257415 0.17080135 -0.98530212
vn -0.09675227 0.62419417 -0.77525521
vn 0.11225579 0.77341203 -0.62388498
vn 0.18470151 0.96854885 -0.16672877
vn 0.07726557 0.36299919 -0.92858043
vn -0.21478782 0.97666065 -0.00040513
vn 0.05508135 0.08429290 -0.99491746
vn 0.00266157 0.01860588 -0.99982335
vn -0.05691052 0.22793740 -0.97201118
vn -0.18162226 0.42315833 -0.88766569
vn -0.28629618 0.88583779 -0.36513820
vn 0.19521306 0.89994884 -0.38985119
vn 0.22421978 0.75508109 -0.61609905
vn 0.16841126 0.34203507 -0.92447264
vn 0.23173518 0.90932237 -0.34558882
vn -0.25235457 0.77327554 0.58168902
vn 0.18147354 0.56024699 0.80820212
vn 0.00721654 0.01407807 -0.99987486
vn -0.01720579 0.06616972 -0.99766003
vn -0.28161105 0.07975674 -0.95620818
vn -0.48424855 0.56455398 -0.66841765
vn -0.70843213 0.70323272 -0.05989698
vn 0.46161750 0.65024366 -0.60340076
vn -0.09787463 0.48634975 0.86826521
vn -0.71265688 0.70127709 0.01818281
vn -0.30226928 0.28789524 0.90870766
vn 0.03259905 -0.09146164 -0.99527487
vn -0.01518535 0.00070715 -0.99988445
vn 0.37875190 0.38167713 -0.84313081
vn 0.39610321 0.34452672 0.85111902
vn 0.10181746 -0.10072031 -0.98969118
vn 0.00736226 -0.18839665 -0.98206543
vn -0.00001868 -0.18543821 -0.98265593
vn -0.26320297 -0.09282749 -0.96026416
vn 0.49072523 -0.04713822 -0.87003835
vn 0.23403988 -0.09356363 -0.96771441
vn 0.20644958 -0.68639808 -0.69730642
vn 0.05485820 -0.62139065 -0.78157804
vn -0.31350229 -0.81924968 0.48015236
vn -0.24156232 -0.27233715 0.93138613
vn 0.40361092 -0.06581606 0.91256039
vn 0.55799450 -0.26556535 -0.78620429
vn 0.35855926 -0.38926201 0.84847531
vn -0.26008012 -0.64759555 -0.71622506
vn 0.01099922 -0.86075948 0.50889305
vn 0.06484267 -0.44635057 0.89250580
vn 0.27429819 -0.90399811 -0.32794500
vn 0.07857235 -0.94719983 0.31086793
vn 0.13847465 -0.49387032 0.85843863
vn 0.13981732 -0.98839515 0.05938142
f 50//50 56//56 36//36
f 36//36 35//35 54//54
f 54//54 30//30 44//44
f 14//14 9//9 27//27
f 55//55 56//56 50//50
f 18//18 11//11 28//28
f 22//22 13//13 14//14
f 1//1 3//3 2//2
f 38//38 44//44 30//30
f 20//20 30//30 31//31
f 29//29 11//11 18//18
f 18//18 38//38 29//29
f 29//29 38//38 30//30
f 11//11 12//12 4//4
f 4//4 10//10 11//11
f 4//4 12//12 5//5
f 5//5 2//2 4//4
f 49//49 55//55 50//50
f 49//49 36//36 54//54
f 50//50 36//36 49//49
f 54//54 48//48 49//49
f 18//18 28//28 37//37
f 43//43 44//44 37//37
f 47//47 57//57 48//48
f 8//8 34//34 1//1
f 36//36 34//34 26//26
f 35//35 36//36 26//26
f 34//34 8//8 26//26
f 24//24 13//13 23//23
f 13//13 22//22 23//23
f 22//22 33//33 23//23
f 6//6 3//3 9//9
f 6//6 2//2 3//3
f 6//6 9//9 14//14
f 14//14 13//13 6//6
f 15//15 13//13 24//24
f 17//17 28//28 11//11
f 11//11 10//10 17//17
f 10//10 15//15 17//17
f 17//17 15//15 24//24
f 17//17 37//37 28//28
f 19//19 12//12 11//11
f 11//11 29//29 19//19
f 19//19 20//20 12//12
f 30//30 20//20 19//19
f 19//19 29//29 30//30
f 10//10 4//4 7//7
f 13//13 15//15 7//7
f 7//7 15//15 10//10
f 7//7 6//6 13//13
f 7//7 4//4 2//2
f 2//2 6//6 7//7
f 27//27 53//53 40//40
f 40//40 53//53 51//51
f 40//40 33//33 27//27
f 51//51 53//53 52//52
f 52//52 53//53 57//57
f 57//57 47//47 52//52
f 14//14 27//27 25//25
f 27//27 33//33 25//25
f 25//25 22//22 14//14
f 25//25 33//33 22//22
f 56//56 55//55 58//58
f 59//59 58//58 60//60
f 56//56 58//58 59//59
f 59//59 60//60 57//57
f 57//57 53//53 59//59
f 42//42 37//37 48//48
f 43//43 37//37 42//42
f 42//42 48//48 54//54
f 54//54 44//44 42//42
f 42//42 44//44 43//43
f 48//48 37//37 41//41
f 41//41 47//47 48//48
f 46//46 47//47 41//41
f 37//37 17//17 41//41
f 24//24 46//46 41//41
f 41//41 17//17 24//24
f 21//21 20//20 31//31
f 12//12 20//20 21//21
f 5//5 12//12 21//21
f 45//45 47//47 46//46
f 45//45 52//52 47//47
f 51//51 52//52 45//45
f 45//45 40//40 51//51
f 33//33 40//40 45//45
f 32//32 21//21 31//31
f 31//31 30//30 32//32
f 32//32 30//30 54//54
f 54//54 35//35 32//32
f 16//16 8//8 5//5
f 16//16 26//26 8//8
f 16//16 21//21 26//26
f 5//5 21//21 16//16
f 39//39 23//23 33//33
f 33//33 45//45 39//39
f 24//24 23//23 39//39
f 39//39 46//46 24//24
f 39//39 45//45 46//46
f 44//44 38//38 37//37
f 37//37 38//38 18//18
f 8//8 2//2 5//5
f 1//1 2//2 8//8
f 57//57 60//60 58//58
f 48//48 57//57 58//58
f 58//58 49//49 48//48
f 55//55 49//49 58//58
f 59//59 3//3 1//1
f 1//1 34//34 59//59
f 59//59 36//36 56//56
f 9//9 3//3 59//59
f 59//59 27//27 9//9
f 59//59 34//34 36//36
f 59//59 53//53 27//27
f 26//26 21//21 32//32
f 35//35 26//26 32//32

