# https://github.com/mikedh/trimesh
v 2.63462905 0.29519426 0.49944670
v 2.77328202 -0.29517566 0.49939782
v 2.99161272 0.29509669 0.49827339
v 2.54555446 0.32094735 0.49758894
v 3.04721094 0.29509669 0.49318895
v 2.99161272 -0.29507811 0.49827339
v 3.03996972 0.33455724 0.49759955
v 3.04280369 -0.34694635 0.49478254
v 2.49436101 0.33636017 0.49152678
v 2.21362912 0.01267764 0.49749549
v 3.04721079 -0.31734356 0.49318717
v 3.05367134 0.32084978 0.48346013
v 3.20088920 0.32094735 0.25998999
v 3.21361922 0.44841822 0.11182285
v 2.90897923 0.34309372 0.49941210
v 2.54555446 0.34777345 0.47402462
v 2.21889215 0.16674161 0.46798557
v 2.21362912 0.38893327 0.18234254
v 2.21362912 0.33501885 0.28826903
v 2.92708258 -0.44865770 0.28822320
v 3.21361409 -0.54812166 0.10139512
v 3.21283105 0.32094735 0.22938568
v 3.07104579 0.44844461 0.12002170
v 2.21366051 -0.36900128 0.24212508
v 2.96959917 -0.54876504 0.07258657
v 2.22321539 -0.07713252 0.49742438
v 2.21362912 -0.24288605 0.40093604
v 3.21186187 -0.32059672 0.24340983
v 3.21361518 0.01270913 0.29822030
v 3.21359771 0.45123493 -0.10988257
v 3.04885089 0.34408427 -0.47299692
v 3.00643193 0.44900829 0.10616438
v 2.21362912 0.41752141 0.00000000
v 2.21362912 0.40558378 0.11600061
v 2.49777728 -0.33655371 0.49278722
v 2.21362912 -0.40150468 0.13757274
v 3.03970044 -0.33489150 -0.50055332
v 3.21302921 -0.32089007 -0.23525601
v 3.21361409 -0.54812166 -0.10139512
v 3.20715377 0.21817889 -0.26806884
v 3.21361409 -0.00013702 -0.29822094
v 2.99579353 0.44930981 -0.10212164
v 2.21361925 -0.41895786 0.00265499
v 3.01973170 -0.54812387 -0.10079361
v 3.04624638 0.32723130 -0.49434542
v 2.55648137 0.34296393 -0.49920944
v 2.97007345 0.34245758 -0.49928584
v 2.21362912 0.41042467 -0.08066632
v 2.97634281 -0.54812166 -0.07636411
v 2.21362226 -0.37034126 -0.24112312
v 2.21362912 -0.17565649 -0.44190896
v 2.51311845 -0.33695586 -0.49930536
v 2.49455677 0.33636017 -0.49142896
v 2.21362912 -0.40272403 -0.13322164
v 2.21362838 0.39739679 -0.15668687
v 2.21362918 -0.00001717 -0.49749025
v 2.21362912 0.04932060 -0.49182010
v 2.21369570 0.24484827 -0.41823613
vn -0.06335432 0.01277949 0.99790927
vn -0.04041935 -0.03808324 0.99845678
vn 0.11722639 0.00000983 0.99310522
vn -0.33043090 0.09673264 0.93886006
vn 0.99035748 0.00192689 0.13852204
vn 0.26086233 -0.01388895 0.96527610
vn 0.90111059 0.19082961 0.38933760
vn 0.87711533 -0.21139487 0.43125504
vn -0.84200461 0.28884950 0.45562508
vn -0.94713439 0.00323422 0.32082081
vn 0.98455490 -0.00476284 0.17501135
vn 0.99604207 0.01427000 0.08773008
vn 0.99758867 0.02731293 0.06380329
vn 0.95620780 0.28585489 0.06287790
vn 0.18218501 0.52503643 0.83135153
vn -0.52837312 0.75574470 0.38687439
vn -0.98071011 0.04390917 0.19047222
vn -0.97784861 0.19496954 0.07615097
vn -0.99295273 0.09056212 0.07644201
vn -0.22546557 -0.79621282 0.56143603
vn 0.93887257 -0.31962419 0.12790105
vn 0.99956693 0.01210692 0.02682109
vn -0.05990946 0.97101580 0.23138534
vn -0.98458848 -0.15489862 0.08119082
vn -0.69076012 -0.70550307 0.15847985
vn -0.93678170 -0.01965366 0.34936196
vn -0.99338870 -0.05652993 0.09991624
vn 0.99900276 -0.01233181 0.04291166
vn 0.99878508 0.00015354 0.04927820
vn 0.95059943 0.30252204 -0.06957834
vn 0.95600399 0.23589154 -0.17438911
vn -0.32463234 0.93672161 0.13102090
vn -0.96798212 0.25100921 0.00223472
vn -0.96977408 0.23780178 0.05466755
vn -0.80483291 -0.28959816 0.51805105
vn -0.98443302 -0.16648300 0.05634752
vn 0.88180678 -0.18563496 -0.43353947
vn 0.99908293 -0.01205078 -0.04108619
vn 0.94673498 -0.30143440 -0.11327036
vn 0.99891303 0.01170916 -0.04511815
vn 0.99877759 -0.00008493 -0.04942999
vn -0.31822170 0.93590700 -0.15103988
vn -0.98525982 -0.17106254 0.00083650
vn -0.51930254 -0.80393329 -0.28985537
vn 0.94238695 0.07918672 -0.32501739
vn -0.53338731 0.46048679 -0.70954203
vn 0.47162452 0.45809365 -0.75347231
vn -0.97052695 0.23711405 -0.04306232
vn -0.74332637 -0.66314248 -0.08779498
vn -0.98437463 -0.15476198 -0.08399598
vn -0.99043810 -0.04270582 -0.13118151
vn -0.79142095 -0.28937590 -0.53843705
vn -0.90955671 0.22749235 -0.34778415
vn -0.98448408 -0.16708322 -0.05361247
vn -0.97075881 0.22876911 -0.07274637
vn -0.94753750 -0.00316624 -0.31962896
vn -0.97169382 0.02301900 -0.23511963
vn -0.99045214 0.06426508 -0.12196127
f 49//49 25//25 43//43
f 49//49 44//44 25//25
f 51//51 50//50 56//56
f 43//43 25//25 36//36
f 25//25 24//24 36//36
f 25//25 44//44 39//39
f 37//37 38//38 39//39
f 35//35 20//20 8//8
f 35//35 24//24 25//25
f 55//55 50//50 43//43
f 37//37 45//45 41//41
f 41//41 38//38 37//37
f 14//14 39//39 41//41
f 41//41 39//39 38//38
f 44//44 49//49 54//54
f 54//54 50//50 44//44
f 54//54 49//49 43//43
f 43//43 50//50 54//54
f 57//57 55//55 58//58
f 57//57 56//56 50//50
f 50//50 55//55 57//57
f 51//51 56//56 52//52
f 52//52 50//50 51//51
f 44//44 50//50 52//52
f 37//37 39//39 52//52
f 52//52 39//39 44//44
f 14//14 7//7 13//13
f 8//8 7//7 6//6
f 25//25 39//39 21//21
f 8//8 20//20 21//21
f 21//21 35//35 25//25
f 20//20 35//35 21//21
f 21//21 39//39 14//14
f 27//27 35//35 26//26
f 24//24 35//35 27//27
f 27//27 36//36 24//24
f 43//43 36//36 27//27
f 14//14 41//41 30//30
f 56//56 57//57 46//46
f 37//37 52//52 46//46
f 46//46 52//52 56//56
f 2//2 35//35 8//8
f 8//8 6//6 2//2
f 26//26 35//35 2//2
f 29//29 21//21 14//14
f 40//40 41//41 45//45
f 45//45 30//30 40//40
f 40//40 30//30 41//41
f 34//34 33//33 55//55
f 43//43 18//18 34//34
f 34//34 55//55 43//43
f 18//18 16//16 34//34
f 55//55 33//33 48//48
f 58//58 55//55 53//53
f 55//55 46//46 53//53
f 53//53 57//57 58//58
f 53//53 46//46 57//57
f 31//31 30//30 45//45
f 42//42 46//46 55//55
f 30//30 46//46 42//42
f 55//55 48//48 42//42
f 42//42 48//48 33//33
f 47//47 45//45 37//37
f 37//37 46//46 47//47
f 47//47 31//31 45//45
f 47//47 46//46 30//30
f 30//30 31//31 47//47
f 11//11 7//7 8//8
f 11//11 5//5 7//7
f 8//8 29//29 11//11
f 11//11 29//29 5//5
f 9//9 16//16 18//18
f 1//1 2//2 15//15
f 15//15 2//2 6//6
f 16//16 9//9 15//15
f 15//15 23//23 16//16
f 15//15 7//7 14//14
f 14//14 23//23 15//15
f 8//8 21//21 28//28
f 28//28 29//29 8//8
f 21//21 29//29 28//28
f 14//14 13//13 22//22
f 22//22 29//29 14//14
f 13//13 29//29 22//22
f 7//7 5//5 12//12
f 5//5 29//29 12//12
f 12//12 13//13 7//7
f 12//12 29//29 13//13
f 33//33 34//34 32//32
f 32//32 42//42 33//33
f 16//16 23//23 32//32
f 32//32 34//34 16//16
f 30//30 42//42 32//32
f 14//14 30//30 32//32
f 32//32 23//23 14//14
f 19//19 9//9 18//18
f 17//17 9//9 19//19
f 19//19 18//18 43//43
f 10//10 9//9 17//17
f 10//10 27//27 26//26
f 17//17 19//19 10//10
f 26//26 2//2 10//10
f 10//10 2//2 1//1
f 43//43 27//27 10//10
f 10//10 19//19 43//43
f 1//1 15//15 4//4
f 4//4 15//15 9//9
f 4//4 10//10 1//1
f 9//9 10//10 4//4
f 3//3 6//6 7//7
f 7//7 15//15 3//3
f 3//3 15//15 6//6

