# https://github.com/mikedh/trimesh
v 2.85652137 1.58327290 -0.11064926
v 2.54387897 1.58327290 -0.04933650
v 2.56016479 1.60211239 -0.33706647
v 3.09018486 1.60019362 -0.49441486
v 3.39209911 1.58309360 -0.04680374
v 2.79504275 1.66078393 -0.48669707
v 2.46966898 1.62212634 -0.29784197
v 3.45427402 1.81475015 -0.46890387
v 3.39214856 1.58327290 0.04698132
v 2.56929862 1.62577551 -0.40850378
v 2.71967034 1.66078393 -0.46883440
v 2.45665561 1.65640004 -0.30581452
v 2.51453755 1.59658294 0.01957555
v 2.46966898 1.62212634 0.29784197
v 3.45665558 1.86522885 -0.45464213
v 3.45334774 1.81130114 0.49287380
v 3.20078103 1.62325175 0.46702365
v 2.51176008 1.66078393 -0.37922732
v 2.92587724 1.63103350 -0.49997573
v 2.45666417 2.37626096 -0.31194409
v 2.45666710 1.66075924 0.31490485
v 2.47182244 2.01844034 -0.34658508
v 3.38393611 1.75076459 -0.49024491
v 3.43486948 2.47698750 -0.48443402
v 3.45665261 2.52865994 -0.45252812
v 3.45665558 1.86522885 0.45464213
v 3.43392336 1.78165153 0.48478635
v 3.12111723 1.60550559 0.49262888
v 3.21128315 1.58327290 0.09687679
v 2.51176008 2.37609675 -0.37922732
v 2.74463284 2.46364229 -0.47844914
v 2.83160826 2.43625156 -0.49367639
v 3.37454817 2.42605834 -0.49934195
v 2.48924367 1.61114913 0.36667695
v 3.21929377 2.55851568 -0.43127382
v 2.47367277 2.46449645 -0.33792976
v 2.45667539 2.41793622 0.31140594
v 2.57571644 1.58327290 0.08245588
v 3.43492480 2.40164015 0.48439696
v 3.37046478 2.45215155 0.50002432
v 3.35734023 1.79888736 0.49994453
v 2.88005690 1.59915186 0.44288456
v 2.57970530 2.44843915 -0.40148838
v 3.43472903 2.56899362 -0.39190248
v 3.43472903 2.56899362 0.39190248
v 3.45664776 2.52967233 0.43970461
v 2.62423132 2.56292583 -0.29784197
v 2.73828744 1.63947314 0.47399064
v 2.56810794 1.62835119 0.40802296
v 2.80581940 2.58229193 -0.39294747
v 3.37443028 2.58308658 0.39191722
v 3.25806895 2.56140888 0.43027057
v 2.71526550 2.58000364 -0.31355134
v 2.63726431 2.57114592 0.33469647
v 2.73905182 2.37609675 0.47436448
v 3.37443080 2.58308648 -0.39190383
v 2.92190411 2.43270597 0.49974296
v 2.82810167 2.46383770 0.49324430
v 2.48261669 2.47037538 0.36397605
v 2.76057877 2.58309359 0.39083672
vn -0.00561105 -0.99992437 -0.01094395
vn -0.44190904 -0.89704250 -0.00558115
vn -0.39669028 -0.91489462 -0.07486422
vn 0.33165853 -0.82669224 -0.45451355
vn 0.78481631 -0.61964175 -0.01036662
vn -0.70469788 -0.35448831 -0.61460470
vn -0.87155245 -0.48787037 -0.04877332
vn 0.97475079 -0.13858962 -0.17508230
vn 0.78567789 -0.61856286 0.00949953
vn -0.80282305 -0.52513415 -0.28232830
vn -0.82311890 -0.32593214 -0.46501991
vn -0.99228471 -0.10569008 -0.06481250
vn -0.75196406 -0.65920303 0.00119143
vn -0.93096539 -0.36504259 0.00688110
vn 0.99990832 -0.00642893 -0.01191729
vn 0.93682016 -0.16108143 0.31051693
vn 0.72942577 -0.66959897 0.13991161
vn -0.97087969 -0.14345737 -0.19186613
vn -0.35774187 -0.64903272 -0.67139950
vn -0.99873187 0.02867133 -0.04138359
vn -0.99657962 -0.07080826 0.04260576
vn -0.99169671 -0.00126992 -0.12859250
vn 0.81933633 -0.39646748 -0.41412741
vn 0.82526344 0.35719627 -0.43743695
vn 0.85507191 0.46702645 -0.22525168
vn 0.99993676 -0.00984128 0.00544276
vn 0.87465892 -0.44629765 0.18918293
vn 0.22812567 -0.83050653 0.50815113
vn 0.01473929 -0.99981080 0.01269312
vn -0.96637583 0.04874889 -0.25247040
vn -0.73149968 0.46444063 -0.49920249
vn -0.35623485 0.41190631 -0.83870729
vn 0.47060593 0.22819185 -0.85232537
vn -0.84416821 -0.50977805 0.16585045
vn -0.01898952 0.92734389 -0.37372813
vn -0.94135156 0.31481643 -0.12144079
vn -0.99604583 0.08443374 0.02763411
vn -0.19326128 -0.98106399 0.01278778
vn 0.95840314 0.06366829 0.27822612
vn 0.56925755 0.46437267 0.67845697
vn 0.25922872 -0.15595453 0.95314147
vn -0.14582513 -0.98044983 0.13211040
vn -0.92012677 0.25752073 -0.29504204
vn 0.80923842 0.58519281 -0.05179332
vn 0.80248905 0.59313264 0.06484598
vn 0.88283154 0.42402662 0.20201461
vn -0.67179861 0.73859366 -0.05626749
vn -0.65975360 -0.52941646 0.53333236
vn -0.87015517 -0.34432391 0.35252095
vn -0.35798246 0.90994819 -0.20938684
vn 0.25763833 0.95759109 0.12900306
vn 0.05222377 0.93400121 0.35343233
vn -0.28813064 0.95707377 -0.03147276
vn -0.62507957 0.77760277 0.06789308
vn -0.88489705 0.05617361 0.46238700
vn 0.23738659 0.96393801 -0.12029593
vn -0.17443908 0.17507914 0.96897797
vn -0.57730895 0.51677616 0.63218414
vn -0.93957852 0.29537441 0.17304957
vn -0.38852646 0.89504360 0.21896152
f 5//5 4//4 23//23
f 1//1 4//4 5//5
f 4//4 1//1 2//2
f 2//2 1//1 5//5
f 53//53 54//54 60//60
f 5//5 23//23 8//8
f 8//8 25//25 15//15
f 4//4 2//2 3//3
f 46//46 16//16 26//26
f 15//15 25//25 26//26
f 26//26 25//25 46//46
f 26//26 8//8 15//15
f 16//16 8//8 26//26
f 16//16 40//40 41//41
f 48//48 58//58 55//55
f 21//21 37//37 12//12
f 12//12 37//37 20//20
f 20//20 37//37 36//36
f 52//52 51//51 60//60
f 46//46 51//51 52//52
f 60//60 58//58 52//52
f 52//52 40//40 46//46
f 58//58 40//40 52//52
f 46//46 25//25 44//44
f 36//36 37//37 59//59
f 59//59 55//55 58//58
f 59//59 58//58 60//60
f 60//60 54//54 59//59
f 37//37 21//21 59//59
f 54//54 53//53 47//47
f 36//36 59//59 47//47
f 47//47 59//59 54//54
f 25//25 8//8 24//24
f 24//24 8//8 23//23
f 24//24 32//32 31//31
f 31//31 35//35 24//24
f 24//24 35//35 25//25
f 19//19 23//23 4//4
f 7//7 3//3 2//2
f 43//43 36//36 31//31
f 31//31 30//30 43//43
f 43//43 30//30 36//36
f 31//31 11//11 10//10
f 10//10 30//30 31//31
f 3//3 7//7 10//10
f 11//11 19//19 10//10
f 4//4 3//3 10//10
f 10//10 19//19 4//4
f 39//39 16//16 46//46
f 46//46 40//40 39//39
f 39//39 40//40 16//16
f 57//57 58//58 48//48
f 57//57 40//40 58//58
f 57//57 41//41 40//40
f 45//45 51//51 46//46
f 46//46 44//44 45//45
f 50//50 53//53 60//60
f 50//50 35//35 31//31
f 50//50 47//47 53//53
f 31//31 36//36 50//50
f 36//36 47//47 50//50
f 34//34 59//59 21//21
f 34//34 42//42 48//48
f 6//6 19//19 11//11
f 32//32 19//19 6//6
f 6//6 11//11 31//31
f 31//31 32//32 6//6
f 32//32 24//24 33//33
f 33//33 19//19 32//32
f 33//33 24//24 23//23
f 23//23 19//19 33//33
f 30//30 10//10 18//18
f 18//18 7//7 12//12
f 18//18 10//10 7//7
f 9//9 29//29 5//5
f 9//9 27//27 17//17
f 16//16 27//27 9//9
f 5//5 8//8 9//9
f 9//9 8//8 16//16
f 48//48 42//42 28//28
f 28//28 9//9 17//17
f 28//28 57//57 48//48
f 41//41 57//57 28//28
f 16//16 41//41 28//28
f 28//28 42//42 29//29
f 29//29 9//9 28//28
f 28//28 27//27 16//16
f 17//17 27//27 28//28
f 35//35 50//50 56//56
f 56//56 44//44 25//25
f 25//25 35//35 56//56
f 51//51 45//45 56//56
f 56//56 45//45 44//44
f 60//60 51//51 56//56
f 56//56 50//50 60//60
f 49//49 34//34 48//48
f 59//59 34//34 49//49
f 48//48 55//55 49//49
f 55//55 59//59 49//49
f 38//38 34//34 2//2
f 42//42 34//34 38//38
f 29//29 42//42 38//38
f 38//38 2//2 5//5
f 5//5 29//29 38//38
f 13//13 7//7 2//2
f 2//2 34//34 13//13
f 14//14 34//34 21//21
f 14//14 21//21 12//12
f 12//12 7//7 14//14
f 7//7 13//13 14//14
f 14//14 13//13 34//34
f 36//36 30//30 22//22
f 30//30 18//18 22//22
f 22//22 18//18 12//12
f 12//12 20//20 22//22
f 22//22 20//20 36//36

