# https://github.com/mikedh/trimesh
v -1.54187709 0.50000002 0.29605186
v -1.54128981 0.49628033 0.37915682
v -0.54187711 0.49980424 0.29957575
v -0.54187711 0.49990210 0.29605186
v -1.54128981 0.49862960 -0.36820034
v -1.54187709 0.50000002 -0.28510206
v -0.54187711 0.49990210 -0.28509542
v -1.54187709 0.49588883 0.38052717
v -0.54187711 0.49588883 0.37915682
v -1.54187709 0.47738843 -0.43769915
v -0.54187711 0.49843382 -0.36820034
v -1.54187709 0.47454973 0.44464229
v -1.54128981 0.47454973 0.44464229
v -1.54187709 0.47689900 -0.43926531
v -0.54187711 0.47670322 -0.43848226
v -1.54187709 0.47337510 0.44562117
v -0.54187711 0.47425613 0.44395709
v -0.54187711 0.42746674 -0.47998578
v -1.54187709 0.41846125 0.48438388
v -0.54187711 0.41846125 0.48281771
v -1.54187709 0.42971762 -0.48076923
v -0.54187711 0.38948709 -0.49554959
v -1.54187709 0.34240407 0.49984981
v -0.54187711 0.34240407 0.49838152
v -1.54187709 0.39164058 -0.49633271
v -0.54187711 0.34240407 -0.49838828
v -1.54187709 0.34240407 -0.49995445
v -1.54187709 0.26634692 0.49994769
v -0.54187711 -0.34240407 0.49838152
v -0.54187711 -0.34240407 -0.49838828
v -1.54187709 0.26634692 -0.50005234
v -1.54187709 -0.26634692 0.49994769
v -0.54187711 -0.41846125 0.48281771
v -1.54187709 -0.34240407 0.49984981
v -1.54187709 -0.34397024 0.49965404
v -0.54187711 -0.38948709 -0.49554959
v -1.54187709 -0.34240407 -0.49995445
v -1.54187709 -0.26634692 -0.50005234
v -0.54187711 -0.47425609 0.44395712
v -0.54187711 -0.42590057 -0.48067095
v -1.54187709 -0.39164058 -0.49633271
v -1.54187709 -0.39046595 -0.49652847
v -0.54187711 -0.49588883 0.37915682
v -1.54128981 -0.47454973 0.44464229
v -1.54187709 -0.47503916 0.44327188
v -1.54187709 -0.41846125 0.48438388
v -0.54187711 -0.42746674 -0.47998578
v -1.54187709 -0.42971809 -0.48076883
v -0.54187711 -0.49608461 0.37563290
v -1.54128981 -0.49628033 0.37915682
v -0.54187711 -0.47670322 -0.43848226
v -1.54187709 -0.47621379 -0.44004843
v -0.54187711 -0.49990210 0.29605186
v -1.54187709 -0.50000002 0.29605268
v -0.54187711 -0.49843382 -0.36820034
v -1.54187709 -0.47689900 -0.43926531
v -0.54187711 -0.49990210 -0.28861929
v -1.54128981 -0.49862960 -0.36820034
v -1.54187709 -0.49823809 -0.36966863
v -1.54187709 -0.50000002 -0.28509543
vn -0.30793105 0.95107072 0.02535666
vn -0.02045031 0.98606185 0.16511758
vn 0.31015599 0.94969063 0.04348532
vn 0.30957130 0.95074633 0.01571690
vn -0.24558204 0.95302338 -0.17730171
vn -0.31065628 0.95046506 -0.01043322
vn 0.31055099 0.95050426 -0.00998716
vn -0.30114778 0.91832416 0.25688665
vn 0.28729388 0.93490067 0.20838178
vn -0.30896170 0.89301855 -0.32720106
vn 0.28679016 0.94116919 -0.17875113
vn -0.26194623 0.75305715 0.60356367
vn 0.00004073 0.78022856 0.62549452
vn -0.26276423 0.76688020 -0.58553371
vn 0.26131667 0.76201620 -0.59249043
vn -0.28912254 0.51873017 0.80456645
vn 0.25636192 0.72736301 0.63657020
vn 0.27070407 0.43784167 -0.85732957
vn -0.26230612 0.33095642 0.90645648
vn 0.26293590 0.32885879 0.90703727
vn -0.26916487 0.44612564 -0.85353511
vn 0.26632591 0.18234148 -0.94647879
vn -0.27401785 0.08163975 0.95825319
vn 0.27407657 0.08162518 0.95823763
vn -0.26704786 0.18727337 -0.94531166
vn 0.28399846 0.02425528 -0.95851790
vn -0.28289981 0.03004205 -0.95867887
vn -0.28819194 0.00050921 0.95757253
vn 0.27407763 -0.08162293 0.95823752
vn 0.28399846 -0.02425528 -0.95851790
vn -0.28818414 0.00050921 -0.95757487
vn -0.28819194 -0.00050921 0.95757253
vn 0.26293690 -0.32886084 0.90703623
vn -0.27923462 -0.05068085 0.95888450
vn -0.28287959 -0.13147795 0.95010141
vn 0.26638599 -0.18192387 -0.94654224
vn -0.28306108 -0.02913753 -0.95865918
vn -0.28818414 -0.00050921 -0.95757487
vn 0.25636302 -0.72736063 0.63657247
vn 0.28941097 -0.32038577 -0.90199459
vn -0.27340061 -0.22350206 -0.93557412
vn -0.28152114 -0.09522178 -0.95481865
vn 0.28776687 -0.93397616 0.21184610
vn -0.04513112 -0.71277812 0.69993610
vn -0.29370192 -0.79978548 0.52352877
vn -0.26231808 -0.33236895 0.90593604
vn 0.27244552 -0.44660345 -0.85224339
vn -0.26928854 -0.44524422 -0.85395625
vn 0.31146907 -0.94845639 0.05845929
vn -0.24347403 -0.94789390 0.20546910
vn 0.26131655 -0.76201654 -0.59249005
vn -0.28761393 -0.61634622 -0.73307268
vn 0.30765307 -0.95111211 0.02711738
vn -0.30794380 -0.95103911 0.02636720
vn 0.28684828 -0.94106913 -0.17918415
vn -0.27189761 -0.80389944 -0.52897768
vn 0.31047520 -0.95052426 -0.01043000
vn -0.02303056 -0.99043651 -0.13603353
vn -0.30219230 -0.92413668 -0.23377598
vn -0.31064526 -0.95047982 -0.00936151
f 3//3 2//2 9//9
f 21//21 60//60 54//54
f 54//54 45//45 21//21
f 21//21 45//45 46//46
f 21//21 15//15 18//18
f 18//18 22//22 21//21
f 1//1 2//2 3//3
f 14//14 15//15 21//21
f 21//21 41//41 48//48
f 23//23 19//19 21//21
f 43//43 39//39 45//45
f 35//35 34//34 21//21
f 21//21 46//46 35//35
f 45//45 39//39 44//44
f 44//44 46//46 45//45
f 39//39 46//46 44//44
f 22//22 27//27 25//25
f 21//21 22//22 25//25
f 25//25 27//27 21//21
f 7//7 11//11 5//5
f 10//10 14//14 21//21
f 5//5 11//11 10//10
f 10//10 11//11 15//15
f 15//15 14//14 10//10
f 59//59 58//58 60//60
f 59//59 60//60 21//21
f 21//21 56//56 59//59
f 52//52 56//56 21//21
f 21//21 48//48 52//52
f 8//8 9//9 2//2
f 8//8 13//13 9//9
f 2//2 1//1 8//8
f 21//21 19//19 16//16
f 19//19 23//23 24//24
f 24//24 23//23 28//28
f 45//45 54//54 50//50
f 50//50 43//43 45//45
f 53//53 54//54 60//60
f 53//53 50//50 54//54
f 33//33 46//46 39//39
f 33//33 35//35 46//46
f 38//38 37//37 21//21
f 36//36 41//41 42//42
f 42//42 37//37 36//36
f 42//42 41//41 21//21
f 21//21 37//37 42//42
f 4//4 1//1 3//3
f 4//4 7//7 1//1
f 6//6 7//7 5//5
f 1//1 7//7 6//6
f 5//5 10//10 6//6
f 6//6 10//10 21//21
f 21//21 8//8 6//6
f 6//6 8//8 1//1
f 13//13 8//8 12//12
f 12//12 16//16 13//13
f 12//12 8//8 21//21
f 21//21 16//16 12//12
f 9//9 13//13 17//17
f 13//13 16//16 17//17
f 17//17 16//16 19//19
f 29//29 32//32 34//34
f 34//34 35//35 29//29
f 35//35 33//33 29//29
f 60//60 58//58 57//57
f 57//57 53//53 60//60
f 43//43 50//50 49//49
f 50//50 53//53 49//49
f 21//21 27//27 31//31
f 31//31 38//38 21//21
f 36//36 37//37 30//30
f 37//37 38//38 30//30
f 9//9 17//17 20//20
f 19//19 24//24 20//20
f 20//20 17//17 19//19
f 58//58 59//59 55//55
f 55//55 57//57 58//58
f 55//55 59//59 56//56
f 26//26 27//27 22//22
f 26//26 31//31 27//27
f 51//51 55//55 56//56
f 56//56 52//52 51//51
f 51//51 52//52 48//48
f 47//47 51//51 48//48
f 40//40 47//47 48//48
f 40//40 41//41 36//36
f 40//40 48//48 41//41
f 23//23 32//32 28//28
f 34//34 32//32 23//23
f 21//21 34//34 23//23
f 28//28 32//32 29//29
f 29//29 24//24 28//28
f 38//38 31//31 26//26
f 26//26 30//30 38//38
f 3//3 9//9 40//40
f 40//40 18//18 15//15
f 43//43 49//49 40//40
f 36//36 30//30 40//40
f 40//40 33//33 39//39
f 22//22 18//18 40//40
f 15//15 11//11 40//40
f 39//39 43//43 40//40
f 11//11 7//7 40//40
f 24//24 29//29 40//40
f 9//9 20//20 40//40
f 40//40 4//4 3//3
f 7//7 4//4 40//40
f 40//40 29//29 33//33
f 53//53 57//57 40//40
f 40//40 49//49 53//53
f 40//40 26//26 22//22
f 40//40 20//20 24//24
f 57//57 55//55 40//40
f 30//30 26//26 40//40
f 55//55 51//51 40//40
f 51//51 47//47 40//40

