# https://github.com/mikedh/trimesh
v -2.62640167 0.50273255 0.00669351
v -2.66143310 0.49623887 0.23273399
v -2.39027845 0.46440343 0.30578310
v -2.81946008 0.49652690 0.23909112
v -2.40819083 0.46374706 0.37270429
v -2.71250947 0.49656809 -0.24318449
v -2.90494023 0.49709964 -0.00347950
v -2.88473258 0.45652542 0.41323052
v -2.35137084 0.41141475 0.38491355
v -2.05450953 0.27486651 0.23205192
v -2.05449980 0.27491005 -0.23144702
v -2.05449556 0.26227985 -0.28104205
v -2.39055980 0.46422358 -0.36517912
v -2.71870919 0.46550599 -0.44798145
v -3.04058580 0.38170316 -0.15111589
v -3.05398280 0.38824843 0.00302990
v -2.91687414 0.41061107 0.41498151
v -3.03846343 0.37740294 0.15963673
v -2.79895222 0.46311360 0.45890687
v -2.05449556 0.26057862 0.28478996
v -2.87116387 0.46034674 -0.44214232
v -2.83048339 0.40116910 0.48090857
v -2.98749530 0.36969802 0.30528907
v -2.73565649 0.42533266 0.50000319
v -2.67069045 0.45806481 0.48877444
v -2.05398276 0.20317918 0.31965244
v -2.67469260 0.42022471 -0.48985689
v -2.05449559 0.21431167 -0.31990105
v -2.43855233 0.42088035 -0.42317358
v -2.83900933 -0.41601010 -0.47634021
v -2.74378016 0.39353910 -0.49999675
v -3.03872950 -0.37926417 0.15883364
v -3.00127659 -0.37313064 0.27469617
v -2.69738799 -0.41862185 0.49607876
v -2.69437090 -0.41873136 -0.49523798
v -2.76209278 -0.39936466 -0.49831454
v -2.92039175 -0.40585766 -0.41118792
v -2.91679531 0.36789643 -0.41681367
v -2.98577184 0.37517395 -0.30594544
v -3.05350531 -0.38689581 0.00807062
v -2.87016098 -0.45904730 0.43420125
v -2.90356542 -0.40175845 0.42873189
v -2.38748934 -0.42804075 0.40094195
v -3.03981733 -0.37896402 -0.15552546
v -2.99663163 -0.37702618 -0.28611049
v -2.87464274 -0.46292970 -0.41038101
v -2.73164657 -0.46270878 -0.46571649
v -2.05449517 -0.21703620 -0.31988116
v -2.43855055 -0.42088001 -0.42317324
v -2.90552450 -0.49661310 0.00022329
v -2.83346400 -0.45700146 0.47829560
v -2.78553863 -0.49691170 0.26461799
v -2.41435932 -0.46364752 0.37541614
v -2.05453047 -0.22080497 0.31985093
v -2.77819636 -0.49726742 -0.26061470
v -2.58903628 -0.49654952 0.10705432
v -2.39028012 -0.46440427 0.30575244
v -2.05449553 -0.27484251 0.23396966
v -2.39051989 -0.46444885 -0.34279269
v -2.05449908 -0.27482991 -0.27055729
vn 0.04291266 0.99907534 -0.00264087
vn 0.02477412 0.99016545 0.13769031
vn 0.22929818 0.96800247 0.10194878
vn -0.07656453 0.98566789 0.15032193
vn 0.18012847 0.78744940 0.58947195
vn -0.00470890 0.99006307 -0.14054515
vn -0.24157658 0.97034554 -0.00838380
vn -0.30308212 0.71130641 0.63418012
vn 0.21293748 0.36477391 0.90642022
vn 0.74567638 0.65364414 0.12929065
vn 0.75200990 0.64882157 -0.11623972
vn 0.67812870 0.50440955 -0.53452079
vn 0.22042487 0.79956167 -0.55867164
vn 0.00235757 0.77020263 -0.63779491
vn -0.76021979 0.51180594 -0.40015065
vn -0.81357925 0.58103135 0.02216707
vn -0.45204687 0.28792435 0.84424712
vn -0.76120235 0.49549995 0.41839069
vn -0.10952306 0.70107283 0.70462869
vn 0.65449534 0.48133941 0.58305079
vn -0.25487190 0.58893982 -0.76693559
vn -0.18526101 0.15031094 0.97112562
vn -0.63166764 0.27495866 0.72484048
vn -0.03572148 0.18222846 0.98260713
vn 0.05992969 0.54301600 0.83758107
vn 0.57875863 0.10797003 0.80831981
vn 0.06673575 0.28873851 -0.95507927
vn 0.57274469 0.13946969 -0.80778198
vn 0.12545218 0.27894495 -0.95207745
vn -0.18685120 -0.25663776 -0.94827406
vn -0.05086105 0.14993203 -0.98738723
vn -0.75919838 -0.51392837 0.39936882
vn -0.63654575 -0.32733734 0.69832641
vn 0.04765499 -0.27916530 0.95905982
vn 0.05925377 -0.23183794 -0.97094807
vn -0.05065793 -0.14690778 -0.98785215
vn -0.45732545 -0.29712908 -0.83819314
vn -0.39694850 0.08371695 -0.91401497
vn -0.62676249 0.29508500 -0.72117517
vn -0.81556358 -0.57841809 0.01698688
vn -0.34362636 -0.73558530 0.58381093
vn -0.43645851 -0.17879454 0.88178029
vn 0.20431379 -0.38409513 0.90040369
vn -0.76719091 -0.51058566 -0.38822725
vn -0.63852594 -0.35726885 -0.68164770
vn -0.27030523 -0.76438717 -0.58536086
vn -0.01100110 -0.70334053 -0.71076795
vn 0.57056166 -0.14975763 -0.80748501
vn 0.13770662 -0.34747036 -0.92752425
vn -0.24368483 -0.96985119 0.00252318
vn -0.14269655 -0.51994601 0.84219585
vn -0.03743601 -0.98660681 0.15876256
vn 0.15611027 -0.81784805 0.55385391
vn 0.56914976 -0.22458763 0.79096710
vn -0.02859132 -0.98883361 -0.14625532
vn 0.04995711 -0.99832205 0.02928080
vn 0.23458785 -0.96306136 0.13221711
vn 0.71668241 -0.64075652 0.27531328
vn 0.22184749 -0.85457100 -0.46956586
vn 0.66905713 -0.60325886 -0.43409826
f 60//60 48//48 26//26
f 26//26 11//11 10//10
f 48//48 35//35 28//28
f 26//26 48//48 28//28
f 51//51 24//24 22//22
f 22//22 42//42 51//51
f 42//42 23//23 33//33
f 26//26 25//25 54//54
f 30//30 21//21 31//31
f 24//24 25//25 19//19
f 19//19 22//22 24//24
f 21//21 39//39 15//15
f 37//37 39//39 38//38
f 38//38 39//39 21//21
f 38//38 30//30 37//37
f 21//21 30//30 38//38
f 28//28 29//29 13//13
f 26//26 10//10 20//20
f 5//5 20//20 10//10
f 31//31 21//21 27//27
f 27//27 35//35 31//31
f 27//27 13//13 29//29
f 27//27 28//28 35//35
f 27//27 29//29 28//28
f 51//51 42//42 41//41
f 42//42 33//33 41//41
f 60//60 57//57 59//59
f 52//52 50//50 55//55
f 51//51 41//41 52//52
f 52//52 41//41 50//50
f 58//58 57//57 60//60
f 58//58 60//60 26//26
f 26//26 54//54 58//58
f 54//54 43//43 58//58
f 31//31 35//35 36//36
f 36//36 30//30 31//31
f 47//47 59//59 55//55
f 47//47 36//36 35//35
f 30//30 36//36 47//47
f 18//18 33//33 23//23
f 22//22 19//19 8//8
f 16//16 18//18 8//8
f 1//1 13//13 6//6
f 12//12 13//13 11//11
f 28//28 13//13 12//12
f 12//12 11//11 26//26
f 26//26 28//28 12//12
f 2//2 5//5 1//1
f 25//25 5//5 2//2
f 3//3 13//13 1//1
f 1//1 5//5 3//3
f 3//3 5//5 10//10
f 3//3 10//10 11//11
f 11//11 13//13 3//3
f 26//26 20//20 9//9
f 20//20 5//5 9//9
f 9//9 25//25 26//26
f 9//9 5//5 25//25
f 14//14 27//27 21//21
f 13//13 27//27 14//14
f 21//21 6//6 14//14
f 14//14 6//6 13//13
f 50//50 40//40 44//44
f 16//16 15//15 44//44
f 44//44 40//40 16//16
f 50//50 41//41 32//32
f 32//32 40//40 50//50
f 32//32 41//41 33//33
f 33//33 18//18 32//32
f 16//16 40//40 32//32
f 32//32 18//18 16//16
f 55//55 59//59 56//56
f 56//56 59//59 57//57
f 56//56 52//52 55//55
f 48//48 60//60 49//49
f 60//60 59//59 49//49
f 49//49 35//35 48//48
f 49//49 47//47 35//35
f 59//59 47//47 49//49
f 51//51 52//52 53//53
f 53//53 56//56 57//57
f 52//52 56//56 53//53
f 57//57 58//58 53//53
f 53//53 58//58 43//43
f 34//34 54//54 25//25
f 34//34 43//43 54//54
f 34//34 25//25 24//24
f 34//34 24//24 51//51
f 51//51 53//53 34//34
f 34//34 53//53 43//43
f 46//46 47//47 55//55
f 55//55 50//50 46//46
f 37//37 30//30 46//46
f 30//30 47//47 46//46
f 50//50 44//44 46//46
f 22//22 8//8 17//17
f 17//17 23//23 42//42
f 42//42 22//22 17//17
f 17//17 18//18 23//23
f 17//17 8//8 18//18
f 16//16 8//8 7//7
f 7//7 15//15 16//16
f 21//21 15//15 7//7
f 7//7 6//6 21//21
f 1//1 6//6 7//7
f 45//45 39//39 37//37
f 37//37 46//46 45//45
f 45//45 46//46 44//44
f 45//45 15//15 39//39
f 45//45 44//44 15//15
f 4//4 8//8 19//19
f 4//4 7//7 8//8
f 4//4 19//19 25//25
f 25//25 2//2 4//4
f 4//4 2//2 1//1
f 1//1 7//7 4//4

