# https://github.com/mikedh/trimesh
v 0.68296072 -5.03738108 0.68986834
v 0.49745548 -5.03738108 0.68986834
v 0.68296072 -5.80243533 0.68986834
v 0.45389950 -5.04442958 0.68986834
v 0.49799502 -5.03738108 0.45101903
v -0.08999213 -5.04468057 0.28282135
v 0.67874247 -5.95231385 0.68986834
v 0.68296072 -5.41990820 0.46931659
v 0.67835006 -5.03738108 0.44076653
v -0.26530120 -5.07778123 0.14317989
v 0.67627159 -5.92434008 0.45420763
v -0.18685231 -5.11674274 0.25531722
v 0.22003145 -5.06526305 0.53504430
v 0.40196159 -5.13064305 0.68825014
v -0.30889633 -5.04451659 -0.06329096
v -0.28564448 -5.21339134 0.13030904
v 0.66682342 -5.38106831 0.41125990
v -0.28107793 -5.04433288 -0.10284858
v 0.52750136 -6.03027237 0.25059523
v 0.60869975 -5.92328782 0.32893316
v 0.66736298 -5.03738108 0.41422772
v 0.27604597 -5.13782183 -0.15956984
v -0.20648776 -5.45129615 0.23668811
v -0.19813705 -5.04432913 -0.23664917
v -0.31703924 -5.50250316 0.00253889
v -0.30778420 -5.56891148 0.07474188
v 0.66006103 -6.03737520 0.68986729
v 0.21480015 -6.03735589 -0.21347487
v 0.27977376 -5.11442506 -0.14818905
v 0.26442125 -5.08500718 -0.15775478
v -0.29153194 -5.66457083 -0.11852676
v 0.27482437 -5.90827711 -0.16143152
v 0.21872550 -5.04738481 -0.18288938
v 0.52786616 -5.28743115 0.20721518
v -0.18796237 -5.90610699 0.25376847
v -0.02956948 -5.04473588 -0.30934429
v -0.30874088 -6.03735778 0.00168358
v -0.26725703 -5.60371031 0.16491743
v 0.31540556 -6.03737251 0.68986819
v 0.52786616 -5.80243533 0.20721518
v 0.58499658 -5.03738108 0.37185637
v 0.23941214 -5.11478584 -0.19817005
v -0.13451527 -5.18481199 -0.27898372
v 0.12661972 -5.24322276 -0.28008823
v -0.22686631 -5.62120620 -0.21347985
v 0.40419858 -5.92169914 0.68986908
v 0.20247785 -5.65595302 -0.23619693
v -0.17493360 -5.96276411 0.25279351
v -0.22926208 -6.03728747 0.17091442
v -0.24573042 -5.94630546 0.18284095
v -0.22401378 -6.00877527 0.19657024
v 0.02756184 -6.03736822 -0.31013095
v 0.08791659 -5.91027974 -0.29335534
v -0.12346534 -5.84794161 -0.28355963
v -0.24082494 -6.03738106 -0.18695245
vn 0.11090046 0.98790768 0.10834899
vn -0.00043902 0.99402753 0.10912871
vn 0.56615883 -0.64374235 0.51483974
vn -0.00638564 0.99374177 0.11151912
vn -0.00005622 1.00000000 -0.00001758
vn -0.00767150 0.99992926 0.00909012
vn 0.13812945 -0.98100235 0.13621547
vn 0.98250954 -0.16190829 -0.09198216
vn 0.11990344 0.99242217 -0.02685899
vn -0.05908406 0.99766672 0.03420803
vn 0.12674247 -0.99147716 -0.03015602
vn -0.09529796 0.99100609 0.09394269
vn -0.01887019 0.99951713 0.02468646
vn -0.04171463 0.98924230 0.14021254
vn -0.12224927 0.99214576 -0.02649367
vn -0.24366522 0.96492026 0.09775560
vn 0.78987662 -0.48266196 -0.37832837
vn -0.00038830 0.99999990 -0.00021871
vn 0.02288807 -0.99963737 -0.01418652
vn 0.12828112 -0.98877278 -0.07663123
vn 0.10256744 0.99334090 -0.05247651
vn 0.16246496 0.97872276 -0.12532717
vn -0.74634262 0.14560714 0.64943918
vn -0.08038687 0.99284461 -0.08830368
vn -0.86831704 0.49570038 0.01751163
vn -0.83705711 -0.50390642 0.21310493
vn 0.02744426 -0.99490204 0.09703993
vn 0.06054160 -0.99565098 -0.07080845
vn 0.05452895 0.99778055 -0.03821738
vn 0.03225557 0.99917084 -0.02484363
vn -0.55326244 -0.79847332 -0.23736266
vn 0.18030812 -0.97422394 -0.13556066
vn 0.01088333 0.99982810 -0.01501096
vn 0.81039570 0.24763501 -0.53097618
vn -0.14651316 -0.97843504 0.14559797
vn -0.00896750 0.99219539 -0.12436998
vn -0.10611433 -0.99435376 -0.00059559
vn -0.67174509 -0.62589913 0.39624337
vn -0.08296445 -0.98229973 0.16794088
vn 0.72676059 -0.49598417 -0.47520390
vn 0.00004354 0.99999999 -0.00012511
vn 0.09950539 0.98930942 -0.10660934
vn -0.14318565 0.94517894 -0.29348705
vn 0.08732309 0.97819345 -0.18844695
vn -0.68050017 -0.37411046 -0.63004832
vn -0.00000335 -0.00030035 0.99999995
vn 0.49507571 -0.56875964 -0.65682000
vn -0.05026103 -0.99738288 0.05197317
vn -0.02408886 -0.99963993 0.01182105
vn -0.13486959 -0.98743737 0.08232639
vn -0.04619070 -0.99820045 0.03823990
vn 0.01105898 -0.99191000 -0.12646049
vn 0.11810164 -0.95417043 -0.27497418
vn -0.08363659 -0.97950934 -0.18321130
vn -0.08360931 -0.99441660 -0.06438256
f 54//54 36//36 52//52
f 39//39 14//14 12//12
f 12//12 35//35 39//39
f 46//46 4//4 39//39
f 39//39 4//4 14//14
f 25//25 16//16 15//15
f 26//26 16//16 25//25
f 12//12 16//16 38//38
f 16//16 26//26 38//38
f 3//3 8//8 1//1
f 11//11 8//8 3//3
f 1//1 46//46 3//3
f 36//36 54//54 43//43
f 45//45 54//54 55//55
f 55//55 54//54 52//52
f 52//52 27//27 55//55
f 27//27 39//39 55//55
f 2//2 46//46 1//1
f 2//2 4//4 46//46
f 6//6 4//4 2//2
f 2//2 15//15 6//6
f 5//5 15//15 2//2
f 13//13 6//6 12//12
f 13//13 4//4 6//6
f 12//12 14//14 13//13
f 14//14 4//4 13//13
f 49//49 39//39 51//51
f 12//12 6//6 10//10
f 6//6 15//15 10//10
f 10//10 16//16 12//12
f 10//10 15//15 16//16
f 36//36 43//43 24//24
f 24//24 54//54 45//45
f 24//24 43//43 54//54
f 23//23 35//35 12//12
f 12//12 38//38 23//23
f 23//23 38//38 35//35
f 7//7 27//27 11//11
f 11//11 3//3 7//7
f 7//7 3//3 46//46
f 46//46 39//39 7//7
f 7//7 39//39 27//27
f 28//28 27//27 52//52
f 37//37 26//26 25//25
f 37//37 39//39 49//49
f 37//37 55//55 39//39
f 45//45 55//55 31//31
f 31//31 24//24 45//45
f 15//15 24//24 31//31
f 55//55 37//37 31//31
f 25//25 15//15 31//31
f 31//31 37//37 25//25
f 48//48 39//39 35//35
f 35//35 51//51 48//48
f 48//48 51//51 39//39
f 18//18 15//15 5//5
f 5//5 24//24 18//18
f 18//18 24//24 15//15
f 52//52 36//36 44//44
f 32//32 28//28 47//47
f 53//53 28//28 52//52
f 47//47 28//28 53//53
f 52//52 44//44 53//53
f 53//53 44//44 47//47
f 20//20 32//32 40//40
f 28//28 32//32 20//20
f 1//1 8//8 9//9
f 9//9 8//8 11//11
f 36//36 24//24 41//41
f 41//41 21//21 36//36
f 41//41 24//24 5//5
f 35//35 38//38 50//50
f 50//50 51//51 35//35
f 50//50 38//38 26//26
f 26//26 37//37 50//50
f 49//49 51//51 50//50
f 50//50 37//37 49//49
f 36//36 21//21 33//33
f 17//17 20//20 40//40
f 11//11 20//20 17//17
f 21//21 9//9 17//17
f 17//17 9//9 11//11
f 19//19 20//20 11//11
f 28//28 20//20 19//19
f 11//11 27//27 19//19
f 27//27 28//28 19//19
f 30//30 33//33 21//21
f 21//21 17//17 34//34
f 34//34 22//22 21//21
f 34//34 17//17 40//40
f 40//40 32//32 34//34
f 32//32 22//22 34//34
f 21//21 22//22 29//29
f 29//29 30//30 21//21
f 33//33 30//30 42//42
f 42//42 29//29 22//22
f 30//30 29//29 42//42
f 42//42 44//44 36//36
f 36//36 33//33 42//42
f 47//47 44//44 42//42
f 42//42 32//32 47//47
f 42//42 22//22 32//32
f 5//5 2//2 41//41
f 41//41 2//2 1//1
f 1//1 9//9 41//41
f 41//41 9//9 21//21

