# https://github.com/mikedh/trimesh
v -0.26443012 -5.48186002 0.04085493
v -0.26443012 -5.60471786 0.04144531
v -0.26443012 -5.11338506 0.04085493
v -0.27653855 -5.70006680 0.04705406
v 0.26887555 -5.60471786 0.04144531
v -0.26443012 -4.99052723 0.04321649
v 0.26887555 -4.99052723 0.04321649
v 0.29266479 -5.29478333 0.04092332
v 0.29180050 -5.70693822 0.04780401
v 0.28107302 -5.73393884 0.05935392
v 0.28098399 -4.73394560 0.05718912
v 0.43926691 -5.73393842 0.49905606
v -0.30195054 -4.73394609 0.05719076
v 0.29867924 -4.73394560 0.06561453
v 0.31627432 -5.37929114 0.06684452
v -0.39612398 -4.73521192 0.32392519
v 0.31089897 -4.73394560 0.08857836
v 0.41666977 -5.67567904 0.38737882
v 0.33469851 -4.94658477 0.12636662
v 0.50650372 -4.92121774 0.75316432
v 0.49987079 -4.92430141 0.67988177
v 0.44646232 -4.97956300 0.48751198
v 0.38374438 -5.33601562 0.27765179
v -0.48860225 -5.73394078 0.05940176
v -0.39627843 -4.73430981 0.36982743
v 0.30877925 -4.73394083 0.16097521
v 0.15636181 -5.73393750 0.99854926
v -0.24433794 -5.72870426 0.53641622
v -0.38434598 -5.70975856 0.36572493
v 0.50134261 -5.22500007 0.67093055
v 0.50816366 -5.73393745 0.77965953
v -0.11243466 -5.69634130 0.70689225
v -0.28581882 -5.68420511 0.50647683
v 0.47100195 -5.72296225 0.89015401
v 0.51139775 -5.33585960 0.75978626
v 0.17750300 -5.35174830 1.02125358
v -0.34122077 -5.60471786 0.44399508
v 0.42862987 -5.73393407 0.97600710
v 0.12329045 -5.34369423 0.98405420
v 0.06666011 -5.55892762 0.92383717
v -0.34122077 -5.11338506 0.44399508
v 0.47138730 -4.91908998 0.92113180
v 0.30987923 -5.73392721 1.03971577
v 0.10805962 -5.12205376 0.97268051
v -0.37701192 -4.73394560 0.40055198
v 0.09984704 -4.95719409 0.95680080
v 0.49974003 -5.33455328 0.84231525
v -0.36234378 -4.73394560 0.40972768
v 0.16900316 -4.95890106 1.01293120
v 0.13430268 -4.92459513 0.98779644
v 0.37143874 -4.91731558 1.02011618
v 0.28364941 -5.17108156 1.04085495
v 0.17187446 -4.91377790 1.00152309
v 0.22649601 -4.91343518 1.02346602
v -0.27764311 -4.73394560 0.40546731
v 0.24678432 -4.93121526 1.03302609
vn -0.02718047 -0.16164816 -0.98647407
vn -0.00778951 -0.90019407 -0.43541929
vn -0.03134232 0.58999648 -0.80679726
vn -0.00221040 -0.99407676 -0.10865777
vn 0.01334184 -0.90124069 -0.43311339
vn -0.01409134 0.92427499 -0.38146714
vn 0.03353308 0.91047931 -0.41219287
vn 0.30206306 0.43170714 -0.84993344
vn 0.05900220 -0.99163660 -0.11478499
vn 0.00531956 -0.99987047 -0.01519046
vn 0.01777863 0.99574330 -0.09043893
vn 0.04519018 -0.99884592 -0.01626902
vn -0.02170074 0.99594471 -0.08731105
vn 0.05917140 0.99485068 -0.08228524
vn 0.54197845 -0.72112664 -0.43155037
vn -0.04276971 0.99907598 -0.00423452
vn 0.06964489 0.99643403 -0.04763195
vn 0.13485493 -0.98901005 -0.06060748
vn 0.32230324 0.93275116 -0.16154223
vn 0.10019481 0.99495735 0.00456856
vn 0.10813427 0.99378197 -0.02654018
vn 0.29296772 0.94766995 -0.12685256
vn 0.91032466 -0.00527862 -0.41386127
vn -0.29835207 -0.92810863 -0.22271151
vn -0.10581015 0.99236234 0.06341286
vn 0.00401835 0.99999154 0.00088019
vn -0.03904392 -0.99487810 0.09323704
vn -0.01324055 -0.99978448 0.01598988
vn -0.08450359 -0.99482009 0.05649900
vn 0.70166596 -0.67875808 -0.21668490
vn 0.10135917 -0.99481024 0.00888279
vn -0.06253800 -0.99496497 0.07831796
vn -0.07874487 -0.99235353 0.09504587
vn 0.08759382 -0.99459602 0.05573224
vn 0.99788723 0.06495990 0.00113670
vn -0.20216803 -0.64185817 0.73969330
vn -0.18008303 -0.96464302 0.19244206
vn 0.07353666 -0.99205087 0.10211481
vn -0.34173033 -0.71148405 0.61401207
vn -0.17282834 -0.95878784 0.22551331
vn -0.63179822 0.07672444 0.77132637
vn 0.10280817 0.99135490 0.08152260
vn 0.01373172 -0.99124500 0.13131941
vn -0.40535679 0.66438179 0.62791936
vn -0.08254118 0.99309945 0.08330925
vn -0.10631327 0.98407830 0.14243377
vn 0.92098687 -0.12237782 0.36987410
vn -0.00193292 0.99998558 0.00501120
vn -0.05552485 0.98405432 0.16897956
vn -0.05096742 0.99368309 0.09998117
vn 0.04724095 0.99049706 0.12916603
vn 0.00431195 0.74406412 0.66809430
vn -0.00829117 0.99957836 0.02782714
vn -0.00776194 0.99921872 0.03875167
vn 0.00019015 0.99999801 0.00198703
vn -0.01217707 0.99007153 0.14003600
f 24//24 25//25 16//16
f 16//16 13//13 24//24
f 25//25 13//13 16//16
f 11//11 13//13 26//26
f 24//24 9//9 10//10
f 26//26 42//42 20//20
f 35//35 21//21 20//20
f 42//42 38//38 34//34
f 34//34 38//38 31//31
f 51//51 38//38 42//42
f 52//52 43//43 51//51
f 43//43 38//38 51//51
f 51//51 42//42 26//26
f 26//26 55//55 51//51
f 17//17 22//22 19//19
f 21//21 22//22 17//17
f 26//26 20//20 17//17
f 17//17 20//20 21//21
f 24//24 28//28 29//29
f 29//29 28//28 33//33
f 33//33 37//37 29//29
f 29//29 25//25 24//24
f 29//29 37//37 25//25
f 27//27 28//28 24//24
f 27//27 38//38 43//43
f 31//31 38//38 27//27
f 15//15 17//17 19//19
f 9//9 15//15 18//18
f 42//42 34//34 47//47
f 47//47 34//34 31//31
f 47//47 31//31 35//35
f 35//35 20//20 47//47
f 47//47 20//20 42//42
f 52//52 51//51 56//56
f 4//4 9//9 24//24
f 24//24 2//2 4//4
f 9//9 4//4 5//5
f 5//5 4//4 2//2
f 13//13 11//11 6//6
f 11//11 7//7 6//6
f 6//6 7//7 3//3
f 24//24 13//13 6//6
f 6//6 3//3 24//24
f 33//33 28//28 32//32
f 28//28 27//27 32//32
f 52//52 56//56 36//36
f 36//36 56//56 49//49
f 36//36 43//43 52//52
f 36//36 27//27 43//43
f 17//17 15//15 14//14
f 14//14 11//11 26//26
f 26//26 17//17 14//14
f 30//30 22//22 21//21
f 30//30 18//18 22//22
f 30//30 21//21 35//35
f 35//35 31//31 30//30
f 31//31 18//18 30//30
f 19//19 22//22 23//23
f 22//22 18//18 23//23
f 23//23 15//15 19//19
f 23//23 18//18 15//15
f 12//12 18//18 31//31
f 24//24 10//10 12//12
f 12//12 10//10 9//9
f 9//9 18//18 12//12
f 12//12 27//27 24//24
f 31//31 27//27 12//12
f 53//53 49//49 54//54
f 49//49 56//56 54//54
f 54//54 56//56 51//51
f 54//54 51//51 55//55
f 25//25 37//37 45//45
f 37//37 41//41 45//45
f 45//45 13//13 25//25
f 26//26 13//13 45//45
f 1//1 5//5 2//2
f 24//24 3//3 1//1
f 1//1 2//2 24//24
f 44//44 36//36 49//49
f 44//44 45//45 41//41
f 44//44 41//41 37//37
f 8//8 14//14 15//15
f 8//8 15//15 9//9
f 8//8 7//7 11//11
f 11//11 14//14 8//8
f 9//9 5//5 8//8
f 3//3 7//7 8//8
f 8//8 1//1 3//3
f 5//5 1//1 8//8
f 48//48 55//55 26//26
f 26//26 45//45 48//48
f 48//48 54//54 55//55
f 53//53 54//54 48//48
f 48//48 45//45 53//53
f 40//40 32//32 27//27
f 40//40 44//44 37//37
f 40//40 37//37 33//33
f 33//33 32//32 40//40
f 45//45 44//44 46//46
f 39//39 40//40 27//27
f 44//44 40//40 39//39
f 27//27 36//36 39//39
f 36//36 44//44 39//39
f 53//53 45//45 50//50
f 45//45 46//46 50//50
f 50//50 49//49 53//53
f 50//50 44//44 49//49
f 50//50 46//46 44//44

