# https://github.com/mikedh/trimesh
v -0.05581184 2.44916039 -0.24557950
v -0.00446808 2.18299845 -0.22759914
v 0.10268180 2.55126628 -0.22660823
v 0.07551465 2.18385945 -0.22166545
v 0.05664802 2.17980355 -0.22076021
v -0.05757828 2.17989835 -0.22076021
v -0.07761966 2.18277579 -0.22090294
v -0.13111205 2.55698872 -0.19726252
v -0.02904625 2.61020531 -0.23009106
v -0.02904625 2.67855390 -0.20039310
v 0.05626891 2.68509792 -0.19632345
v 0.15152557 2.64174900 -0.16253366
v 0.19631244 2.58259568 -0.14991386
v 0.15837623 2.41369129 -0.18481324
v 0.14867724 2.18975726 -0.17827190
v 0.65292303 1.71681551 0.30478929
v 0.63097157 1.71681551 0.29543406
v -0.17553683 2.31797015 -0.16618804
v 0.59929049 1.71685948 0.30381356
v -0.16620554 2.68516376 -0.12591297
v 0.29470131 2.67663440 -0.00188684
v 0.35178988 2.61672251 0.01711598
v 0.19523216 2.27545369 -0.14884187
v 0.19071410 2.18283704 -0.14435918
v 0.67413791 1.71681551 0.32145330
v -0.15915711 2.18660406 -0.16832975
v -0.19532224 2.18256321 -0.11622335
v 0.72398758 1.68516379 0.36763689
v 0.31535139 1.71681551 0.58573852
v 0.30994944 1.71681551 0.59421670
v -0.21423227 2.52230856 -0.11348435
v 0.51763972 2.63738254 0.21723333
v 0.53668033 2.57227854 0.18793172
v 0.54134861 2.45746389 0.18745911
v 0.20076366 2.45727531 -0.15179169
v -0.24301182 2.36645879 -0.01133951
v -0.23175560 2.18352736 -0.03816191
v 0.30228852 1.71681551 0.61653282
v -0.23628405 2.59970656 -0.03024487
v -0.20035925 2.68512469 0.07323996
v 0.45937790 2.68498195 0.19971083
v 0.59898965 2.35874464 0.26725874
v 0.72587370 1.78214238 0.37389374
v -0.23034185 2.18018284 0.00756586
v -0.22926158 2.18369028 0.04693578
v 0.18268054 2.68515783 0.45371040
v 0.43489984 2.57965412 0.32947013
v 0.23756358 2.64336055 0.47064972
v 0.75698815 1.71681413 0.45097696
v 0.31977585 1.71680571 0.66403661
v -0.17625522 2.65655490 0.13522733
v -0.20072732 2.18836813 0.11546358
v -0.16819812 2.57789360 0.18238180
v 0.21654170 2.61629562 0.52553291
v 0.45090873 1.71682610 0.75442048
v -0.23772169 2.46627893 0.08888489
v -0.15287427 2.35607216 0.19919191
v 0.40869524 1.71687237 0.75425195
v 0.35395393 1.71681374 0.70230399
v 0.18712464 2.56218067 0.53638993
vn -0.20043005 0.46650612 -0.86151020
vn 0.00410262 -0.98171466 -0.19031421
vn 0.17571400 0.89009005 -0.42055236
vn 0.06656487 -0.97072760 -0.23077490
vn 0.00463202 -0.99840886 -0.05619866
vn -0.00544808 -0.99888047 -0.04699072
vn -0.07929153 -0.97968724 -0.18418948
vn -0.19966275 0.93625517 -0.28906927
vn -0.02264943 0.97805323 -0.20712046
vn -0.01695547 0.99810566 -0.05914057
vn 0.01739711 0.99749796 -0.06852118
vn 0.06133458 0.99482416 -0.08101211
vn 0.19722377 0.95610964 -0.21669595
vn 0.51931756 -0.47800628 -0.70839203
vn 0.16647736 -0.95405273 -0.24913586
vn 0.07889968 -0.99056193 -0.11207987
vn 0.01152434 -0.99902997 -0.04250068
vn -0.62541056 -0.52126159 -0.58064446
vn -0.00917640 -0.99980104 -0.01771090
vn -0.07767310 0.99496389 -0.06335421
vn 0.03822976 0.99854454 -0.03804322
vn 0.09514270 0.99129094 -0.09105017
vn 0.42947912 -0.75127464 -0.50113281
vn 0.24023028 -0.92544495 -0.29298644
vn 0.20862768 -0.94549654 -0.25002155
vn -0.12220871 -0.98279546 -0.13848508
vn -0.16505983 -0.98232100 -0.08832165
vn 0.19637297 -0.97191719 -0.12967124
vn -0.01283479 -0.99987223 -0.00952832
vn -0.01532306 -0.99986150 -0.00649428
vn -0.49182454 0.82975066 -0.26386069
vn 0.07905807 0.99680613 0.01128516
vn 0.20618964 0.96881457 -0.13741965
vn 0.66719064 0.41688562 -0.61730303
vn 0.66763466 0.06271665 -0.74184270
vn -0.94145859 -0.33037493 -0.06714257
vn -0.21413097 -0.97541863 -0.05202324
vn -0.03295937 -0.99942152 0.00838533
vn -0.27695583 0.95992136 -0.04297031
vn -0.09631111 0.99490236 0.02989099
vn 0.02827216 0.99957812 -0.00665265
vn 0.18380740 0.98286773 -0.01363328
vn 0.46747560 0.85666505 -0.21815490
vn -0.18032661 -0.98359778 0.00421056
vn -0.20662595 -0.97772281 0.03692998
vn -0.01873826 0.99914465 0.03686260
vn 0.08274265 0.99315980 0.08238488
vn 0.02741072 0.99916462 0.03031028
vn 0.68781471 -0.67330624 0.27123722
vn -0.11591381 -0.98838953 0.09823504
vn -0.10515464 0.99230397 0.06538600
vn -0.20342880 -0.97203242 0.11734438
vn -0.27745003 0.93269731 0.23042831
vn 0.00959850 0.99579100 0.09114906
vn 0.29782129 -0.72724848 0.61839481
vn -0.72393029 0.63935618 0.25913050
vn -0.53819357 -0.70570535 0.46079023
vn -0.10683528 -0.85387965 0.50938764
vn -0.14910628 -0.97703284 0.15223055
vn -0.17027186 0.95735905 0.23339052
f 47//47 55//55 49//49
f 49//49 32//32 47//47
f 42//42 32//32 49//49
f 20//20 11//11 10//10
f 46//46 11//11 20//20
f 20//20 40//40 46//46
f 53//53 57//57 60//60
f 26//26 29//29 27//27
f 39//39 40//40 20//20
f 20//20 31//31 39//39
f 39//39 31//31 36//36
f 19//19 29//29 26//26
f 7//7 19//19 26//26
f 17//17 19//19 7//7
f 32//32 42//42 33//33
f 35//35 33//33 34//34
f 54//54 46//46 60//60
f 55//55 47//47 54//54
f 54//54 47//47 32//32
f 11//11 46//46 41//41
f 60//60 46//46 51//51
f 51//51 53//53 60//60
f 51//51 46//46 40//40
f 57//57 53//53 56//56
f 36//36 45//45 56//56
f 56//56 39//39 36//36
f 40//40 39//39 56//56
f 56//56 51//51 40//40
f 53//53 51//51 56//56
f 36//36 31//31 37//37
f 31//31 27//27 37//37
f 55//55 54//54 58//58
f 58//58 54//54 60//60
f 52//52 50//50 57//57
f 45//45 50//50 52//52
f 57//57 56//56 52//52
f 52//52 56//56 45//45
f 38//38 50//50 45//45
f 16//16 17//17 4//4
f 4//4 17//17 5//5
f 9//9 10//10 11//11
f 20//20 10//10 9//9
f 2//2 1//1 4//4
f 7//7 1//1 2//2
f 4//4 5//5 2//2
f 2//2 5//5 17//17
f 26//26 27//27 18//18
f 18//18 27//27 31//31
f 18//18 7//7 26//26
f 18//18 1//1 7//7
f 34//34 33//33 43//43
f 43//43 42//42 49//49
f 43//43 33//33 42//42
f 12//12 22//22 13//13
f 33//33 35//35 13//13
f 13//13 22//22 33//33
f 23//23 14//14 35//35
f 21//21 12//12 11//11
f 11//11 41//41 21//21
f 21//21 22//22 12//12
f 21//21 41//41 32//32
f 32//32 33//33 21//21
f 33//33 22//22 21//21
f 46//46 54//54 48//48
f 48//48 41//41 46//46
f 48//48 54//54 32//32
f 32//32 41//41 48//48
f 57//57 50//50 59//59
f 60//60 57//57 59//59
f 59//59 58//58 60//60
f 30//30 38//38 37//37
f 30//30 27//27 29//29
f 30//30 37//37 27//27
f 44//44 38//38 45//45
f 37//37 38//38 44//44
f 44//44 45//45 36//36
f 36//36 37//37 44//44
f 3//3 9//9 11//11
f 11//11 12//12 3//3
f 12//12 13//13 3//3
f 4//4 1//1 3//3
f 1//1 9//9 3//3
f 35//35 14//14 3//3
f 3//3 13//13 35//35
f 20//20 9//9 8//8
f 8//8 9//9 1//1
f 8//8 31//31 20//20
f 8//8 18//18 31//31
f 1//1 18//18 8//8
f 17//17 7//7 6//6
f 6//6 2//2 17//17
f 7//7 2//2 6//6
f 34//34 43//43 28//28
f 28//28 35//35 34//34
f 28//28 43//43 49//49
f 28//28 23//23 35//35
f 28//28 16//16 25//25
f 49//49 55//55 28//28
f 17//17 16//16 28//28
f 28//28 59//59 50//50
f 55//55 58//58 28//28
f 58//58 59//59 28//28
f 29//29 19//19 28//28
f 28//28 19//19 17//17
f 28//28 30//30 29//29
f 50//50 38//38 28//28
f 38//38 30//30 28//28
f 14//14 23//23 15//15
f 4//4 3//3 15//15
f 15//15 3//3 14//14
f 15//15 16//16 4//4
f 24//24 15//15 23//23
f 24//24 28//28 25//25
f 23//23 28//28 24//24
f 25//25 16//16 24//24
f 16//16 15//15 24//24

