# https://github.com/mikedh/trimesh
v 4.64855185 0.01283233 0.49999999
v 4.64855185 -0.01281371 0.49999999
v 4.97333645 0.01283233 0.49980419
v 4.64855185 0.04153730 0.49087215
v 4.97333645 -0.01281371 0.49980419
v 5.09213422 0.01595478 0.48044123
v 5.08384934 0.06432019 0.47239622
v 4.97333645 0.05144822 0.48761745
v 4.97333645 -0.05147854 0.48761745
v 5.08384934 -0.06430156 0.47239622
v 5.08952676 -0.03865552 0.47670317
v 5.09187601 -0.01281371 0.48061861
v 5.56016115 0.44998969 0.15485512
v 5.60741831 0.44998969 0.12798819
v 5.06564266 0.08340789 0.46730615
v 4.64855185 0.06975284 0.48017813
v 4.97333645 0.08654023 0.47014484
v 4.64855185 -0.06361636 0.48211137
v 4.97333645 -0.08652160 0.47014484
v 5.06564266 -0.08348715 0.46730615
v 5.56016115 -0.55001017 0.15485512
v 5.60734205 -0.55001017 0.12813233
v 5.64855187 0.44998969 0.07684025
v 4.64855185 0.44998969 0.18715740
v 4.64855185 0.36933189 0.25616678
v 4.64855185 0.08654023 0.47014484
v 4.64855185 -0.08652160 0.47014484
v 4.97333645 -0.55001017 0.17002739
v 5.64855187 -0.55001017 0.07684025
v 5.64855187 0.44998969 -0.07684025
v 4.64855185 0.44998969 -0.18705950
v 4.64855185 -0.55001017 0.17002739
v 5.64855187 -0.55001017 -0.07684025
v 5.56016115 0.44998969 -0.15485512
v 4.64855185 0.37354098 -0.25176192
v 5.60731527 -0.55000450 -0.12817838
v 5.09187601 0.01283233 -0.48061861
v 5.60734196 0.44998983 -0.12803450
v 5.08952676 0.03857626 -0.47670317
v 5.08384934 0.06432019 -0.47239622
v 5.06564266 0.08340789 -0.46730615
v 4.97333645 0.08654023 -0.47014484
v 4.64855185 0.08654023 -0.47014484
v 4.64855185 -0.55001017 -0.17013207
v 4.64855185 -0.08652160 -0.47014484
v 5.56016115 -0.55001017 -0.15485512
v 5.09187601 -0.01281371 -0.48061861
v 4.97333645 0.01283233 -0.49980419
v 4.97333645 0.05144822 -0.48761745
v 4.97333645 -0.08652160 -0.47014484
v 4.97333645 -0.55001017 -0.17002739
v 5.06564266 -0.08348715 -0.46730615
v 5.08384934 -0.06430156 -0.47239622
v 5.08952676 -0.03865552 -0.47670317
v 4.97333645 -0.01281371 -0.49980419
v 4.64855185 0.01283233 -0.49999999
v 4.64855185 0.06361052 -0.48211137
v 4.97333645 -0.05147854 -0.48761745
v 4.64855185 -0.01281371 -0.49999999
v 4.64855185 -0.06243562 -0.48257633
vn -0.92316755 0.01528304 0.38409387
vn -0.92299009 -0.01635222 0.38447613
vn 0.42202573 0.03028612 0.90607783
vn -0.92979042 0.03198627 0.36669695
vn 0.42234535 -0.03026969 0.90592944
vn 0.90489999 0.00878649 0.42553355
vn 0.83996430 0.04261159 0.54096602
vn 0.28014145 0.09067761 0.95566644
vn 0.27457856 -0.09137557 0.95721321
vn 0.81847161 -0.04461388 0.57281221
vn 0.87399428 -0.02408014 0.48533921
vn 0.90589089 -0.00656416 0.42346028
vn 0.85107990 0.27146545 0.44941019
vn 0.96292819 0.19767291 0.18356122
vn 0.65122096 0.10679522 0.75133617
vn -0.92800597 0.04569712 0.36975221
vn 0.17148163 0.15772212 0.97248022
vn -0.92889532 -0.04115058 0.36804906
vn 0.14848800 -0.14078690 0.97884134
vn 0.59428783 -0.09996705 0.79801539
vn 0.83542617 -0.27196149 0.47759822
vn 0.96274712 -0.19744883 0.18474833
vn 0.98163057 0.18087301 0.06071558
vn -0.93157743 0.21289520 0.29468478
vn -0.92424944 0.07722240 0.37389794
vn -0.93164740 0.06115976 0.35817957
vn -0.93097693 -0.05330182 0.36116598
vn 0.06807403 -0.55999957 0.82569147
vn 0.98163207 -0.18088322 0.06066086
vn 0.98162946 0.18086135 -0.06076827
vn -0.93132712 0.21269533 -0.29561882
vn -0.93399606 -0.20329873 0.29380432
vn 0.98163220 -0.18088628 -0.06064955
vn 0.85077560 0.27152438 -0.44995043
vn -0.92471306 0.07687422 -0.37282183
vn 0.96280635 -0.19708913 -0.18482372
vn 0.90596393 0.00686424 -0.42329923
vn 0.96290422 0.19769390 -0.18366431
vn 0.88210306 0.02360672 -0.47046457
vn 0.83482458 0.04423039 -0.54873636
vn 0.65122096 0.10679522 -0.75133617
vn 0.16615178 0.15741195 -0.97345522
vn -0.92973507 0.05868560 -0.36352263
vn -0.93392020 -0.20333924 -0.29401736
vn -0.93082593 -0.05306162 -0.36159031
vn 0.83525981 -0.27208860 -0.47781675
vn 0.90590640 -0.00664591 -0.42342583
vn 0.42235122 0.03031032 -0.90592534
vn 0.27433193 0.09141172 -0.95728047
vn 0.14804777 -0.14070853 -0.97891929
vn 0.06890920 -0.56006733 -0.82557622
vn 0.59428783 -0.09996705 -0.79801539
vn 0.81847161 -0.04461388 -0.57281221
vn 0.87399428 -0.02408014 -0.48533921
vn 0.42234535 -0.03026969 -0.90592944
vn -0.92298400 0.01636527 -0.38449021
vn -0.92890092 0.04112692 -0.36803759
vn 0.27427328 -0.09145718 -0.95729293
vn -0.92299527 -0.01632101 -0.38446504
vn -0.92896604 -0.04078352 -0.36791141
f 32//32 45//45 44//44
f 44//44 51//51 46//46
f 14//14 22//22 23//23
f 14//14 6//6 22//22
f 44//44 22//22 21//21
f 44//44 46//46 33//33
f 28//28 32//32 44//44
f 44//44 21//21 28//28
f 28//28 21//21 19//19
f 23//23 22//22 29//29
f 29//29 22//22 44//44
f 44//44 33//33 29//29
f 26//26 16//16 17//17
f 17//17 16//16 8//8
f 19//19 21//21 20//20
f 21//21 10//10 20//20
f 38//38 31//31 24//24
f 23//23 30//30 38//38
f 38//38 34//34 31//31
f 38//38 14//14 23//23
f 58//58 55//55 53//53
f 58//58 59//59 55//55
f 19//19 20//20 9//9
f 9//9 20//20 10//10
f 1//1 8//8 4//4
f 8//8 16//16 4//4
f 26//26 17//17 25//25
f 31//31 34//34 35//35
f 34//34 42//42 35//35
f 42//42 43//43 35//35
f 36//36 33//33 46//46
f 46//46 47//47 36//36
f 30//30 33//33 36//36
f 36//36 38//38 30//30
f 52//52 53//53 46//46
f 52//52 58//58 53//53
f 59//59 58//58 60//60
f 53//53 55//55 54//54
f 55//55 47//47 54//54
f 46//46 53//53 54//54
f 54//54 47//47 46//46
f 18//18 9//9 2//2
f 18//18 27//27 19//19
f 19//19 9//9 18//18
f 5//5 9//9 10//10
f 2//2 9//9 5//5
f 24//24 25//25 13//13
f 13//13 38//38 24//24
f 14//14 38//38 13//13
f 13//13 25//25 17//17
f 6//6 14//14 13//13
f 13//13 7//7 6//6
f 57//57 43//43 42//42
f 58//58 52//52 50//50
f 45//45 60//60 50//50
f 50//50 60//60 58//58
f 44//44 45//45 50//50
f 50//50 51//51 44//44
f 50//50 46//46 51//51
f 50//50 52//52 46//46
f 22//22 6//6 12//12
f 12//12 21//21 22//22
f 6//6 7//7 3//3
f 3//3 12//12 6//6
f 5//5 12//12 3//3
f 3//3 7//7 8//8
f 3//3 8//8 1//1
f 15//15 13//13 17//17
f 7//7 13//13 15//15
f 15//15 17//17 8//8
f 8//8 7//7 15//15
f 49//49 48//48 56//56
f 56//56 57//57 49//49
f 49//49 57//57 42//42
f 49//49 40//40 48//48
f 34//34 38//38 37//37
f 38//38 36//36 37//37
f 37//37 36//36 47//47
f 11//11 5//5 10//10
f 11//11 12//12 5//5
f 11//11 10//10 21//21
f 21//21 12//12 11//11
f 41//41 49//49 42//42
f 40//40 49//49 41//41
f 41//41 42//42 34//34
f 34//34 40//40 41//41
f 39//39 37//37 48//48
f 48//48 40//40 39//39
f 39//39 40//40 34//34
f 34//34 37//37 39//39
f 28//28 27//27 32//32
f 19//19 27//27 28//28
f 29//29 30//30 23//23
f 29//29 33//33 30//30
f 48//48 59//59 56//56
f 55//55 59//59 48//48
f 57//57 2//2 1//1
f 57//57 25//25 24//24
f 56//56 59//59 57//57
f 45//45 32//32 57//57
f 1//1 4//4 57//57
f 24//24 31//31 57//57
f 32//32 27//27 57//57
f 57//57 60//60 45//45
f 57//57 16//16 26//26
f 31//31 35//35 57//57
f 57//57 4//4 16//16
f 26//26 25//25 57//57
f 27//27 18//18 57//57
f 57//57 35//35 43//43
f 59//59 60//60 57//57
f 57//57 18//18 2//2
f 1//1 2//2 3//3
f 2//2 5//5 3//3
f 55//55 48//48 37//37
f 37//37 47//47 55//55

